<svg width="527" height="264" viewBox="0 0 527 264" fill="none" xmlns="http://www.w3.org/2000/svg">
<path d="M438.615 19.3813L422.668 63.6023L417.82 55.5943L417.819 55.5942L417.769 55.5117L416.994 54.2314L416.92 54.2759C412.476 48.4676 404.275 46.8114 397.872 50.6777C391.469 54.5445 389.127 62.5683 392.213 69.1979L392.139 69.2429L392.915 70.5246L410.167 99.0174C407.881 110.309 414.151 121.868 425.311 125.892L461.141 138.813C473.411 143.237 486.944 136.877 491.368 124.608L494.013 117.274L518.192 68.2144L518.855 66.8689L518.612 66.7491C519.879 61.5943 517.45 56.074 512.492 53.6307C507.535 51.1874 501.677 52.6233 498.361 56.768L498.118 56.6482L497.455 57.9937L497.025 58.8659L497.024 58.8674L497.014 58.8876L497.012 58.8908L497.002 58.9109L497.002 58.9126L492.311 68.4308C491.522 64.0867 488.521 60.273 484.081 58.6719C479.478 57.0118 474.548 58.1706 471.15 61.2534C470.502 56.7115 467.447 52.6733 462.843 51.0133C459.145 49.6796 455.236 50.1654 452.08 52.0066L460.941 27.4323L461.45 26.0213L461.31 25.9708C462.38 20.341 459.235 14.6105 453.673 12.6047C448.111 10.599 442.033 13.0035 439.264 18.0207L439.124 17.9702L438.615 19.3813Z" fill="#FFCF46" stroke="white" stroke-width="3"/>
<path fill-rule="evenodd" clip-rule="evenodd" d="M470.034 64.1124C470.038 64.1014 470.042 64.0905 470.046 64.0795C471.812 59.1838 468.489 53.5007 462.624 51.3859C456.759 49.271 450.574 51.5253 448.808 56.4209C448.808 56.4209 448.808 56.4209 448.808 56.4209L448.808 56.4209L441.551 76.5452L441.551 76.5453C439.786 81.4409 443.109 87.124 448.974 89.2388C454.839 91.3537 461.024 89.0994 462.789 84.2038C462.794 84.1919 462.798 84.18 462.802 84.1681L470.034 64.1124Z" fill="#FFCF46"/>
<path d="M470.034 64.1124L468.626 63.5973L468.623 63.6035L470.034 64.1124ZM448.808 56.4209L448.299 57.832L449.71 58.3408L450.219 56.9297L448.808 56.4209ZM448.808 56.4209L449.317 55.0098L447.906 54.501L447.397 55.912L448.808 56.4209ZM441.551 76.5452L440.14 76.0364L439.631 77.4475L441.042 77.9563L441.551 76.5452ZM441.551 76.5453L442.962 77.0541L443.471 75.6431L442.06 75.1342L441.551 76.5453ZM462.802 84.1681L461.391 83.6592L461.389 83.6658L462.802 84.1681ZM471.443 64.6274C471.448 64.6143 471.453 64.6013 471.457 64.5883L468.635 63.5706C468.632 63.5796 468.629 63.5885 468.626 63.5973L471.443 64.6274ZM471.457 64.5883C473.586 58.6854 469.527 52.2808 463.133 49.9748L462.115 52.7969C467.45 54.7207 470.037 59.6823 468.635 63.5706L471.457 64.5883ZM463.133 49.9748C456.738 47.6689 449.526 50.0092 447.397 55.912L450.219 56.9297C451.621 53.0413 456.78 50.8732 462.115 52.7969L463.133 49.9748ZM447.397 55.912C447.397 55.912 447.397 55.9121 447.397 55.9121C447.397 55.9121 447.397 55.9121 447.397 55.9121L450.219 56.9297C450.219 56.9297 450.219 56.9297 450.219 56.9297C450.219 56.9297 450.219 56.9297 450.219 56.9297L447.397 55.912ZM448.299 57.8319L448.299 57.832L449.317 55.0098L449.317 55.0098L448.299 57.8319ZM442.962 77.0541L450.219 56.9297L447.397 55.912L440.14 76.0364L442.962 77.0541ZM442.06 75.1342L442.06 75.1342L441.042 77.9563L441.042 77.9563L442.06 75.1342ZM440.14 76.0364C438.012 81.9393 442.07 88.3439 448.465 90.6499L449.483 87.8278C444.148 85.904 441.56 80.9425 442.962 77.0541L440.14 76.0364ZM448.465 90.6499C454.86 92.9558 462.072 90.6155 464.2 84.7127L461.378 83.695C459.976 87.5834 454.817 89.7515 449.483 87.8278L448.465 90.6499ZM464.2 84.7127C464.206 84.6985 464.211 84.6844 464.216 84.6703L461.389 83.6658C461.385 83.6756 461.382 83.6853 461.378 83.695L464.2 84.7127ZM468.623 63.6035L461.391 83.6592L464.213 84.6769L471.445 64.6212L468.623 63.6035Z" fill="white"/>
<path fill-rule="evenodd" clip-rule="evenodd" d="M491.284 71.738C493.05 66.8424 489.726 61.1593 483.862 59.0444C477.997 56.9296 471.812 59.1838 470.046 64.0795C470.043 64.0893 470.039 64.0991 470.036 64.109L462.795 84.1866C462.793 84.1924 462.791 84.1981 462.789 84.2038C461.024 89.0994 464.347 94.7826 470.212 96.8974C476.077 99.0123 482.262 96.758 484.027 91.8624C484.027 91.8624 484.027 91.8624 484.027 91.8624L484.027 91.8624L491.284 71.738L491.284 71.738Z" fill="#FFCF46"/>
<path d="M491.284 71.738L489.873 71.2292L489.364 72.6402L490.775 73.1491L491.284 71.738ZM470.036 64.109L471.447 64.6178L471.449 64.6123L470.036 64.109ZM462.795 84.1866L464.205 84.6987L464.207 84.6955L462.795 84.1866ZM484.027 91.8624L484.536 90.4513L483.125 89.9425L482.616 91.3535L484.027 91.8624ZM484.027 91.8624L483.519 93.2734L484.93 93.7823L485.438 92.3712L484.027 91.8624ZM491.284 71.738L492.695 72.2469L493.204 70.8358L491.793 70.327L491.284 71.738ZM492.695 72.2468C494.824 66.344 490.765 59.9393 484.371 57.6334L483.353 60.4555C488.688 62.3793 491.275 67.3408 489.873 71.2292L492.695 72.2468ZM484.371 57.6334C477.976 55.3274 470.764 57.6677 468.635 63.5706L471.457 64.5883C472.859 60.6999 478.018 58.5317 483.353 60.4555L484.371 57.6334ZM468.635 63.5706C468.631 63.5823 468.627 63.594 468.623 63.6056L471.449 64.6123C471.451 64.6043 471.454 64.5963 471.457 64.5883L468.635 63.5706ZM464.207 84.6955L471.447 64.6178L468.625 63.6001L461.384 83.6778L464.207 84.6955ZM461.386 83.6746C461.383 83.6814 461.381 83.6882 461.378 83.695L464.2 84.7127C464.202 84.708 464.204 84.7033 464.205 84.6987L461.386 83.6746ZM461.378 83.695C459.25 89.5979 463.308 96.0025 469.703 98.3085L470.721 95.4864C465.386 93.5626 462.798 88.601 464.2 84.7127L461.378 83.695ZM469.703 98.3085C476.098 100.614 483.31 98.2741 485.438 92.3712L482.616 91.3536C481.214 95.2419 476.055 97.4101 470.721 95.4864L469.703 98.3085ZM485.438 92.3712C485.438 92.3712 485.438 92.3712 485.438 92.3712C485.438 92.3712 485.438 92.3712 485.438 92.3712C485.438 92.3712 485.438 92.3712 485.438 92.3712C485.438 92.3712 485.438 92.3712 485.438 92.3712C485.438 92.3712 485.438 92.3712 485.438 92.3712C485.438 92.3712 485.438 92.3712 485.438 92.3712C485.438 92.3712 485.438 92.3712 485.438 92.3712C485.438 92.3712 485.438 92.3712 485.438 92.3712C485.438 92.3712 485.438 92.3712 485.438 92.3712C485.438 92.3712 485.438 92.3712 485.438 92.3712C485.438 92.3712 485.438 92.3712 485.438 92.3712C485.438 92.3712 485.438 92.3712 485.438 92.3712C485.438 92.3712 485.438 92.3712 485.438 92.3712C485.438 92.3712 485.438 92.3712 485.438 92.3712C485.438 92.3712 485.438 92.3712 485.438 92.3712C485.438 92.3712 485.438 92.3712 485.438 92.3712C485.438 92.3712 485.438 92.3712 485.438 92.3712C485.438 92.3712 485.438 92.3712 485.438 92.3712C485.438 92.3712 485.438 92.3712 485.438 92.3712C485.438 92.3712 485.438 92.3712 485.438 92.3712C485.438 92.3712 485.438 92.3712 485.438 92.3712C485.438 92.3712 485.438 92.3712 485.438 92.3712C485.438 92.3712 485.438 92.3712 485.438 92.3712C485.438 92.3712 485.438 92.3712 485.438 92.3712C485.438 92.3712 485.438 92.3712 485.438 92.3712C485.438 92.3712 485.438 92.3712 485.438 92.3712C485.438 92.3712 485.438 92.3712 485.438 92.3712C485.438 92.3712 485.438 92.3712 485.438 92.3712C485.438 92.3712 485.438 92.3712 485.438 92.3712C485.438 92.3712 485.438 92.3712 485.438 92.3712C485.438 92.3712 485.438 92.3712 485.438 92.3712C485.438 92.3712 485.438 92.3712 485.438 92.3712C485.438 92.3712 485.438 92.3712 485.438 92.3712C485.438 92.3712 485.438 92.3712 485.438 92.3712C485.438 92.3712 485.438 92.3712 485.438 92.3712C485.438 92.3712 485.438 92.3712 485.438 92.3712C485.438 92.3712 485.438 92.3712 485.438 92.3712C485.438 92.3712 485.438 92.3712 485.438 92.3712C485.438 92.3712 485.438 92.3712 485.438 92.3712C485.438 92.3712 485.438 92.3712 485.438 92.3712C485.438 92.3712 485.438 92.3712 485.438 92.3712C485.438 92.3712 485.438 92.3712 485.438 92.3712C485.438 92.3712 485.438 92.3712 485.438 92.3712C485.438 92.3712 485.438 92.3712 485.438 92.3712C485.438 92.3712 485.438 92.3712 485.438 92.3712C485.438 92.3712 485.438 92.3712 485.438 92.3712C485.438 92.3712 485.438 92.3712 485.438 92.3712C485.438 92.3712 485.438 92.3712 485.438 92.3712C485.438 92.3712 485.438 92.3712 485.438 92.3712C485.438 92.3712 485.438 92.3712 485.438 92.3712C485.438 92.3712 485.438 92.3712 485.438 92.3712C485.438 92.3712 485.438 92.3712 485.438 92.3712C485.438 92.3712 485.438 92.3712 485.438 92.3712C485.438 92.3712 485.438 92.3712 485.438 92.3712C485.438 92.3712 485.438 92.3712 485.438 92.3712C485.438 92.3712 485.438 92.3712 485.438 92.3712C485.438 92.3712 485.438 92.3712 485.438 92.3712C485.438 92.3712 485.438 92.3712 485.438 92.3712C485.438 92.3712 485.438 92.3712 485.438 92.3712C485.438 92.3712 485.438 92.3712 485.438 92.3712C485.438 92.3712 485.438 92.3712 485.438 92.3712C485.438 92.3712 485.438 92.3712 485.438 92.3712C485.438 92.3712 485.438 92.3712 485.438 92.3712C485.438 92.3712 485.438 92.3712 485.438 92.3712C485.438 92.3712 485.438 92.3712 485.438 92.3712C485.438 92.3712 485.438 92.3712 485.438 92.3712C485.438 92.3712 485.438 92.3712 485.438 92.3712C485.438 92.3712 485.438 92.3712 485.438 92.3712C485.438 92.3712 485.438 92.3712 485.438 92.3712C485.438 92.3712 485.438 92.3712 485.438 92.3712C485.438 92.3712 485.438 92.3712 485.438 92.3712C485.438 92.3712 485.438 92.3712 485.438 92.3712C485.438 92.3712 485.438 92.3712 485.438 92.3712C485.438 92.3712 485.438 92.3712 485.438 92.3712C485.438 92.3712 485.438 92.3712 485.438 92.3712C485.438 92.3712 485.438 92.3712 485.438 92.3712C485.438 92.3712 485.438 92.3712 485.438 92.3712C485.438 92.3712 485.438 92.3712 485.438 92.3712C485.438 92.3712 485.438 92.3712 485.438 92.3712C485.438 92.3712 485.438 92.3712 485.438 92.3712C485.438 92.3712 485.438 92.3712 485.438 92.3712C485.438 92.3712 485.438 92.3712 485.438 92.3712C485.438 92.3712 485.438 92.3712 485.438 92.3712C485.438 92.3712 485.438 92.3712 485.438 92.3712C485.438 92.3712 485.438 92.3712 485.438 92.3712C485.438 92.3712 485.438 92.3712 485.438 92.3712C485.438 92.3712 485.438 92.3712 485.438 92.3712C485.438 92.3712 485.438 92.3712 485.438 92.3712C485.438 92.3712 485.438 92.3712 485.438 92.3712C485.438 92.3712 485.438 92.3712 485.438 92.3712C485.438 92.3712 485.438 92.3712 485.438 92.3712C485.438 92.3712 485.438 92.3712 485.438 92.3712C485.438 92.3712 485.438 92.3712 485.438 92.3712C485.438 92.3712 485.438 92.3712 485.438 92.3712C485.438 92.3712 485.438 92.3712 485.438 92.3712C485.438 92.3712 485.438 92.3712 485.438 92.3712C485.438 92.3712 485.438 92.3712 485.438 92.3712C485.438 92.3712 485.438 92.3712 485.438 92.3712C485.438 92.3712 485.438 92.3712 485.438 92.3712C485.438 92.3712 485.438 92.3712 485.438 92.3712C485.438 92.3712 485.438 92.3712 485.438 92.3712C485.438 92.3712 485.438 92.3712 485.438 92.3712C485.438 92.3712 485.438 92.3712 485.438 92.3712C485.438 92.3712 485.438 92.3712 485.438 92.3712C485.438 92.3712 485.438 92.3712 485.438 92.3712C485.438 92.3712 485.438 92.3712 485.438 92.3712C485.438 92.3712 485.438 92.3712 485.438 92.3712C485.438 92.3712 485.438 92.3712 485.438 92.3712C485.438 92.3712 485.438 92.3712 485.438 92.3712C485.438 92.3712 485.438 92.3712 485.438 92.3712C485.438 92.3712 485.438 92.3712 485.438 92.3712C485.438 92.3712 485.438 92.3712 485.438 92.3712C485.438 92.3712 485.438 92.3712 485.438 92.3712C485.438 92.3712 485.438 92.3712 485.438 92.3712C485.438 92.3712 485.438 92.3712 485.438 92.3712C485.438 92.3712 485.438 92.3712 485.438 92.3712C485.438 92.3712 485.438 92.3712 485.438 92.3712C485.438 92.3712 485.438 92.3712 485.438 92.3712C485.438 92.3712 485.438 92.3712 485.438 92.3712C485.438 92.3712 485.438 92.3712 485.438 92.3712C485.438 92.3712 485.438 92.3712 485.438 92.3712C485.438 92.3712 485.438 92.3712 485.438 92.3712C485.438 92.3712 485.438 92.3712 485.438 92.3712C485.438 92.3712 485.438 92.3712 485.438 92.3712C485.438 92.3712 485.438 92.3712 485.438 92.3712C485.438 92.3712 485.438 92.3712 485.438 92.3712C485.438 92.3712 485.438 92.3712 485.438 92.3712C485.438 92.3712 485.438 92.3712 485.438 92.3712C485.438 92.3712 485.438 92.3712 485.438 92.3712C485.438 92.3712 485.438 92.3712 485.438 92.3712C485.438 92.3712 485.438 92.3712 485.438 92.3712C485.438 92.3712 485.438 92.3712 485.438 92.3712C485.438 92.3712 485.438 92.3712 485.438 92.3712C485.438 92.3712 485.438 92.3712 485.438 92.3712C485.438 92.3712 485.438 92.3712 485.438 92.3712C485.438 92.3712 485.438 92.3712 485.438 92.3712C485.438 92.3712 485.438 92.3712 485.438 92.3712C485.438 92.3712 485.438 92.3712 485.438 92.3712C485.438 92.3712 485.438 92.3712 485.438 92.3712C485.438 92.3712 485.438 92.3712 485.438 92.3712C485.438 92.3712 485.438 92.3712 485.438 92.3712C485.438 92.3712 485.438 92.3712 485.438 92.3712C485.438 92.3712 485.438 92.3712 485.438 92.3712C485.438 92.3712 485.438 92.3712 485.438 92.3712C485.438 92.3712 485.438 92.3712 485.438 92.3712C485.438 92.3712 485.438 92.3712 485.438 92.3712C485.438 92.3712 485.438 92.3712 485.438 92.3712C485.438 92.3712 485.438 92.3712 485.438 92.3712C485.438 92.3712 485.438 92.3712 485.438 92.3712C485.438 92.3712 485.438 92.3712 485.438 92.3712C485.438 92.3712 485.438 92.3712 485.438 92.3712C485.438 92.3712 485.438 92.3712 485.438 92.3712C485.438 92.3712 485.438 92.3712 485.438 92.3712C485.438 92.3712 485.438 92.3712 485.438 92.3712C485.438 92.3712 485.438 92.3712 485.438 92.3712C485.438 92.3712 485.438 92.3712 485.438 92.3712C485.438 92.3712 485.438 92.3712 485.438 92.3712C485.438 92.3712 485.438 92.3712 485.438 92.3712C485.438 92.3712 485.438 92.3712 485.438 92.3712C485.438 92.3712 485.438 92.3712 485.438 92.3712C485.438 92.3712 485.438 92.3712 485.438 92.3712C485.438 92.3712 485.438 92.3712 485.438 92.3712C485.438 92.3712 485.438 92.3712 485.438 92.3712C485.438 92.3712 485.438 92.3712 485.438 92.3712C485.438 92.3712 485.438 92.3712 485.438 92.3712C485.438 92.3712 485.438 92.3712 485.438 92.3712C485.438 92.3712 485.438 92.3712 485.438 92.3712C485.438 92.3712 485.438 92.3712 485.438 92.3712C485.438 92.3712 485.438 92.3712 485.438 92.3712C485.438 92.3712 485.438 92.3712 485.438 92.3712C485.438 92.3712 485.438 92.3712 485.438 92.3712C485.438 92.3712 485.438 92.3712 485.438 92.3712C485.438 92.3712 485.438 92.3712 485.438 92.3712C485.438 92.3712 485.438 92.3712 485.438 92.3712C485.438 92.3712 485.438 92.3712 485.438 92.3712C485.438 92.3712 485.438 92.3712 485.438 92.3712C485.438 92.3712 485.438 92.3712 485.438 92.3712C485.438 92.3712 485.438 92.3712 485.438 92.3712C485.438 92.3712 485.438 92.3712 485.438 92.3712C485.438 92.3712 485.438 92.3712 485.438 92.3712C485.438 92.3712 485.438 92.3712 485.438 92.3712C485.438 92.3712 485.438 92.3712 485.438 92.3712C485.438 92.3712 485.438 92.3712 485.438 92.3712C485.438 92.3712 485.438 92.3712 485.438 92.3712C485.438 92.3712 485.438 92.3712 485.438 92.3712C485.438 92.3712 485.438 92.3712 485.438 92.3712C485.438 92.3712 485.438 92.3712 485.438 92.3712C485.438 92.3712 485.438 92.3712 485.438 92.3712C485.438 92.3712 485.438 92.3712 485.438 92.3712C485.438 92.3712 485.438 92.3712 485.438 92.3712C485.438 92.3712 485.438 92.3712 485.438 92.3712C485.438 92.3712 485.438 92.3712 485.438 92.3712C485.438 92.3712 485.438 92.3712 485.438 92.3712C485.438 92.3712 485.438 92.3712 485.438 92.3712C485.438 92.3712 485.438 92.3712 485.438 92.3712C485.438 92.3712 485.438 92.3712 485.438 92.3712C485.438 92.3712 485.438 92.3712 485.438 92.3712C485.438 92.3712 485.438 92.3712 485.438 92.3712C485.438 92.3712 485.438 92.3712 485.438 92.3712C485.438 92.3712 485.438 92.3712 485.438 92.3712C485.438 92.3712 485.438 92.3712 485.438 92.3712C485.438 92.3712 485.438 92.3712 485.438 92.3712C485.438 92.3712 485.438 92.3712 485.438 92.3712C485.438 92.3712 485.438 92.3712 485.438 92.3712C485.438 92.3712 485.438 92.3712 485.438 92.3712C485.438 92.3712 485.438 92.3712 485.438 92.3712C485.438 92.3712 485.438 92.3712 485.438 92.3712C485.438 92.3712 485.438 92.3712 485.438 92.3712C485.438 92.3712 485.438 92.3712 485.438 92.3712C485.438 92.3712 485.438 92.3712 485.438 92.3712C485.438 92.3712 485.438 92.3712 485.438 92.3712C485.438 92.3712 485.438 92.3712 485.438 92.3712C485.438 92.3712 485.438 92.3712 485.438 92.3712C485.438 92.3712 485.438 92.3712 485.438 92.3712C485.438 92.3712 485.438 92.3712 485.438 92.3712C485.438 92.3712 485.438 92.3712 485.438 92.3712C485.438 92.3712 485.438 92.3712 485.438 92.3712C485.438 92.3712 485.438 92.3712 485.438 92.3712C485.438 92.3712 485.438 92.3712 485.438 92.3712C485.438 92.3712 485.438 92.3712 485.438 92.3712C485.438 92.3712 485.438 92.3712 485.438 92.3712C485.438 92.3712 485.438 92.3712 485.438 92.3712C485.438 92.3712 485.438 92.3712 485.438 92.3712C485.438 92.3712 485.438 92.3712 485.438 92.3712C485.438 92.3712 485.438 92.3712 485.438 92.3712C485.438 92.3712 485.438 92.3712 485.438 92.3712C485.438 92.3712 485.438 92.3712 485.438 92.3712C485.438 92.3712 485.438 92.3712 485.438 92.3712C485.438 92.3712 485.438 92.3712 485.438 92.3712C485.438 92.3712 485.438 92.3712 485.438 92.3712C485.438 92.3712 485.438 92.3712 485.438 92.3712C485.438 92.3712 485.438 92.3712 485.438 92.3712C485.438 92.3712 485.438 92.3712 485.438 92.3712C485.438 92.3712 485.438 92.3712 485.438 92.3712C485.438 92.3712 485.438 92.3712 485.438 92.3712C485.438 92.3712 485.438 92.3712 485.438 92.3712C485.438 92.3712 485.438 92.3712 485.438 92.3712C485.438 92.3712 485.438 92.3712 485.438 92.3712C485.438 92.3712 485.438 92.3712 485.438 92.3712C485.438 92.3712 485.438 92.3712 485.438 92.3712C485.438 92.3712 485.438 92.3712 485.438 92.3712C485.438 92.3712 485.438 92.3712 485.438 92.3712C485.438 92.3712 485.438 92.3712 485.438 92.3712C485.438 92.3712 485.438 92.3712 485.438 92.3712C485.438 92.3712 485.438 92.3712 485.438 92.3712C485.438 92.3712 485.438 92.3712 485.438 92.3712C485.438 92.3712 485.438 92.3712 485.438 92.3712C485.438 92.3712 485.438 92.3712 485.438 92.3712C485.438 92.3712 485.438 92.3712 485.438 92.3712C485.438 92.3712 485.438 92.3712 485.438 92.3712C485.438 92.3712 485.438 92.3712 485.438 92.3712C485.438 92.3712 485.438 92.3712 485.438 92.3712C485.438 92.3712 485.438 92.3712 485.438 92.3712C485.438 92.3712 485.438 92.3712 485.438 92.3712C485.438 92.3712 485.438 92.3712 485.438 92.3712C485.438 92.3712 485.438 92.3712 485.438 92.3712C485.438 92.3712 485.438 92.3712 485.438 92.3712C485.438 92.3712 485.438 92.3712 485.438 92.3712C485.438 92.3712 485.438 92.3712 485.438 92.3712C485.438 92.3712 485.438 92.3712 485.438 92.3712C485.438 92.3712 485.438 92.3712 485.438 92.3712C485.438 92.3712 485.438 92.3712 485.438 92.3712C485.438 92.3712 485.438 92.3712 485.438 92.3712C485.438 92.3712 485.438 92.3712 485.438 92.3712C485.438 92.3712 485.438 92.3712 485.438 92.3712C485.438 92.3712 485.438 92.3712 485.438 92.3712C485.438 92.3712 485.438 92.3712 485.438 92.3712C485.438 92.3712 485.438 92.3712 485.438 92.3712C485.438 92.3712 485.438 92.3712 485.438 92.3712C485.438 92.3712 485.438 92.3712 485.438 92.3712C485.438 92.3712 485.438 92.3712 485.438 92.3712C485.438 92.3712 485.438 92.3712 485.438 92.3712C485.438 92.3712 485.438 92.3712 485.438 92.3712C485.438 92.3712 485.438 92.3712 485.438 92.3712C485.438 92.3712 485.438 92.3712 485.438 92.3712C485.438 92.3712 485.438 92.3712 485.438 92.3712C485.438 92.3712 485.438 92.3712 485.438 92.3712C485.438 92.3712 485.438 92.3712 485.438 92.3712C485.438 92.3712 485.438 92.3712 485.438 92.3712C485.438 92.3712 485.438 92.3712 485.438 92.3712C485.438 92.3712 485.438 92.3712 485.438 92.3712C485.438 92.3712 485.438 92.3712 485.438 92.3712C485.438 92.3712 485.438 92.3712 485.438 92.3712C485.438 92.3712 485.438 92.3712 485.438 92.3712C485.438 92.3712 485.438 92.3712 485.438 92.3712C485.438 92.3712 485.438 92.3712 485.438 92.3712C485.438 92.3712 485.438 92.3712 485.438 92.3712C485.438 92.3712 485.438 92.3712 485.438 92.3712C485.438 92.3712 485.438 92.3712 485.438 92.3712C485.438 92.3712 485.438 92.3712 485.438 92.3712C485.438 92.3712 485.438 92.3712 485.438 92.3712C485.438 92.3712 485.438 92.3712 485.438 92.3712C485.438 92.3712 485.438 92.3712 485.438 92.3712C485.438 92.3712 485.438 92.3712 485.438 92.3712C485.438 92.3712 485.438 92.3712 485.438 92.3712C485.438 92.3712 485.438 92.3712 485.438 92.3712C485.438 92.3712 485.438 92.3712 485.438 92.3712C485.438 92.3712 485.438 92.3712 485.438 92.3712C485.438 92.3712 485.438 92.3712 485.438 92.3712C485.438 92.3712 485.438 92.3712 485.438 92.3712C485.438 92.3712 485.438 92.3712 485.438 92.3712C485.438 92.3712 485.438 92.3712 485.438 92.3712C485.438 92.3712 485.438 92.3712 485.438 92.3712C485.438 92.3712 485.438 92.3712 485.438 92.3712C485.438 92.3712 485.438 92.3712 485.438 92.3712C485.438 92.3712 485.438 92.3712 485.438 92.3712C485.438 92.3712 485.438 92.3712 485.438 92.3712C485.438 92.3712 485.438 92.3712 485.438 92.3712C485.438 92.3712 485.438 92.3712 485.438 92.3712C485.438 92.3712 485.438 92.3712 485.438 92.3712C485.438 92.3712 485.438 92.3712 485.438 92.3712C485.438 92.3712 485.438 92.3712 485.438 92.3712C485.438 92.3712 485.438 92.3712 485.438 92.3712C485.438 92.3712 485.438 92.3712 485.438 92.3712C485.438 92.3712 485.438 92.3712 485.438 92.3712C485.438 92.3712 485.438 92.3712 485.438 92.3712C485.438 92.3712 485.438 92.3712 485.438 92.3712C485.438 92.3712 485.438 92.3712 485.438 92.3712C485.438 92.3712 485.438 92.3712 485.438 92.3712C485.438 92.3712 485.438 92.3712 485.438 92.3712C485.438 92.3712 485.438 92.3712 485.438 92.3712C485.438 92.3712 485.438 92.3712 485.438 92.3712C485.438 92.3712 485.438 92.3712 485.438 92.3712C485.438 92.3712 485.438 92.3712 485.438 92.3712C485.438 92.3712 485.438 92.3712 485.438 92.3712C485.438 92.3712 485.438 92.3712 485.438 92.3712C485.438 92.3712 485.438 92.3712 485.438 92.3712C485.438 92.3712 485.438 92.3712 485.438 92.3712C485.438 92.3712 485.438 92.3712 485.438 92.3712C485.438 92.3712 485.438 92.3712 485.438 92.3712C485.438 92.3712 485.438 92.3712 485.438 92.3712C485.438 92.3712 485.438 92.3712 485.438 92.3712C485.438 92.3712 485.438 92.3712 485.438 92.3712C485.438 92.3712 485.438 92.3712 485.438 92.3712C485.438 92.3712 485.438 92.3712 485.438 92.3712C485.438 92.3712 485.438 92.3712 485.438 92.3712C485.438 92.3712 485.438 92.3712 485.438 92.3712C485.438 92.3712 485.438 92.3712 485.438 92.3712C485.438 92.3712 485.438 92.3712 485.438 92.3712C485.438 92.3712 485.438 92.3712 485.438 92.3712C485.438 92.3712 485.438 92.3712 485.438 92.3712C485.438 92.3712 485.438 92.3712 485.438 92.3712C485.438 92.3712 485.438 92.3712 485.438 92.3712C485.438 92.3712 485.438 92.3712 485.438 92.3712C485.438 92.3712 485.438 92.3712 485.438 92.3712C485.438 92.3712 485.438 92.3712 485.438 92.3712C485.438 92.3712 485.438 92.3712 485.438 92.3712C485.438 92.3712 485.438 92.3712 485.438 92.3712C485.438 92.3712 485.438 92.3712 485.438 92.3712C485.438 92.3712 485.438 92.3712 485.438 92.3712C485.438 92.3712 485.438 92.3712 485.438 92.3712C485.438 92.3712 485.438 92.3712 485.438 92.3712C485.438 92.3712 485.438 92.3712 485.438 92.3712C485.438 92.3712 485.438 92.3712 485.438 92.3712C485.438 92.3712 485.438 92.3712 485.438 92.3712C485.438 92.3712 485.438 92.3712 485.438 92.3712C485.438 92.3712 485.438 92.3712 485.438 92.3712C485.438 92.3712 485.438 92.3712 485.438 92.3712C485.438 92.3712 485.438 92.3712 485.438 92.3712C485.438 92.3712 485.438 92.3712 485.438 92.3712C485.438 92.3712 485.438 92.3712 485.438 92.3712C485.438 92.3712 485.438 92.3712 485.438 92.3712C485.438 92.3712 485.438 92.3712 485.438 92.3712C485.438 92.3712 485.438 92.3712 485.438 92.3712C485.438 92.3712 485.438 92.3712 485.438 92.3712C485.438 92.3712 485.438 92.3712 485.438 92.3712C485.438 92.3712 485.438 92.3712 485.438 92.3712C485.438 92.3712 485.438 92.3712 485.438 92.3712C485.438 92.3712 485.438 92.3712 485.438 92.3712C485.438 92.3712 485.438 92.3712 485.438 92.3712C485.438 92.3712 485.438 92.3712 485.438 92.3712C485.438 92.3712 485.438 92.3712 485.438 92.3712C485.438 92.3712 485.438 92.3712 485.438 92.3712C485.438 92.3712 485.438 92.3712 485.438 92.3712C485.438 92.3712 485.438 92.3712 485.438 92.3712C485.438 92.3712 485.438 92.3712 485.438 92.3712C485.438 92.3712 485.438 92.3712 485.438 92.3712C485.438 92.3712 485.438 92.3712 485.438 92.3712C485.438 92.3712 485.438 92.3712 485.438 92.3712C485.438 92.3712 485.438 92.3712 485.438 92.3712C485.438 92.3712 485.438 92.3712 485.438 92.3712C485.438 92.3712 485.438 92.3712 485.438 92.3712C485.438 92.3712 485.438 92.3712 485.438 92.3712C485.438 92.3712 485.438 92.3712 485.438 92.3712C485.438 92.3712 485.438 92.3712 485.438 92.3712C485.438 92.3712 485.438 92.3712 485.438 92.3712C485.438 92.3712 485.438 92.3712 485.438 92.3712C485.438 92.3712 485.438 92.3712 485.438 92.3712C485.438 92.3712 485.438 92.3712 485.438 92.3712C485.438 92.3712 485.438 92.3712 485.438 92.3712C485.438 92.3712 485.438 92.3712 485.438 92.3712C485.438 92.3712 485.438 92.3712 485.438 92.3712C485.438 92.3712 485.438 92.3712 485.438 92.3712C485.438 92.3712 485.438 92.3712 485.438 92.3712C485.438 92.3712 485.438 92.3712 485.438 92.3712C485.438 92.3712 485.438 92.3712 485.438 92.3712C485.438 92.3712 485.438 92.3712 485.438 92.3712C485.438 92.3712 485.438 92.3712 485.438 92.3712C485.438 92.3712 485.438 92.3712 485.438 92.3712C485.438 92.3712 485.438 92.3712 485.438 92.3712C485.438 92.3712 485.438 92.3712 485.438 92.3712C485.438 92.3712 485.438 92.3712 485.438 92.3712C485.438 92.3712 485.438 92.3712 485.438 92.3712C485.438 92.3712 485.438 92.3712 485.438 92.3712C485.438 92.3712 485.438 92.3712 485.438 92.3712C485.438 92.3712 485.438 92.3712 485.438 92.3712C485.438 92.3712 485.438 92.3712 485.438 92.3712C485.438 92.3712 485.438 92.3712 485.438 92.3712C485.438 92.3712 485.438 92.3712 485.438 92.3712C485.438 92.3712 485.438 92.3712 485.438 92.3712C485.438 92.3712 485.438 92.3712 485.438 92.3712C485.438 92.3712 485.438 92.3712 485.438 92.3712C485.438 92.3712 485.438 92.3712 485.438 92.3712C485.438 92.3712 485.438 92.3712 485.438 92.3712C485.438 92.3712 485.438 92.3712 485.438 92.3712C485.438 92.3712 485.438 92.3712 485.438 92.3712C485.438 92.3712 485.438 92.3712 485.438 92.3712C485.438 92.3712 485.438 92.3712 485.438 92.3712C485.438 92.3712 485.438 92.3712 485.438 92.3712C485.438 92.3712 485.438 92.3712 485.438 92.3712C485.438 92.3712 485.438 92.3712 485.438 92.3712C485.438 92.3712 485.438 92.3712 485.438 92.3712C485.438 92.3712 485.438 92.3712 485.438 92.3712C485.438 92.3712 485.438 92.3712 485.438 92.3712C485.438 92.3712 485.438 92.3712 485.438 92.3712C485.438 92.3712 485.438 92.3712 485.438 92.3712C485.438 92.3712 485.438 92.3712 485.438 92.3712C485.438 92.3712 485.438 92.3712 485.438 92.3712C485.438 92.3712 485.438 92.3712 485.438 92.3712C485.438 92.3712 485.438 92.3712 485.438 92.3712C485.438 92.3712 485.438 92.3712 485.438 92.3712C485.438 92.3712 485.438 92.3712 485.438 92.3712C485.438 92.3712 485.438 92.3712 485.438 92.3712C485.438 92.3712 485.438 92.3712 485.438 92.3712C485.438 92.3712 485.438 92.3712 485.438 92.3712C485.438 92.3712 485.438 92.3712 485.438 92.3712C485.438 92.3712 485.438 92.3712 485.438 92.3712C485.438 92.3712 485.438 92.3712 485.438 92.3712C485.438 92.3712 485.438 92.3712 485.438 92.3712C485.438 92.3712 485.438 92.3712 485.438 92.3712C485.438 92.3712 485.438 92.3712 485.438 92.3712C485.438 92.3712 485.438 92.3712 485.438 92.3712C485.438 92.3712 485.438 92.3712 485.438 92.3712C485.438 92.3712 485.438 92.3712 485.438 92.3712C485.438 92.3712 485.438 92.3712 485.438 92.3712C485.438 92.3712 485.438 92.3712 485.438 92.3712C485.438 92.3712 485.438 92.3712 485.438 92.3712C485.438 92.3712 485.438 92.3712 485.438 92.3712C485.438 92.3712 485.438 92.3712 485.438 92.3712C485.438 92.3712 485.438 92.3712 485.438 92.3712C485.438 92.3712 485.438 92.3712 485.438 92.3712C485.438 92.3712 485.438 92.3712 485.438 92.3712C485.438 92.3712 485.438 92.3712 485.438 92.3712C485.438 92.3712 485.438 92.3712 485.438 92.3712C485.438 92.3712 485.438 92.3712 485.438 92.3712C485.438 92.3712 485.438 92.3712 485.438 92.3712C485.438 92.3712 485.438 92.3712 485.438 92.3712C485.438 92.3712 485.438 92.3712 485.438 92.3712C485.438 92.3712 485.438 92.3712 485.438 92.3712C485.438 92.3712 485.438 92.3712 485.438 92.3712C485.438 92.3712 485.438 92.3712 485.438 92.3712C485.438 92.3712 485.438 92.3712 485.438 92.3712C485.438 92.3712 485.438 92.3712 485.438 92.3712C485.438 92.3712 485.438 92.3712 485.438 92.3712C485.438 92.3712 485.438 92.3712 485.438 92.3712C485.438 92.3712 485.438 92.3712 485.438 92.3712C485.438 92.3712 485.438 92.3712 485.438 92.3712C485.438 92.3712 485.438 92.3712 485.438 92.3712C485.438 92.3712 485.438 92.3712 485.438 92.3712C485.438 92.3712 485.438 92.3712 485.438 92.3712C485.438 92.3712 485.438 92.3712 485.438 92.3712C485.438 92.3712 485.438 92.3712 485.438 92.3712C485.438 92.3712 485.438 92.3712 485.438 92.3712C485.438 92.3712 485.438 92.3712 485.438 92.3712C485.438 92.3712 485.438 92.3712 485.438 92.3712C485.438 92.3712 485.438 92.3712 485.438 92.3712C485.438 92.3712 485.438 92.3712 485.438 92.3712C485.438 92.3712 485.438 92.3712 485.438 92.3712C485.438 92.3712 485.438 92.3712 485.438 92.3712C485.438 92.3712 485.438 92.3712 485.438 92.3712C485.438 92.3712 485.438 92.3712 485.438 92.3712C485.438 92.3712 485.438 92.3712 485.438 92.3712C485.438 92.3712 485.438 92.3712 485.438 92.3712C485.438 92.3712 485.438 92.3712 485.438 92.3712C485.438 92.3712 485.438 92.3712 485.438 92.3712C485.438 92.3712 485.438 92.3712 485.438 92.3712C485.438 92.3712 485.438 92.3712 485.438 92.3712C485.438 92.3712 485.438 92.3712 485.438 92.3712C485.438 92.3712 485.438 92.3712 485.438 92.3712C485.438 92.3712 485.438 92.3712 485.438 92.3712C485.438 92.3712 485.438 92.3712 485.438 92.3712C485.438 92.3712 485.438 92.3712 485.438 92.3712C485.438 92.3712 485.438 92.3712 485.438 92.3712C485.438 92.3712 485.438 92.3712 485.438 92.3712C485.438 92.3712 485.438 92.3712 485.438 92.3712C485.438 92.3712 485.438 92.3712 485.438 92.3712C485.438 92.3712 485.438 92.3712 485.438 92.3712C485.438 92.3712 485.438 92.3712 485.438 92.3712C485.438 92.3712 485.438 92.3712 485.438 92.3712C485.438 92.3712 485.438 92.3712 485.438 92.3712C485.438 92.3712 485.438 92.3712 485.438 92.3712C485.438 92.3712 485.438 92.3712 485.438 92.3712C485.438 92.3712 485.438 92.3712 485.438 92.3712C485.438 92.3712 485.438 92.3712 485.438 92.3712C485.438 92.3712 485.438 92.3712 485.438 92.3712C485.438 92.3712 485.438 92.3712 485.438 92.3712C485.438 92.3712 485.438 92.3712 485.438 92.3712C485.438 92.3712 485.438 92.3712 485.438 92.3712C485.438 92.3712 485.438 92.3712 485.438 92.3712C485.438 92.3712 485.438 92.3712 485.438 92.3712C485.438 92.3712 485.438 92.3712 485.438 92.3712C485.438 92.3712 485.438 92.3712 485.438 92.3712L482.616 91.3535C482.616 91.3535 482.616 91.3535 482.616 91.3535C482.616 91.3535 482.616 91.3535 482.616 91.3535C482.616 91.3535 482.616 91.3535 482.616 91.3535C482.616 91.3535 482.616 91.3535 482.616 91.3535C482.616 91.3535 482.616 91.3535 482.616 91.3535C482.616 91.3535 482.616 91.3535 482.616 91.3535C482.616 91.3535 482.616 91.3535 482.616 91.3535C482.616 91.3535 482.616 91.3535 482.616 91.3535C482.616 91.3535 482.616 91.3535 482.616 91.3535C482.616 91.3535 482.616 91.3535 482.616 91.3535C482.616 91.3535 482.616 91.3535 482.616 91.3535C482.616 91.3535 482.616 91.3535 482.616 91.3535C482.616 91.3535 482.616 91.3535 482.616 91.3535C482.616 91.3535 482.616 91.3535 482.616 91.3535C482.616 91.3535 482.616 91.3535 482.616 91.3535C482.616 91.3535 482.616 91.3535 482.616 91.3535C482.616 91.3535 482.616 91.3535 482.616 91.3535C482.616 91.3535 482.616 91.3535 482.616 91.3535C482.616 91.3535 482.616 91.3535 482.616 91.3535C482.616 91.3535 482.616 91.3535 482.616 91.3535C482.616 91.3535 482.616 91.3535 482.616 91.3535C482.616 91.3535 482.616 91.3535 482.616 91.3535C482.616 91.3535 482.616 91.3535 482.616 91.3535C482.616 91.3535 482.616 91.3535 482.616 91.3535C482.616 91.3535 482.616 91.3535 482.616 91.3535C482.616 91.3535 482.616 91.3535 482.616 91.3535C482.616 91.3535 482.616 91.3535 482.616 91.3535C482.616 91.3535 482.616 91.3535 482.616 91.3535C482.616 91.3535 482.616 91.3535 482.616 91.3535C482.616 91.3535 482.616 91.3535 482.616 91.3535C482.616 91.3535 482.616 91.3535 482.616 91.3535C482.616 91.3535 482.616 91.3535 482.616 91.3535C482.616 91.3535 482.616 91.3535 482.616 91.3535C482.616 91.3535 482.616 91.3535 482.616 91.3535C482.616 91.3535 482.616 91.3535 482.616 91.3535C482.616 91.3535 482.616 91.3535 482.616 91.3535C482.616 91.3535 482.616 91.3535 482.616 91.3535C482.616 91.3535 482.616 91.3535 482.616 91.3535C482.616 91.3535 482.616 91.3535 482.616 91.3535C482.616 91.3535 482.616 91.3535 482.616 91.3535C482.616 91.3535 482.616 91.3535 482.616 91.3535C482.616 91.3535 482.616 91.3535 482.616 91.3535C482.616 91.3535 482.616 91.3535 482.616 91.3535C482.616 91.3535 482.616 91.3535 482.616 91.3535C482.616 91.3535 482.616 91.3535 482.616 91.3535C482.616 91.3535 482.616 91.3535 482.616 91.3535C482.616 91.3535 482.616 91.3535 482.616 91.3535C482.616 91.3535 482.616 91.3535 482.616 91.3535C482.616 91.3535 482.616 91.3536 482.616 91.3536C482.616 91.3536 482.616 91.3536 482.616 91.3536C482.616 91.3536 482.616 91.3536 482.616 91.3536C482.616 91.3536 482.616 91.3536 482.616 91.3536C482.616 91.3536 482.616 91.3536 482.616 91.3536C482.616 91.3536 482.616 91.3536 482.616 91.3536C482.616 91.3536 482.616 91.3536 482.616 91.3536C482.616 91.3536 482.616 91.3536 482.616 91.3536C482.616 91.3536 482.616 91.3536 482.616 91.3536C482.616 91.3536 482.616 91.3536 482.616 91.3536C482.616 91.3536 482.616 91.3536 482.616 91.3536C482.616 91.3536 482.616 91.3536 482.616 91.3536C482.616 91.3536 482.616 91.3536 482.616 91.3536C482.616 91.3536 482.616 91.3536 482.616 91.3536C482.616 91.3536 482.616 91.3536 482.616 91.3536C482.616 91.3536 482.616 91.3536 482.616 91.3536C482.616 91.3536 482.616 91.3536 482.616 91.3536C482.616 91.3536 482.616 91.3536 482.616 91.3536C482.616 91.3536 482.616 91.3536 482.616 91.3536C482.616 91.3536 482.616 91.3536 482.616 91.3536C482.616 91.3536 482.616 91.3536 482.616 91.3536C482.616 91.3536 482.616 91.3536 482.616 91.3536C482.616 91.3536 482.616 91.3536 482.616 91.3536C482.616 91.3536 482.616 91.3536 482.616 91.3536C482.616 91.3536 482.616 91.3536 482.616 91.3536C482.616 91.3536 482.616 91.3536 482.616 91.3536C482.616 91.3536 482.616 91.3536 482.616 91.3536C482.616 91.3536 482.616 91.3536 482.616 91.3536C482.616 91.3536 482.616 91.3536 482.616 91.3536C482.616 91.3536 482.616 91.3536 482.616 91.3536C482.616 91.3536 482.616 91.3536 482.616 91.3536C482.616 91.3536 482.616 91.3536 482.616 91.3536C482.616 91.3536 482.616 91.3536 482.616 91.3536C482.616 91.3536 482.616 91.3536 482.616 91.3536C482.616 91.3536 482.616 91.3536 482.616 91.3536C482.616 91.3536 482.616 91.3536 482.616 91.3536C482.616 91.3536 482.616 91.3536 482.616 91.3536C482.616 91.3536 482.616 91.3536 482.616 91.3536C482.616 91.3536 482.616 91.3536 482.616 91.3536C482.616 91.3536 482.616 91.3536 482.616 91.3536C482.616 91.3536 482.616 91.3536 482.616 91.3536C482.616 91.3536 482.616 91.3536 482.616 91.3536C482.616 91.3536 482.616 91.3536 482.616 91.3536C482.616 91.3536 482.616 91.3536 482.616 91.3536C482.616 91.3536 482.616 91.3536 482.616 91.3536C482.616 91.3536 482.616 91.3536 482.616 91.3536C482.616 91.3536 482.616 91.3536 482.616 91.3536C482.616 91.3536 482.616 91.3536 482.616 91.3536C482.616 91.3536 482.616 91.3536 482.616 91.3536C482.616 91.3536 482.616 91.3536 482.616 91.3536C482.616 91.3536 482.616 91.3536 482.616 91.3536C482.616 91.3536 482.616 91.3536 482.616 91.3536C482.616 91.3536 482.616 91.3536 482.616 91.3536C482.616 91.3536 482.616 91.3536 482.616 91.3536C482.616 91.3536 482.616 91.3536 482.616 91.3536C482.616 91.3536 482.616 91.3536 482.616 91.3536C482.616 91.3536 482.616 91.3536 482.616 91.3536C482.616 91.3536 482.616 91.3536 482.616 91.3536C482.616 91.3536 482.616 91.3536 482.616 91.3536C482.616 91.3536 482.616 91.3536 482.616 91.3536C482.616 91.3536 482.616 91.3536 482.616 91.3536C482.616 91.3536 482.616 91.3536 482.616 91.3536C482.616 91.3536 482.616 91.3536 482.616 91.3536C482.616 91.3536 482.616 91.3536 482.616 91.3536C482.616 91.3536 482.616 91.3536 482.616 91.3536C482.616 91.3536 482.616 91.3536 482.616 91.3536C482.616 91.3536 482.616 91.3536 482.616 91.3536C482.616 91.3536 482.616 91.3536 482.616 91.3536C482.616 91.3536 482.616 91.3536 482.616 91.3536C482.616 91.3536 482.616 91.3536 482.616 91.3536C482.616 91.3536 482.616 91.3536 482.616 91.3536C482.616 91.3536 482.616 91.3536 482.616 91.3536C482.616 91.3536 482.616 91.3536 482.616 91.3536C482.616 91.3536 482.616 91.3536 482.616 91.3536C482.616 91.3536 482.616 91.3536 482.616 91.3536C482.616 91.3536 482.616 91.3536 482.616 91.3536C482.616 91.3536 482.616 91.3536 482.616 91.3536C482.616 91.3536 482.616 91.3536 482.616 91.3536C482.616 91.3536 482.616 91.3536 482.616 91.3536C482.616 91.3536 482.616 91.3536 482.616 91.3536C482.616 91.3536 482.616 91.3536 482.616 91.3536C482.616 91.3536 482.616 91.3536 482.616 91.3536C482.616 91.3536 482.616 91.3536 482.616 91.3536C482.616 91.3536 482.616 91.3536 482.616 91.3536C482.616 91.3536 482.616 91.3536 482.616 91.3536C482.616 91.3536 482.616 91.3536 482.616 91.3536C482.616 91.3536 482.616 91.3536 482.616 91.3536C482.616 91.3536 482.616 91.3536 482.616 91.3536C482.616 91.3536 482.616 91.3536 482.616 91.3536C482.616 91.3536 482.616 91.3536 482.616 91.3536C482.616 91.3536 482.616 91.3536 482.616 91.3536C482.616 91.3536 482.616 91.3536 482.616 91.3536C482.616 91.3536 482.616 91.3536 482.616 91.3536C482.616 91.3536 482.616 91.3536 482.616 91.3536C482.616 91.3536 482.616 91.3536 482.616 91.3536C482.616 91.3536 482.616 91.3536 482.616 91.3536C482.616 91.3536 482.616 91.3536 482.616 91.3536C482.616 91.3536 482.616 91.3536 482.616 91.3536C482.616 91.3536 482.616 91.3536 482.616 91.3536C482.616 91.3536 482.616 91.3536 482.616 91.3536C482.616 91.3536 482.616 91.3536 482.616 91.3536C482.616 91.3536 482.616 91.3536 482.616 91.3536C482.616 91.3536 482.616 91.3536 482.616 91.3536C482.616 91.3536 482.616 91.3536 482.616 91.3536C482.616 91.3536 482.616 91.3536 482.616 91.3536C482.616 91.3536 482.616 91.3536 482.616 91.3536C482.616 91.3536 482.616 91.3536 482.616 91.3536C482.616 91.3536 482.616 91.3536 482.616 91.3536C482.616 91.3536 482.616 91.3536 482.616 91.3536C482.616 91.3536 482.616 91.3536 482.616 91.3536C482.616 91.3536 482.616 91.3536 482.616 91.3536C482.616 91.3536 482.616 91.3536 482.616 91.3536C482.616 91.3536 482.616 91.3536 482.616 91.3536C482.616 91.3536 482.616 91.3536 482.616 91.3536C482.616 91.3536 482.616 91.3536 482.616 91.3536C482.616 91.3536 482.616 91.3536 482.616 91.3536C482.616 91.3536 482.616 91.3536 482.616 91.3536C482.616 91.3536 482.616 91.3536 482.616 91.3536C482.616 91.3536 482.616 91.3536 482.616 91.3536C482.616 91.3536 482.616 91.3536 482.616 91.3536C482.616 91.3536 482.616 91.3536 482.616 91.3536C482.616 91.3536 482.616 91.3536 482.616 91.3536C482.616 91.3536 482.616 91.3536 482.616 91.3536C482.616 91.3536 482.616 91.3536 482.616 91.3536C482.616 91.3536 482.616 91.3536 482.616 91.3536C482.616 91.3536 482.616 91.3536 482.616 91.3536C482.616 91.3536 482.616 91.3536 482.616 91.3536C482.616 91.3536 482.616 91.3536 482.616 91.3536C482.616 91.3536 482.616 91.3536 482.616 91.3536C482.616 91.3536 482.616 91.3536 482.616 91.3536C482.616 91.3536 482.616 91.3536 482.616 91.3536C482.616 91.3536 482.616 91.3536 482.616 91.3536C482.616 91.3536 482.616 91.3536 482.616 91.3536C482.616 91.3536 482.616 91.3536 482.616 91.3536C482.616 91.3536 482.616 91.3536 482.616 91.3536C482.616 91.3536 482.616 91.3536 482.616 91.3536C482.616 91.3536 482.616 91.3536 482.616 91.3536C482.616 91.3536 482.616 91.3536 482.616 91.3536C482.616 91.3536 482.616 91.3536 482.616 91.3536C482.616 91.3536 482.616 91.3536 482.616 91.3536C482.616 91.3536 482.616 91.3536 482.616 91.3536C482.616 91.3536 482.616 91.3536 482.616 91.3536C482.616 91.3536 482.616 91.3536 482.616 91.3536C482.616 91.3536 482.616 91.3536 482.616 91.3536C482.616 91.3536 482.616 91.3536 482.616 91.3536C482.616 91.3536 482.616 91.3536 482.616 91.3536C482.616 91.3536 482.616 91.3536 482.616 91.3536C482.616 91.3536 482.616 91.3536 482.616 91.3536C482.616 91.3536 482.616 91.3536 482.616 91.3536C482.616 91.3536 482.616 91.3536 482.616 91.3536C482.616 91.3536 482.616 91.3536 482.616 91.3536C482.616 91.3536 482.616 91.3536 482.616 91.3536C482.616 91.3536 482.616 91.3536 482.616 91.3536C482.616 91.3536 482.616 91.3536 482.616 91.3536C482.616 91.3536 482.616 91.3536 482.616 91.3536C482.616 91.3536 482.616 91.3536 482.616 91.3536C482.616 91.3536 482.616 91.3536 482.616 91.3536C482.616 91.3536 482.616 91.3536 482.616 91.3536C482.616 91.3536 482.616 91.3536 482.616 91.3536C482.616 91.3536 482.616 91.3536 482.616 91.3536C482.616 91.3536 482.616 91.3536 482.616 91.3536C482.616 91.3536 482.616 91.3536 482.616 91.3536C482.616 91.3536 482.616 91.3536 482.616 91.3536C482.616 91.3536 482.616 91.3536 482.616 91.3536C482.616 91.3536 482.616 91.3536 482.616 91.3536C482.616 91.3536 482.616 91.3536 482.616 91.3536C482.616 91.3536 482.616 91.3536 482.616 91.3536C482.616 91.3536 482.616 91.3536 482.616 91.3536C482.616 91.3536 482.616 91.3536 482.616 91.3536C482.616 91.3536 482.616 91.3536 482.616 91.3536C482.616 91.3536 482.616 91.3536 482.616 91.3536C482.616 91.3536 482.616 91.3536 482.616 91.3536C482.616 91.3536 482.616 91.3536 482.616 91.3536C482.616 91.3536 482.616 91.3536 482.616 91.3536C482.616 91.3536 482.616 91.3536 482.616 91.3536C482.616 91.3536 482.616 91.3536 482.616 91.3536C482.616 91.3536 482.616 91.3536 482.616 91.3536C482.616 91.3536 482.616 91.3536 482.616 91.3536C482.616 91.3536 482.616 91.3536 482.616 91.3536C482.616 91.3536 482.616 91.3536 482.616 91.3536C482.616 91.3536 482.616 91.3536 482.616 91.3536C482.616 91.3536 482.616 91.3536 482.616 91.3536C482.616 91.3536 482.616 91.3536 482.616 91.3536C482.616 91.3536 482.616 91.3536 482.616 91.3536C482.616 91.3536 482.616 91.3536 482.616 91.3536C482.616 91.3536 482.616 91.3536 482.616 91.3536C482.616 91.3536 482.616 91.3536 482.616 91.3536C482.616 91.3536 482.616 91.3536 482.616 91.3536C482.616 91.3536 482.616 91.3536 482.616 91.3536C482.616 91.3536 482.616 91.3536 482.616 91.3536C482.616 91.3536 482.616 91.3536 482.616 91.3536C482.616 91.3536 482.616 91.3536 482.616 91.3536C482.616 91.3536 482.616 91.3536 482.616 91.3536C482.616 91.3536 482.616 91.3536 482.616 91.3536C482.616 91.3536 482.616 91.3536 482.616 91.3536C482.616 91.3536 482.616 91.3536 482.616 91.3536C482.616 91.3536 482.616 91.3536 482.616 91.3536C482.616 91.3536 482.616 91.3536 482.616 91.3536C482.616 91.3536 482.616 91.3536 482.616 91.3536C482.616 91.3536 482.616 91.3536 482.616 91.3536C482.616 91.3536 482.616 91.3536 482.616 91.3536C482.616 91.3536 482.616 91.3536 482.616 91.3536C482.616 91.3536 482.616 91.3536 482.616 91.3536C482.616 91.3536 482.616 91.3536 482.616 91.3536C482.616 91.3536 482.616 91.3536 482.616 91.3536C482.616 91.3536 482.616 91.3536 482.616 91.3536C482.616 91.3536 482.616 91.3536 482.616 91.3536C482.616 91.3536 482.616 91.3536 482.616 91.3536C482.616 91.3536 482.616 91.3536 482.616 91.3536C482.616 91.3536 482.616 91.3536 482.616 91.3536C482.616 91.3536 482.616 91.3536 482.616 91.3536C482.616 91.3536 482.616 91.3536 482.616 91.3536C482.616 91.3536 482.616 91.3536 482.616 91.3536C482.616 91.3536 482.616 91.3536 482.616 91.3536C482.616 91.3536 482.616 91.3536 482.616 91.3536C482.616 91.3536 482.616 91.3536 482.616 91.3536C482.616 91.3536 482.616 91.3536 482.616 91.3536C482.616 91.3536 482.616 91.3536 482.616 91.3536C482.616 91.3536 482.616 91.3536 482.616 91.3536C482.616 91.3536 482.616 91.3536 482.616 91.3536C482.616 91.3536 482.616 91.3536 482.616 91.3536C482.616 91.3536 482.616 91.3536 482.616 91.3536C482.616 91.3536 482.616 91.3536 482.616 91.3536C482.616 91.3536 482.616 91.3536 482.616 91.3536C482.616 91.3536 482.616 91.3536 482.616 91.3536C482.616 91.3536 482.616 91.3536 482.616 91.3536C482.616 91.3536 482.616 91.3536 482.616 91.3536C482.616 91.3536 482.616 91.3536 482.616 91.3536C482.616 91.3536 482.616 91.3536 482.616 91.3536C482.616 91.3536 482.616 91.3536 482.616 91.3536C482.616 91.3536 482.616 91.3536 482.616 91.3536C482.616 91.3536 482.616 91.3536 482.616 91.3536C482.616 91.3536 482.616 91.3536 482.616 91.3536C482.616 91.3536 482.616 91.3536 482.616 91.3536C482.616 91.3536 482.616 91.3536 482.616 91.3536C482.616 91.3536 482.616 91.3536 482.616 91.3536C482.616 91.3536 482.616 91.3536 482.616 91.3536C482.616 91.3536 482.616 91.3536 482.616 91.3536C482.616 91.3536 482.616 91.3536 482.616 91.3536C482.616 91.3536 482.616 91.3536 482.616 91.3536C482.616 91.3536 482.616 91.3536 482.616 91.3536C482.616 91.3536 482.616 91.3536 482.616 91.3536C482.616 91.3536 482.616 91.3536 482.616 91.3536C482.616 91.3536 482.616 91.3536 482.616 91.3536C482.616 91.3536 482.616 91.3536 482.616 91.3536C482.616 91.3536 482.616 91.3536 482.616 91.3536C482.616 91.3536 482.616 91.3536 482.616 91.3536C482.616 91.3536 482.616 91.3536 482.616 91.3536C482.616 91.3536 482.616 91.3536 482.616 91.3536C482.616 91.3536 482.616 91.3536 482.616 91.3536C482.616 91.3536 482.616 91.3536 482.616 91.3536C482.616 91.3536 482.616 91.3536 482.616 91.3536C482.616 91.3536 482.616 91.3536 482.616 91.3536C482.616 91.3536 482.616 91.3536 482.616 91.3536C482.616 91.3536 482.616 91.3536 482.616 91.3536C482.616 91.3536 482.616 91.3536 482.616 91.3536C482.616 91.3536 482.616 91.3536 482.616 91.3536C482.616 91.3536 482.616 91.3536 482.616 91.3536C482.616 91.3536 482.616 91.3536 482.616 91.3536C482.616 91.3536 482.616 91.3536 482.616 91.3536C482.616 91.3536 482.616 91.3536 482.616 91.3536C482.616 91.3536 482.616 91.3536 482.616 91.3536C482.616 91.3536 482.616 91.3536 482.616 91.3536C482.616 91.3536 482.616 91.3536 482.616 91.3536C482.616 91.3536 482.616 91.3536 482.616 91.3536C482.616 91.3536 482.616 91.3536 482.616 91.3536C482.616 91.3536 482.616 91.3536 482.616 91.3536C482.616 91.3536 482.616 91.3536 482.616 91.3536C482.616 91.3536 482.616 91.3536 482.616 91.3536C482.616 91.3536 482.616 91.3536 482.616 91.3536C482.616 91.3536 482.616 91.3536 482.616 91.3536C482.616 91.3536 482.616 91.3536 482.616 91.3536C482.616 91.3536 482.616 91.3536 482.616 91.3536C482.616 91.3536 482.616 91.3536 482.616 91.3536C482.616 91.3536 482.616 91.3536 482.616 91.3536C482.616 91.3536 482.616 91.3536 482.616 91.3536C482.616 91.3536 482.616 91.3536 482.616 91.3536C482.616 91.3536 482.616 91.3536 482.616 91.3536C482.616 91.3536 482.616 91.3536 482.616 91.3536C482.616 91.3536 482.616 91.3536 482.616 91.3536C482.616 91.3536 482.616 91.3536 482.616 91.3536C482.616 91.3536 482.616 91.3536 482.616 91.3536C482.616 91.3536 482.616 91.3536 482.616 91.3536C482.616 91.3536 482.616 91.3536 482.616 91.3536C482.616 91.3536 482.616 91.3536 482.616 91.3536C482.616 91.3536 482.616 91.3536 482.616 91.3536C482.616 91.3536 482.616 91.3536 482.616 91.3536C482.616 91.3536 482.616 91.3536 482.616 91.3536C482.616 91.3536 482.616 91.3536 482.616 91.3536C482.616 91.3536 482.616 91.3536 482.616 91.3536C482.616 91.3536 482.616 91.3536 482.616 91.3536C482.616 91.3536 482.616 91.3536 482.616 91.3536C482.616 91.3536 482.616 91.3536 482.616 91.3536C482.616 91.3536 482.616 91.3536 482.616 91.3536C482.616 91.3536 482.616 91.3536 482.616 91.3536C482.616 91.3536 482.616 91.3536 482.616 91.3536C482.616 91.3536 482.616 91.3536 482.616 91.3536C482.616 91.3536 482.616 91.3536 482.616 91.3536C482.616 91.3536 482.616 91.3536 482.616 91.3536C482.616 91.3536 482.616 91.3536 482.616 91.3536C482.616 91.3536 482.616 91.3536 482.616 91.3536C482.616 91.3536 482.616 91.3536 482.616 91.3536C482.616 91.3536 482.616 91.3536 482.616 91.3536C482.616 91.3536 482.616 91.3536 482.616 91.3536C482.616 91.3536 482.616 91.3536 482.616 91.3536C482.616 91.3536 482.616 91.3536 482.616 91.3536C482.616 91.3536 482.616 91.3536 482.616 91.3536C482.616 91.3536 482.616 91.3536 482.616 91.3536C482.616 91.3536 482.616 91.3536 482.616 91.3536C482.616 91.3536 482.616 91.3536 482.616 91.3536C482.616 91.3536 482.616 91.3536 482.616 91.3536C482.616 91.3536 482.616 91.3536 482.616 91.3536C482.616 91.3536 482.616 91.3536 482.616 91.3536C482.616 91.3536 482.616 91.3536 482.616 91.3536C482.616 91.3536 482.616 91.3536 482.616 91.3536C482.616 91.3536 482.616 91.3536 482.616 91.3536C482.616 91.3536 482.616 91.3536 482.616 91.3536C482.616 91.3536 482.616 91.3536 482.616 91.3536C482.616 91.3536 482.616 91.3536 482.616 91.3536C482.616 91.3536 482.616 91.3536 482.616 91.3536C482.616 91.3536 482.616 91.3536 482.616 91.3536C482.616 91.3536 482.616 91.3536 482.616 91.3536C482.616 91.3536 482.616 91.3536 482.616 91.3536C482.616 91.3536 482.616 91.3536 482.616 91.3536C482.616 91.3536 482.616 91.3536 482.616 91.3536C482.616 91.3536 482.616 91.3536 482.616 91.3536C482.616 91.3536 482.616 91.3536 482.616 91.3536C482.616 91.3536 482.616 91.3536 482.616 91.3536C482.616 91.3536 482.616 91.3536 482.616 91.3536C482.616 91.3536 482.616 91.3536 482.616 91.3536C482.616 91.3536 482.616 91.3536 482.616 91.3536C482.616 91.3536 482.616 91.3536 482.616 91.3536C482.616 91.3536 482.616 91.3536 482.616 91.3536C482.616 91.3536 482.616 91.3536 482.616 91.3536C482.616 91.3536 482.616 91.3536 482.616 91.3536C482.616 91.3536 482.616 91.3536 482.616 91.3536C482.616 91.3536 482.616 91.3536 482.616 91.3536C482.616 91.3536 482.616 91.3536 482.616 91.3536C482.616 91.3536 482.616 91.3536 482.616 91.3536C482.616 91.3536 482.616 91.3536 482.616 91.3536C482.616 91.3536 482.616 91.3536 482.616 91.3536C482.616 91.3536 482.616 91.3536 482.616 91.3536C482.616 91.3536 482.616 91.3536 482.616 91.3536C482.616 91.3536 482.616 91.3536 482.616 91.3536C482.616 91.3536 482.616 91.3536 482.616 91.3536C482.616 91.3536 482.616 91.3536 482.616 91.3536C482.616 91.3536 482.616 91.3536 482.616 91.3536C482.616 91.3536 482.616 91.3536 482.616 91.3536C482.616 91.3536 482.616 91.3536 482.616 91.3536C482.616 91.3536 482.616 91.3536 482.616 91.3536C482.616 91.3536 482.616 91.3536 482.616 91.3536C482.616 91.3536 482.616 91.3536 482.616 91.3536C482.616 91.3536 482.616 91.3536 482.616 91.3536C482.616 91.3536 482.616 91.3536 482.616 91.3536C482.616 91.3536 482.616 91.3536 482.616 91.3536C482.616 91.3536 482.616 91.3536 482.616 91.3536C482.616 91.3536 482.616 91.3536 482.616 91.3536C482.616 91.3536 482.616 91.3536 482.616 91.3536C482.616 91.3536 482.616 91.3536 482.616 91.3536C482.616 91.3536 482.616 91.3536 482.616 91.3536C482.616 91.3536 482.616 91.3536 482.616 91.3536C482.616 91.3536 482.616 91.3536 482.616 91.3536C482.616 91.3536 482.616 91.3536 482.616 91.3536C482.616 91.3536 482.616 91.3536 482.616 91.3536C482.616 91.3536 482.616 91.3536 482.616 91.3536C482.616 91.3536 482.616 91.3536 482.616 91.3536C482.616 91.3536 482.616 91.3536 482.616 91.3536C482.616 91.3536 482.616 91.3536 482.616 91.3536C482.616 91.3536 482.616 91.3536 482.616 91.3536C482.616 91.3536 482.616 91.3536 482.616 91.3536C482.616 91.3536 482.616 91.3536 482.616 91.3536C482.616 91.3536 482.616 91.3536 482.616 91.3536C482.616 91.3536 482.616 91.3536 482.616 91.3536C482.616 91.3536 482.616 91.3536 482.616 91.3536C482.616 91.3536 482.616 91.3536 482.616 91.3536C482.616 91.3536 482.616 91.3536 482.616 91.3536C482.616 91.3536 482.616 91.3536 482.616 91.3536C482.616 91.3536 482.616 91.3536 482.616 91.3536C482.616 91.3536 482.616 91.3536 482.616 91.3536C482.616 91.3536 482.616 91.3536 482.616 91.3536C482.616 91.3536 482.616 91.3536 482.616 91.3536C482.616 91.3536 482.616 91.3536 482.616 91.3536C482.616 91.3536 482.616 91.3536 482.616 91.3536C482.616 91.3536 482.616 91.3536 482.616 91.3536C482.616 91.3536 482.616 91.3536 482.616 91.3536C482.616 91.3536 482.616 91.3536 482.616 91.3536C482.616 91.3536 482.616 91.3536 482.616 91.3536C482.616 91.3536 482.616 91.3536 482.616 91.3536C482.616 91.3536 482.616 91.3536 482.616 91.3536C482.616 91.3536 482.616 91.3536 482.616 91.3536C482.616 91.3536 482.616 91.3536 482.616 91.3536C482.616 91.3536 482.616 91.3536 482.616 91.3536C482.616 91.3536 482.616 91.3536 482.616 91.3536C482.616 91.3536 482.616 91.3536 482.616 91.3536C482.616 91.3536 482.616 91.3536 482.616 91.3536C482.616 91.3536 482.616 91.3536 482.616 91.3536C482.616 91.3536 482.616 91.3536 482.616 91.3536C482.616 91.3536 482.616 91.3536 482.616 91.3536C482.616 91.3536 482.616 91.3536 482.616 91.3536C482.616 91.3536 482.616 91.3536 482.616 91.3536C482.616 91.3536 482.616 91.3536 482.616 91.3536C482.616 91.3536 482.616 91.3536 482.616 91.3536C482.616 91.3536 482.616 91.3536 482.616 91.3536C482.616 91.3536 482.616 91.3536 482.616 91.3536C482.616 91.3536 482.616 91.3536 482.616 91.3536C482.616 91.3536 482.616 91.3536 482.616 91.3536C482.616 91.3536 482.616 91.3536 482.616 91.3536C482.616 91.3536 482.616 91.3536 482.616 91.3536C482.616 91.3536 482.616 91.3536 482.616 91.3536C482.616 91.3536 482.616 91.3536 482.616 91.3536C482.616 91.3536 482.616 91.3536 482.616 91.3536C482.616 91.3536 482.616 91.3536 482.616 91.3536C482.616 91.3536 482.616 91.3536 482.616 91.3536C482.616 91.3536 482.616 91.3536 482.616 91.3536C482.616 91.3536 482.616 91.3536 482.616 91.3536C482.616 91.3536 482.616 91.3536 482.616 91.3536C482.616 91.3536 482.616 91.3536 482.616 91.3536C482.616 91.3536 482.616 91.3536 482.616 91.3536C482.616 91.3536 482.616 91.3536 482.616 91.3536C482.616 91.3536 482.616 91.3536 482.616 91.3536C482.616 91.3536 482.616 91.3536 482.616 91.3536C482.616 91.3536 482.616 91.3536 482.616 91.3536C482.616 91.3536 482.616 91.3536 482.616 91.3536C482.616 91.3536 482.616 91.3536 482.616 91.3536C482.616 91.3536 482.616 91.3536 482.616 91.3536C482.616 91.3536 482.616 91.3536 482.616 91.3536C482.616 91.3536 482.616 91.3536 482.616 91.3536C482.616 91.3536 482.616 91.3536 482.616 91.3536C482.616 91.3536 482.616 91.3536 482.616 91.3536C482.616 91.3536 482.616 91.3536 482.616 91.3536C482.616 91.3536 482.616 91.3536 482.616 91.3536C482.616 91.3536 482.616 91.3536 482.616 91.3536C482.616 91.3536 482.616 91.3536 482.616 91.3536C482.616 91.3536 482.616 91.3536 482.616 91.3536C482.616 91.3536 482.616 91.3536 482.616 91.3536C482.616 91.3536 482.616 91.3536 482.616 91.3536C482.616 91.3536 482.616 91.3536 482.616 91.3536C482.616 91.3536 482.616 91.3536 482.616 91.3536C482.616 91.3536 482.616 91.3536 482.616 91.3536C482.616 91.3536 482.616 91.3536 482.616 91.3536C482.616 91.3536 482.616 91.3536 482.616 91.3536C482.616 91.3536 482.616 91.3536 482.616 91.3536C482.616 91.3536 482.616 91.3536 482.616 91.3536C482.616 91.3536 482.616 91.3536 482.616 91.3536C482.616 91.3536 482.616 91.3536 482.616 91.3536C482.616 91.3536 482.616 91.3536 482.616 91.3536C482.616 91.3536 482.616 91.3536 482.616 91.3536C482.616 91.3536 482.616 91.3536 482.616 91.3536C482.616 91.3536 482.616 91.3536 482.616 91.3536C482.616 91.3536 482.616 91.3536 482.616 91.3536C482.616 91.3536 482.616 91.3536 482.616 91.3536C482.616 91.3536 482.616 91.3536 482.616 91.3536C482.616 91.3536 482.616 91.3536 482.616 91.3536C482.616 91.3536 482.616 91.3536 482.616 91.3536C482.616 91.3536 482.616 91.3536 482.616 91.3536C482.616 91.3536 482.616 91.3536 482.616 91.3536C482.616 91.3536 482.616 91.3536 482.616 91.3536C482.616 91.3536 482.616 91.3536 482.616 91.3536C482.616 91.3536 482.616 91.3536 482.616 91.3536C482.616 91.3536 482.616 91.3536 482.616 91.3536C482.616 91.3536 482.616 91.3536 482.616 91.3536C482.616 91.3536 482.616 91.3536 482.616 91.3536C482.616 91.3536 482.616 91.3536 482.616 91.3536C482.616 91.3536 482.616 91.3536 482.616 91.3536L485.438 92.3712ZM484.536 90.4513L484.536 90.4513L483.519 93.2734L483.519 93.2734L484.536 90.4513ZM489.873 71.2292L482.616 91.3536L485.438 92.3712L492.695 72.2469L489.873 71.2292ZM490.775 73.1491L490.776 73.1491L491.793 70.327L491.793 70.3269L490.775 73.1491Z" fill="white"/>
<path d="M94.2 221C94.2 231.133 91.5333 239.4 86.2 245.8C81 252.067 73.9333 256.6 65 259.4C56.2 262.2 46.3333 263.4 35.4 263C24.4667 262.733 13.3333 261.067 2 258C2 252.267 2 246.533 2 240.8C2 235.067 2 229.333 2 223.6C12.4 227.333 21.8667 229.667 30.4 230.6C38.9333 231.533 45.7333 231.2 50.8 229.6C55.8667 227.867 58.4 225 58.4 221C58.4 218.2 57 215.933 54.2 214.2C51.4 212.333 47.7333 210.667 43.2 209.2C38.8 207.733 34.1333 206.067 29.2 204.2C24.2667 202.2 19.5333 199.733 15 196.8C10.6 193.733 7 189.8 4.2 185C1.4 180.067 0 173.933 0 166.6C0 157.533 2.4 149.867 7.2 143.6C12 137.333 18.4667 132.6 26.6 129.4C34.8667 126.2 44.2 124.6 54.6 124.6C65.1333 124.6 76 126.2 87.2 129.4C87.2 135.133 87.2 140.867 87.2 146.6C87.2 152.333 87.2 158.067 87.2 163.8C77.8667 159.8 69.2667 157.4 61.4 156.6C53.6667 155.667 47.4667 156.067 42.8 157.8C38.1333 159.4 35.8 162.067 35.8 165.8C35.8 168.467 37.2 170.667 40 172.4C42.8 174.133 46.4 175.733 50.8 177.2C55.3333 178.533 60.0667 180.2 65 182.2C69.9333 184.067 74.6 186.6 79 189.8C83.5333 192.867 87.2 196.933 90 202C92.8 206.933 94.2 213.267 94.2 221Z" fill="white"/>
<path d="M112.417 262C112.417 239.6 112.417 216.933 112.417 194C112.417 171.067 112.417 148.4 112.417 126C120.684 126 128.951 126 137.217 126C145.617 126 153.884 126 162.017 126C172.284 126 181.217 128 188.817 132C196.417 135.867 202.351 141.333 206.617 148.4C210.884 155.467 213.017 163.733 213.017 173.2C213.017 182.533 210.884 190.733 206.617 197.8C202.484 204.867 196.751 210.333 189.417 214.2C182.217 218.067 174.017 220 164.817 220C161.884 220 158.951 220 156.017 220C153.217 220 150.351 220 147.417 220C147.417 226.933 147.417 233.933 147.417 241C147.417 248.067 147.417 255.067 147.417 262C141.684 262 135.884 262 130.017 262C124.151 262 118.284 262 112.417 262ZM162.017 157.4C159.617 157.4 157.151 157.4 154.617 157.4C152.217 157.4 149.817 157.4 147.417 157.4C147.417 162.733 147.417 168.133 147.417 173.6C147.417 178.933 147.417 184.267 147.417 189.6C150.084 189.6 152.817 189.6 155.617 189.6C158.551 189.6 161.351 189.6 164.017 189.6C168.151 189.6 171.484 188.067 174.017 185C176.684 181.933 178.017 178.133 178.017 173.6C178.017 168.933 176.617 165.067 173.817 162C171.017 158.933 167.084 157.4 162.017 157.4Z" fill="white"/>
<path d="M230.972 262C230.972 239.6 230.972 216.933 230.972 194C230.972 171.067 230.972 148.4 230.972 126C244.439 126 258.039 126 271.772 126C285.505 126 299.105 126 312.572 126C312.572 131.067 312.572 136.267 312.572 141.6C312.572 146.933 312.572 152.133 312.572 157.2C304.839 157.2 297.039 157.2 289.172 157.2C281.439 157.2 273.705 157.2 265.972 157.2C265.972 160.533 265.972 163.867 265.972 167.2C265.972 170.4 265.972 173.667 265.972 177C273.039 177 280.172 177 287.372 177C294.572 177 301.639 177 308.572 177C308.572 181.933 308.572 186.933 308.572 192C308.572 197.067 308.572 202.133 308.572 207.2C301.639 207.2 294.572 207.2 287.372 207.2C280.172 207.2 273.039 207.2 265.972 207.2C265.972 211.067 265.972 215 265.972 219C265.972 223 265.972 226.933 265.972 230.8C273.705 230.8 281.439 230.8 289.172 230.8C297.039 230.8 304.839 230.8 312.572 230.8C312.572 235.867 312.572 241.067 312.572 246.4C312.572 251.733 312.572 256.933 312.572 262C299.105 262 285.505 262 271.772 262C258.039 262 244.439 262 230.972 262Z" fill="white"/>
<path d="M336.636 262C336.636 239.6 336.636 216.933 336.636 194C336.636 171.067 336.636 148.4 336.636 126C342.503 126 348.369 126 354.236 126C360.103 126 365.903 126 371.636 126C371.636 143.2 371.636 160.6 371.636 178.2C371.636 195.667 371.636 213 371.636 230.2C378.703 230.2 385.836 230.2 393.036 230.2C400.236 230.2 407.303 230.2 414.236 230.2C414.236 235.4 414.236 240.733 414.236 246.2C414.236 251.533 414.236 256.8 414.236 262C401.436 262 388.503 262 375.436 262C362.369 262 349.436 262 336.636 262Z" fill="white"/>
<path d="M433.316 262C433.316 239.6 433.316 216.933 433.316 194C433.316 171.067 433.316 170.4 433.316 148L468.316 160C468.316 177.2 468.316 167.2 468.316 178.2C468.316 195.667 468.316 213 468.316 230.2C475.382 230.2 482.516 230.2 489.716 230.2C496.916 230.2 503.982 230.2 510.916 230.2C510.916 235.4 510.916 240.733 510.916 246.2C510.916 251.533 510.916 256.8 510.916 262C498.116 262 485.182 262 472.116 262C459.049 262 446.116 262 433.316 262Z" fill="white"/>
<path d="M5 100.472C5 87.9153 5 75.2096 5 62.3544C5 49.4992 5 36.7935 5 24.2372C12.5984 24.2372 20.2721 24.2372 28.021 24.2372C35.7699 24.2372 43.4436 24.2372 51.042 24.2372C51.042 27.1521 51.042 30.1043 51.042 33.0939C51.042 36.0834 51.042 39.0356 51.042 41.9505C46.6785 41.9505 42.2775 41.9505 37.8388 41.9505C33.4753 41.9505 29.1119 41.9505 24.7484 41.9505C24.7484 44.1179 24.7484 46.3601 24.7484 48.6771C24.7484 50.9192 24.7484 53.1241 24.7484 55.2915C28.7357 55.2915 32.7606 55.2915 36.8231 55.2915C40.8857 55.2915 44.873 55.2915 48.785 55.2915C48.785 58.0569 48.785 60.8596 48.785 63.6997C48.785 66.5398 48.785 69.3799 48.785 72.22C44.873 72.22 40.8857 72.22 36.8231 72.22C32.7606 72.22 28.7357 72.22 24.7484 72.22C24.7484 76.8539 24.7484 81.5625 24.7484 86.3458C24.7484 91.1291 24.7484 95.8377 24.7484 100.472C21.5134 100.472 18.2408 100.472 14.9306 100.472C11.6204 100.472 8.31021 100.472 5 100.472Z" fill="white"/>
<path d="M63.9719 100.472C63.9719 87.9153 63.9719 75.2096 63.9719 62.3544C63.9719 49.4992 63.9719 36.7935 63.9719 24.2372C67.2821 24.2372 70.5923 24.2372 73.9025 24.2372C77.2127 24.2372 80.4853 24.2372 83.7203 24.2372C83.7203 36.7935 83.7203 49.4992 83.7203 62.3544C83.7203 75.2096 83.7203 87.9153 83.7203 100.472C80.4853 100.472 77.2127 100.472 73.9025 100.472C70.5923 100.472 67.2821 100.472 63.9719 100.472Z" fill="white"/>
<path d="M99.0033 100.472C99.0033 87.9153 99.0033 75.2096 99.0033 62.3544C99.0033 49.4992 99.0033 36.7935 99.0033 24.2372C102.313 24.2372 105.624 24.2372 108.934 24.2372C112.319 24.2372 115.63 24.2372 118.865 24.2372C122.852 31.3375 126.877 38.5125 130.939 45.7622C135.077 53.0119 139.14 60.1869 143.127 67.2872C143.127 60.1869 143.127 53.0119 143.127 45.7622C143.127 38.5125 143.127 31.3375 143.127 24.2372C146.362 24.2372 149.597 24.2372 152.832 24.2372C156.067 24.2372 159.302 24.2372 162.537 24.2372C162.537 36.7935 162.537 49.4992 162.537 62.3544C162.537 75.2096 162.537 87.9153 162.537 100.472C159.302 100.472 155.992 100.472 152.606 100.472C149.296 100.472 145.986 100.472 142.675 100.472C138.688 93.3713 134.626 86.1963 130.488 78.9466C126.425 71.6968 122.4 64.5218 118.413 57.4216C118.413 64.5218 118.413 71.6968 118.413 78.9466C118.413 86.1963 118.413 93.3713 118.413 100.472C115.178 100.472 111.943 100.472 108.708 100.472C105.473 100.472 102.238 100.472 99.0033 100.472Z" fill="white"/>
<path d="M239.201 96.4356C231.377 99.5747 224.079 101.368 217.309 101.817C210.613 102.34 204.557 101.742 199.14 100.023C193.723 98.2294 189.097 95.5388 185.26 91.9513C181.423 88.3638 178.489 84.1036 176.458 79.1708C174.426 74.238 173.411 68.8567 173.411 63.0271C173.411 57.2721 174.351 51.9656 176.232 47.1075C178.113 42.1747 180.859 37.9145 184.47 34.3271C188.156 30.7396 192.595 27.9368 197.786 25.9188C202.977 23.9009 208.883 22.9293 215.503 23.004C222.123 23.004 229.383 24.1998 237.283 26.5915C237.283 29.7306 237.283 32.907 237.283 36.1208C237.283 39.2599 237.283 42.3989 237.283 45.538C231.038 43.0716 225.246 41.6515 219.904 41.2778C214.638 40.9041 210.011 41.4647 206.024 42.9595C202.112 44.4543 199.027 46.8459 196.77 50.1345C194.589 53.3483 193.498 57.3842 193.498 62.2423C193.498 66.5024 194.288 70.2768 195.867 73.5653C197.523 76.8539 199.817 79.4324 202.751 81.3009C205.685 83.1694 209.033 84.1036 212.795 84.1036C214.074 84.1036 215.353 84.0662 216.631 83.9915C217.91 83.842 219.152 83.6178 220.355 83.3188C220.355 81.3756 220.355 79.395 220.355 77.377C220.355 75.3591 220.355 73.3785 220.355 71.4353C218.249 71.4353 216.142 71.4353 214.036 71.4353C211.929 71.4353 209.823 71.4353 207.716 71.4353C207.716 68.6699 207.716 65.9045 207.716 63.1392C207.716 60.2991 207.716 57.4963 207.716 54.731C212.908 54.731 218.136 54.731 223.402 54.731C228.744 54.731 234.01 54.731 239.201 54.731C239.201 61.607 239.201 68.5578 239.201 75.5833C239.201 82.6088 239.201 89.5596 239.201 96.4356Z" fill="white"/>
<path d="M253.508 100.472C253.508 87.9153 253.508 75.2096 253.508 62.3544C253.508 49.4992 253.508 36.7935 253.508 24.2372C261.107 24.2372 268.78 24.2372 276.529 24.2372C284.278 24.2372 291.952 24.2372 299.55 24.2372C299.55 27.0773 299.55 29.9922 299.55 32.9817C299.55 35.9713 299.55 38.8862 299.55 41.7263C295.187 41.7263 290.786 41.7263 286.347 41.7263C281.983 41.7263 277.62 41.7263 273.257 41.7263C273.257 43.5948 273.257 45.4633 273.257 47.3317C273.257 49.1255 273.257 50.9566 273.257 52.8251C277.244 52.8251 281.269 52.8251 285.331 52.8251C289.394 52.8251 293.381 52.8251 297.293 52.8251C297.293 55.5905 297.293 58.3932 297.293 61.2333C297.293 64.0734 297.293 66.9135 297.293 69.7536C293.381 69.7536 289.394 69.7536 285.331 69.7536C281.269 69.7536 277.244 69.7536 273.257 69.7536C273.257 71.9211 273.257 74.1259 273.257 76.3681C273.257 78.6103 273.257 80.8151 273.257 82.9825C277.62 82.9825 281.983 82.9825 286.347 82.9825C290.786 82.9825 295.187 82.9825 299.55 82.9825C299.55 85.8226 299.55 88.7375 299.55 91.727C299.55 94.7166 299.55 97.6315 299.55 100.472C291.952 100.472 284.278 100.472 276.529 100.472C268.78 100.472 261.107 100.472 253.508 100.472Z" fill="white"/>
<path d="M313.128 100.472C313.128 87.9153 313.128 75.2096 313.128 62.3544C313.128 49.4992 313.128 36.7935 313.128 24.2372C317.642 24.2372 322.156 24.2372 326.67 24.2372C331.259 24.2372 335.81 24.2372 340.324 24.2372C346.042 24.2372 351.045 25.3209 355.333 27.4884C359.621 29.5811 362.932 32.5707 365.264 36.4571C367.671 40.2688 368.875 44.7532 368.875 49.9103C368.875 54.3199 367.972 58.2437 366.167 61.6817C364.361 65.1198 361.916 67.9225 358.831 70.0899C361.841 75.0975 364.85 80.1798 367.859 85.3368C370.944 90.4191 373.991 95.464 377 100.472C373.314 100.472 369.627 100.472 365.941 100.472C362.255 100.472 358.568 100.472 354.882 100.472C352.55 96.2862 350.18 92.026 347.772 87.6911C345.44 83.3562 343.07 79.0961 340.663 74.9106C339.384 74.9106 338.067 74.9106 336.713 74.9106C335.434 74.9106 334.155 74.9106 332.876 74.9106C332.876 79.0961 332.876 83.3562 332.876 87.6911C332.876 92.026 332.876 96.2862 332.876 100.472C329.641 100.472 326.369 100.472 323.059 100.472C319.748 100.472 316.438 100.472 313.128 100.472ZM340.324 41.9505C339.121 41.9505 337.879 41.9505 336.6 41.9505C335.397 41.9505 334.155 41.9505 332.876 41.9505C332.876 44.7159 332.876 47.4812 332.876 50.2466C332.876 53.0119 332.876 55.7773 332.876 58.5427C334.306 58.5427 335.735 58.5427 337.165 58.5427C338.594 58.5427 340.023 58.5427 341.453 58.5427C343.71 58.5427 345.553 57.7579 346.982 56.1884C348.412 54.5441 349.127 52.5635 349.127 50.2466C349.127 47.8549 348.337 45.8743 346.757 44.3048C345.252 42.7353 343.108 41.9505 340.324 41.9505Z" fill="white"/>
</svg>
