<?xml version="1.0" encoding="utf-8"?>
<!-- Generator: Adobe Illustrator 23.0.6, SVG Export Plug-In . SVG Version: 6.00 Build 0)  -->
<svg version="1.1" id="Layer_1" xmlns="http://www.w3.org/2000/svg" xmlns:xlink="http://www.w3.org/1999/xlink" x="0px" y="0px"
	 viewBox="0 0 792 612" style="enable-background:new 0 0 792 612;" xml:space="preserve">
<style type="text/css">
	.st0{fill:none;stroke:#181818;stroke-width:0.1;stroke-miterlimit:10;}
	.st1{fill:#181818;}
	.st2{fill:none;stroke:#FFFFFF;stroke-width:0.1;stroke-miterlimit:10;}
	.st3{fill:#FFFFFF;}
	.st4{fill:none;stroke:#908F8F;stroke-width:0.1;stroke-miterlimit:10;}
	.st5{fill:#908F8F;}
	.st6{fill:none;stroke:#616262;stroke-width:0.1;stroke-miterlimit:10;}
	.st7{fill:#616262;}
</style>
<path id="path162" class="st0" d="M473.8,147.2c8.5-1.9,17.3-1.2,25.9-1.3c-3.1,25.9,6.2,49.5,12.8,73.9
	c-9.1,38.3-9.7,80.3-32.4,114.1c-9,17.3-22.2,31.7-32.7,47.9c-1.3,20.1-0.4,40.3,0.1,60.5c-15.9,9.2-30.8,23.3-50.3,23.2
	c-25.7,2-51.7-0.9-75.7-10.7c-4.2-26.1,3.1-55.6-13.5-78.2c-19.7-32-25.3-70.2-27.8-107c-2.3-23.5,9.4-45.5,20.7-65.2
	c7.9-5.6,18.4-5.4,27.4-8.3c7.9-5.3,13.6-13.1,20.3-19.7c7.8,1.1,15.7,2.2,23.5,3.5c9.8-7.5,20.9-17.6,34.2-11.9
	c16.4,7.5,33.9,2.9,51.1,1.7C462.5,161.9,467.5,154,473.8,147.2z"/>
<path id="path164" class="st1" d="M473.8,147.2c8.5-1.9,17.3-1.2,25.9-1.3c-3.1,25.9,6.2,49.5,12.8,73.9
	c-9.1,38.3-9.7,80.3-32.4,114.1c-9,17.3-22.2,31.7-32.7,47.9c-1.3,20.1-0.4,40.3,0.1,60.5c-15.9,9.2-30.8,23.3-50.3,23.2
	c-25.7,2-51.7-0.9-75.7-10.7c-4.2-26.1,3.1-55.6-13.5-78.2c-19.7-32-25.3-70.2-27.8-107c-2.3-23.5,9.4-45.5,20.7-65.2
	c7.9-5.6,18.4-5.4,27.4-8.3c7.9-5.3,13.6-13.1,20.3-19.7c7.8,1.1,15.7,2.2,23.5,3.5c9.8-7.5,20.9-17.6,34.2-11.9
	c16.4,7.5,33.9,2.9,51.1,1.7C462.5,161.9,467.5,154,473.8,147.2z"/>
<path id="path174" class="st2" d="M473.3,218.3c-13.5-22-11.5-55.7,13.4-68.8c-2.3,16,2.1,30.7,10.3,44.4c7,39.9-2.5,80.6-17.4,118
	c-4.6-16.5-14.1-30.6-25.8-42.8C460.4,252.1,459.9,231.9,473.3,218.3z"/>
<path id="path176" class="st3" d="M473.3,218.3c-13.5-22-11.5-55.7,13.4-68.8c-2.3,16,2.1,30.7,10.3,44.4c7,39.9-2.5,80.6-17.4,118
	c-4.6-16.5-14.1-30.6-25.8-42.8C460.4,252.1,459.9,231.9,473.3,218.3z"/>
<path id="path222" class="st2" d="M379,190.5c3.8-19.6,36.3-23,40.2-1.6c-1.6,15.2-5.2,30.2-7.8,45.3c-8,4.6-16,9.2-23.5,14.5
	c7.9-0.4,15.8-1,23.7-1.8c-2,10.6-4.2,21.1-6.4,31.7c-6.9,1-13.8,2-20.7,2.8c4-8.6,13.1-11.4,21-15.4c-7.6-7.3-17.1-3-25.7-0.6
	C380.8,240.4,376.8,215.4,379,190.5z"/>
<path id="path224" class="st3" d="M379,190.5c3.8-19.6,36.3-23,40.2-1.6c-1.6,15.2-5.2,30.2-7.8,45.3c-8,4.6-16,9.2-23.5,14.5
	c7.9-0.4,15.8-1,23.7-1.8c-2,10.6-4.2,21.1-6.4,31.7c-6.9,1-13.8,2-20.7,2.8c4-8.6,13.1-11.4,21-15.4c-7.6-7.3-17.1-3-25.7-0.6
	C380.8,240.4,376.8,215.4,379,190.5z"/>
<path id="path226" class="st2" d="M435.3,178.5c6.3,0.4,12.6,0.8,19,1.1c2.5,11.1,5.6,22.1,7.3,33.4c-5.2,17.4-10.5,34.8-15.5,52.2
	c-10.8,0.1-22.7,4.5-32.4-2.6c6.8-1.2,20.3-3.6,27-4.8c-6.7-6.4-13.8-12.4-20.8-18.6c9.1-0.2,18.3-0.1,27.3-2.1
	c-8.8-1.8-17.7-3.5-26.6-4.9C423.7,214,428.3,195.8,435.3,178.5z"/>
<path id="path228" class="st3" d="M435.3,178.5c6.3,0.4,12.6,0.8,19,1.1c2.5,11.1,5.6,22.1,7.3,33.4c-5.2,17.4-10.5,34.8-15.5,52.2
	c-10.8,0.1-22.7,4.5-32.4-2.6c6.8-1.2,20.3-3.6,27-4.8c-6.7-6.4-13.8-12.4-20.8-18.6c9.1-0.2,18.3-0.1,27.3-2.1
	c-8.8-1.8-17.7-3.5-26.6-4.9C423.7,214,428.3,195.8,435.3,178.5z"/>
<path id="path238" class="st2" d="M335.9,202.6c7.7-12.1,19.4-21.5,33.9-13.3c-0.7,20.9,11.9,51.1-14.1,61
	c15.5-2.7,18.6,6.8,17.2,19.9c-11-1.4-21.7-4.3-31.4-9.7c-5.2,2.4-9.5,13.5-16.1,10.3c-11.6-18.7-26.5-39-20.3-62.3
	c7.4-0.4,14.9-0.6,22.3-0.8c5.2,10.9,10,22,13.9,33.5c-6.5,2.6-12.9,5.2-19.4,7.9c10.3,2.9,20.5,6,30.4,10
	C349.6,239.6,344.4,220.5,335.9,202.6z"/>
<path id="path240" class="st3" d="M335.9,202.6c7.7-12.1,19.4-21.5,33.9-13.3c-0.7,20.9,11.9,51.1-14.1,61
	c15.5-2.7,18.6,6.8,17.2,19.9c-11-1.4-21.7-4.3-31.4-9.7c-5.2,2.4-9.5,13.5-16.1,10.3c-11.6-18.7-26.5-39-20.3-62.3
	c7.4-0.4,14.9-0.6,22.3-0.8c5.2,10.9,10,22,13.9,33.5c-6.5,2.6-12.9,5.2-19.4,7.9c10.3,2.9,20.5,6,30.4,10
	C349.6,239.6,344.4,220.5,335.9,202.6z"/>
<path id="path286" class="st4" d="M293.7,233.7"/>
<path id="path288" class="st5" d="M293.7,233.7"/>
<path id="path334" class="st2" d="M288.7,252.7c5.8-5.6,17.7-2.1,20,5.5C307,270,282.5,264.2,288.7,252.7z"/>
<path id="path336" class="st3" d="M288.7,252.7c5.8-5.6,17.7-2.1,20,5.5C307,270,282.5,264.2,288.7,252.7z"/>
<path id="path370" class="st2" d="M286.5,269.7c8.8,0.4,18.1-1.5,26.7,1.6c12.5,17.3,33.5,23.6,49.9,36.2
	c-0.8,7.9-1.7,15.8-2.5,23.7c3.4-4.4,6.8-8.8,10.2-13.3c-0.8,20.9,7.8,39.9,14.2,59.3c-19.6,3.8-43.2,17.3-61.3,2.5
	C295,350.8,294.2,307.2,286.5,269.7z"/>
<path id="path372" class="st3" d="M286.5,269.7c8.8,0.4,18.1-1.5,26.7,1.6c12.5,17.3,33.5,23.6,49.9,36.2
	c-0.8,7.9-1.7,15.8-2.5,23.7c3.4-4.4,6.8-8.8,10.2-13.3c-0.8,20.9,7.8,39.9,14.2,59.3c-19.6,3.8-43.2,17.3-61.3,2.5
	C295,350.8,294.2,307.2,286.5,269.7z"/>
<path id="path374" class="st2" d="M360.5,281.6c6.1-8.1,22.8,0.7,15.2,9.9C369.6,300,353.3,290.8,360.5,281.6z"/>
<path id="path376" class="st3" d="M360.5,281.6c6.1-8.1,22.8,0.7,15.2,9.9C369.6,300,353.3,290.8,360.5,281.6z"/>
<path id="path378" class="st2" d="M383.7,299.9c24-1.1,41.3-27.1,66.3-17.5c8.5,11.3,15.8,23.9,28.5,31.2
	c-11.4,25.4-29.5,60.6-62.9,54.8c-22,1.2-30-22.1-35.7-39C375.3,319.5,380.9,309.5,383.7,299.9z"/>
<path id="path380" class="st3" d="M383.7,299.9c24-1.1,41.3-27.1,66.3-17.5c8.5,11.3,15.8,23.9,28.5,31.2
	c-11.4,25.4-29.5,60.6-62.9,54.8c-22,1.2-30-22.1-35.7-39C375.3,319.5,380.9,309.5,383.7,299.9z"/>
<path id="path414" class="st2" d="M397.5,377.1c8.2,6.6,17.8,10.9,27.3,15.1c-1.2,18.5-2.7,36.9-4.7,55.3
	c-6.8,2.2-13.6,4.5-20.5,6.7C395.6,428.7,392.7,402.6,397.5,377.1z"/>
<path id="path416" class="st3" d="M397.5,377.1c8.2,6.6,17.8,10.9,27.3,15.1c-1.2,18.5-2.7,36.9-4.7,55.3
	c-6.8,2.2-13.6,4.5-20.5,6.7C395.6,428.7,392.7,402.6,397.5,377.1z"/>
<path id="path438" class="st2" d="M328.9,400.6c17.3,10.5,36.4,2.3,48.4-12c-1.8,22.4-0.2,44.9,1.2,67.3
	c-16.2-2.5-32.2-5.9-48.2-9.4C328.9,431.2,328.8,415.9,328.9,400.6z"/>
<path id="path440" class="st3" d="M328.9,400.6c17.3,10.5,36.4,2.3,48.4-12c-1.8,22.4-0.2,44.9,1.2,67.3
	c-16.2-2.5-32.2-5.9-48.2-9.4C328.9,431.2,328.8,415.9,328.9,400.6z"/>
<path id="path466" class="st6" d="M427.7,427c8.7,1,10.2,5.1,4.5,12.2C423.3,438.2,421.9,434.1,427.7,427z"/>
<path id="path468" class="st7" d="M427.7,427c8.7,1,10.2,5.1,4.5,12.2C423.3,438.2,421.9,434.1,427.7,427z"/>
</svg>
