<?xml version="1.0" encoding="utf-8"?>
<!-- Generator: Adobe Illustrator 23.0.6, SVG Export Plug-In . SVG Version: 6.00 Build 0)  -->
<svg version="1.1" id="Layer_1" xmlns="http://www.w3.org/2000/svg" xmlns:xlink="http://www.w3.org/1999/xlink" x="0px" y="0px"
	 viewBox="0 0 792 612" style="enable-background:new 0 0 792 612;" xml:space="preserve">
<style type="text/css">
	.st0{fill:none;stroke:#171717;stroke-width:0.1;stroke-miterlimit:10;}
	.st1{fill:#171717;}
	.st2{fill:none;stroke:#FFFFFF;stroke-width:0.1;stroke-miterlimit:10;}
	.st3{fill:#FFFFFF;}
</style>
<g>
	<path id="path30" class="st0" d="M389.2,137.1c6.7-8.8,20-1.4,24.2,6.6c6.1,11.2,23.6,8.9,27.4,22.2c10,23.8,10.8,50.2,13.9,75.5
		c1.5,41.5,14.5,82.1,10.9,123.8c-2.4,17-11.1,32.2-15.2,48.8c-6.4,20.8-8.3,42.5-12,63.8c-5.9,7.3-15.9,9.5-24.5,11.8
		c-25.7,4.5-53.2,1.9-76.3-10.7c1.6-14.9,5.5-29.6,4.4-44.7c-5-12.9-13.8-24.4-16.1-38.4c-5.8-32-11.8-65.2-3.2-97.3
		c5.5-18.6,2-39.6,10.6-57c0.5,4.5,1.5,13.5,2.1,18c6.5-0.7,13-1.3,19.5-1.8c0-6.5,0-13.1,0-19.6c-8.1-0.1-16.1,0.5-24,1.9
		c3.1-17.8,0.4-42.4,21.6-49.6c2.6-13.4,0-29,8.3-40.5C370.6,146.6,382.5,146.7,389.2,137.1z"/>
	<path id="path32" class="st1" d="M389.2,137.1c6.7-8.8,20-1.4,24.2,6.6c6.1,11.2,23.6,8.9,27.4,22.2c10,23.8,10.8,50.2,13.9,75.5
		c1.5,41.5,14.5,82.1,10.9,123.8c-2.4,17-11.1,32.2-15.2,48.8c-6.4,20.8-8.3,42.5-12,63.8c-5.9,7.3-15.9,9.5-24.5,11.8
		c-25.7,4.5-53.2,1.9-76.3-10.7c1.6-14.9,5.5-29.6,4.4-44.7c-5-12.9-13.8-24.4-16.1-38.4c-5.8-32-11.8-65.2-3.2-97.3
		c5.5-18.6,2-39.6,10.6-57c0.5,4.5,1.5,13.5,2.1,18c6.5-0.7,13-1.3,19.5-1.8c0-6.5,0-13.1,0-19.6c-8.1-0.1-16.1,0.5-24,1.9
		c3.1-17.8,0.4-42.4,21.6-49.6c2.6-13.4,0-29,8.3-40.5C370.6,146.6,382.5,146.7,389.2,137.1z"/>
	<path id="path34" class="st2" d="M388.6,183.5c-0.4-15.1-9.9-37.2,9.2-44.9c2.3,0.6,7,1.8,9.3,2.4c6.3,13.4,1.6,28.4,1.2,42.5
		C401.7,183.5,395.1,183.5,388.6,183.5z"/>
	<path id="path36" class="st3" d="M388.6,183.5c-0.4-15.1-9.9-37.2,9.2-44.9c2.3,0.6,7,1.8,9.3,2.4c6.3,13.4,1.6,28.4,1.2,42.5
		C401.7,183.5,395.1,183.5,388.6,183.5z"/>
	<path id="path42" class="st2" d="M361.5,160.7c1.8-9.1,11.9-8.5,18.8-6.5c0.9,14.3-0.6,28.7-1.1,43c-6.8,0-13.6,0.1-20.4,0.1
		C358.7,185.1,358.1,172.6,361.5,160.7z"/>
	<path id="path44" class="st3" d="M361.5,160.7c1.8-9.1,11.9-8.5,18.8-6.5c0.9,14.3-0.6,28.7-1.1,43c-6.8,0-13.6,0.1-20.4,0.1
		C358.7,185.1,358.1,172.6,361.5,160.7z"/>
	<path id="path46" class="st2" d="M417.7,160.6c6.4-7.1,16.5-1.3,20.1,5.6c4.2,11.4,4.7,23.7,5.6,35.7c-7.8,0-15.5-0.4-23.2-0.8
		C417.1,187.9,413.3,173.9,417.7,160.6z"/>
	<path id="path48" class="st3" d="M417.7,160.6c6.4-7.1,16.5-1.3,20.1,5.6c4.2,11.4,4.7,23.7,5.6,35.7c-7.8,0-15.5-0.4-23.2-0.8
		C417.1,187.9,413.3,173.9,417.7,160.6z"/>
	<path id="path58" class="st2" d="M388.9,187.6c8-0.2,15.9,0.8,23.5,3.4c0.1,9.6,0.1,19.3,0.1,28.9c-8.1,0-16.2,0.1-24.3,0.1
		C387,209.3,385.7,198.2,388.9,187.6z"/>
	<path id="path60" class="st3" d="M388.9,187.6c8-0.2,15.9,0.8,23.5,3.4c0.1,9.6,0.1,19.3,0.1,28.9c-8.1,0-16.2,0.1-24.3,0.1
		C387,209.3,385.7,198.2,388.9,187.6z"/>
	<path id="path78" class="st2" d="M335.1,233.5c-1.5-13,1.2-42.9,20.8-33.1c0.4,10.5-1.2,20.9-2.2,31.3
		C347.5,232.3,341.3,232.9,335.1,233.5z"/>
	<path id="path80" class="st3" d="M335.1,233.5c-1.5-13,1.2-42.9,20.8-33.1c0.4,10.5-1.2,20.9-2.2,31.3
		C347.5,232.3,341.3,232.9,335.1,233.5z"/>
	<path id="path82" class="st2" d="M362.7,200.1c6.9-0.1,13.7,0.4,19.8,3.9c-0.9,9.3-1.6,18.6-2.1,27.9c-6.5,0.2-12.9,0.4-19.3,0.6
		C362,221.7,362.5,210.9,362.7,200.1z"/>
	<path id="path84" class="st3" d="M362.7,200.1c6.9-0.1,13.7,0.4,19.8,3.9c-0.9,9.3-1.6,18.6-2.1,27.9c-6.5,0.2-12.9,0.4-19.3,0.6
		C362,221.7,362.5,210.9,362.7,200.1z"/>
	<path id="path86" class="st2" d="M419.4,204.3c9-0.7,18.1-0.6,27,0.5c0.4,8.1,0.7,16.3,1.2,24.4c-8.9-1.1-17.8-1.8-26.6-3.2
		C414,221.4,420.4,211.2,419.4,204.3z"/>
	<path id="path88" class="st3" d="M419.4,204.3c9-0.7,18.1-0.6,27,0.5c0.4,8.1,0.7,16.3,1.2,24.4c-8.9-1.1-17.8-1.8-26.6-3.2
		C414,221.4,420.4,211.2,419.4,204.3z"/>
	<path id="path122" class="st2" d="M387.9,227.5c8.2-0.7,16.3-1.3,24.5-1.8c2.8,10.8,3.4,21.9,1.6,33c-7.7-0.2-17.3,6.1-23.7,0.3
		C387.8,248.7,388.2,238,387.9,227.5z"/>
	<path id="path124" class="st3" d="M387.9,227.5c8.2-0.7,16.3-1.3,24.5-1.8c2.8,10.8,3.4,21.9,1.6,33c-7.7-0.2-17.3,6.1-23.7,0.3
		C387.8,248.7,388.2,238,387.9,227.5z"/>
	<path id="path134" class="st2" d="M421.1,234.4c8.7-0.1,19.5-3.2,26.4,4c5.8,10.5,4.3,23.3,4.8,34.9c-8.6-3.2-18.3-4.9-25.4-11.1
		C419.4,254.9,420.3,243.9,421.1,234.4z"/>
	<path id="path136" class="st3" d="M421.1,234.4c8.7-0.1,19.5-3.2,26.4,4c5.8,10.5,4.3,23.3,4.8,34.9c-8.6-3.2-18.3-4.9-25.4-11.1
		C419.4,254.9,420.3,243.9,421.1,234.4z"/>
	<path id="path138" class="st2" d="M361.9,238.3c6.9-0.5,13.7-0.9,20.6-1.1c0.6,9.4,2.2,19.5-2.7,28.1c-5.1,3.8-11.7,3-17.6,3.6
		C361,258.8,360.9,248.5,361.9,238.3z"/>
	<path id="path140" class="st3" d="M361.9,238.3c6.9-0.5,13.7-0.9,20.6-1.1c0.6,9.4,2.2,19.5-2.7,28.1c-5.1,3.8-11.7,3-17.6,3.6
		C361,258.8,360.9,248.5,361.9,238.3z"/>
	<path id="path182" class="st2" d="M334.4,266c7-0.8,14.1-1.6,21.1-2.3c-6,10.7-8.8,25.5-23.6,26.8
		C332.5,282.3,333.3,274.1,334.4,266z"/>
	<path id="path184" class="st3" d="M334.4,266c7-0.8,14.1-1.6,21.1-2.3c-6,10.7-8.8,25.5-23.6,26.8
		C332.5,282.3,333.3,274.1,334.4,266z"/>
	<path id="path198" class="st2" d="M387.1,269.8c21.4-4.6,44.3,1.4,63.6,10.7c9.9,11.8,6.4,29.5,8.2,43.8
		c-10.8-8.1-20.4-17.7-30.2-27c-5.7-4.1-0.1-11.2,0.4-16.3c-3.8,1.3-7.6,2.6-11.4,3.9C407.9,278.9,396.8,275.9,387.1,269.8z"/>
	<path id="path200" class="st3" d="M387.1,269.8c21.4-4.6,44.3,1.4,63.6,10.7c9.9,11.8,6.4,29.5,8.2,43.8
		c-10.8-8.1-20.4-17.7-30.2-27c-5.7-4.1-0.1-11.2,0.4-16.3c-3.8,1.3-7.6,2.6-11.4,3.9C407.9,278.9,396.8,275.9,387.1,269.8z"/>
	<path id="path214" class="st2" d="M358.3,274.4c4.6-6.7,15.9,1.3,10.9,7.8C364.4,288.2,353.1,281,358.3,274.4z"/>
	<path id="path216" class="st3" d="M358.3,274.4c4.6-6.7,15.9,1.3,10.9,7.8C364.4,288.2,353.1,281,358.3,274.4z"/>
	<path id="path234" class="st2" d="M353.1,288.1c15,1.5,28.6-5.9,43.5-5.9c0.1,4.5,0.2,13.4,0.3,17.9c5.9-1.9,11.7-3.9,17.5-5.9
		c11,11.4,24.1,20.9,33.9,33.4c6.9,26.7,4.7,54.5-2.6,80.8c-12.6,19.3-50.9,13-53.3-11c-2.4-10.5-6.8-20.9-6.7-31.8
		c3.5-11.6,8.7-22.5,13.3-33.7c11.2,5.9,20.1,15.2,31.4,20.8c-4.3-18.9-25.8-24-37.1-37.9C378,309.7,359.1,305,353.1,288.1z"/>
	<path id="path236" class="st3" d="M353.1,288.1c15,1.5,28.6-5.9,43.5-5.9c0.1,4.5,0.2,13.4,0.3,17.9c5.9-1.9,11.7-3.9,17.5-5.9
		c11,11.4,24.1,20.9,33.9,33.4c6.9,26.7,4.7,54.5-2.6,80.8c-12.6,19.3-50.9,13-53.3-11c-2.4-10.5-6.8-20.9-6.7-31.8
		c3.5-11.6,8.7-22.5,13.3-33.7c11.2,5.9,20.1,15.2,31.4,20.8c-4.3-18.9-25.8-24-37.1-37.9C378,309.7,359.1,305,353.1,288.1z"/>
	<path id="path242" class="st2" d="M326.9,308.8c0.5-10.2,12.2-11.2,19.3-15.2c6.5,6.7,13.1,13.3,19.6,19.9
		c-13.1,1-28.7-0.4-38.4,10.3c20.4-0.9,41.7-12.7,61.2-1.3c-3.2,17.1-8.8,33.8-11,51c4.2,16.3,8.8,32.6,14.9,48.3
		c-6,20-5.8,41.2-6.6,61.9c-14-1.4-27.5-5.5-40.9-9.7c1.3-11.7,2.7-23.3,3.6-35c15.9,3.3,38.5,1.2,43.7-17.3
		c-14,2.9-28.4,9-42.8,4.7c-8.8-7.6-11.7-19.5-15.2-30C325,368.3,321.6,338,326.9,308.8z"/>
	<path id="path244" class="st3" d="M326.9,308.8c0.5-10.2,12.2-11.2,19.3-15.2c6.5,6.7,13.1,13.3,19.6,19.9
		c-13.1,1-28.7-0.4-38.4,10.3c20.4-0.9,41.7-12.7,61.2-1.3c-3.2,17.1-8.8,33.8-11,51c4.2,16.3,8.8,32.6,14.9,48.3
		c-6,20-5.8,41.2-6.6,61.9c-14-1.4-27.5-5.5-40.9-9.7c1.3-11.7,2.7-23.3,3.6-35c15.9,3.3,38.5,1.2,43.7-17.3
		c-14,2.9-28.4,9-42.8,4.7c-8.8-7.6-11.7-19.5-15.2-30C325,368.3,321.6,338,326.9,308.8z"/>
	<path id="path354" class="st0" d="M368,338.4c15.9-1-10.6,21-14.3,10.5C356.6,343.6,362.9,341.1,368,338.4z"/>
	<path id="path356" class="st1" d="M368,338.4c15.9-1-10.6,21-14.3,10.5C356.6,343.6,362.9,341.1,368,338.4z"/>
	<path id="path430" class="st2" d="M404.6,431.5c7.5-0.1,15.1-0.4,22.6-0.4c-1.8,16.1-3.2,32.3-6.6,48.1c-5.9,1.2-11.9,2.4-17.8,3.6
		C401.1,465.6,403.3,448.5,404.6,431.5z"/>
	<path id="path432" class="st3" d="M404.6,431.5c7.5-0.1,15.1-0.4,22.6-0.4c-1.8,16.1-3.2,32.3-6.6,48.1c-5.9,1.2-11.9,2.4-17.8,3.6
		C401.1,465.6,403.3,448.5,404.6,431.5z"/>
</g>
</svg>
