<?xml version="1.0" encoding="utf-8"?>
<!-- Generator: Adobe Illustrator 23.0.6, SVG Export Plug-In . SVG Version: 6.00 Build 0)  -->
<svg version="1.1" id="Layer_1" xmlns="http://www.w3.org/2000/svg" xmlns:xlink="http://www.w3.org/1999/xlink" x="0px" y="0px"
	 viewBox="0 0 792 612" style="enable-background:new 0 0 792 612;" xml:space="preserve">
<style type="text/css">
	.st0{fill:none;stroke:#181818;stroke-width:0.1;stroke-miterlimit:10;}
	.st1{fill:#181818;}
	.st2{fill:none;stroke:#FFFFFF;stroke-width:0.1;stroke-miterlimit:10;}
	.st3{fill:#FFFFFF;}
</style>
<g>
	<path id="path62" class="st0" d="M328.3,227.4c30-18,43.2-54.2,75.4-69.1c33.7-3.4,67.4,9.9,92.5,32c5,3.6,9.1,10,6.7,16.2
		c-8.3,7.3-17.7,14.5-28.6,17.2c-8-1.7-15.2-5.5-22.8-8.1c-8.5,0.1-17,1.3-25.4,1.8c-8.1,15.9-15.8,32.1-22,48.8
		c2.2,10.7,8.4,20,14.1,29.1c3.8,5.3,7.7,13.2,15.7,10.7c17.9-8.7,34.7-19.3,51.4-30c14.7-8.8,42.8,0.2,39.3,20.2
		c-9.2,10.7-22.4,17.3-30.2,29.5c-13.6,19.3-39.1,21-58.5,31.4c-13.2,9.3-21.1,25-35.8,32.4c-10.7,4.7-23.3,4.6-33.1,11.4
		c-13.5,13-16.7,33.7-30.7,46.2c-16.6,7.9-35.3,10.7-53.5,11.7c-12.6-14.7-29-29.8-33.1-48.8C272.2,347.6,308.8,291,328.3,227.4z"/>
	<path id="path64" class="st1" d="M328.3,227.4c30-18,43.2-54.2,75.4-69.1c33.7-3.4,67.4,9.9,92.5,32c5,3.6,9.1,10,6.7,16.2
		c-8.3,7.3-17.7,14.5-28.6,17.2c-8-1.7-15.2-5.5-22.8-8.1c-8.5,0.1-17,1.3-25.4,1.8c-8.1,15.9-15.8,32.1-22,48.8
		c2.2,10.7,8.4,20,14.1,29.1c3.8,5.3,7.7,13.2,15.7,10.7c17.9-8.7,34.7-19.3,51.4-30c14.7-8.8,42.8,0.2,39.3,20.2
		c-9.2,10.7-22.4,17.3-30.2,29.5c-13.6,19.3-39.1,21-58.5,31.4c-13.2,9.3-21.1,25-35.8,32.4c-10.7,4.7-23.3,4.6-33.1,11.4
		c-13.5,13-16.7,33.7-30.7,46.2c-16.6,7.9-35.3,10.7-53.5,11.7c-12.6-14.7-29-29.8-33.1-48.8C272.2,347.6,308.8,291,328.3,227.4z"/>
	<path id="path74" class="st2" d="M399.9,169.8c23.9-13.8,53.2,0.3,75.7,11.5c0.4,2.3,1.1,6.8,1.4,9c-16-5.2-30.1-16.4-47.4-17.6
		C419.8,171.8,409.8,171.3,399.9,169.8z"/>
	<path id="path76" class="st3" d="M399.9,169.8c23.9-13.8,53.2,0.3,75.7,11.5c0.4,2.3,1.1,6.8,1.4,9c-16-5.2-30.1-16.4-47.4-17.6
		C419.8,171.8,409.8,171.3,399.9,169.8z"/>
	<path id="path90" class="st2" d="M372,195.9c5.7-8.5,12.1-22.5,24.8-19.4c13.6,2.9,32.3-2,41.5,10.4
		C415.4,183.9,393.6,189.1,372,195.9z"/>
	<path id="path92" class="st3" d="M372,195.9c5.7-8.5,12.1-22.5,24.8-19.4c13.6,2.9,32.3-2,41.5,10.4
		C415.4,183.9,393.6,189.1,372,195.9z"/>
	<path id="path98" class="st2" d="M451,185.7c15.4,4.5,22,21.3,37.5,24.9c-8.9,6.4-23,9.5-30.6-0.5C455.3,202,453.3,193.8,451,185.7
		z"/>
	<path id="path100" class="st3" d="M451,185.7c15.4,4.5,22,21.3,37.5,24.9c-8.9,6.4-23,9.5-30.6-0.5
		C455.3,202,453.3,193.8,451,185.7z"/>
	<path id="path102" class="st2" d="M484.6,191c6.2-1.6,8.6,0.7,7.3,6.9C485.7,199.5,483.3,197.2,484.6,191z"/>
	<path id="path104" class="st3" d="M484.6,191c6.2-1.6,8.6,0.7,7.3,6.9C485.7,199.5,483.3,197.2,484.6,191z"/>
	<path id="path110" class="st2" d="M382.6,200.3c13.9-3.8,28.4-5.5,42.4-8.7c9.6,2.3,18.8,5.8,28.3,8.7
		c-7.5,17.2-29.4,12.3-44.1,9.6c-6.6,6.5-14.4,11.3-22.5,15.6c0.2,12.7-9.6,19.4-19.7,24.6c3.8,0,11.5,0,15.4,0
		c-3.3,10.9-7.1,21.8-12.1,32c-9.4,1-18.7,1.8-28,3.3c7.4,3.9,15.6,5.6,23.7,7.3c1.1,35.3,0.4,79.8-32.7,101.4
		c-14.1,9.5-40.4-12.8-43.2,11c6.2,2.2,12.5,4.3,18.9,6.3c-5.1,12.6-9.6,25.4-12.1,38.8c-21.4,2-29.6-22.9-42-35.8
		c24.8-48.3,43.7-99.5,66.8-148.7C342.8,244.7,358,217.7,382.6,200.3z"/>
	<path id="path112" class="st3" d="M382.6,200.3c13.9-3.8,28.4-5.5,42.4-8.7c9.6,2.3,18.8,5.8,28.3,8.7
		c-7.5,17.2-29.4,12.3-44.1,9.6c-6.6,6.5-14.4,11.3-22.5,15.6c0.2,12.7-9.6,19.4-19.7,24.6c3.8,0,11.5,0,15.4,0
		c-3.3,10.9-7.1,21.8-12.1,32c-9.4,1-18.7,1.8-28,3.3c7.4,3.9,15.6,5.6,23.7,7.3c1.1,35.3,0.4,79.8-32.7,101.4
		c-14.1,9.5-40.4-12.8-43.2,11c6.2,2.2,12.5,4.3,18.9,6.3c-5.1,12.6-9.6,25.4-12.1,38.8c-21.4,2-29.6-22.9-42-35.8
		c24.8-48.3,43.7-99.5,66.8-148.7C342.8,244.7,358,217.7,382.6,200.3z"/>
	<path id="path150" class="st2" d="M413.1,218c7.6-0.1,3.1,10.9-2.4,10.6C402.8,228.6,407.5,217.9,413.1,218z"/>
	<path id="path152" class="st3" d="M413.1,218c7.6-0.1,3.1,10.9-2.4,10.6C402.8,228.6,407.5,217.9,413.1,218z"/>
	<path id="path178" class="st2" d="M399.8,230.4c2,1.4,5.9,4.1,7.9,5.4c-3.5,12.7-7.3,26.2-17.7,35.1
		C390,256.8,394.9,243.6,399.8,230.4z"/>
	<path id="path180" class="st3" d="M399.8,230.4c2,1.4,5.9,4.1,7.9,5.4c-3.5,12.7-7.3,26.2-17.7,35.1
		C390,256.8,394.9,243.6,399.8,230.4z"/>
	<path id="path274" class="st2" d="M372.1,290.1c8.6-5.3,16.9-10.8,25.4-16.3c-1.4,21.9,23.4,30.7,26.8,50.8
		c1.9,8.7,3,17.6,4.2,26.5c-9,8.6-17,18.3-26.9,25.9c-14.2,6.4-29.6,9.8-44.4,14.6c8.3-17.1,18.3-34.2,19.1-53.6
		C376.6,321.9,373.1,306.1,372.1,290.1z"/>
	<path id="path276" class="st3" d="M372.1,290.1c8.6-5.3,16.9-10.8,25.4-16.3c-1.4,21.9,23.4,30.7,26.8,50.8
		c1.9,8.7,3,17.6,4.2,26.5c-9,8.6-17,18.3-26.9,25.9c-14.2,6.4-29.6,9.8-44.4,14.6c8.3-17.1,18.3-34.2,19.1-53.6
		C376.6,321.9,373.1,306.1,372.1,290.1z"/>
	<path id="path278" class="st2" d="M468.7,293.2c13.5-13.4,42.8-23.7,52.6-0.9c-18.5,9.9-28.2,30.2-47,39.3
		C472.6,318.7,467.9,306.2,468.7,293.2z"/>
	<path id="path280" class="st3" d="M468.7,293.2c13.5-13.4,42.8-23.7,52.6-0.9c-18.5,9.9-28.2,30.2-47,39.3
		C472.6,318.7,467.9,306.2,468.7,293.2z"/>
	<path id="path338" class="st2" d="M441.5,312.5c5.3-4.8,11.1-9,16.8-13.2c4.2,11,14.4,21.7,13.7,33.4
		c-11.8,6.4-24.2,11.7-36.8,16.2c-1.3-12.6-3.5-25-5.6-37.5C433.5,311.7,437.5,312.1,441.5,312.5z"/>
	<path id="path340" class="st3" d="M441.5,312.5c5.3-4.8,11.1-9,16.8-13.2c4.2,11,14.4,21.7,13.7,33.4
		c-11.8,6.4-24.2,11.7-36.8,16.2c-1.3-12.6-3.5-25-5.6-37.5C433.5,311.7,437.5,312.1,441.5,312.5z"/>
	<path id="path454" class="st2" d="M303.8,450.4c3.5-16.4,6.9-36.3,23.6-44.5c0.8,4.2,1.6,8.3,2.3,12.5
		C320,428.8,321.2,449.5,303.8,450.4z"/>
	<path id="path456" class="st3" d="M303.8,450.4c3.5-16.4,6.9-36.3,23.6-44.5c0.8,4.2,1.6,8.3,2.3,12.5
		C320,428.8,321.2,449.5,303.8,450.4z"/>
</g>
</svg>
