<?xml version="1.0" encoding="utf-8"?>
<!-- Generator: Adobe Illustrator 23.0.6, SVG Export Plug-In . SVG Version: 6.00 Build 0)  -->
<svg version="1.1" id="Layer_1" xmlns="http://www.w3.org/2000/svg" xmlns:xlink="http://www.w3.org/1999/xlink" x="0px" y="0px"
	 viewBox="0 0 792 612" style="enable-background:new 0 0 792 612;" xml:space="preserve">
<style type="text/css">
	.st0{fill:none;stroke:#171717;stroke-width:0.1;stroke-miterlimit:10;}
	.st1{fill:#171717;}
	.st2{fill:none;stroke:#FFFFFF;stroke-width:0.1;stroke-miterlimit:10;}
	.st3{fill:#FFFFFF;}
	.st4{fill:none;stroke:#383838;stroke-width:0.1;stroke-miterlimit:10;}
	.st5{fill:#383838;}
	.st6{fill:none;stroke:#616161;stroke-width:0.1;stroke-miterlimit:10;}
</style>
<path id="path14" class="st0" d="M397.9,144.2c-3.2-18,26.8-23.3,30.9-6.2c11.6,29.4,24.1,59.4,26.2,91.3
	c4.9,40.9,20.7,82.2,11.1,123.6c-3.4,16.4,2.4,33.2-0.8,49.6c-2.7,10.6-13.8,15.2-20.1,23.3c-2.9,14.2-1.1,29.7-6.9,43.2
	c-18.5,8.9-39.3,18.2-60.2,12c-13-4-26.9-9.1-36.6-18.9c-2.7-12.5,5.2-25.1,1.4-37.7c-6.9-26.9-22.1-52.1-21.5-80.7
	c0.3-18.2-2.4-36.5,1-54.5c1.2-7.6,9.5-10.3,14.4-15.2c3.2-6.9,4.2-14.7,8.4-21c6.3-3,13.4-3.8,20.2-5.1c2.8-16.8,23.7-23.2,37.4-16
	c5.8,8.6,9.6,18.4,15.2,27.2C412,220.6,403.5,182.6,397.9,144.2z"/>
<path id="path16" class="st1" d="M397.9,144.2c-3.2-18,26.8-23.3,30.9-6.2c11.6,29.4,24.1,59.4,26.2,91.3
	c4.9,40.9,20.7,82.2,11.1,123.6c-3.4,16.4,2.4,33.2-0.8,49.6c-2.7,10.6-13.8,15.2-20.1,23.3c-2.9,14.2-1.1,29.7-6.9,43.2
	c-18.5,8.9-39.3,18.2-60.2,12c-13-4-26.9-9.1-36.6-18.9c-2.7-12.5,5.2-25.1,1.4-37.7c-6.9-26.9-22.1-52.1-21.5-80.7
	c0.3-18.2-2.4-36.5,1-54.5c1.2-7.6,9.5-10.3,14.4-15.2c3.2-6.9,4.2-14.7,8.4-21c6.3-3,13.4-3.8,20.2-5.1c2.8-16.8,23.7-23.2,37.4-16
	c5.8,8.6,9.6,18.4,15.2,27.2C412,220.6,403.5,182.6,397.9,144.2z"/>
<path id="path22" class="st2" d="M402.8,140.6c1-8.5,12.8-8.1,18.4-4.6c6.3,12,11.3,24.7,15.3,37.7c-8.6,1.6-17.2,3.3-25.9,4.8
	C407.1,166.1,400.4,153.5,402.8,140.6z"/>
<path id="path24" class="st3" d="M402.8,140.6c1-8.5,12.8-8.1,18.4-4.6c6.3,12,11.3,24.7,15.3,37.7c-8.6,1.6-17.2,3.3-25.9,4.8
	C407.1,166.1,400.4,153.5,402.8,140.6z"/>
<path id="path50" class="st2" d="M411,184.4c8.2-2.2,16.6-3.6,25.1-4.8c4.5,9.7,8.5,19.5,12.3,29.5c-10.4,2.4-20.9,4-31.3,6
	C415.4,204.8,413.4,194.6,411,184.4z"/>
<path id="path52" class="st3" d="M411,184.4c8.2-2.2,16.6-3.6,25.1-4.8c4.5,9.7,8.5,19.5,12.3,29.5c-10.4,2.4-20.9,4-31.3,6
	C415.4,204.8,413.4,194.6,411,184.4z"/>
<path id="path94" class="st2" d="M418.6,222.5c9.5-1.4,18.9-3.5,28.3-5.8c2.2,15.2,5.1,30.2,7.9,45.3c-10.5-1.4-21-2.6-31.4-3.8
	C421.5,246.3,419.7,234.5,418.6,222.5z"/>
<path id="path96" class="st3" d="M418.6,222.5c9.5-1.4,18.9-3.5,28.3-5.8c2.2,15.2,5.1,30.2,7.9,45.3c-10.5-1.4-21-2.6-31.4-3.8
	C421.5,246.3,419.7,234.5,418.6,222.5z"/>
<path id="path114" class="st2" d="M375.5,242c4.9-4.8,11.8-6.2,17.8-9.2c20.9,16.1,14.5,44.1,17.9,66.8c-8.4-0.4-16.4,1.7-23.9,5.2
	C378.9,285.1,369.6,263.7,375.5,242z"/>
<path id="path116" class="st3" d="M375.5,242c4.9-4.8,11.8-6.2,17.8-9.2c20.9,16.1,14.5,44.1,17.9,66.8c-8.4-0.4-16.4,1.7-23.9,5.2
	C378.9,285.1,369.6,263.7,375.5,242z"/>
<path id="path154" class="st2" d="M348.8,256.4c5.7-0.7,11.5-1.4,17.3-1.9c3.1,19.8,8.6,39.1,16.9,57.3c-3.6,2.1-7.2,4.3-10.8,6.4
	c-0.5,3.5-1.6,10.5-2.2,14c-9-17.5-13.1-36.9-22.3-54.3C343.3,271.1,347.6,263.4,348.8,256.4z"/>
<path id="path156" class="st3" d="M348.8,256.4c5.7-0.7,11.5-1.4,17.3-1.9c3.1,19.8,8.6,39.1,16.9,57.3c-3.6,2.1-7.2,4.3-10.8,6.4
	c-0.5,3.5-1.6,10.5-2.2,14c-9-17.5-13.1-36.9-22.3-54.3C343.3,271.1,347.6,263.4,348.8,256.4z"/>
<path id="path166" class="st2" d="M412.5,274.4c2.9-3.7,4.2-12.9,10.7-10.7c10.8,2,21.5,5.1,32.5,6c9.5,27.8,6.1,57.7,3.7,86.4
	c-3.4-4.2-6.8-8.3-10.1-12.5c1.9-7.3,3.6-14.6,4.4-22c-3.6,4.4-6.9,9.1-10.3,13.7c-1.8-1.2-5.5-3.6-7.3-4.8c4.3-8.3,6.7-17.3,6-26.7
	c-5.4,6.3-9.9,13.1-14.8,19.7c-10.3-15.4-14.5-35.9-3.2-51.9C421.2,272.3,415.4,273.7,412.5,274.4z"/>
<path id="path168" class="st3" d="M412.5,274.4c2.9-3.7,4.2-12.9,10.7-10.7c10.8,2,21.5,5.1,32.5,6c9.5,27.8,6.1,57.7,3.7,86.4
	c-3.4-4.2-6.8-8.3-10.1-12.5c1.9-7.3,3.6-14.6,4.4-22c-3.6,4.4-6.9,9.1-10.3,13.7c-1.8-1.2-5.5-3.6-7.3-4.8c4.3-8.3,6.7-17.3,6-26.7
	c-5.4,6.3-9.9,13.1-14.8,19.7c-10.3-15.4-14.5-35.9-3.2-51.9C421.2,272.3,415.4,273.7,412.5,274.4z"/>
<path id="path202" class="st0" d="M394.4,276.2c3.9-2.3,12.3,1.3,8.9,6.5c-4.2,2.8-8.8,3.5-13.8,2
	C382.4,282.3,390.7,276.4,394.4,276.2z"/>
<path id="path204" class="st1" d="M394.4,276.2c3.9-2.3,12.3,1.3,8.9,6.5c-4.2,2.8-8.8,3.5-13.8,2
	C382.4,282.3,390.7,276.4,394.4,276.2z"/>
<path id="path230" class="st2" d="M328.6,284c3.4-0.4,10.2-1.3,13.6-1.7c4.7,10.3,8.4,20.9,12,31.6c-6,6.1-8.9,14-10.2,22.4
	C335.4,320.2,321.7,303.3,328.6,284z"/>
<path id="path232" class="st3" d="M328.6,284c3.4-0.4,10.2-1.3,13.6-1.7c4.7,10.3,8.4,20.9,12,31.6c-6,6.1-8.9,14-10.2,22.4
	C335.4,320.2,321.7,303.3,328.6,284z"/>
<path id="path246" class="st4" d="M364.3,296.8c6.4-2,8.3-0.1,5.6,5.7C363.5,304.4,361.7,302.5,364.3,296.8z"/>
<path id="path248" class="st5" d="M364.3,296.8c6.4-2,8.3-0.1,5.6,5.7C363.5,304.4,361.7,302.5,364.3,296.8z"/>
<path id="path254" class="st0" d="M339,300.8c7.2-4.5,9.1,6.7,1.8,7.5C333.5,313,332.4,302.2,339,300.8z"/>
<path id="path256" class="st1" d="M339,300.8c7.2-4.5,9.1,6.7,1.8,7.5C333.5,313,332.4,302.2,339,300.8z"/>
<path id="path262" class="st2" d="M396.1,307.7c5,0.3,10,0.8,15,1.3c-3.8,6.6-9.8,10.8-17,12.8C394.7,317.2,395.3,312.4,396.1,307.7
	z"/>
<path id="path264" class="st3" d="M396.1,307.7c5,0.3,10,0.8,15,1.3c-3.8,6.6-9.8,10.8-17,12.8C394.7,317.2,395.3,312.4,396.1,307.7
	z"/>
<path id="path290" class="st2" d="M376.2,323.4c3.2,0,9.6-0.1,12.7-0.1c0.8,6.8-1.4,20.5-11,14.5
	C377.1,333.1,376.6,328.3,376.2,323.4z"/>
<path id="path292" class="st3" d="M376.2,323.4c3.2,0,9.6-0.1,12.7-0.1c0.8,6.8-1.4,20.5-11,14.5
	C377.1,333.1,376.6,328.3,376.2,323.4z"/>
<path id="path294" class="st2" d="M393.8,346.9c-2.8-10.8,4.8-19.4,12.6-25.8c-3,8.2-12.7,15.8-8.6,25.2c4.3,5.2,13.1,11.5,19.2,5.4
	c7.3-4.7,9.8-13,12-20.9c6.8,7.1,13.6,14.3,20.1,21.7c-6.3,7.7-12.4,15.6-17.2,24.4C415.2,374.7,398.1,364,393.8,346.9z"/>
<path id="path296" class="st3" d="M393.8,346.9c-2.8-10.8,4.8-19.4,12.6-25.8c-3,8.2-12.7,15.8-8.6,25.2c4.3,5.2,13.1,11.5,19.2,5.4
	c7.3-4.7,9.8-13,12-20.9c6.8,7.1,13.6,14.3,20.1,21.7c-6.3,7.7-12.4,15.6-17.2,24.4C415.2,374.7,398.1,364,393.8,346.9z"/>
<path id="path306" class="st2" d="M326.9,327.8c6.6-4.7,14.2,11,6.1,13.1C327.1,340.6,324,332.4,326.9,327.8z"/>
<path id="path308" class="st3" d="M326.9,327.8c6.6-4.7,14.2,11,6.1,13.1C327.1,340.6,324,332.4,326.9,327.8z"/>
<path id="path310" class="st2" d="M351.9,327.7c7-2.3,9.5,0,7.3,6.8C352.1,336.7,349.6,334.4,351.9,327.7z"/>
<path id="path312" class="st3" d="M351.9,327.7c7-2.3,9.5,0,7.3,6.8C352.1,336.7,349.6,334.4,351.9,327.7z"/>
<path id="path314" class="st2" d="M405.8,348.6c-7.9-9.8,3.5-18.5,11.5-22.8c1.3,2.4,3.9,7.3,5.2,9.7
	C416.8,339.7,411.3,344.2,405.8,348.6z"/>
<path id="path316" class="st3" d="M405.8,348.6c-7.9-9.8,3.5-18.5,11.5-22.8c1.3,2.4,3.9,7.3,5.2,9.7
	C416.8,339.7,411.3,344.2,405.8,348.6z"/>
<path id="path362" class="st6" d="M348.9,339.4c5-3.9,7.8-2.8,8.6,3.2C352.4,346.4,349.5,345.3,348.9,339.4z"/>
<path id="path364" class="st3" d="M348.9,339.4c5-3.9,7.8-2.8,8.6,3.2C352.4,346.4,349.5,345.3,348.9,339.4z"/>
<path id="path366" class="st2" d="M328.9,343.4c8.8,1.4,17.3,4.4,26,6.3c7.3-2.3,14.8-5.5,22.3-1.6c-7.9,11.9-19,21.3-26.5,33.5
	c8.1-4.3,14.5-10.8,21-17c-3.5,9.7-6.7,19.6-8.2,29.8c8.6-13.3,13.3-29.4,25.6-40c-4.9,12.9-9.2,26.2-7,40.2
	c3.3,10.7,8.9,20.5,13.6,30.6c-15.8-0.3-39.5,7.5-48.3-10.5C338.8,391.8,327,368.6,328.9,343.4z"/>
<path id="path368" class="st3" d="M328.9,343.4c8.8,1.4,17.3,4.4,26,6.3c7.3-2.3,14.8-5.5,22.3-1.6c-7.9,11.9-19,21.3-26.5,33.5
	c8.1-4.3,14.5-10.8,21-17c-3.5,9.7-6.7,19.6-8.2,29.8c8.6-13.3,13.3-29.4,25.6-40c-4.9,12.9-9.2,26.2-7,40.2
	c3.3,10.7,8.9,20.5,13.6,30.6c-15.8-0.3-39.5,7.5-48.3-10.5C338.8,391.8,327,368.6,328.9,343.4z"/>
<path id="path382" class="st2" d="M393.4,363.4c10.6,9.7,24.7,17.7,27.6,33c6.1-0.9,12.3-1.6,18.4-2.3c-3-3.2-6.1-6.5-9-9.7
	c8.7-4.9,16.8-10.9,24.1-17.7c5.2,0.8,5.1,6.7,5.5,10.9c-0.6,17.7-7.6,38.5-25.4,45.5c-12,1.2-27.2,1.3-35.1-9.5
	C392.1,398.3,385.9,380,393.4,363.4z"/>
<path id="path384" class="st3" d="M393.4,363.4c10.6,9.7,24.7,17.7,27.6,33c6.1-0.9,12.3-1.6,18.4-2.3c-3-3.2-6.1-6.5-9-9.7
	c8.7-4.9,16.8-10.9,24.1-17.7c5.2,0.8,5.1,6.7,5.5,10.9c-0.6,17.7-7.6,38.5-25.4,45.5c-12,1.2-27.2,1.3-35.1-9.5
	C392.1,398.3,385.9,380,393.4,363.4z"/>
<path id="path442" class="st2" d="M355.4,441.5c10.9-2.6,21.6-6.3,31.5-11.6c1.4,13.4,1,26.9-0.9,40.2c-6.3,7.5-15.7-1-22.2-4
	C354.6,461.7,357.4,449.7,355.4,441.5z"/>
<path id="path444" class="st3" d="M355.4,441.5c10.9-2.6,21.6-6.3,31.5-11.6c1.4,13.4,1,26.9-0.9,40.2c-6.3,7.5-15.7-1-22.2-4
	C354.6,461.7,357.4,449.7,355.4,441.5z"/>
<path id="path446" class="st2" d="M403,434.9c6.3,1.6,12.6,2.9,18.9,4.2c-0.7,9.8-1.4,19.7-2.1,29.6c-5.7,1-11.4,1.8-17.1,2.5
	C401.6,459.1,402.5,447,403,434.9z"/>
<path id="path448" class="st3" d="M403,434.9c6.3,1.6,12.6,2.9,18.9,4.2c-0.7,9.8-1.4,19.7-2.1,29.6c-5.7,1-11.4,1.8-17.1,2.5
	C401.6,459.1,402.5,447,403,434.9z"/>
</svg>
