<?xml version="1.0" encoding="utf-8"?>
<!-- Generator: Adobe Illustrator 23.0.6, SVG Export Plug-In . SVG Version: 6.00 Build 0)  -->
<svg version="1.1" id="Layer_1" xmlns="http://www.w3.org/2000/svg" xmlns:xlink="http://www.w3.org/1999/xlink" x="0px" y="0px"
	 viewBox="0 0 792 612" style="enable-background:new 0 0 792 612;" xml:space="preserve">
<style type="text/css">
	.st0{fill:none;stroke:#171717;stroke-width:0.1;stroke-miterlimit:10;}
	.st1{fill:#171717;}
	.st2{fill:none;stroke:#FFFFFF;stroke-width:0.1;stroke-miterlimit:10;}
	.st3{fill:#FFFFFF;}
	.st4{fill:none;stroke:#616161;stroke-width:0.1;stroke-miterlimit:10;}
</style>
<path id="path118" class="st0" d="M373.5,161.9c12.5-15.8,36.4-24.7,53.6-10.6c12.4,9.3,35.6-2,41.8,16.2
	c13.7,28.9,18.4,66.9-1.1,94.3c9.3,7.2,18.4,15.7,20,28c9.2,22.8-5.6,44.4-12.8,65.4c-4.7,14.7-17.1,24.4-29.2,32.8
	c1.2,19.3-0.8,38.5-5,57.3c-20.5,10.5-42.6,18-65.3,21.8c-16.2-2.3-31.7-8-46.8-14c2.4-16.1,7.4-32,7.3-48.4
	c-5.1-15.2-19.1-25.8-23.9-41.3c-18.1-50.4-13.5-106.1,3.4-156.2c6.3-10.2,15.5-18.6,18.7-30.6C338.9,160,359.2,155.8,373.5,161.9z"
	/>
<path id="path120" class="st1" d="M373.5,161.9c12.5-15.8,36.4-24.7,53.6-10.6c12.4,9.3,35.6-2,41.8,16.2
	c13.7,28.9,18.4,66.9-1.1,94.3c9.3,7.2,18.4,15.7,20,28c9.2,22.8-5.6,44.4-12.8,65.4c-4.7,14.7-17.1,24.4-29.2,32.8
	c1.2,19.3-0.8,38.5-5,57.3c-20.5,10.5-42.6,18-65.3,21.8c-16.2-2.3-31.7-8-46.8-14c2.4-16.1,7.4-32,7.3-48.4
	c-5.1-15.2-19.1-25.8-23.9-41.3c-18.1-50.4-13.5-106.1,3.4-156.2c6.3-10.2,15.5-18.6,18.7-30.6C338.9,160,359.2,155.8,373.5,161.9z"
	/>
<path id="path126" class="st2" d="M378.9,168c9.1-12.4,23.3-18.5,38.6-16.2c13.7,21.1,26.7,44.4,25.3,70.5
	c-10.7,1.6-27.4-2.6-26.1,13.5c5.5-0.4,16.5-1.1,22-1.5c-2.1,10.4-13.2,13.1-20.2,5.6c-7.6-13.6-8.6-29.8-16.5-43.3
	C395.3,186.4,386.7,177.5,378.9,168z"/>
<path id="path128" class="st3" d="M378.9,168c9.1-12.4,23.3-18.5,38.6-16.2c13.7,21.1,26.7,44.4,25.3,70.5
	c-10.7,1.6-27.4-2.6-26.1,13.5c5.5-0.4,16.5-1.1,22-1.5c-2.1,10.4-13.2,13.1-20.2,5.6c-7.6-13.6-8.6-29.8-16.5-43.3
	C395.3,186.4,386.7,177.5,378.9,168z"/>
<path id="path142" class="st2" d="M435.1,162.9c8.9-0.3,17.9-0.1,26.8,0.7c8.8,19.8,13.7,41,12.3,62.7c-8.6-1.7-17.3-2.5-26-2.8
	C447.1,202.7,442.1,182.4,435.1,162.9z"/>
<path id="path144" class="st3" d="M435.1,162.9c8.9-0.3,17.9-0.1,26.8,0.7c8.8,19.8,13.7,41,12.3,62.7c-8.6-1.7-17.3-2.5-26-2.8
	C447.1,202.7,442.1,182.4,435.1,162.9z"/>
<path id="path146" class="st2" d="M338.3,188.3c-4-12,10.1-21.3,20.5-23.6c16,6.7,25.8,22.9,36,36.2c-5.8,4.6-11.7,9.2-17.2,14
	c8.3-1.2,16.6-2.6,25-3.6c1.1,12.5-10.2,19.8-16.1,29.2c7.3-1.3,14.6-2.7,22-4c-0.7,5.6-1.4,11.2-2.1,16.9c-2.9-0.2-8.6-0.7-11.5-1
	C376.8,230.3,362.4,204.8,338.3,188.3z"/>
<path id="path148" class="st3" d="M338.3,188.3c-4-12,10.1-21.3,20.5-23.6c16,6.7,25.8,22.9,36,36.2c-5.8,4.6-11.7,9.2-17.2,14
	c8.3-1.2,16.6-2.6,25-3.6c1.1,12.5-10.2,19.8-16.1,29.2c7.3-1.3,14.6-2.7,22-4c-0.7,5.6-1.4,11.2-2.1,16.9c-2.9-0.2-8.6-0.7-11.5-1
	C376.8,230.3,362.4,204.8,338.3,188.3z"/>
<path id="path186" class="st0" d="M419.9,198.4c4.4-2.7,18.6-1.8,12.8,6.3C427.1,214.9,403.5,204.6,419.9,198.4z"/>
<path id="path188" class="st1" d="M419.9,198.4c4.4-2.7,18.6-1.8,12.8,6.3C427.1,214.9,403.5,204.6,419.9,198.4z"/>
<path id="path190" class="st4" d="M458.6,196.5C475,188,459.6,214.5,458.6,196.5z"/>
<path id="path192" class="st1" d="M458.6,196.5C475,188,459.6,214.5,458.6,196.5z"/>
<path id="path206" class="st2" d="M328.2,202.2c15.2-11.6,24.5,9.6,34.9,17.4c-5,5.2-9.9,10.4-14.5,15.8c5.6-3.6,11.1-7.5,16.4-11.5
	c2.5,2.8,7.5,8.3,10.1,11.1c-3.1,5.8-6.2,11.7-9.3,17.5c4,0.9,12.1,2.6,16.2,3.5c-5.7,2.7-11.4,5.4-17,8.3
	c-16.3-8.5-26.6-25.5-44.6-30.8c-0.4,20.6,23.3,23.2,35.2,35.5c-13.9,10.4-30.8,15.3-47,20.5c-3.5-13.1-0.9-26.1,7.9-36.4
	C321.5,236.6,307.8,212.1,328.2,202.2z"/>
<path id="path208" class="st3" d="M328.2,202.2c15.2-11.6,24.5,9.6,34.9,17.4c-5,5.2-9.9,10.4-14.5,15.8c5.6-3.6,11.1-7.5,16.4-11.5
	c2.5,2.8,7.5,8.3,10.1,11.1c-3.1,5.8-6.2,11.7-9.3,17.5c4,0.9,12.1,2.6,16.2,3.5c-5.7,2.7-11.4,5.4-17,8.3
	c-16.3-8.5-26.6-25.5-44.6-30.8c-0.4,20.6,23.3,23.2,35.2,35.5c-13.9,10.4-30.8,15.3-47,20.5c-3.5-13.1-0.9-26.1,7.9-36.4
	C321.5,236.6,307.8,212.1,328.2,202.2z"/>
<path id="path258" class="st2" d="M452.5,235.8c4-0.5,12-1.4,16-1.8c-0.6,3.4-1.9,10.1-2.5,13.4c-3.1,0-9.2,0.1-12.3,0.2
	C453.5,244.6,452.9,238.7,452.5,235.8z"/>
<path id="path260" class="st3" d="M452.5,235.8c4-0.5,12-1.4,16-1.8c-0.6,3.4-1.9,10.1-2.5,13.4c-3.1,0-9.2,0.1-12.3,0.2
	C453.5,244.6,452.9,238.7,452.5,235.8z"/>
<path id="path282" class="st2" d="M412.3,255.4c15.2-3.6,25.7,5.7,33.6,17.4c3.4-4,6.8-8,10.2-12c12.8,11.7,25.8,25.7,26.9,44.1
	c-7.5,20.4-15.6,40.7-25.6,60.1c-18.7,22.8-58.8,9.4-63.8-18.5c-4-14.7,5-28,10.7-40.8c6.3-0.3,12.6-0.5,18.9-0.7
	c4.2,6.5,8.4,13,12.7,19.5c5.2-2.6,10.5-5.1,15.8-7.6c-3.1-3.2-6.3-6.4-9.4-9.5c2.5-1.9,7.6-5.6,10.2-7.4c-19.4-1-38.7-3.1-57.8-6.4
	c6.3-5.4,12.8-10.6,19.1-15.9C413.2,270.2,412.7,262.8,412.3,255.4z"/>
<path id="path284" class="st3" d="M412.3,255.4c15.2-3.6,25.7,5.7,33.6,17.4c3.4-4,6.8-8,10.2-12c12.8,11.7,25.8,25.7,26.9,44.1
	c-7.5,20.4-15.6,40.7-25.6,60.1c-18.7,22.8-58.8,9.4-63.8-18.5c-4-14.7,5-28,10.7-40.8c6.3-0.3,12.6-0.5,18.9-0.7
	c4.2,6.5,8.4,13,12.7,19.5c5.2-2.6,10.5-5.1,15.8-7.6c-3.1-3.2-6.3-6.4-9.4-9.5c2.5-1.9,7.6-5.6,10.2-7.4c-19.4-1-38.7-3.1-57.8-6.4
	c6.3-5.4,12.8-10.6,19.1-15.9C413.2,270.2,412.7,262.8,412.3,255.4z"/>
<path id="path298" class="st2" d="M387.3,261.2c7.6,0.7,14.7,3.3,20.1,8.9c-5.7,6.7-11.6,15.2-20.4,7.3
	C387,273.3,387.2,265.2,387.3,261.2z"/>
<path id="path300" class="st3" d="M387.3,261.2c7.6,0.7,14.7,3.3,20.1,8.9c-5.7,6.7-11.6,15.2-20.4,7.3
	C387,273.3,387.2,265.2,387.3,261.2z"/>
<path id="path330" class="st2" d="M376,275.1c6.2-3.9,13.4,6.3,9.6,11.6C379.4,290.5,370.6,280.4,376,275.1z"/>
<path id="path332" class="st3" d="M376,275.1c6.2-3.9,13.4,6.3,9.6,11.6C379.4,290.5,370.6,280.4,376,275.1z"/>
<path id="path342" class="st2" d="M311,295.8c19.3-7.8,38.1-20.1,59.9-18.1c-1.9,14.6-12.5,25.4-18.8,38
	c10.7-12.1,26.5-23.2,42.4-12.5c-4.4,10-10.2,19.5-12.6,30.3c0.9,13.7,6.3,26.9,12.9,38.8c9.9,8.7,20.9,16.1,29.8,25.9
	c-0.4,15.8-1.5,31.5-2.7,47.2c-3.2,0.7-9.6,2-12.8,2.7c-0.7-12.5-1.1-25-1.4-37.5l-8.7,0c-0.3,8.6-0.9,17.1-1.5,25.7
	c-5.4-17.5,5.1-34.6,1.8-52.3c-19.4,3.5-40,15.6-59.5,6.2C320.7,363.4,303,329,311,295.8z"/>
<path id="path344" class="st3" d="M311,295.8c19.3-7.8,38.1-20.1,59.9-18.1c-1.9,14.6-12.5,25.4-18.8,38
	c10.7-12.1,26.5-23.2,42.4-12.5c-4.4,10-10.2,19.5-12.6,30.3c0.9,13.7,6.3,26.9,12.9,38.8c9.9,8.7,20.9,16.1,29.8,25.9
	c-0.4,15.8-1.5,31.5-2.7,47.2c-3.2,0.7-9.6,2-12.8,2.7c-0.7-12.5-1.1-25-1.4-37.5l-8.7,0c-0.3,8.6-0.9,17.1-1.5,25.7
	c-5.4-17.5,5.1-34.6,1.8-52.3c-19.4,3.5-40,15.6-59.5,6.2C320.7,363.4,303,329,311,295.8z"/>
<path id="path450" class="st2" d="M343.7,410.3c12.5-0.4,24.8-2.2,36.9-5.4c-0.1,17.6,0.6,35.2,0.9,52.8c-12.8-2.4-25.3-5.5-38-8.3
	C342.7,436.4,342.9,423.3,343.7,410.3z"/>
<path id="path452" class="st3" d="M343.7,410.3c12.5-0.4,24.8-2.2,36.9-5.4c-0.1,17.6,0.6,35.2,0.9,52.8c-12.8-2.4-25.3-5.5-38-8.3
	C342.7,436.4,342.9,423.3,343.7,410.3z"/>
</svg>
