<?xml version="1.0" encoding="utf-8"?>
<!-- Generator: Adobe Illustrator 23.0.6, SVG Export Plug-In . SVG Version: 6.00 Build 0)  -->
<svg version="1.1" id="Layer_1" xmlns="http://www.w3.org/2000/svg" xmlns:xlink="http://www.w3.org/1999/xlink" x="0px" y="0px"
	 viewBox="0 0 792 612" style="enable-background:new 0 0 792 612;" xml:space="preserve">
<style type="text/css">
	.st0{fill:none;stroke:#171717;stroke-width:0.1;stroke-miterlimit:10;}
	.st1{fill:#171717;}
	.st2{fill:none;stroke:#FFFFFF;stroke-width:0.1;stroke-miterlimit:10;}
	.st3{fill:#FFFFFF;}
	.st4{fill:none;stroke:#C7C7C7;stroke-width:0.1;stroke-miterlimit:10;}
</style>
<g>
	<path id="path18" class="st0" d="M396.7,153.1c3.4-9.1,8.6-19,19.9-18.4c12.4,3.2,13.2,17.9,15.2,28.4c2.5,25.3,2.6,51.1-0.6,76.4
		c7.9-1.7,16.4-7.3,24.5-4c7.4,5.5,10.1,15.1,12.3,23.6c-5.2-5.9-9.5-12.5-14.5-18.4c-6.8-2.2-16.8-2.7-19.8,5.3
		c0.1,16.6,4.7,32.8,5.9,49.3c1.6-7,2.9-14,4.2-21.1c7.4-2.7,14.8-0.6,21.7,2.4c0.4-5.8,1.1-11.6,4.6-16.4c2.4,12-2.9,25.2,4.2,36.1
		c3.9,8.4,10.2,15.5,13.8,24c-2.3,18.5-7.8,36.5-11.8,54.6c-10.6,17.5-22.1,35.2-37.9,48.6c-7.7,12.7-9.5,27.6-12.7,41.7
		c-11.7,6.4-25.8,7-38.6,10.2c-21.2,4.9-38.5-11.6-56.2-20.3c3-15.6,8.2-31.2,8.8-47.1c-8.1-23.3-19.8-46.5-18.1-71.9
		c3.3-36.3,16.2-71.1,18.6-107.5c0.8-9.8,4.5-18.9,8.2-27.9c6-1.1,12-2.1,18-3.2c2-12.7-0.4-25.8,2.3-38.4
		C373,147.6,387.3,150.5,396.7,153.1z"/>
	<path id="path20" class="st1" d="M396.7,153.1c3.4-9.1,8.6-19,19.9-18.4c12.4,3.2,13.2,17.9,15.2,28.4c2.5,25.3,2.6,51.1-0.6,76.4
		c7.9-1.7,16.4-7.3,24.5-4c7.4,5.5,10.1,15.1,12.3,23.6c-5.2-5.9-9.5-12.5-14.5-18.4c-6.8-2.2-16.8-2.7-19.8,5.3
		c0.1,16.6,4.7,32.8,5.9,49.3c1.6-7,2.9-14,4.2-21.1c7.4-2.7,14.8-0.6,21.7,2.4c0.4-5.8,1.1-11.6,4.6-16.4c2.4,12-2.9,25.2,4.2,36.1
		c3.9,8.4,10.2,15.5,13.8,24c-2.3,18.5-7.8,36.5-11.8,54.6c-10.6,17.5-22.1,35.2-37.9,48.6c-7.7,12.7-9.5,27.6-12.7,41.7
		c-11.7,6.4-25.8,7-38.6,10.2c-21.2,4.9-38.5-11.6-56.2-20.3c3-15.6,8.2-31.2,8.8-47.1c-8.1-23.3-19.8-46.5-18.1-71.9
		c3.3-36.3,16.2-71.1,18.6-107.5c0.8-9.8,4.5-18.9,8.2-27.9c6-1.1,12-2.1,18-3.2c2-12.7-0.4-25.8,2.3-38.4
		C373,147.6,387.3,150.5,396.7,153.1z"/>
	<path id="path26" class="st2" d="M405.9,142.1c6.3-1.5,12.8-2.6,19.3-1c2.4,15,2.1,30.3,1.4,45.5c-7.6,0.6-15.2,1.3-22.8,1.9
		C403,173,401.9,157.3,405.9,142.1z"/>
	<path id="path28" class="st3" d="M405.9,142.1c6.3-1.5,12.8-2.6,19.3-1c2.4,15,2.1,30.3,1.4,45.5c-7.6,0.6-15.2,1.3-22.8,1.9
		C403,173,401.9,157.3,405.9,142.1z"/>
	<path id="path38" class="st2" d="M371.9,198.8c0.4-14.3-5.1-33,8.2-43.2c3.3,0.3,10,1,13.3,1.4c1.5,13-0.1,26-1.5,39
		C385.2,196.8,378.5,197.8,371.9,198.8z"/>
	<path id="path40" class="st3" d="M371.9,198.8c0.4-14.3-5.1-33,8.2-43.2c3.3,0.3,10,1,13.3,1.4c1.5,13-0.1,26-1.5,39
		C385.2,196.8,378.5,197.8,371.9,198.8z"/>
	<path id="path54" class="st2" d="M404.1,194.4c6.6-6.1,16.4-3.8,24.4-3c0.6,9.3,0.2,18.7-0.4,28c-9.8,1.3-19.7,2.1-29.6,2.5
		C398.6,212.6,398.9,202.6,404.1,194.4z"/>
	<path id="path56" class="st3" d="M404.1,194.4c6.6-6.1,16.4-3.8,24.4-3c0.6,9.3,0.2,18.7-0.4,28c-9.8,1.3-19.7,2.1-29.6,2.5
		C398.6,212.6,398.9,202.6,404.1,194.4z"/>
	<path id="path66" class="st2" d="M350.9,204.1c3.2-0.1,9.5-0.3,12.7-0.4c3.2,24.7,0.2,49.7-0.3,74.5c-8.2,5.8-17.2,10.2-26.6,13.4
		c3.4-14.9,6.4-29.8,7-45.1c3.9-2.8,7.9-5.5,11.8-8.3c-3.1-0.3-9.3-1-12.3-1.3C345.4,225.8,347.6,214.8,350.9,204.1z"/>
	<path id="path68" class="st3" d="M350.9,204.1c3.2-0.1,9.5-0.3,12.7-0.4c3.2,24.7,0.2,49.7-0.3,74.5c-8.2,5.8-17.2,10.2-26.6,13.4
		c3.4-14.9,6.4-29.8,7-45.1c3.9-2.8,7.9-5.5,11.8-8.3c-3.1-0.3-9.3-1-12.3-1.3C345.4,225.8,347.6,214.8,350.9,204.1z"/>
	<path id="path70" class="st2" d="M371.9,203.6c6.4,0,15.1-7.4,20-0.8c1.8,9.7,1.7,19.6,1.6,29.4c-8.2,1-16.4,2.1-24.6,3
		C369.9,224.6,371.1,214.2,371.9,203.6z"/>
	<path id="path72" class="st3" d="M371.9,203.6c6.4,0,15.1-7.4,20-0.8c1.8,9.7,1.7,19.6,1.6,29.4c-8.2,1-16.4,2.1-24.6,3
		C369.9,224.6,371.1,214.2,371.9,203.6z"/>
	<path id="path106" class="st2" d="M401.2,229.3c8.7-1.6,17.4-2.8,26.2-3.4c-1.2,12.7-2.9,25.4-4.4,38.1c-8,0.4-15.9,1-23.8,1.7
		C398.5,253.5,399.7,241.4,401.2,229.3z"/>
	<path id="path108" class="st3" d="M401.2,229.3c8.7-1.6,17.4-2.8,26.2-3.4c-1.2,12.7-2.9,25.4-4.4,38.1c-8,0.4-15.9,1-23.8,1.7
		C398.5,253.5,399.7,241.4,401.2,229.3z"/>
	<path id="path130" class="st2" d="M369.6,244.4c7.7-3.4,15.8-6.3,24.1-8.2c0.4,10.4,0.3,21.6-4.1,31.2c-5.8,2.9-11.9,5.2-17.9,7.6
		C370.6,264.9,369.9,254.6,369.6,244.4z"/>
	<path id="path132" class="st3" d="M369.6,244.4c7.7-3.4,15.8-6.3,24.1-8.2c0.4,10.4,0.3,21.6-4.1,31.2c-5.8,2.9-11.9,5.2-17.9,7.6
		C370.6,264.9,369.9,254.6,369.6,244.4z"/>
	<path id="path158" class="st0" d="M443.6,259c4.6-2.9,9.2-3,13.8-0.1C458,264.8,442.9,265.1,443.6,259z"/>
	<path id="path160" class="st1" d="M443.6,259c4.6-2.9,9.2-3,13.8-0.1C458,264.8,442.9,265.1,443.6,259z"/>
	<path id="path170" class="st0" d="M348.3,263.2c2.7-5.3,13.5-1.4,7.6,3.9C352.8,271.6,342.5,268.9,348.3,263.2z"/>
	<path id="path172" class="st1" d="M348.3,263.2c2.7-5.3,13.5-1.4,7.6,3.9C352.8,271.6,342.5,268.9,348.3,263.2z"/>
	<path id="path194" class="st2" d="M385.1,274.6c14.9-6.8,33.1-7.1,47.3,1.4c0.2,6.2,0.4,12.4,0.7,18.5c-25.9,7.7-50.3,22.2-78,22.2
		c-9,0.5-17,4.9-25.4,7.8c1.4-9.6-1.8-24.2,9.8-28.4C355.4,290.5,369.8,281.6,385.1,274.6z"/>
	<path id="path196" class="st3" d="M385.1,274.6c14.9-6.8,33.1-7.1,47.3,1.4c0.2,6.2,0.4,12.4,0.7,18.5c-25.9,7.7-50.3,22.2-78,22.2
		c-9,0.5-17,4.9-25.4,7.8c1.4-9.6-1.8-24.2,9.8-28.4C355.4,290.5,369.8,281.6,385.1,274.6z"/>
	<path id="path210" class="st4" d="M401.3,275.3c6.4,0.3,3.9,10.3-1.3,10.4C393.5,285.5,396,275.4,401.3,275.3z"/>
	<path id="path218" class="st2" d="M447.4,280.4c3.1-5.6,13.9-1.4,8.9,4.7C453.2,291.4,442.1,286.6,447.4,280.4z"/>
	<path id="path220" class="st3" d="M447.4,280.4c3.1-5.6,13.9-1.4,8.9,4.7C453.2,291.4,442.1,286.6,447.4,280.4z"/>
	<path id="path250" class="st2" d="M453.5,312.5c-5.1-9.9,3-16.7,10.6-21.7C474.8,300.9,463.2,309.5,453.5,312.5z"/>
	<path id="path252" class="st3" d="M453.5,312.5c-5.1-9.9,3-16.7,10.6-21.7C474.8,300.9,463.2,309.5,453.5,312.5z"/>
	<path id="path266" class="st2" d="M367.4,318.3c24.2-1.9,44.4-20.2,69.4-17.4c-3.8,9.8-16.9,9.3-25,14
		c-16.2,5.2-27.6,18.5-42.4,26.2c0,3.9,0,7.9,0.1,11.8c10.2-5.4,13.8-17.9,23.8-23.9c11.2-10,26.2-12.9,40.3-16.6
		c1.4,6.2,2.8,12.4,4.2,18.6c-12.5,5-26.7,9-36.3,18.8c-7.5,13.8-18.3,30.8-10.3,46.6c1.5,6.7,9.5,17.2,0.2,21.2
		c-15.6-0.8-37.2,3.2-45.5-13.7c-8.3-17.8-13.7-36.9-18.5-55.9c-3-9.5,2.8-19.7,10.9-24.6C347.5,319.4,357.7,319.8,367.4,318.3z"/>
	<path id="path268" class="st3" d="M367.4,318.3c24.2-1.9,44.4-20.2,69.4-17.4c-3.8,9.8-16.9,9.3-25,14
		c-16.2,5.2-27.6,18.5-42.4,26.2c0,3.9,0,7.9,0.1,11.8c10.2-5.4,13.8-17.9,23.8-23.9c11.2-10,26.2-12.9,40.3-16.6
		c1.4,6.2,2.8,12.4,4.2,18.6c-12.5,5-26.7,9-36.3,18.8c-7.5,13.8-18.3,30.8-10.3,46.6c1.5,6.7,9.5,17.2,0.2,21.2
		c-15.6-0.8-37.2,3.2-45.5-13.7c-8.3-17.8-13.7-36.9-18.5-55.9c-3-9.5,2.8-19.7,10.9-24.6C347.5,319.4,357.7,319.8,367.4,318.3z"/>
	<path id="path270" class="st2" d="M452.8,342.3c-10.4-11.2-17.1-26.9-8.6-41.3c3.4,5.8,6.8,11.7,10.4,17.5c6.1-3,12-6.5,17.8-10.1
		c3.5,5,11.9,8.7,11,15.5c-4.5,6.2-10.3,11.2-15.8,16.6c2.8,0.3,8.3,0.8,11.1,1.1c-3.1,11.2-2.4,24.3-10.2,33.7
		c-8.1,10.2-14.1,21.8-22.7,31.6c-10.8,12.9-32.6,9.1-43.2-1.9c-5.7-14.7-4.7-31.2-1.4-46.3c9.1-12.4,23.9-18.4,38.2-22.5
		c-0.9,10.9-4,24.5,6.4,32.2c-0.4-5-1-10-1.8-14.9C447,349.6,449.9,345.9,452.8,342.3z"/>
	<path id="path272" class="st3" d="M452.8,342.3c-10.4-11.2-17.1-26.9-8.6-41.3c3.4,5.8,6.8,11.7,10.4,17.5c6.1-3,12-6.5,17.8-10.1
		c3.5,5,11.9,8.7,11,15.5c-4.5,6.2-10.3,11.2-15.8,16.6c2.8,0.3,8.3,0.8,11.1,1.1c-3.1,11.2-2.4,24.3-10.2,33.7
		c-8.1,10.2-14.1,21.8-22.7,31.6c-10.8,12.9-32.6,9.1-43.2-1.9c-5.7-14.7-4.7-31.2-1.4-46.3c9.1-12.4,23.9-18.4,38.2-22.5
		c-0.9,10.9-4,24.5,6.4,32.2c-0.4-5-1-10-1.8-14.9C447,349.6,449.9,345.9,452.8,342.3z"/>
	<path id="path418" class="st2" d="M396.9,414.3c5.3,6.4,11.4,12.1,18.3,16.9c-2.9,10.7-5.1,21.7-7,32.6c-4.1,1.5-8.2,3-12.2,4.5
		c-2.6-3-5.2-6.1-7.8-9.1c0.8,6.9-2,10.5-8.4,10.7c1.8-8.6,3.7-17.2,6-25.6c-0.1,2.8-0.3,8.4-0.4,11.3l6.2-0.4
		C392.6,441.5,394.7,427.9,396.9,414.3z"/>
	<path id="path420" class="st3" d="M396.9,414.3c5.3,6.4,11.4,12.1,18.3,16.9c-2.9,10.7-5.1,21.7-7,32.6c-4.1,1.5-8.2,3-12.2,4.5
		c-2.6-3-5.2-6.1-7.8-9.1c0.8,6.9-2,10.5-8.4,10.7c1.8-8.6,3.7-17.2,6-25.6c-0.1,2.8-0.3,8.4-0.4,11.3l6.2-0.4
		C392.6,441.5,394.7,427.9,396.9,414.3z"/>
	<path id="path434" class="st2" d="M346.7,417.8c7.2,12.5,20.7,11.9,33.3,10c-2.5,12.6-4.9,25.2-7.3,37.8
		c-11.3-4.3-24.1-7.9-32.4-16.8C341.4,438.3,343.7,427.9,346.7,417.8z"/>
	<path id="path436" class="st3" d="M346.7,417.8c7.2,12.5,20.7,11.9,33.3,10c-2.5,12.6-4.9,25.2-7.3,37.8
		c-11.3-4.3-24.1-7.9-32.4-16.8C341.4,438.3,343.7,427.9,346.7,417.8z"/>
</g>
</svg>
