<svg width="792" height="612" viewBox="0 0 792 612" fill="none" xmlns="http://www.w3.org/2000/svg">
<g clip-path="url(#clip0_3_24)">
<g clip-path="url(#clip1_3_24)">
<path d="M432.5 244.5L435.5 240L444 236H453L464 247.5L467 257L468.5 273.5L464 278L457.5 274.5L449.5 273.5L438 296.5V292.5L436.5 274.5C435.167 268.333 432.5 253.7 432.5 244.5Z" fill="white"/>
<path d="M396.7 153.1C400.1 144 405.3 134.1 416.6 134.7C429 137.9 429.8 152.6 431.8 163.1C434.3 188.4 434.4 214.2 431.2 239.5C439.1 237.8 447.6 232.2 455.7 235.5C463.1 241 465.8 250.6 468 259.1C462.8 253.2 458.5 246.6 453.5 240.7C446.7 238.5 436.7 238 433.7 246C433.8 262.6 438.4 278.8 439.6 295.3C441.2 288.3 442.5 281.3 443.8 274.2C451.2 271.5 458.6 273.6 465.5 276.6C465.9 270.8 466.6 265 470.1 260.2C472.5 272.2 467.2 285.4 474.3 296.3C478.2 304.7 484.5 311.8 488.1 320.3C485.8 338.8 480.3 356.8 476.3 374.9C465.7 392.4 454.2 410.1 438.4 423.5C430.7 436.2 428.9 451.1 425.7 465.2C414 471.6 399.9 472.2 387.1 475.4C365.9 480.3 348.6 463.8 330.9 455.1C333.9 439.5 339.1 423.9 339.7 408C331.6 384.7 319.9 361.5 321.6 336.1C324.9 299.8 337.8 265 340.2 228.6C341 218.8 344.7 209.7 348.4 200.7C354.4 199.6 360.4 198.6 366.4 197.5C368.4 184.8 366 171.7 368.7 159.1C373 147.6 387.3 150.5 396.7 153.1Z" stroke="#171717" stroke-width="0.1" stroke-miterlimit="10"/>
<path d="M396.7 153.1C400.1 144 405.3 134.1 416.6 134.7C429 137.9 429.8 152.6 431.8 163.1C434.3 188.4 434.4 214.2 431.2 239.5C439.1 237.8 447.6 232.2 455.7 235.5C463.1 241 465.8 250.6 468 259.1C462.8 253.2 458.5 246.6 453.5 240.7C446.7 238.5 436.7 238 433.7 246C433.8 262.6 438.4 278.8 439.6 295.3C441.2 288.3 442.5 281.3 443.8 274.2C451.2 271.5 458.6 273.6 465.5 276.6C465.9 270.8 466.6 265 470.1 260.2C472.5 272.2 467.2 285.4 474.3 296.3C478.2 304.7 484.5 311.8 488.1 320.3C485.8 338.8 480.3 356.8 476.3 374.9C465.7 392.4 454.2 410.1 438.4 423.5C430.7 436.2 428.9 451.1 425.7 465.2C414 471.6 399.9 472.2 387.1 475.4C365.9 480.3 348.6 463.8 330.9 455.1C333.9 439.5 339.1 423.9 339.7 408C331.6 384.7 319.9 361.5 321.6 336.1C324.9 299.8 337.8 265 340.2 228.6C341 218.8 344.7 209.7 348.4 200.7C354.4 199.6 360.4 198.6 366.4 197.5C368.4 184.8 366 171.7 368.7 159.1C373 147.6 387.3 150.5 396.7 153.1Z" fill="#171717"/>
<path d="M405.9 142.1C412.2 140.6 418.7 139.5 425.2 141.1C427.6 156.1 427.3 171.4 426.6 186.6C419 187.2 411.4 187.9 403.8 188.5C403 173 401.9 157.3 405.9 142.1Z" stroke="white" stroke-width="0.1" stroke-miterlimit="10"/>
<path d="M405.9 142.1C412.2 140.6 418.7 139.5 425.2 141.1C427.6 156.1 427.3 171.4 426.6 186.6C419 187.2 411.4 187.9 403.8 188.5C403 173 401.9 157.3 405.9 142.1Z" fill="white"/>
<path d="M371.9 198.8C372.3 184.5 366.8 165.8 380.1 155.6C383.4 155.9 390.1 156.6 393.4 157C394.9 170 393.3 183 391.9 196C385.2 196.8 378.5 197.8 371.9 198.8Z" stroke="white" stroke-width="0.1" stroke-miterlimit="10"/>
<path d="M371.9 198.8C372.3 184.5 366.8 165.8 380.1 155.6C383.4 155.9 390.1 156.6 393.4 157C394.9 170 393.3 183 391.9 196C385.2 196.8 378.5 197.8 371.9 198.8Z" fill="white"/>
<path d="M404.1 194.4C410.7 188.3 420.5 190.6 428.5 191.4C429.1 200.7 428.7 210.1 428.1 219.4C418.3 220.7 408.4 221.5 398.5 221.9C398.6 212.6 398.9 202.6 404.1 194.4Z" stroke="white" stroke-width="0.1" stroke-miterlimit="10"/>
<path d="M404.1 194.4C410.7 188.3 420.5 190.6 428.5 191.4C429.1 200.7 428.7 210.1 428.1 219.4C418.3 220.7 408.4 221.5 398.5 221.9C398.6 212.6 398.9 202.6 404.1 194.4Z" fill="white"/>
<path d="M350.9 204.1C354.1 204 360.4 203.8 363.6 203.7C366.8 228.4 363.8 253.4 363.3 278.2C355.1 284 346.1 288.4 336.7 291.6C340.1 276.7 343.1 261.8 343.7 246.5C347.6 243.7 351.6 241 355.5 238.2C352.4 237.9 346.2 237.2 343.2 236.9C345.4 225.8 347.6 214.8 350.9 204.1Z" stroke="white" stroke-width="0.1" stroke-miterlimit="10"/>
<path d="M350.9 204.1C354.1 204 360.4 203.8 363.6 203.7C366.8 228.4 363.8 253.4 363.3 278.2C355.1 284 346.1 288.4 336.7 291.6C340.1 276.7 343.1 261.8 343.7 246.5C347.6 243.7 351.6 241 355.5 238.2C352.4 237.9 346.2 237.2 343.2 236.9C345.4 225.8 347.6 214.8 350.9 204.1Z" fill="white"/>
<path d="M371.9 203.6C378.3 203.6 387 196.2 391.9 202.8C393.7 212.5 393.6 222.4 393.5 232.2C385.3 233.2 377.1 234.3 368.9 235.2C369.9 224.6 371.1 214.2 371.9 203.6Z" stroke="white" stroke-width="0.1" stroke-miterlimit="10"/>
<path d="M371.9 203.6C378.3 203.6 387 196.2 391.9 202.8C393.7 212.5 393.6 222.4 393.5 232.2C385.3 233.2 377.1 234.3 368.9 235.2C369.9 224.6 371.1 214.2 371.9 203.6Z" fill="white"/>
<path d="M401.2 229.3C409.9 227.7 418.6 226.5 427.4 225.9C426.2 238.6 424.5 251.3 423 264C415 264.4 407.1 265 399.2 265.7C398.5 253.5 399.7 241.4 401.2 229.3Z" stroke="white" stroke-width="0.1" stroke-miterlimit="10"/>
<path d="M401.2 229.3C409.9 227.7 418.6 226.5 427.4 225.9C426.2 238.6 424.5 251.3 423 264C415 264.4 407.1 265 399.2 265.7C398.5 253.5 399.7 241.4 401.2 229.3Z" fill="white"/>
<path d="M369.6 244.4C377.3 241 385.4 238.1 393.7 236.2C394.1 246.6 394 257.8 389.6 267.4C383.8 270.3 377.7 272.6 371.7 275C370.6 264.9 369.9 254.6 369.6 244.4Z" stroke="white" stroke-width="0.1" stroke-miterlimit="10"/>
<path d="M369.6 244.4C377.3 241 385.4 238.1 393.7 236.2C394.1 246.6 394 257.8 389.6 267.4C383.8 270.3 377.7 272.6 371.7 275C370.6 264.9 369.9 254.6 369.6 244.4Z" fill="white"/>
<path d="M443.6 259C448.2 256.1 452.8 256 457.4 258.9C458 264.8 442.9 265.1 443.6 259Z" stroke="#171717" stroke-width="0.1" stroke-miterlimit="10"/>
<path d="M443.6 259C448.2 256.1 452.8 256 457.4 258.9C458 264.8 442.9 265.1 443.6 259Z" fill="#171717"/>
<path d="M348.3 263.2C351 257.9 361.8 261.8 355.9 267.1C352.8 271.6 342.5 268.9 348.3 263.2Z" stroke="#171717" stroke-width="0.1" stroke-miterlimit="10"/>
<path d="M348.3 263.2C351 257.9 361.8 261.8 355.9 267.1C352.8 271.6 342.5 268.9 348.3 263.2Z" fill="#171717"/>
<path d="M385.1 274.6C400 267.8 418.2 267.5 432.4 276C432.6 282.2 432.8 288.4 433.1 294.5C407.2 302.2 382.8 316.7 355.1 316.7C346.1 317.2 338.1 321.6 329.7 324.5C331.1 314.9 327.9 300.3 339.5 296.1C355.4 290.5 369.8 281.6 385.1 274.6Z" stroke="white" stroke-width="0.1" stroke-miterlimit="10"/>
<path d="M385.1 274.6C400 267.8 418.2 267.5 432.4 276C432.6 282.2 432.8 288.4 433.1 294.5C407.2 302.2 382.8 316.7 355.1 316.7C346.1 317.2 338.1 321.6 329.7 324.5C331.1 314.9 327.9 300.3 339.5 296.1C355.4 290.5 369.8 281.6 385.1 274.6Z" fill="white"/>
<path d="M401.3 275.3C407.7 275.6 405.2 285.6 400 285.7C393.5 285.5 396 275.4 401.3 275.3Z" stroke="#C7C7C7" stroke-width="0.1" stroke-miterlimit="10"/>
<path d="M447.4 280.4C450.5 274.8 461.3 279 456.3 285.1C453.2 291.4 442.1 286.6 447.4 280.4Z" stroke="white" stroke-width="0.1" stroke-miterlimit="10"/>
<path d="M447.4 280.4C450.5 274.8 461.3 279 456.3 285.1C453.2 291.4 442.1 286.6 447.4 280.4Z" fill="white"/>
<path d="M453.5 312.5C448.4 302.6 456.5 295.8 464.1 290.8C474.8 300.9 463.2 309.5 453.5 312.5Z" stroke="white" stroke-width="0.1" stroke-miterlimit="10"/>
<path d="M453.5 312.5C448.4 302.6 456.5 295.8 464.1 290.8C474.8 300.9 463.2 309.5 453.5 312.5Z" fill="white"/>
<path d="M367.4 318.3C391.6 316.4 411.8 298.1 436.8 300.9C433 310.7 419.9 310.2 411.8 314.9C395.6 320.1 384.2 333.4 369.4 341.1C369.4 345 369.4 349 369.5 352.9C379.7 347.5 383.3 335 393.3 329C404.5 319 419.5 316.1 433.6 312.4C435 318.6 436.4 324.8 437.8 331C425.3 336 411.1 340 401.5 349.8C394 363.6 383.2 380.6 391.2 396.4C392.7 403.1 400.7 413.6 391.4 417.6C375.8 416.8 354.2 420.8 345.9 403.9C337.6 386.1 332.2 367 327.4 348C324.4 338.5 330.2 328.3 338.3 323.4C347.5 319.4 357.7 319.8 367.4 318.3Z" stroke="white" stroke-width="0.1" stroke-miterlimit="10"/>
<path d="M367.4 318.3C391.6 316.4 411.8 298.1 436.8 300.9C433 310.7 419.9 310.2 411.8 314.9C395.6 320.1 384.2 333.4 369.4 341.1C369.4 345 369.4 349 369.5 352.9C379.7 347.5 383.3 335 393.3 329C404.5 319 419.5 316.1 433.6 312.4C435 318.6 436.4 324.8 437.8 331C425.3 336 411.1 340 401.5 349.8C394 363.6 383.2 380.6 391.2 396.4C392.7 403.1 400.7 413.6 391.4 417.6C375.8 416.8 354.2 420.8 345.9 403.9C337.6 386.1 332.2 367 327.4 348C324.4 338.5 330.2 328.3 338.3 323.4C347.5 319.4 357.7 319.8 367.4 318.3Z" fill="white"/>
<path d="M452.8 342.3C442.4 331.1 435.7 315.4 444.2 301C447.6 306.8 451 312.7 454.6 318.5C460.7 315.5 466.6 312 472.4 308.4C475.9 313.4 484.3 317.1 483.4 323.9C478.9 330.1 473.1 335.1 467.6 340.5C470.4 340.8 475.9 341.3 478.7 341.6C475.6 352.8 476.3 365.9 468.5 375.3C460.4 385.5 454.4 397.1 445.8 406.9C435 419.8 413.2 416 402.6 405C396.9 390.3 397.9 373.8 401.2 358.7C410.3 346.3 425.1 340.3 439.4 336.2C438.5 347.1 435.4 360.7 445.8 368.4C445.4 363.4 444.8 358.4 444 353.5C447 349.6 449.9 345.9 452.8 342.3Z" stroke="white" stroke-width="0.1" stroke-miterlimit="10"/>
<path d="M452.8 342.3C442.4 331.1 435.7 315.4 444.2 301C447.6 306.8 451 312.7 454.6 318.5C460.7 315.5 466.6 312 472.4 308.4C475.9 313.4 484.3 317.1 483.4 323.9C478.9 330.1 473.1 335.1 467.6 340.5C470.4 340.8 475.9 341.3 478.7 341.6C475.6 352.8 476.3 365.9 468.5 375.3C460.4 385.5 454.4 397.1 445.8 406.9C435 419.8 413.2 416 402.6 405C396.9 390.3 397.9 373.8 401.2 358.7C410.3 346.3 425.1 340.3 439.4 336.2C438.5 347.1 435.4 360.7 445.8 368.4C445.4 363.4 444.8 358.4 444 353.5C447 349.6 449.9 345.9 452.8 342.3Z" fill="white"/>
<path d="M396.9 414.3C402.2 420.7 408.3 426.4 415.2 431.2C412.3 441.9 410.1 452.9 408.2 463.8C404.1 465.3 400 466.8 396 468.3C393.4 465.3 390.8 462.2 388.2 459.2C389 466.1 386.2 469.7 379.8 469.9C381.6 461.3 383.5 452.7 385.8 444.3C385.7 447.1 385.5 452.7 385.4 455.6L391.6 455.2C392.6 441.5 394.7 427.9 396.9 414.3Z" stroke="white" stroke-width="0.1" stroke-miterlimit="10"/>
<path d="M396.9 414.3C402.2 420.7 408.3 426.4 415.2 431.2C412.3 441.9 410.1 452.9 408.2 463.8C404.1 465.3 400 466.8 396 468.3C393.4 465.3 390.8 462.2 388.2 459.2C389 466.1 386.2 469.7 379.8 469.9C381.6 461.3 383.5 452.7 385.8 444.3C385.7 447.1 385.5 452.7 385.4 455.6L391.6 455.2C392.6 441.5 394.7 427.9 396.9 414.3Z" fill="white"/>
<path d="M346.7 417.8C353.9 430.3 367.4 429.7 380 427.8C377.5 440.4 375.1 453 372.7 465.6C361.4 461.3 348.6 457.7 340.3 448.8C341.4 438.3 343.7 427.9 346.7 417.8Z" stroke="white" stroke-width="0.1" stroke-miterlimit="10"/>
<path d="M346.7 417.8C353.9 430.3 367.4 429.7 380 427.8C377.5 440.4 375.1 453 372.7 465.6C361.4 461.3 348.6 457.7 340.3 448.8C341.4 438.3 343.7 427.9 346.7 417.8Z" fill="white"/>
</g>
</g>
<defs>
<clipPath id="clip0_3_24">
<rect width="792" height="612" fill="white"/>
</clipPath>
<clipPath id="clip1_3_24">
<rect width="792" height="612" fill="white"/>
</clipPath>
</defs>
</svg>
