<?xml version="1.0" encoding="utf-8"?>
<!-- Generator: Adobe Illustrator 23.0.6, SVG Export Plug-In . SVG Version: 6.00 Build 0)  -->
<svg version="1.1" id="Layer_1" xmlns="http://www.w3.org/2000/svg" xmlns:xlink="http://www.w3.org/1999/xlink" x="0px" y="0px"
	 viewBox="0 0 792 612" style="enable-background:new 0 0 792 612;" xml:space="preserve">
<style type="text/css">
	.st0{fill:none;stroke:#171717;stroke-width:0.1;stroke-miterlimit:10;}
	.st1{fill:#171717;}
	.st2{fill:none;stroke:#FFFFFF;stroke-width:0.1;stroke-miterlimit:10;}
	.st3{fill:#FFFFFF;}
	.st4{fill:none;stroke:#C7C7C7;stroke-width:0.1;stroke-miterlimit:10;}
	.st5{fill:none;stroke:#8F8F8F;stroke-width:0.1;stroke-miterlimit:10;}
	.st6{fill:none;stroke:#616161;stroke-width:0.1;stroke-miterlimit:10;}
</style>
<g>
	<path id="path302" class="st0" d="M254.4,232c14-3.8,28.5-5.6,42.7-8.1c48.7-2.1,97.4-0.8,146.1-0.1c12.2,3.6,21.3,13.1,31.8,19.8
		c15,10.6,33.2,19.1,41.7,36.5c7.3,14.6,25.4,18,35.1,30.5c1.3,28.8-13.3,62.7-41.6,73.7c-16.5,8.5-27.7-15.1-44.3-10.8
		c-24.6,2.3-49-2.1-73.4-4c-14.7-6.5-31-18.1-27.8-36.5c-15-5.7-14.2-22.3-16.1-35.5c-6.3-11.5-8.4-24.2-6.7-37.2
		c-16.6,1.9-33.2,0.2-49.7-0.1c-15.3-0.2-31.4,7.1-46.1,0.7C233.9,252.6,242.2,234.8,254.4,232z"/>
	<path id="path304" class="st1" d="M254.4,232c14-3.8,28.5-5.6,42.7-8.1c48.7-2.1,97.4-0.8,146.1-0.1c12.2,3.6,21.3,13.1,31.8,19.8
		c15,10.6,33.2,19.1,41.7,36.5c7.3,14.6,25.4,18,35.1,30.5c1.3,28.8-13.3,62.7-41.6,73.7c-16.5,8.5-27.7-15.1-44.3-10.8
		c-24.6,2.3-49-2.1-73.4-4c-14.7-6.5-31-18.1-27.8-36.5c-15-5.7-14.2-22.3-16.1-35.5c-6.3-11.5-8.4-24.2-6.7-37.2
		c-16.6,1.9-33.2,0.2-49.7-0.1c-15.3-0.2-31.4,7.1-46.1,0.7C233.9,252.6,242.2,234.8,254.4,232z"/>
	<path id="path318" class="st2" d="M291.6,231.2c9.6-1.9,19.3-3.6,29.1-4.7c-0.4,8.5-0.7,17-0.7,25.5c11.8-3.1,2.9-20.5,12.8-26.5
		c-0.1,9-0.2,18,1.3,26.9c-14,1.2-28,1.8-41.9,0.1C291.2,245.5,290.3,238.3,291.6,231.2z"/>
	<path id="path320" class="st3" d="M291.6,231.2c9.6-1.9,19.3-3.6,29.1-4.7c-0.4,8.5-0.7,17-0.7,25.5c11.8-3.1,2.9-20.5,12.8-26.5
		c-0.1,9-0.2,18,1.3,26.9c-14,1.2-28,1.8-41.9,0.1C291.2,245.5,290.3,238.3,291.6,231.2z"/>
	<path id="path322" class="st4" d="M350.8,227.7c4.7-2.9,16.9-4.3,18.2,2.4C364.2,233.1,352.5,233.7,350.8,227.7z"/>
	<path id="path324" class="st3" d="M350.8,227.7c4.7-2.9,16.9-4.3,18.2,2.4C364.2,233.1,352.5,233.7,350.8,227.7z"/>
	<path id="path326" class="st2" d="M433.3,229.2c11.4-0.8,20.5,7.5,29.5,13.2c14.1,10.4,30.7,18.2,42.4,31.6
		c11.1,12.8,2.6,36.4-14.5,38.1c-13.9,0.9-27.2-4.9-39.8-9.9c-9.6-9.8-17.1-21.5-25.1-32.6c7.1-3.9,14.4-7.6,20.8-12.8
		c-10-0.3-18.9,4.5-28.5,6.1c-7.2-1.6-13.3-6.2-19.7-9.6c-15.3,10.1-35.3,8.1-51.3,1.1c-5.6-2.5-6.7-9.2-9.3-14
		c7.8,1.8,15.5,3.8,23.4,5.5c4.6-4.9,7.4-13.1,14.9-14.4C394.9,228,414.2,229.6,433.3,229.2z"/>
	<path id="path328" class="st3" d="M433.3,229.2c11.4-0.8,20.5,7.5,29.5,13.2c14.1,10.4,30.7,18.2,42.4,31.6
		c11.1,12.8,2.6,36.4-14.5,38.1c-13.9,0.9-27.2-4.9-39.8-9.9c-9.6-9.8-17.1-21.5-25.1-32.6c7.1-3.9,14.4-7.6,20.8-12.8
		c-10-0.3-18.9,4.5-28.5,6.1c-7.2-1.6-13.3-6.2-19.7-9.6c-15.3,10.1-35.3,8.1-51.3,1.1c-5.6-2.5-6.7-9.2-9.3-14
		c7.8,1.8,15.5,3.8,23.4,5.5c4.6-4.9,7.4-13.1,14.9-14.4C394.9,228,414.2,229.6,433.3,229.2z"/>
	<path id="path346" class="st2" d="M244.7,247.8c9.3-13.6,26.5-14.8,41.5-14.8c0.2,7.1,0.5,14.3,0.7,21.5c-12.3,3.2-25,3.1-37.5,2.5
		C248.2,254.7,245.9,250.1,244.7,247.8z"/>
	<path id="path348" class="st3" d="M244.7,247.8c9.3-13.6,26.5-14.8,41.5-14.8c0.2,7.1,0.5,14.3,0.7,21.5c-12.3,3.2-25,3.1-37.5,2.5
		C248.2,254.7,245.9,250.1,244.7,247.8z"/>
	<path id="path350" class="st4" d="M349.4,236.2C362.7,229.9,350.2,250.5,349.4,236.2z"/>
	<path id="path352" class="st3" d="M349.4,236.2C362.7,229.9,350.2,250.5,349.4,236.2z"/>
	<path id="path386" class="st2" d="M346.1,264.1c21.7,2.4,43.9-0.1,65.4,4.5c-1,6.1-1.9,12.3-2.7,18.5l5.1-0.2
		c-0.2-6.1-0.3-12.2-0.5-18.3c10.2,3.6,6,16.5,8.9,24.7c-22.6,3.5-45.5,0.8-67.9-2.8C343.8,286.2,347.8,272.9,346.1,264.1z"/>
	<path id="path388" class="st3" d="M346.1,264.1c21.7,2.4,43.9-0.1,65.4,4.5c-1,6.1-1.9,12.3-2.7,18.5l5.1-0.2
		c-0.2-6.1-0.3-12.2-0.5-18.3c10.2,3.6,6,16.5,8.9,24.7c-22.6,3.5-45.5,0.8-67.9-2.8C343.8,286.2,347.8,272.9,346.1,264.1z"/>
	<path id="path390" class="st5" d="M427,284.6C441.3,285.3,420.2,297.5,427,284.6z"/>
	<path id="path392" class="st3" d="M427,284.6C441.3,285.3,420.2,297.5,427,284.6z"/>
	<path id="path394" class="st5" d="M427.4,298C441.8,299,420.6,310.9,427.4,298z"/>
	<path id="path396" class="st3" d="M427.4,298C441.8,299,420.6,310.9,427.4,298z"/>
	<path id="path398" class="st2" d="M352.4,301.1c19.4-3,39.1-1.4,58.7-1.6c0.1,6,0.3,12.1,0.5,18.1c-14.7,3-29.4,6.6-44.4,7.4
		C355.8,323.1,353.3,310.8,352.4,301.1z"/>
	<path id="path400" class="st3" d="M352.4,301.1c19.4-3,39.1-1.4,58.7-1.6c0.1,6,0.3,12.1,0.5,18.1c-14.7,3-29.4,6.6-44.4,7.4
		C355.8,323.1,353.3,310.8,352.4,301.1z"/>
	<path id="path402" class="st2" d="M417.4,302.2c5.6-2.5,8.4,7.9,5.3,11.3C416.4,316.6,413.8,305.9,417.4,302.2z"/>
	<path id="path404" class="st3" d="M417.4,302.2c5.6-2.5,8.4,7.9,5.3,11.3C416.4,316.6,413.8,305.9,417.4,302.2z"/>
	<path id="path406" class="st2" d="M504.5,317.1c5.9-2.4,11.9-4.7,17.8-7.3c7.7,4.8,15.9,8.8,24.4,11.9c-1.8,7.3-1.3,17.3-10.5,19.3
		c0.4,2.1,1.1,6.3,1.5,8.5c-4.4-2.3-8.6-4.6-12.9-7.1c1-9.3-4.4-16.3-12.5-20.2C510.5,321,506.5,318.4,504.5,317.1z"/>
	<path id="path408" class="st3" d="M504.5,317.1c5.9-2.4,11.9-4.7,17.8-7.3c7.7,4.8,15.9,8.8,24.4,11.9c-1.8,7.3-1.3,17.3-10.5,19.3
		c0.4,2.1,1.1,6.3,1.5,8.5c-4.4-2.3-8.6-4.6-12.9-7.1c1-9.3-4.4-16.3-12.5-20.2C510.5,321,506.5,318.4,504.5,317.1z"/>
	<path id="path410" class="st2" d="M436.2,312c7.6,5.8,15,11.8,23.6,16.1c-0.3-2.8-0.9-8.3-1.2-11c13.5,3.1,27.2,3.4,40.9,1
		c7.2,15.2-6.2,29.1-14.5,40.8c-24.4,13.5-54.1,4.5-80.6,4.3c3-16.9,25.2-18.2,31.9-33C436.5,324.2,436.4,318.1,436.2,312z"/>
	<path id="path412" class="st3" d="M436.2,312c7.6,5.8,15,11.8,23.6,16.1c-0.3-2.8-0.9-8.3-1.2-11c13.5,3.1,27.2,3.4,40.9,1
		c7.2,15.2-6.2,29.1-14.5,40.8c-24.4,13.5-54.1,4.5-80.6,4.3c3-16.9,25.2-18.2,31.9-33C436.5,324.2,436.4,318.1,436.2,312z"/>
	<path id="path422" class="st2" d="M415.9,322.6c3.8,3.8,7.6,7.7,11.4,11.6c-12.7,9.3-27.8,14.9-39.6,25.4
		c-10.3-5.3-18.5-13-19.8-25.1C382.9,326.6,400.7,329.5,415.9,322.6z"/>
	<path id="path424" class="st3" d="M415.9,322.6c3.8,3.8,7.6,7.7,11.4,11.6c-12.7,9.3-27.8,14.9-39.6,25.4
		c-10.3-5.3-18.5-13-19.8-25.1C382.9,326.6,400.7,329.5,415.9,322.6z"/>
	<path id="path426" class="st6" d="M512.4,322.3c8.1,3.9,13.5,10.9,12.5,20.2c0.3,5.1,0.4,10.2,0.5,15.3c-4.1-3.9-8.3-7.6-12.3-11.5
		C505.5,340.6,512,330.1,512.4,322.3z"/>
	<path id="path428" class="st3" d="M512.4,322.3c8.1,3.9,13.5,10.9,12.5,20.2c0.3,5.1,0.4,10.2,0.5,15.3c-4.1-3.9-8.3-7.6-12.3-11.5
		C505.5,340.6,512,330.1,512.4,322.3z"/>
	<path id="path458" class="st4" d="M500.9,344.2C515.1,344.9,494.5,357.5,500.9,344.2z"/>
	<path id="path460" class="st3" d="M500.9,344.2C515.1,344.9,494.5,357.5,500.9,344.2z"/>
	<path id="path462" class="st2" d="M491.5,370.8c10.3-5.2,15.4-15.4,21.6-24.5c4.1,3.8,8.3,7.6,12.3,11.5
		c2.7,6.6-7.4,12.3-11.7,16.6C506.4,380.7,498,374.9,491.5,370.8z"/>
	<path id="path464" class="st3" d="M491.5,370.8c10.3-5.2,15.4-15.4,21.6-24.5c4.1,3.8,8.3,7.6,12.3,11.5
		c2.7,6.6-7.4,12.3-11.7,16.6C506.4,380.7,498,374.9,491.5,370.8z"/>
</g>
</svg>
