<?xml version="1.0" encoding="utf-8"?>
<!-- Generator: Adobe Illustrator 23.0.6, SVG Export Plug-In . SVG Version: 6.00 Build 0)  -->
<svg version="1.1" id="Layer_1" xmlns="http://www.w3.org/2000/svg" xmlns:xlink="http://www.w3.org/1999/xlink" x="0px" y="0px"
	 viewBox="0 0 792 612" style="enable-background:new 0 0 792 612;" xml:space="preserve">
<style type="text/css">
	.st0{fill:none;stroke:#171717;stroke-width:0.1;stroke-miterlimit:10;}
	.st1{fill:#171717;}
	.st2{fill:none;stroke:#FFFFFF;stroke-width:0.1;stroke-miterlimit:10;}
	.st3{fill:#FFFFFF;}
	.st4{fill:none;stroke:#616161;stroke-width:0.1;stroke-miterlimit:10;}
</style>
<g>
	<path id="path1166" class="st0" d="M286,232.5c17.3-3.5,34.6-6.8,52.1-8.9c28.9-0.1,58.2-4.5,86.6,3c12.8,3.7,26.5,4.8,38.3,11.5
		c12.1,6.9,23.3,15.3,35.3,22.4c11.3,6.2,17.9,17.9,28.2,25.4c9.9,7.3,19.2,15.3,27.5,24.4c-3.4,14.9-4.5,31.8-15.8,43.3
		c-9.7,13.2-23.8,22.4-39.7,26.1c-6.2-5.4-12.2-11.2-18.9-16.1c-29.1-8.2-62.8,2.4-90.3-13c-8.1-3.7-10.1-13.2-15.2-19.7
		c-4.3-3.6-9-6.4-13.6-9.5c-1.8-8.2-1.6-16.9-5.2-24.6c-4.9-4-11.3-5.3-17.5-5.9c-24.9-2-50.1-2.7-74.8-6.6
		c-12.4-2.6-14.2-17.4-9.3-27.1c7.2-1.9,14.5-3.6,21.8-5.1C277.3,245.1,276.3,233.2,286,232.5z"/>
	<path id="path1168" class="st1" d="M286,232.5c17.3-3.5,34.6-6.8,52.1-8.9c28.9-0.1,58.2-4.5,86.6,3c12.8,3.7,26.5,4.8,38.3,11.5
		c12.1,6.9,23.3,15.3,35.3,22.4c11.3,6.2,17.9,17.9,28.2,25.4c9.9,7.3,19.2,15.3,27.5,24.4c-3.4,14.9-4.5,31.8-15.8,43.3
		c-9.7,13.2-23.8,22.4-39.7,26.1c-6.2-5.4-12.2-11.2-18.9-16.1c-29.1-8.2-62.8,2.4-90.3-13c-8.1-3.7-10.1-13.2-15.2-19.7
		c-4.3-3.6-9-6.4-13.6-9.5c-1.8-8.2-1.6-16.9-5.2-24.6c-4.9-4-11.3-5.3-17.5-5.9c-24.9-2-50.1-2.7-74.8-6.6
		c-12.4-2.6-14.2-17.4-9.3-27.1c7.2-1.9,14.5-3.6,21.8-5.1C277.3,245.1,276.3,233.2,286,232.5z"/>
	<path id="path1186" class="st2" d="M321.3,232.7c6.8-3.2,14.5-3.1,21.8-3.9c-1.1,8.6-2.3,17.2-3.6,25.7c-6.8-0.4-15.5,3.2-20.7-2.8
		C318.4,245.5,316.4,237.7,321.3,232.7z"/>
	<path id="path1188" class="st3" d="M321.3,232.7c6.8-3.2,14.5-3.1,21.8-3.9c-1.1,8.6-2.3,17.2-3.6,25.7c-6.8-0.4-15.5,3.2-20.7-2.8
		C318.4,245.5,316.4,237.7,321.3,232.7z"/>
	<path id="path1190" class="st2" d="M349.3,229.4c11.7-0.3,23.4,0.2,35.1,0.8c-3.8,7.7-6.9,15.7-11.6,23c-8.4,4-18.3,1.6-27.4,2
		C346.4,246.5,347.8,237.9,349.3,229.4z"/>
	<path id="path1192" class="st3" d="M349.3,229.4c11.7-0.3,23.4,0.2,35.1,0.8c-3.8,7.7-6.9,15.7-11.6,23c-8.4,4-18.3,1.6-27.4,2
		C346.4,246.5,347.8,237.9,349.3,229.4z"/>
	<path id="path1194" class="st2" d="M392.7,230.7c6.7-2.7,13.7-0.2,20.1,2c-1.7,4.2-3.4,8.4-5.2,12.7c-9.5,1.8-18.7,4.3-27.9,7.2
		C383.2,244.9,385.5,235.9,392.7,230.7z"/>
	<path id="path1196" class="st3" d="M392.7,230.7c6.7-2.7,13.7-0.2,20.1,2c-1.7,4.2-3.4,8.4-5.2,12.7c-9.5,1.8-18.7,4.3-27.9,7.2
		C383.2,244.9,385.5,235.9,392.7,230.7z"/>
	<path id="path1210" class="st2" d="M280.2,251.7c-2.7-19.5,22.5-18.3,35.6-18.4c-0.6,7.1-1.1,14.2-1.8,21.4
		C302.6,256.2,290.8,257.2,280.2,251.7z"/>
	<path id="path1212" class="st3" d="M280.2,251.7c-2.7-19.5,22.5-18.3,35.6-18.4c-0.6,7.1-1.1,14.2-1.8,21.4
		C302.6,256.2,290.8,257.2,280.2,251.7z"/>
	<path id="path1214" class="st2" d="M419,233.3c11.4,1.7,22.9,3.4,34.2,6.2c-12.8-0.5-25.5,0.7-37.9,4.1
		C416.6,240.2,417.8,236.7,419,233.3z"/>
	<path id="path1216" class="st3" d="M419,233.3c11.4,1.7,22.9,3.4,34.2,6.2c-12.8-0.5-25.5,0.7-37.9,4.1
		C416.6,240.2,417.8,236.7,419,233.3z"/>
	<path id="path1242" class="st2" d="M435.3,247.2c24.6,2.6,50.1,9.6,68.8,26.6c9.1,9.7,4.7,25.4-5.5,32.5c-12.1,9-28,3.9-41.5,1.8
		c-13.6-2.2-26.3-9.1-34.2-20.6c8.1-4,16.4-7.8,22.4-14.8c-7.9,2.3-15.5,5.8-23.6,7.2c-7.8-0.3-17.7-5.6-23.3,2.6
		c-8.3,10.1-21.8,10.7-33.7,13c-3.6-6.8-7.5-13.4-11.5-20c4.1-0.8,8.1-1.5,12.2-2.2c1.3,2.9,4,8.6,5.4,11.5c3-4.9,2.5-10.6,2.5-16
		c2-4.4,6.9-6.2,10.3-9.3c3.2,2.1,6.3,4.3,9.5,6.5c2.3-4.1,4.7-8.2,7.1-12.4C412,251.5,423.5,248.5,435.3,247.2z"/>
	<path id="path1244" class="st3" d="M435.3,247.2c24.6,2.6,50.1,9.6,68.8,26.6c9.1,9.7,4.7,25.4-5.5,32.5c-12.1,9-28,3.9-41.5,1.8
		c-13.6-2.2-26.3-9.1-34.2-20.6c8.1-4,16.4-7.8,22.4-14.8c-7.9,2.3-15.5,5.8-23.6,7.2c-7.8-0.3-17.7-5.6-23.3,2.6
		c-8.3,10.1-21.8,10.7-33.7,13c-3.6-6.8-7.5-13.4-11.5-20c4.1-0.8,8.1-1.5,12.2-2.2c1.3,2.9,4,8.6,5.4,11.5c3-4.9,2.5-10.6,2.5-16
		c2-4.4,6.9-6.2,10.3-9.3c3.2,2.1,6.3,4.3,9.5,6.5c2.3-4.1,4.7-8.2,7.1-12.4C412,251.5,423.5,248.5,435.3,247.2z"/>
	<path id="path1262" class="st2" d="M253.7,263.9c12.1-12.4,28-4,41.7,0.2c-0.5,5.6-1,11.2-1.5,16.9
		C279.8,278.5,255.7,283.7,253.7,263.9z"/>
	<path id="path1264" class="st3" d="M253.7,263.9c12.1-12.4,28-4,41.7,0.2c-0.5,5.6-1,11.2-1.5,16.9
		C279.8,278.5,255.7,283.7,253.7,263.9z"/>
	<path id="path1266" class="st2" d="M297.3,264.5c6.9-5.8,16.9-3,25.2-3.9c0.4,7.6,0.2,15.1-0.3,22.7c-7.7-0.5-15.3-1.2-22.9-1.8
		C298.4,275.9,296.5,270.2,297.3,264.5z"/>
	<path id="path1268" class="st3" d="M297.3,264.5c6.9-5.8,16.9-3,25.2-3.9c0.4,7.6,0.2,15.1-0.3,22.7c-7.7-0.5-15.3-1.2-22.9-1.8
		C298.4,275.9,296.5,270.2,297.3,264.5z"/>
	<path id="path1270" class="st2" d="M331.6,262.3c9.7-2.5,20,1.1,29.9,1.6c-7.3,5.3-13.4,11.8-16.4,20.5c-5.3-0.5-10.7-1-16-1.5
		C329.5,276,328.2,268.7,331.6,262.3z"/>
	<path id="path1272" class="st3" d="M331.6,262.3c9.7-2.5,20,1.1,29.9,1.6c-7.3,5.3-13.4,11.8-16.4,20.5c-5.3-0.5-10.7-1-16-1.5
		C329.5,276,328.2,268.7,331.6,262.3z"/>
	<path id="path1294" class="st2" d="M361.4,301.7c16.5-3.7,33.1-6.5,49-12.3c2,7.2,4.1,14.5,6.8,21.5c0.2-6.7,0.3-13.5,0.4-20.2
		c4.1,6.6,5.9,14.3,7.8,21.7c-17.1,5-34.7,9.1-52.5,9.8C363.7,319.8,363.8,309,361.4,301.7z"/>
	<path id="path1296" class="st3" d="M361.4,301.7c16.5-3.7,33.1-6.5,49-12.3c2,7.2,4.1,14.5,6.8,21.5c0.2-6.7,0.3-13.5,0.4-20.2
		c4.1,6.6,5.9,14.3,7.8,21.7c-17.1,5-34.7,9.1-52.5,9.8C363.7,319.8,363.8,309,361.4,301.7z"/>
	<path id="path1298" class="st2" d="M518.2,302.2c11.2,7.8,26.8,16.1,26.5,31.7c-12.9-5-23.6-14.1-34.2-22.8
		C513.1,308.2,515.6,305.2,518.2,302.2z"/>
	<path id="path1300" class="st3" d="M518.2,302.2c11.2,7.8,26.8,16.1,26.5,31.7c-12.9-5-23.6-14.1-34.2-22.8
		C513.1,308.2,515.6,305.2,518.2,302.2z"/>
	<path id="path1318" class="st2" d="M441.9,315.1c6.5,4.4,13.5,8,20.7,11.1c-0.1-2-0.4-5.9-0.5-7.9c11.3,2.5,23,2.6,33.4-2.9
		c-0.9,14.9-4.8,37.6-23.3,38.9c-18.3-0.7-36.8,0.6-55-2.3c4.2-11.3,15.7-16.4,24.1-23.9C441.6,323.8,441.8,319.5,441.9,315.1z"/>
	<path id="path1320" class="st3" d="M441.9,315.1c6.5,4.4,13.5,8,20.7,11.1c-0.1-2-0.4-5.9-0.5-7.9c11.3,2.5,23,2.6,33.4-2.9
		c-0.9,14.9-4.8,37.6-23.3,38.9c-18.3-0.7-36.8,0.6-55-2.3c4.2-11.3,15.7-16.4,24.1-23.9C441.6,323.8,441.8,319.5,441.9,315.1z"/>
	<path id="path1322" class="st2" d="M499.1,313.2c7.6,4.4,14.3,10.1,19.5,17.2c-2.1-0.8-6.4-2.4-8.6-3.2
		C506.1,322.8,502.5,318.1,499.1,313.2z"/>
	<path id="path1324" class="st3" d="M499.1,313.2c7.6,4.4,14.3,10.1,19.5,17.2c-2.1-0.8-6.4-2.4-8.6-3.2
		C506.1,322.8,502.5,318.1,499.1,313.2z"/>
	<path id="path1334" class="st2" d="M423.3,316.4c2.1,3.9,9.6,7,6.8,12.1c-9.9,8.7-22.5,13.4-34.3,18.8c-5.4-4.8-10.7-9.8-15.7-15
		c10.2-6.6,22.5-8,33.9-11.2c2.7,3,5.4,6,8.1,9C422.5,326.6,423,319.8,423.3,316.4z"/>
	<path id="path1336" class="st3" d="M423.3,316.4c2.1,3.9,9.6,7,6.8,12.1c-9.9,8.7-22.5,13.4-34.3,18.8c-5.4-4.8-10.7-9.8-15.7-15
		c10.2-6.6,22.5-8,33.9-11.2c2.7,3,5.4,6,8.1,9C422.5,326.6,423,319.8,423.3,316.4z"/>
	<path id="path1366" class="st2" d="M491.3,360.2c7.7-10.1,13.5-21.3,18.7-32.9c3.6,10.2,13.1,16.6,19.8,24.6
		c-7.3,10-19,14.5-30.2,18.6C496.9,367.1,492.3,364.7,491.3,360.2z"/>
	<path id="path1368" class="st3" d="M491.3,360.2c7.7-10.1,13.5-21.3,18.7-32.9c3.6,10.2,13.1,16.6,19.8,24.6
		c-7.3,10-19,14.5-30.2,18.6C496.9,367.1,492.3,364.7,491.3,360.2z"/>
	<path id="path1382" class="st4" d="M411,344.8c5.1,2.3,5.1,4.9,0.2,7.8C406.1,350.3,406.1,347.7,411,344.8z"/>
	<path id="path1384" class="st3" d="M411,344.8c5.1,2.3,5.1,4.9,0.2,7.8C406.1,350.3,406.1,347.7,411,344.8z"/>
</g>
</svg>
