<?xml version="1.0" encoding="utf-8"?>
<!-- Generator: Adobe Illustrator 23.0.6, SVG Export Plug-In . SVG Version: 6.00 Build 0)  -->
<svg version="1.1" id="Layer_1" xmlns="http://www.w3.org/2000/svg" xmlns:xlink="http://www.w3.org/1999/xlink" x="0px" y="0px"
	 viewBox="0 0 792 612" style="enable-background:new 0 0 792 612;" xml:space="preserve">
<style type="text/css">
	.st0{fill:none;stroke:#181818;stroke-width:0.1;stroke-miterlimit:10;}
	.st1{fill:#181818;}
	.st2{fill:none;stroke:#FFFFFF;stroke-width:0.1;stroke-miterlimit:10;}
	.st3{fill:#FFFFFF;}
</style>
<path id="path1030" class="st0" d="M296.1,168.1c-2.4-14.1,18.3-24.9,25.7-11.1c9.7,26.5,20.7,52.5,30.7,79
	c5-10.5,6.5-28.1,21.8-27.7c12.4,0.6,24.8,0.8,36.6-4c18,4.1,36-1.7,54.2,0.2c6.8,4.1,11.4,11.4,14,18.8c7.5,20.6,11,42.4,15.9,63.7
	c3.7,11.9-1.7,23.6-7.4,33.9c-11.2,20.3-17.4,43.6-33.5,60.9c-13.7,14.5-2.5,36.3-8.2,53.6c-13.3,14.8-30.8,30.8-52.6,25.5
	c-15.9-6.1-32.3-10.5-48.7-14.8c-7.7-19.3,2.1-42.9-7.6-62.5c-19.8-45.3-5.3-97.1-23-142.9C306.4,217,299.7,192.8,296.1,168.1z"/>
<path id="path1032" class="st1" d="M296.1,168.1c-2.4-14.1,18.3-24.9,25.7-11.1c9.7,26.5,20.7,52.5,30.7,79
	c5-10.5,6.5-28.1,21.8-27.7c12.4,0.6,24.8,0.8,36.6-4c18,4.1,36-1.7,54.2,0.2c6.8,4.1,11.4,11.4,14,18.8c7.5,20.6,11,42.4,15.9,63.7
	c3.7,11.9-1.7,23.6-7.4,33.9c-11.2,20.3-17.4,43.6-33.5,60.9c-13.7,14.5-2.5,36.3-8.2,53.6c-13.3,14.8-30.8,30.8-52.6,25.5
	c-15.9-6.1-32.3-10.5-48.7-14.8c-7.7-19.3,2.1-42.9-7.6-62.5c-19.8-45.3-5.3-97.1-23-142.9C306.4,217,299.7,192.8,296.1,168.1z"/>
<path id="path1038" class="st2" d="M307.2,197.9c-5.5-13.4-14-40,8.6-41.1c5.7,11.2,9,23.3,11.8,35.6
	C320.8,194.4,314,196.2,307.2,197.9z"/>
<path id="path1040" class="st3" d="M307.2,197.9c-5.5-13.4-14-40,8.6-41.1c5.7,11.2,9,23.3,11.8,35.6
	C320.8,194.4,314,196.2,307.2,197.9z"/>
<path id="path1054" class="st2" d="M311.7,202c6.2-1.7,12.4-3,18.8-4c1.9,3,5.7,8.9,7.6,11.9c-8.7,3.7-17.4,7.5-26.2,10.9
	C311.8,214.5,311.7,208.2,311.7,202z"/>
<path id="path1056" class="st3" d="M311.7,202c6.2-1.7,12.4-3,18.8-4c1.9,3,5.7,8.9,7.6,11.9c-8.7,3.7-17.4,7.5-26.2,10.9
	C311.8,214.5,311.7,208.2,311.7,202z"/>
<path id="path1074" class="st2" d="M402.3,211.7c5.6-0.6,11.1-1.1,16.7-1.6c-4.9,8.5-11.1,17.6-8.6,28c3.4,9.7,10.4,17.5,15.9,26.1
	c-7.7,0.7-15.4,1.4-23.1,2.2C401.8,248.3,395.5,229.4,402.3,211.7z"/>
<path id="path1076" class="st3" d="M402.3,211.7c5.6-0.6,11.1-1.1,16.7-1.6c-4.9,8.5-11.1,17.6-8.6,28c3.4,9.7,10.4,17.5,15.9,26.1
	c-7.7,0.7-15.4,1.4-23.1,2.2C401.8,248.3,395.5,229.4,402.3,211.7z"/>
<path id="path1078" class="st2" d="M437.9,209.8c14.9-5.6,38.6-0.7,34.7,19.7C460.3,226,440.1,225.7,437.9,209.8z"/>
<path id="path1080" class="st3" d="M437.9,209.8c14.9-5.6,38.6-0.7,34.7,19.7C460.3,226,440.1,225.7,437.9,209.8z"/>
<path id="path1082" class="st2" d="M365.2,221.7c3.4-12,16.2-6.7,24.7-5.1c5.1,21.5,7,43.5,8.4,65.6c-7.3,3-14.6,6.2-20.1,12.1
	C372.2,270.6,357.7,246.8,365.2,221.7z"/>
<path id="path1084" class="st3" d="M365.2,221.7c3.4-12,16.2-6.7,24.7-5.1c5.1,21.5,7,43.5,8.4,65.6c-7.3,3-14.6,6.2-20.1,12.1
	C372.2,270.6,357.7,246.8,365.2,221.7z"/>
<path id="path1094" class="st2" d="M318.4,229.2c6-4.5,12.1-8.8,18.1-13.1c4.5,8.2,7.3,17.1,9.5,26.2c-6.7,3.6-13.2,7.3-19.8,11
	C323.6,245.3,321,237.3,318.4,229.2z"/>
<path id="path1096" class="st3" d="M318.4,229.2c6-4.5,12.1-8.8,18.1-13.1c4.5,8.2,7.3,17.1,9.5,26.2c-6.7,3.6-13.2,7.3-19.8,11
	C323.6,245.3,321,237.3,318.4,229.2z"/>
<path id="path1098" class="st2" d="M421.3,220.5c3.7-0.4,11-1.1,14.7-1.5c-0.3,4-1,11.9-1.3,15.9c-3.7-0.1-11-0.2-14.6-0.3
	C420.4,231.1,421,224,421.3,220.5z"/>
<path id="path1100" class="st3" d="M421.3,220.5c3.7-0.4,11-1.1,14.7-1.5c-0.3,4-1,11.9-1.3,15.9c-3.7-0.1-11-0.2-14.6-0.3
	C420.4,231.1,421,224,421.3,220.5z"/>
<path id="path1102" class="st2" d="M434.6,242.8c4.6-4.3,9.1-8.7,13.7-13.1c6.1,2.8,12.3,5.6,18.4,8.4c-1.9,6.7-3.7,13.4-4.9,20.2
	c7.4,0.4,12.7-3.6,16.5-9.4c-0.3,14.9,9.8,27.5,10.5,42.4c2.4,12.5-7,22.4-11.9,32.9c-10.1,19.2-14.9,43.8-35.1,55.6
	c-19.4,1.6-38.2-8.7-45.7-26.9c-10.9-13.8,3-28.3,9.6-40.4c6.2,1.8,12.4,3.8,18.6,5.9c8-8.7,16.3-19.2,28.6-21.5
	c6.6,1.4,13.2,3.2,19.9,4.3c-5.7-4.5-11.8-8.6-17.8-12.6c-1-6.4-1.8-12.8-2.7-19.1c-14.6-5.7-26.2-16.6-34.1-29.9
	C423.6,240.6,429.1,241.6,434.6,242.8z"/>
<path id="path1104" class="st3" d="M434.6,242.8c4.6-4.3,9.1-8.7,13.7-13.1c6.1,2.8,12.3,5.6,18.4,8.4c-1.9,6.7-3.7,13.4-4.9,20.2
	c7.4,0.4,12.7-3.6,16.5-9.4c-0.3,14.9,9.8,27.5,10.5,42.4c2.4,12.5-7,22.4-11.9,32.9c-10.1,19.2-14.9,43.8-35.1,55.6
	c-19.4,1.6-38.2-8.7-45.7-26.9c-10.9-13.8,3-28.3,9.6-40.4c6.2,1.8,12.4,3.8,18.6,5.9c8-8.7,16.3-19.2,28.6-21.5
	c6.6,1.4,13.2,3.2,19.9,4.3c-5.7-4.5-11.8-8.6-17.8-12.6c-1-6.4-1.8-12.8-2.7-19.1c-14.6-5.7-26.2-16.6-34.1-29.9
	C423.6,240.6,429.1,241.6,434.6,242.8z"/>
<path id="path1134" class="st2" d="M326.9,264.4c5.6-6.4,13.2-10.4,20.3-14.8c6.4,10.2,14.1,19.3,21.1,29.1c-13,1.7-26,3.3-38.9,5.5
	C328.5,277.7,324.7,271,326.9,264.4z"/>
<path id="path1136" class="st3" d="M326.9,264.4c5.6-6.4,13.2-10.4,20.3-14.8c6.4,10.2,14.1,19.3,21.1,29.1c-13,1.7-26,3.3-38.9,5.5
	C328.5,277.7,324.7,271,326.9,264.4z"/>
<path id="path1170" class="st2" d="M403.1,267c8.8,5.5,18.4,5,28,2.2c-0.2,6.6-0.5,13.3-0.9,20c-8-1.1-16.1-1.1-24,0.4
	C405.2,282,404.1,274.5,403.1,267z"/>
<path id="path1172" class="st3" d="M403.1,267c8.8,5.5,18.4,5,28,2.2c-0.2,6.6-0.5,13.3-0.9,20c-8-1.1-16.1-1.1-24,0.4
	C405.2,282,404.1,274.5,403.1,267z"/>
<path id="path1198" class="st2" d="M440.2,278.6C455.9,279.5,433,293,440.2,278.6z"/>
<path id="path1200" class="st3" d="M440.2,278.6C455.9,279.5,433,293,440.2,278.6z"/>
<path id="path1222" class="st2" d="M330.1,291.9c11.1-6.3,24.3-8.1,36.7-5.2c12.3,12.9-1.6,25.9-9.1,36.6
	c7.2-4.5,14.2-9.4,21.6-13.6c-0.8,14.5-11.8,25.4-15.6,39c11.3-8.5,14.7-23.3,25-32.7c-0.6,12.3-9.2,25.1-2.7,37.1
	c3.4,7.8,6.6,16,12.1,22.6c4.9,1.7,10.2,2.6,14.7,5.3c-1.6,8-2.3,16.1-2.9,24.3c4-4,7.9-8.1,12.8-11.1c-1.1,16.1-0.5,32.3,5.5,47.5
	c-5.3,2.2-10.5,4.6-15.8,6.9c-2.7-22.4-2.2-45.4-7.2-67.3c-15.3-1.5-29.5,10.3-45.4,7.6c-14.5-0.2-21.4-15.6-23.4-27.9
	C334.1,337.9,330.3,315.1,330.1,291.9z"/>
<path id="path1224" class="st3" d="M330.1,291.9c11.1-6.3,24.3-8.1,36.7-5.2c12.3,12.9-1.6,25.9-9.1,36.6
	c7.2-4.5,14.2-9.4,21.6-13.6c-0.8,14.5-11.8,25.4-15.6,39c11.3-8.5,14.7-23.3,25-32.7c-0.6,12.3-9.2,25.1-2.7,37.1
	c3.4,7.8,6.6,16,12.1,22.6c4.9,1.7,10.2,2.6,14.7,5.3c-1.6,8-2.3,16.1-2.9,24.3c4-4,7.9-8.1,12.8-11.1c-1.1,16.1-0.5,32.3,5.5,47.5
	c-5.3,2.2-10.5,4.6-15.8,6.9c-2.7-22.4-2.2-45.4-7.2-67.3c-15.3-1.5-29.5,10.3-45.4,7.6c-14.5-0.2-21.4-15.6-23.4-27.9
	C334.1,337.9,330.3,315.1,330.1,291.9z"/>
<path id="path1234" class="st2" d="M391.9,292.7c8.7-2.9,11.8,11.7,2.9,13.1C384.7,309.6,381.4,293.8,391.9,292.7z"/>
<path id="path1236" class="st3" d="M391.9,292.7c8.7-2.9,11.8,11.7,2.9,13.1C384.7,309.6,381.4,293.8,391.9,292.7z"/>
<path id="path1246" class="st2" d="M411.9,297.8c4.4-6.5,17.7-0.6,11.9,6.8C419.3,310.8,405.7,305.2,411.9,297.8z"/>
<path id="path1248" class="st3" d="M411.9,297.8c4.4-6.5,17.7-0.6,11.9,6.8C419.3,310.8,405.7,305.2,411.9,297.8z"/>
<path id="path1338" class="st2" d="M400.1,454.3c-9-20.4-11-45.2,0.8-65C403.6,411.1,395.8,432.6,400.1,454.3z"/>
<path id="path1340" class="st3" d="M400.1,454.3c-9-20.4-11-45.2,0.8-65C403.6,411.1,395.8,432.6,400.1,454.3z"/>
<path id="path1346" class="st2" d="M348.9,395.2c11.5,11,26.5,8.5,40.2,3.8c-1,16.9-2.4,33.8-2.9,50.8c-12-3.5-24.1-7.2-35.4-12.5
	C349.8,423.2,349.1,409.2,348.9,395.2z"/>
<path id="path1348" class="st3" d="M348.9,395.2c11.5,11,26.5,8.5,40.2,3.8c-1,16.9-2.4,33.8-2.9,50.8c-12-3.5-24.1-7.2-35.4-12.5
	C349.8,423.2,349.1,409.2,348.9,395.2z"/>
</svg>
