<?xml version="1.0" encoding="utf-8"?>
<!-- Generator: Adobe Illustrator 23.0.6, SVG Export Plug-In . SVG Version: 6.00 Build 0)  -->
<svg version="1.1" id="Layer_1" xmlns="http://www.w3.org/2000/svg" xmlns:xlink="http://www.w3.org/1999/xlink" x="0px" y="0px"
	 viewBox="0 0 792 612" style="enable-background:new 0 0 792 612;" xml:space="preserve">
<style type="text/css">
	.st0{fill:none;stroke:#171717;stroke-width:0.1;stroke-miterlimit:10;}
	.st1{fill:#171717;}
	.st2{fill:none;stroke:#FFFFFF;stroke-width:0.1;stroke-miterlimit:10;}
	.st3{fill:#FFFFFF;}
	.st4{fill:none;stroke:#8F8F8F;stroke-width:0.1;stroke-miterlimit:10;}
</style>
<path id="path1058" class="st0" d="M397.4,200.8c13.4-2,18.9-16,30.3-21.5c17.7,0.6,30.5,14.3,44.1,23.8c15.9,11,28.4,26,41.3,40.3
	c5.8,6,4.3,14.9,4.8,22.5c-0.6,13.9,1.4,27.7,3,41.5c1.7,11.7-4,24.4,1.9,35.4c4.9,11.1,11.3,21.4,15.1,33
	c-2.2,14.4-6.4,32.9-22,38.4c-18.2,7.7-37.6,11.8-56.8,16.4c-12.1-16.9-22.7-36.9-43.5-44.3c-29.8-25.1-49.4-59.8-74.2-89.4
	c-22.3-21.9-49.9-38.6-68.4-64.3c-3.4-5.2-1.8-11.8-2.6-17.6c9.2-4.9,21-8.6,29.1,0.6c14.8,15.1,32.2,26.8,50.1,37.9
	c-1.6-14,5.4-27.5,19.1-32C381.6,219.2,385.1,203.8,397.4,200.8z"/>
<path id="path1060" class="st1" d="M397.4,200.8c13.4-2,18.9-16,30.3-21.5c17.7,0.6,30.5,14.3,44.1,23.8c15.9,11,28.4,26,41.3,40.3
	c5.8,6,4.3,14.9,4.8,22.5c-0.6,13.9,1.4,27.7,3,41.5c1.7,11.7-4,24.4,1.9,35.4c4.9,11.1,11.3,21.4,15.1,33
	c-2.2,14.4-6.4,32.9-22,38.4c-18.2,7.7-37.6,11.8-56.8,16.4c-12.1-16.9-22.7-36.9-43.5-44.3c-29.8-25.1-49.4-59.8-74.2-89.4
	c-22.3-21.9-49.9-38.6-68.4-64.3c-3.4-5.2-1.8-11.8-2.6-17.6c9.2-4.9,21-8.6,29.1,0.6c14.8,15.1,32.2,26.8,50.1,37.9
	c-1.6-14,5.4-27.5,19.1-32C381.6,219.2,385.1,203.8,397.4,200.8z"/>
<path id="path1066" class="st2" d="M412.9,198.6c5.3-6,12.1-16.6,21.6-12.9c7.6,3.4,18.4,5.5,20,15.2
	C440.6,202,426.5,202,412.9,198.6z"/>
<path id="path1068" class="st3" d="M412.9,198.6c5.3-6,12.1-16.6,21.6-12.9c7.6,3.4,18.4,5.5,20,15.2
	C440.6,202,426.5,202,412.9,198.6z"/>
<path id="path1106" class="st2" d="M382.4,219.4c4.5-5.4,9.9-10,15.9-13.9c0.3,8.8-3.3,18.8,2.5,26.6c10.4,10,25.5,11,38.6,15.4
	c-6,4.9-12.2,9.6-17.9,14.9c7.8-1.2,15.4-3.3,23-5.1c1.6,3.3,3.3,6.7,5,10.1c-7.1,2.6-13.7,6.3-19.4,11.3
	C414.7,258.5,397.7,239.6,382.4,219.4z"/>
<path id="path1108" class="st3" d="M382.4,219.4c4.5-5.4,9.9-10,15.9-13.9c0.3,8.8-3.3,18.8,2.5,26.6c10.4,10,25.5,11,38.6,15.4
	c-6,4.9-12.2,9.6-17.9,14.9c7.8-1.2,15.4-3.3,23-5.1c1.6,3.3,3.3,6.7,5,10.1c-7.1,2.6-13.7,6.3-19.4,11.3
	C414.7,258.5,397.7,239.6,382.4,219.4z"/>
<path id="path1110" class="st2" d="M408.8,207.5c2.9,0.3,8.8,0.8,11.8,1.1c0.4,3,1.2,8.9,1.6,11.8c-3.5-0.1-10.4-0.3-13.9-0.4
	C408.3,216.9,408.6,210.6,408.8,207.5z"/>
<path id="path1112" class="st3" d="M408.8,207.5c2.9,0.3,8.8,0.8,11.8,1.1c0.4,3,1.2,8.9,1.6,11.8c-3.5-0.1-10.4-0.3-13.9-0.4
	C408.3,216.9,408.6,210.6,408.8,207.5z"/>
<path id="path1114" class="st2" d="M432.2,207.4c6.8-0.1,13.7-0.2,20.6-0.5c2.3,6.5,4.7,12.9,7.2,19.3c3.2-5.2,6.3-10.5,9.2-15.9
	c15.4,10.4,27.2,25.4,40.2,38.6c3.4,22.3,3.7,45.1,5.5,67.6c2.7,20.1-20.3,31.4-37.4,26.9c-18.8-3.3-35.6-20.4-33.7-40.4
	c11.3-8.9,15.9-22.7,20.3-35.8c7.4,2,15,3.3,22.6,4c-10.7-6.9-15.5-19.6-27.1-25.3c0.6-4.1,1.2-8.1,1.9-12.2
	c-18.6,8.3-38.9,3.3-56.6-4.9c6.4-4.1,14.1-3.8,21.4-4.7C428.2,218.5,430.1,213,432.2,207.4z"/>
<path id="path1116" class="st3" d="M432.2,207.4c6.8-0.1,13.7-0.2,20.6-0.5c2.3,6.5,4.7,12.9,7.2,19.3c3.2-5.2,6.3-10.5,9.2-15.9
	c15.4,10.4,27.2,25.4,40.2,38.6c3.4,22.3,3.7,45.1,5.5,67.6c2.7,20.1-20.3,31.4-37.4,26.9c-18.8-3.3-35.6-20.4-33.7-40.4
	c11.3-8.9,15.9-22.7,20.3-35.8c7.4,2,15,3.3,22.6,4c-10.7-6.9-15.5-19.6-27.1-25.3c0.6-4.1,1.2-8.1,1.9-12.2
	c-18.6,8.3-38.9,3.3-56.6-4.9c6.4-4.1,14.1-3.8,21.4-4.7C428.2,218.5,430.1,213,432.2,207.4z"/>
<path id="path1122" class="st2" d="M276.1,215.2c16-2.8,25.6,11.8,36.2,20.9c-3.3,5.7-6.8,11.2-10.5,16.6
	C290.2,242.7,274.1,232.9,276.1,215.2z"/>
<path id="path1124" class="st3" d="M276.1,215.2c16-2.8,25.6,11.8,36.2,20.9c-3.3,5.7-6.8,11.2-10.5,16.6
	C290.2,242.7,274.1,232.9,276.1,215.2z"/>
<path id="path1142" class="st2" d="M359.5,255c-8.8-12.8,2.9-29.3,17.3-28.4c12.3,9.7,20.2,23.7,31.7,34.3
	c-5.6,4.6-11.6,9.1-15.3,15.5c7-3.2,12.9-8.3,18.9-13c2.1,3.2,6.2,9.7,8.3,12.9c-5.1,6.7-10,13.5-13.9,21
	C391.2,282.8,373.9,270.4,359.5,255z"/>
<path id="path1144" class="st3" d="M359.5,255c-8.8-12.8,2.9-29.3,17.3-28.4c12.3,9.7,20.2,23.7,31.7,34.3
	c-5.6,4.6-11.6,9.1-15.3,15.5c7-3.2,12.9-8.3,18.9-13c2.1,3.2,6.2,9.7,8.3,12.9c-5.1,6.7-10,13.5-13.9,21
	C391.2,282.8,373.9,270.4,359.5,255z"/>
<path id="path1174" class="st2" d="M308,252.8c2.7-4.5,5.7-8.8,9.3-12.7c5.7,3.8,11.3,7.7,16.8,11.8c-5.1,6-10.2,12-15.6,17.8
	C314.8,264.4,307.1,260.2,308,252.8z"/>
<path id="path1176" class="st3" d="M308,252.8c2.7-4.5,5.7-8.8,9.3-12.7c5.7,3.8,11.3,7.7,16.8,11.8c-5.1,6-10.2,12-15.6,17.8
	C314.8,264.4,307.1,260.2,308,252.8z"/>
<path id="path1182" class="st2" d="M450.9,249.4c5.2-3.5,12,5.1,7.5,9.4C453.1,262.3,446.7,253.7,450.9,249.4z"/>
<path id="path1184" class="st3" d="M450.9,249.4c5.2-3.5,12,5.1,7.5,9.4C453.1,262.3,446.7,253.7,450.9,249.4z"/>
<path id="path1218" class="st2" d="M326.1,271.1c4.5-5,9-9.9,13.6-14.7c4.8,3.7,9.6,7.4,14.4,11.1c-2.8,6.9-5.7,13.7-8.7,20.5
	C338.2,283.3,331.3,278,326.1,271.1z"/>
<path id="path1220" class="st3" d="M326.1,271.1c4.5-5,9-9.9,13.6-14.7c4.8,3.7,9.6,7.4,14.4,11.1c-2.8,6.9-5.7,13.7-8.7,20.5
	C338.2,283.3,331.3,278,326.1,271.1z"/>
<path id="path1226" class="st0" d="M254.2,348c-2-29.7-1.9-60,5.7-89c6.1,3,12.4,5.6,18.8,8.1c-1.6,25.6-6.9,50.9-6.5,76.7
	c-0.1,18.1,14.5,37.2,34,35.3c0.3-5.1-1.9-10.6,0.3-15.4c11.3-7,23.3-12.8,35.5-18.3c-0.2,15.2-2.9,30.4-8.9,44.5
	c-16.7-9.6-33.2,10.3-50.2,1.9C264.3,386.2,256.1,365.8,254.2,348z"/>
<path id="path1228" class="st1" d="M254.2,348c-2-29.7-1.9-60,5.7-89c6.1,3,12.4,5.6,18.8,8.1c-1.6,25.6-6.9,50.9-6.5,76.7
	c-0.1,18.1,14.5,37.2,34,35.3c0.3-5.1-1.9-10.6,0.3-15.4c11.3-7,23.3-12.8,35.5-18.3c-0.2,15.2-2.9,30.4-8.9,44.5
	c-16.7-9.6-33.2,10.3-50.2,1.9C264.3,386.2,256.1,365.8,254.2,348z"/>
<path id="path1250" class="st2" d="M358.5,274.7c11.1,5.2,22.7,9.4,33.8,14.7c-8.2,7.6-17.4,14.1-25.3,22c10.7-3.6,21.1-8.1,31.8-12
	c6.9,6.9,13.9,14,19.2,22.3c2.7,9.1,3.8,18.6,6.9,27.7c0.8-13.2,0.1-26.4,2.9-39.4c4.9,9.4,6.8,20,10.2,30.1c1-2.6,2.9-7.9,3.8-10.5
	c11.5,10.8,25.5,18.2,38.3,27.3c-17.3,12.2-37.5,36.5-60.6,22.5c-25.8-22.5-45.1-51.2-65.4-78.5C347.5,292.7,356,283,358.5,274.7z"
	/>
<path id="path1252" class="st3" d="M358.5,274.7c11.1,5.2,22.7,9.4,33.8,14.7c-8.2,7.6-17.4,14.1-25.3,22c10.7-3.6,21.1-8.1,31.8-12
	c6.9,6.9,13.9,14,19.2,22.3c2.7,9.1,3.8,18.6,6.9,27.7c0.8-13.2,0.1-26.4,2.9-39.4c4.9,9.4,6.8,20,10.2,30.1c1-2.6,2.9-7.9,3.8-10.5
	c11.5,10.8,25.5,18.2,38.3,27.3c-17.3,12.2-37.5,36.5-60.6,22.5c-25.8-22.5-45.1-51.2-65.4-78.5C347.5,292.7,356,283,358.5,274.7z"
	/>
<path id="path1254" class="st2" d="M436.5,280.2c5.9-1.5,11.9-2.8,18-4c-1.9,6.5-6.3,11-12.5,13.4
	C440.6,287.3,437.9,282.6,436.5,280.2z"/>
<path id="path1256" class="st3" d="M436.5,280.2c5.9-1.5,11.9-2.8,18-4c-1.9,6.5-6.3,11-12.5,13.4
	C440.6,287.3,437.9,282.6,436.5,280.2z"/>
<path id="path1274" class="st2" d="M423.2,289.5c9.6-4,10.7,11.2,2,12.5C415.3,306,414.2,290.7,423.2,289.5z"/>
<path id="path1276" class="st3" d="M423.2,289.5c9.6-4,10.7,11.2,2,12.5C415.3,306,414.2,290.7,423.2,289.5z"/>
<path id="path1314" class="st4" d="M503.3,352.8c2.4-0.9,7.1-2.7,9.5-3.6c5.3,9.5,10.4,19.1,15.9,28.5c-2.7,0.1-8.1,0.3-10.8,0.4
	C512.9,369.8,508,361.3,503.3,352.8z"/>
<path id="path1316" class="st1" d="M503.3,352.8c2.4-0.9,7.1-2.7,9.5-3.6c5.3,9.5,10.4,19.1,15.9,28.5c-2.7,0.1-8.1,0.3-10.8,0.4
	C512.9,369.8,508,361.3,503.3,352.8z"/>
<path id="path1326" class="st2" d="M490,358.5c4.4-1.9,8.9-3.8,13.4-5.7c4.7,8.5,9.6,16.9,14.6,25.3c2.7-0.1,8.1-0.3,10.8-0.4
	c-0.9,9.9-5.5,18.7-11,26.8C505.1,391.5,495.6,375.6,490,358.5z"/>
<path id="path1328" class="st3" d="M490,358.5c4.4-1.9,8.9-3.8,13.4-5.7c4.7,8.5,9.6,16.9,14.6,25.3c2.7-0.1,8.1-0.3,10.8-0.4
	c-0.9,9.9-5.5,18.7-11,26.8C505.1,391.5,495.6,375.6,490,358.5z"/>
<path id="path1370" class="st2" d="M471.7,368.8c16.6,7.6,17.4,28.3,24.4,43c-10.5,4.2-21.2,8-32,11.3c-6.4-9.4-13.1-18.7-19.8-28
	C455.4,388.8,471.3,384.2,471.7,368.8z"/>
<path id="path1372" class="st3" d="M471.7,368.8c16.6,7.6,17.4,28.3,24.4,43c-10.5,4.2-21.2,8-32,11.3c-6.4-9.4-13.1-18.7-19.8-28
	C455.4,388.8,471.3,384.2,471.7,368.8z"/>
</svg>
