<?xml version="1.0" encoding="utf-8"?>
<!-- Generator: Adobe Illustrator 23.0.6, SVG Export Plug-In . SVG Version: 6.00 Build 0)  -->
<svg version="1.1" id="Layer_1" xmlns="http://www.w3.org/2000/svg" xmlns:xlink="http://www.w3.org/1999/xlink" x="0px" y="0px"
	 viewBox="0 0 792 612" style="enable-background:new 0 0 792 612;" xml:space="preserve">
<style type="text/css">
	.st0{fill:none;stroke:#171717;stroke-width:0.1;stroke-miterlimit:10;}
	.st1{fill:#171717;}
	.st2{fill:none;stroke:#FFFFFF;stroke-width:0.1;stroke-miterlimit:10;}
	.st3{fill:#FFFFFF;}
	.st4{fill:none;stroke:#8F8F8F;stroke-width:0.1;stroke-miterlimit:10;}
	.st5{fill:none;stroke:#C7C7C7;stroke-width:0.1;stroke-miterlimit:10;}
</style>
<g>
	<path id="path1010" class="st0" d="M362.7,141.8c6-7,21.7-7.4,24.8,2.6c8,23.9,9.2,49.3,13.1,74c7.6-2.3,18.6,1.4,23.9-5.3
		c5.6-19.4,1.4-40.5,8.4-59.7c9.5-7.8,25.5-0.5,26.8,11.5c5.1,42.9-5.6,85.5-6.7,128.4c0.5,28-2.4,55.8-0.6,83.8
		c1.2,13.1-3.7,25-11.3,35.4c-0.3,14.4-0.7,28.8-2,43.1c-24.2,15.8-56.5,24.7-83.1,9.2c-11.2-2.9-7-16.9-9-25.4
		c1.2-15-13.5-24.1-15.8-38.2c-4.2-24.1-6.7-48.4-11.1-72.4c3.1,0.1,9.2,0.3,12.3,0.4c-11.1,10.9-3.2,25.4-1.4,38.4
		c3.6,18.2,4.2,39.5,19.2,52.7c13.1,7.2,25.7-4.7,37.4-9.7c1.1,1.8,3.4,5.3,4.6,7.1c0.3-2.9,1-8.6,1.4-11.5
		c13.4,4.1,30,12.3,41.7-0.2c20.8-19.6,9.4-49.6,10.6-74.3c1.5-19.6-7.8-39.2-21.5-52.8c6.5-20.9-13.4-37.7-9.2-59.1
		c-16.1,5.8-14.1,26.6-16.2,40.5c3.9,14.3,4.4,29.4,9.2,43.5c5.8,6.7,13,12.2,18.7,19.1c-7.3-2.6-14.2-6-21.2-9.3
		c-1.5,6.8,0.7,15.5-5,20.7c-10.2,8.3-11.5,22.1-14.7,34c1.7,10.4,8.5,18.7,14.5,27c-2.5,0.4-7.6,1.1-10.2,1.5
		c-5.2-11.3-9.2-23.1-10.6-35.5c-12.8-6.5-21.5-17.8-29-29.7c-6.1-0.3-12.2-0.6-18.3-1c3.1-1.8,9.4-5.3,12.5-7.1
		c-9.3-3.7-19.5-5.7-26.9,2.7c-1.3-16.5,9.4-29.5,23.5-36.6c2.1-12.4,1.5-25.6,6.8-37.2c4.5-6.8,12.6-9.4,19.3-13.3
		c-2.7-19.4-3.4-39.1-1.8-58.7C366.6,167.7,362.1,154.9,362.7,141.8z"/>
	<path id="path1012" class="st1" d="M362.7,141.8c6-7,21.7-7.4,24.8,2.6c8,23.9,9.2,49.3,13.1,74c7.6-2.3,18.6,1.4,23.9-5.3
		c5.6-19.4,1.4-40.5,8.4-59.7c9.5-7.8,25.5-0.5,26.8,11.5c5.1,42.9-5.6,85.5-6.7,128.4c0.5,28-2.4,55.8-0.6,83.8
		c1.2,13.1-3.7,25-11.3,35.4c-0.3,14.4-0.7,28.8-2,43.1c-24.2,15.8-56.5,24.7-83.1,9.2c-11.2-2.9-7-16.9-9-25.4
		c1.2-15-13.5-24.1-15.8-38.2c-4.2-24.1-6.7-48.4-11.1-72.4c3.1,0.1,9.2,0.3,12.3,0.4c-11.1,10.9-3.2,25.4-1.4,38.4
		c3.6,18.2,4.2,39.5,19.2,52.7c13.1,7.2,25.7-4.7,37.4-9.7c1.1,1.8,3.4,5.3,4.6,7.1c0.3-2.9,1-8.6,1.4-11.5
		c13.4,4.1,30,12.3,41.7-0.2c20.8-19.6,9.4-49.6,10.6-74.3c1.5-19.6-7.8-39.2-21.5-52.8c6.5-20.9-13.4-37.7-9.2-59.1
		c-16.1,5.8-14.1,26.6-16.2,40.5c3.9,14.3,4.4,29.4,9.2,43.5c5.8,6.7,13,12.2,18.7,19.1c-7.3-2.6-14.2-6-21.2-9.3
		c-1.5,6.8,0.7,15.5-5,20.7c-10.2,8.3-11.5,22.1-14.7,34c1.7,10.4,8.5,18.7,14.5,27c-2.5,0.4-7.6,1.1-10.2,1.5
		c-5.2-11.3-9.2-23.1-10.6-35.5c-12.8-6.5-21.5-17.8-29-29.7c-6.1-0.3-12.2-0.6-18.3-1c3.1-1.8,9.4-5.3,12.5-7.1
		c-9.3-3.7-19.5-5.7-26.9,2.7c-1.3-16.5,9.4-29.5,23.5-36.6c2.1-12.4,1.5-25.6,6.8-37.2c4.5-6.8,12.6-9.4,19.3-13.3
		c-2.7-19.4-3.4-39.1-1.8-58.7C366.6,167.7,362.1,154.9,362.7,141.8z"/>
	<path id="path1018" class="st2" d="M367.1,142.5c5.8-0.2,11.7-0.1,17.6,0.2c4.3,12.5,6.5,25.5,5.6,38.7c-5.8,1.2-11.6,2.3-17.4,3.5
		C369.3,171.1,364.7,157,367.1,142.5z"/>
	<path id="path1020" class="st3" d="M367.1,142.5c5.8-0.2,11.7-0.1,17.6,0.2c4.3,12.5,6.5,25.5,5.6,38.7c-5.8,1.2-11.6,2.3-17.4,3.5
		C369.3,171.1,364.7,157,367.1,142.5z"/>
	<path id="path1022" class="st2" d="M439.6,155.3c21,1.8,13.6,27.3,15.8,41.6c-7.7-0.1-15.3,0-22.9,0.6
		C432.9,183.2,432,167.9,439.6,155.3z"/>
	<path id="path1024" class="st3" d="M439.6,155.3c21,1.8,13.6,27.3,15.8,41.6c-7.7-0.1-15.3,0-22.9,0.6
		C432.9,183.2,432,167.9,439.6,155.3z"/>
	<path id="path1026" class="st2" d="M371.9,189.4c6.8-0.6,13.6-1.1,20.4-1.4c0.8,10.8,1.8,21.6,2.8,32.4c-8.6-0.1-17.3-0.2-25.9-0.7
		C370.4,209.6,371.1,199.5,371.9,189.4z"/>
	<path id="path1028" class="st3" d="M371.9,189.4c6.8-0.6,13.6-1.1,20.4-1.4c0.8,10.8,1.8,21.6,2.8,32.4c-8.6-0.1-17.3-0.2-25.9-0.7
		C370.4,209.6,371.1,199.5,371.9,189.4z"/>
	<path id="path1034" class="st2" d="M431.8,201.8c7.3-0.4,14.6-0.5,21.9-0.6c0,9.9-0.7,19.7-1.4,29.5c-8.3-2-16.6-3.6-25-4.8
		C429,217.9,430.4,209.9,431.8,201.8z"/>
	<path id="path1036" class="st3" d="M431.8,201.8c7.3-0.4,14.6-0.5,21.9-0.6c0,9.9-0.7,19.7-1.4,29.5c-8.3-2-16.6-3.6-25-4.8
		C429,217.9,430.4,209.9,431.8,201.8z"/>
	<path id="path1046" class="st2" d="M372.9,228.6c8.1-1.5,16.3-2.9,24.6-2c-1.9,15.7-5.8,31.1-5.2,47
		C385.6,258.8,366.5,246.2,372.9,228.6z"/>
	<path id="path1048" class="st3" d="M372.9,228.6c8.1-1.5,16.3-2.9,24.6-2c-1.9,15.7-5.8,31.1-5.2,47
		C385.6,258.8,366.5,246.2,372.9,228.6z"/>
	<path id="path1050" class="st2" d="M426.6,230.7c7.5,3.2,14.9,6.4,22.5,9.4c0.3,16.8-0.8,33.6-2.6,50.4
		c-11.3-8.7-11.2-24.7-18.9-36C422.1,247.3,425.6,238.6,426.6,230.7z"/>
	<path id="path1052" class="st3" d="M426.6,230.7c7.5,3.2,14.9,6.4,22.5,9.4c0.3,16.8-0.8,33.6-2.6,50.4
		c-11.3-8.7-11.2-24.7-18.9-36C422.1,247.3,425.6,238.6,426.6,230.7z"/>
	<path id="path1070" class="st2" d="M347.5,283.2c1.3-14.2,2.2-34.3,20-36.8c8,13.7,15.6,27.6,22,42.2c-5,3-10.1,5.9-14.8,9.3
		c6.5-0.6,12.9-1.3,19.3-2.2c2,9.9-6.6,15.6-11.9,22.4c-8.1-13.1-16.3-26.1-26.4-37.7C353.7,281.1,349.6,282.5,347.5,283.2z"/>
	<path id="path1072" class="st3" d="M347.5,283.2c1.3-14.2,2.2-34.3,20-36.8c8,13.7,15.6,27.6,22,42.2c-5,3-10.1,5.9-14.8,9.3
		c6.5-0.6,12.9-1.3,19.3-2.2c2,9.9-6.6,15.6-11.9,22.4c-8.1-13.1-16.3-26.1-26.4-37.7C353.7,281.1,349.6,282.5,347.5,283.2z"/>
	<path id="path1130" class="st4" d="M393.8,281.9C407.6,282.7,387.4,294.3,393.8,281.9z"/>
	<path id="path1132" class="st1" d="M393.8,281.9C407.6,282.7,387.4,294.3,393.8,281.9z"/>
	<path id="path1150" class="st2" d="M324.8,316c4.9-13.1,19.4-19.6,30.9-26.3c10,12.5,18.2,26.3,24.5,41.1c-3.6,5.4-6.9,11-9.9,16.7
		c-10.1-11.9-17.7-26.2-31.1-35C335.6,313.3,328.4,315.1,324.8,316z"/>
	<path id="path1152" class="st3" d="M324.8,316c4.9-13.1,19.4-19.6,30.9-26.3c10,12.5,18.2,26.3,24.5,41.1c-3.6,5.4-6.9,11-9.9,16.7
		c-10.1-11.9-17.7-26.2-31.1-35C335.6,313.3,328.4,315.1,324.8,316z"/>
	<path id="path1230" class="st2" d="M390.1,319.1c6.1-4.9,10.8,6.2,5.1,9.5C389.2,333.7,385.1,322.4,390.1,319.1z"/>
	<path id="path1232" class="st3" d="M390.1,319.1c6.1-4.9,10.8,6.2,5.1,9.5C389.2,333.7,385.1,322.4,390.1,319.1z"/>
	<path id="path1238" class="st0" d="M362,323.3c5.1-4,7.9-3.2,8.6,2.5C365.4,329.7,362.6,328.9,362,323.3z"/>
	<path id="path1240" class="st1" d="M362,323.3c5.1-4,7.9-3.2,8.6,2.5C365.4,329.7,362.6,328.9,362,323.3z"/>
	<path id="path1278" class="st5" d="M378.2,344.3c5.9-2,7.9,0,6.2,5.9C378.5,352,376.4,350.1,378.2,344.3z"/>
	<path id="path1280" class="st3" d="M378.2,344.3c5.9-2,7.9,0,6.2,5.9C378.5,352,376.4,350.1,378.2,344.3z"/>
	<path id="path1374" class="st2" d="M353,434.1c12.8,2.5,23.7-4.7,34.5-10.3c0.6,13.8,0.6,27.6,0.3,41.5c-11-2.2-21.7-5.5-32.2-9
		C354.8,448.9,353.9,441.5,353,434.1z"/>
	<path id="path1376" class="st3" d="M353,434.1c12.8,2.5,23.7-4.7,34.5-10.3c0.6,13.8,0.6,27.6,0.3,41.5c-11-2.2-21.7-5.5-32.2-9
		C354.8,448.9,353.9,441.5,353,434.1z"/>
	<path id="path1378" class="st2" d="M401.3,423.5c6.3,0.1,12.7,0.1,19.1,0.1c-0.1,11.6-0.2,23.1-0.4,34.7
		c-5.8,1.9-11.7,3.6-17.8,4.2C401.2,449.5,400.9,436.5,401.3,423.5z"/>
	<path id="path1380" class="st3" d="M401.3,423.5c6.3,0.1,12.7,0.1,19.1,0.1c-0.1,11.6-0.2,23.1-0.4,34.7
		c-5.8,1.9-11.7,3.6-17.8,4.2C401.2,449.5,400.9,436.5,401.3,423.5z"/>
	<path id="path1394" class="st4" d="M393.9,453.8c5.6,0.8,6.6,3.8,2.9,8.8C391.1,461.8,390.2,458.8,393.9,453.8z"/>
	<path id="path1396" class="st3" d="M393.9,453.8c5.6,0.8,6.6,3.8,2.9,8.8C391.1,461.8,390.2,458.8,393.9,453.8z"/>
</g>
</svg>
