<svg width="792" height="612" viewBox="0 0 792 612" fill="none" xmlns="http://www.w3.org/2000/svg">
<g clip-path="url(#clip0_3_24)">
<path d="M397 248.5L413.5 220.5L427 271L446 307.5L448 384.5L433 412L413.5 415.5C399.5 418.167 370.4 424 366 426C361.6 428 351.333 421.667 345 420L322.5 318.5L341.5 320.5L390.5 348L401 329L404.5 307.5L397 248.5Z" fill="white" stroke="white"/>
<path d="M362.7 141.8C368.7 134.8 384.4 134.4 387.5 144.4C395.5 168.3 396.7 193.7 400.6 218.4C408.2 216.1 419.2 219.8 424.5 213.1C430.1 193.7 425.9 172.6 432.9 153.4C442.4 145.6 458.4 152.9 459.7 164.9C464.8 207.8 454.1 250.4 453 293.3C453.5 321.3 450.6 349.1 452.4 377.1C453.6 390.2 448.7 402.1 441.1 412.5C440.8 426.9 440.4 441.3 439.1 455.6C414.9 471.4 382.6 480.3 356 464.8C344.8 461.9 349 447.9 347 439.4C348.2 424.4 333.5 415.3 331.2 401.2C327 377.1 324.5 352.8 320.1 328.8C323.2 328.9 329.3 329.1 332.4 329.2C321.3 340.1 329.2 354.6 331 367.6C334.6 385.8 335.2 407.1 350.2 420.3C363.3 427.5 375.9 415.6 387.6 410.6C388.7 412.4 391 415.9 392.2 417.7C392.5 414.8 393.2 409.1 393.6 406.2C407 410.3 423.6 418.5 435.3 406C456.1 386.4 444.7 356.4 445.9 331.7C447.4 312.1 438.1 292.5 424.4 278.9C430.9 258 411 241.2 415.2 219.8C399.1 225.6 401.1 246.4 399 260.3C402.9 274.6 403.4 289.7 408.2 303.8C414 310.5 421.2 316 426.9 322.9C419.6 320.3 412.7 316.9 405.7 313.6C404.2 320.4 406.4 329.1 400.7 334.3C390.5 342.6 389.2 356.4 386 368.3C387.7 378.7 394.5 387 400.5 395.3C398 395.7 392.9 396.4 390.3 396.8C385.1 385.5 381.1 373.7 379.7 361.3C366.9 354.8 358.2 343.5 350.7 331.6C344.6 331.3 338.5 331 332.4 330.6C335.5 328.8 341.8 325.3 344.9 323.5C335.6 319.8 325.4 317.8 318 326.2C316.7 309.7 327.4 296.7 341.5 289.6C343.6 277.2 343 264 348.3 252.4C352.8 245.6 360.9 243 367.6 239.1C364.9 219.7 364.2 200 365.8 180.4C366.6 167.7 362.1 154.9 362.7 141.8Z" stroke="#171717" stroke-width="0.1" stroke-miterlimit="10"/>
<path d="M362.7 141.8C368.7 134.8 384.4 134.4 387.5 144.4C395.5 168.3 396.7 193.7 400.6 218.4C408.2 216.1 419.2 219.8 424.5 213.1C430.1 193.7 425.9 172.6 432.9 153.4C442.4 145.6 458.4 152.9 459.7 164.9C464.8 207.8 454.1 250.4 453 293.3C453.5 321.3 450.6 349.1 452.4 377.1C453.6 390.2 448.7 402.1 441.1 412.5C440.8 426.9 440.4 441.3 439.1 455.6C414.9 471.4 382.6 480.3 356 464.8C344.8 461.9 349 447.9 347 439.4C348.2 424.4 333.5 415.3 331.2 401.2C327 377.1 324.5 352.8 320.1 328.8C323.2 328.9 329.3 329.1 332.4 329.2C321.3 340.1 329.2 354.6 331 367.6C334.6 385.8 335.2 407.1 350.2 420.3C363.3 427.5 375.9 415.6 387.6 410.6C388.7 412.4 391 415.9 392.2 417.7C392.5 414.8 393.2 409.1 393.6 406.2C407 410.3 423.6 418.5 435.3 406C456.1 386.4 444.7 356.4 445.9 331.7C447.4 312.1 438.1 292.5 424.4 278.9C430.9 258 411 241.2 415.2 219.8C399.1 225.6 401.1 246.4 399 260.3C402.9 274.6 403.4 289.7 408.2 303.8C414 310.5 421.2 316 426.9 322.9C419.6 320.3 412.7 316.9 405.7 313.6C404.2 320.4 406.4 329.1 400.7 334.3C390.5 342.6 389.2 356.4 386 368.3C387.7 378.7 394.5 387 400.5 395.3C398 395.7 392.9 396.4 390.3 396.8C385.1 385.5 381.1 373.7 379.7 361.3C366.9 354.8 358.2 343.5 350.7 331.6C344.6 331.3 338.5 331 332.4 330.6C335.5 328.8 341.8 325.3 344.9 323.5C335.6 319.8 325.4 317.8 318 326.2C316.7 309.7 327.4 296.7 341.5 289.6C343.6 277.2 343 264 348.3 252.4C352.8 245.6 360.9 243 367.6 239.1C364.9 219.7 364.2 200 365.8 180.4C366.6 167.7 362.1 154.9 362.7 141.8Z" fill="#171717"/>
<path d="M367.1 142.5C372.9 142.3 378.8 142.4 384.7 142.7C389 155.2 391.2 168.2 390.3 181.4C384.5 182.6 378.7 183.7 372.9 184.9C369.3 171.1 364.7 157 367.1 142.5Z" stroke="white" stroke-width="0.1" stroke-miterlimit="10"/>
<path d="M367.1 142.5C370.5 138.5 382.5 138 384.7 142.7C389 155.2 391.2 168.2 390.3 181.4C384.5 182.6 378.7 183.7 372.9 184.9C369.3 171.1 364.7 157 367.1 142.5Z" fill="white"/>
<path d="M439.6 155.3C460.6 157.1 453.2 182.6 455.4 196.9C447.7 196.8 440.1 196.9 432.5 197.5C432.9 183.2 432 167.9 439.6 155.3Z" stroke="white" stroke-width="0.1" stroke-miterlimit="10"/>
<path d="M439.6 155.3C460.6 157.1 453.2 182.6 455.4 196.9C447.7 196.8 440.1 196.9 432.5 197.5C432.9 183.2 432 167.9 439.6 155.3Z" fill="white"/>
<path d="M371.9 189.4C378.7 188.8 385.5 188.3 392.3 188C393.1 198.8 394.1 209.6 395.1 220.4C386.5 220.3 377.8 220.2 369.2 219.7C370.4 209.6 371.1 199.5 371.9 189.4Z" stroke="white" stroke-width="0.1" stroke-miterlimit="10"/>
<path d="M371.9 189.4C378.7 188.8 385.5 188.3 392.3 188C393.1 198.8 394.1 209.6 395.1 220.4C386.5 220.3 377.8 220.2 369.2 219.7C370.4 209.6 371.1 199.5 371.9 189.4Z" fill="white"/>
<path d="M431.8 201.8C439.1 201.4 446.4 201.3 453.7 201.2C453.7 211.1 453 220.9 452.3 230.7C444 228.7 435.7 227.1 427.3 225.9C429 217.9 430.4 209.9 431.8 201.8Z" stroke="white" stroke-width="0.1" stroke-miterlimit="10"/>
<path d="M431.8 201.8C439.1 201.4 446.4 201.3 453.7 201.2C453.7 211.1 453 220.9 452.3 230.7C444 228.7 435.7 227.1 427.3 225.9C429 217.9 430.4 209.9 431.8 201.8Z" fill="white"/>
<path d="M372.9 228.6C381 227.1 389.2 225.7 397.5 226.6C395.6 242.3 391.7 257.7 392.3 273.6C385.6 258.8 366.5 246.2 372.9 228.6Z" stroke="white" stroke-width="0.1" stroke-miterlimit="10"/>
<path d="M372.9 228.6C381 227.1 389.2 225.7 397.5 226.6C395.6 242.3 391.7 257.7 392.3 273.6C385.6 258.8 366.5 246.2 372.9 228.6Z" fill="white"/>
<path d="M426.6 230.7C434.1 233.9 441.5 237.1 449.1 240.1C449.4 256.9 448.3 273.7 446.5 290.5C435.2 281.8 435.3 265.8 427.6 254.5C422.1 247.3 425.6 238.6 426.6 230.7Z" stroke="white" stroke-width="0.1" stroke-miterlimit="10"/>
<path d="M426.6 230.7C434.1 233.9 441.5 237.1 449.1 240.1C449.4 256.9 448.3 273.7 446.5 290.5C435.2 281.8 435.3 265.8 427.6 254.5C422.1 247.3 425.6 238.6 426.6 230.7Z" fill="white"/>
<path d="M347.5 283.2C348.8 269 349.7 248.9 367.5 246.4C375.5 260.1 383.1 274 389.5 288.6C384.5 291.6 379.4 294.5 374.7 297.9C381.2 297.3 387.6 296.6 394 295.7C396 305.6 387.4 311.3 382.1 318.1C374 305 365.8 292 355.7 280.4C353.7 281.1 349.6 282.5 347.5 283.2Z" stroke="white" stroke-width="0.1" stroke-miterlimit="10"/>
<path d="M347.5 283.2C348.8 269 349.7 248.9 367.5 246.4C375.5 260.1 383.1 274 389.5 288.6C384.5 291.6 379.4 294.5 374.7 297.9C381.2 297.3 387.6 296.6 394 295.7C396 305.6 387.4 311.3 382.1 318.1C374 305 365.8 292 355.7 280.4C353.7 281.1 349.6 282.5 347.5 283.2Z" fill="white"/>
<path d="M393.8 281.9C407.6 282.7 387.4 294.3 393.8 281.9Z" stroke="#8F8F8F" stroke-width="0.1" stroke-miterlimit="10"/>
<path d="M393.8 281.9C407.6 282.7 387.4 294.3 393.8 281.9Z" fill="#171717"/>
<path d="M324.8 316C329.7 302.9 344.2 296.4 355.7 289.7C365.7 302.2 373.9 316 380.2 330.8C376.6 336.2 373.3 341.8 370.3 347.5C360.2 335.6 352.6 321.3 339.2 312.5C335.6 313.3 328.4 315.1 324.8 316Z" stroke="white" stroke-width="0.1" stroke-miterlimit="10"/>
<path d="M324.8 316C329.7 302.9 344.2 296.4 355.7 289.7C365.7 302.2 373.9 316 380.2 330.8C376.6 336.2 373.3 341.8 370.3 347.5C360.2 335.6 352.6 321.3 339.2 312.5C335.6 313.3 328.4 315.1 324.8 316Z" fill="white"/>
<path d="M390.1 319.1C396.2 314.2 400.9 325.3 395.2 328.6C389.2 333.7 385.1 322.4 390.1 319.1Z" stroke="white" stroke-width="0.1" stroke-miterlimit="10"/>
<path d="M390.1 319.1C396.2 314.2 400.9 325.3 395.2 328.6C389.2 333.7 385.1 322.4 390.1 319.1Z" fill="white"/>
<path d="M362 323.3C367.1 319.3 369.9 320.1 370.6 325.8C365.4 329.7 362.6 328.9 362 323.3Z" stroke="#171717" stroke-width="0.1" stroke-miterlimit="10"/>
<path d="M362 323.3C367.1 319.3 369.9 320.1 370.6 325.8C365.4 329.7 362.6 328.9 362 323.3Z" fill="#171717"/>
<path d="M378.2 344.3C384.1 342.3 386.1 344.3 384.4 350.2C378.5 352 376.4 350.1 378.2 344.3Z" stroke="#C7C7C7" stroke-width="0.1" stroke-miterlimit="10"/>
<path d="M378.2 344.3C384.1 342.3 386.1 344.3 384.4 350.2C378.5 352 376.4 350.1 378.2 344.3Z" fill="white"/>
<path d="M353 434.1C365.8 436.6 376.7 429.4 387.5 423.8C388.1 437.6 388.1 451.4 387.8 465.3C376.8 463.1 366.1 459.8 355.6 456.3C354.8 448.9 353.9 441.5 353 434.1Z" stroke="white" stroke-width="0.1" stroke-miterlimit="10"/>
<path d="M353 434.1C365.8 436.6 376.7 429.4 387.5 423.8C388.1 437.6 388.1 451.4 387.8 465.3C376.8 463.1 366.1 459.8 355.6 456.3C354.8 448.9 353.9 441.5 353 434.1Z" fill="white"/>
<path d="M401.3 423.5C407.6 423.6 414 423.6 420.4 423.6C420.3 435.2 420.2 446.7 420 458.3C414.2 460.2 408.3 461.9 402.2 462.5C401.2 449.5 400.9 436.5 401.3 423.5Z" stroke="white" stroke-width="0.1" stroke-miterlimit="10"/>
<path d="M401.3 423.5C407.6 423.6 414 423.6 420.4 423.6C420.3 435.2 420.2 446.7 420 458.3C414.2 460.2 408.3 461.9 402.2 462.5C401.2 449.5 400.9 436.5 401.3 423.5Z" fill="white"/>
<path d="M393.9 453.8C399.5 454.6 400.5 457.6 396.8 462.6C391.1 461.8 390.2 458.8 393.9 453.8Z" stroke="#8F8F8F" stroke-width="0.1" stroke-miterlimit="10"/>
<path d="M393.9 453.8C399.5 454.6 400.5 457.6 396.8 462.6C391.1 461.8 390.2 458.8 393.9 453.8Z" fill="white"/>
</g>
<defs>
<clipPath id="clip0_3_24">
<rect width="792" height="612" fill="white"/>
</clipPath>
</defs>
</svg>
