<svg width="792" height="612" viewBox="0 0 792 612" fill="none" xmlns="http://www.w3.org/2000/svg">
<path d="M397.5 191.795C409 188 415.5 187.5 423.707 191.795C425.607 200.895 427.307 210.195 427.407 219.595C385 227.5 394.9 208.195 397.5 191.795Z" fill="white"/>
<path d="M422 185C414.079 187.925 397.719 188 394.5 174.5C392.344 165.457 395.958 161.131 395.593 151.738C416 142.5 424.136 168.533 422 185Z" fill="white"/>
<path d="M392 147.2C402.4 143.7 418.2 144.1 421.4 157.1C430.7 189.9 429.9 224.5 434.3 258.1C436.9 279.3 438 300.6 440.2 321.8C467.9 315 489 290.3 518.9 291.4C529.8 291.1 538.7 299.2 539.9 309.9C530.9 316 519.9 319.3 512.4 327.4C495.6 345.8 470.3 353.6 454.5 373.1C442.1 388.1 425 397.8 407.5 405.7C391.5 413.1 394.2 434.4 385.3 446.9C370.4 455.9 354.2 465.4 336.2 464.9C321.2 461.4 308.7 451.7 295.7 443.8C295.6 429.1 303.9 415.9 304.7 401.4C303.8 363.9 287.5 326 298.7 288.7C303.8 271.6 326.7 279.1 335.2 265.8C349.5 247.4 375.2 251.6 394.2 241.2C395.2 228.4 391.8 214.5 395.9 202.6L398 202.5C399.2 207.7 399.7 213 399.6 218.5C408.1 218.6 416.6 218.8 425.1 219.3C425 210 424.3 200.7 422.8 191.5C412.4 188.9 401.3 188.2 395.7 198.8C393.8 191.2 392.3 181.6 396 174.7C399 177.5 401.3 180.9 402.9 184.9C409.1 184.6 415.3 184.5 421.5 184.7C421.3 170.6 416.8 145.2 397 151.1C396.3 157.5 396.3 164.1 394.5 170.4C389.6 164.1 392.3 154.7 392 147.2Z" stroke="#171717" stroke-width="0.1" stroke-miterlimit="10"/>
<path d="M392 147.2C402.4 143.7 418.2 144.1 421.4 157.1C430.7 189.9 429.9 224.5 434.3 258.1C436.9 279.3 438 300.6 440.2 321.8C467.9 315 489 290.3 518.9 291.4C529.8 291.1 538.7 299.2 539.9 309.9C530.9 316 519.9 319.3 512.4 327.4C495.6 345.8 470.3 353.6 454.5 373.1C442.1 388.1 425 397.8 407.5 405.7C391.5 413.1 394.2 434.4 385.3 446.9C370.4 455.9 354.2 465.4 336.2 464.9C321.2 461.4 308.7 451.7 295.7 443.8C295.6 429.1 303.9 415.9 304.7 401.4C303.8 363.9 287.5 326 298.7 288.7C303.8 271.6 326.7 279.1 335.2 265.8C349.5 247.4 375.2 251.6 394.2 241.2C395.2 228.4 391.8 214.5 395.9 202.6L398 202.5C399.2 207.7 399.7 213 399.6 218.5C408.1 218.6 416.6 218.8 425.1 219.3C425 210 424.3 200.7 422.8 191.5C412.4 188.9 401.3 188.2 395.7 198.8C393.8 191.2 392.3 181.6 396 174.7C399 177.5 401.3 180.9 402.9 184.9C409.1 184.6 415.3 184.5 421.5 184.7C421.3 170.6 416.8 145.2 397 151.1C396.3 157.5 396.3 164.1 394.5 170.4C389.6 164.1 392.3 154.7 392 147.2Z" fill="#171717"/>
<path d="M399.1 226C407.1 223.3 415.4 224.2 423.5 226.1C425.4 235.2 427.1 244.5 427.2 253.9C410.8 256.6 396.5 242.4 399.1 226Z" stroke="white" stroke-width="0.1" stroke-miterlimit="10"/>
<path d="M399.1 226C407.1 223.3 415.4 224.2 423.5 226.1C425.4 235.2 427.1 244.5 427.2 253.9C410.8 256.6 396.5 242.4 399.1 226Z" fill="white"/>
<path d="M374.3 258.6C377.7 248.6 390.1 248 398.8 246C401.8 251.4 405.9 256.5 407.3 262.7C405 277.3 400.6 291.7 400 306.6C392.2 306.2 384.4 306.9 376.8 308.5C376.7 291.8 375.1 275.2 374.3 258.6Z" stroke="white" stroke-width="0.1" stroke-miterlimit="10"/>
<path d="M374.3 258.6C377.7 248.6 390.1 248 398.8 246C401.8 251.4 405.9 256.5 407.3 262.7C405 277.3 400.6 291.7 400 306.6C392.2 306.2 384.4 306.9 376.8 308.5C376.7 291.8 375.1 275.2 374.3 258.6Z" fill="white"/>
<path d="M342.8 278.3C341.3 264.3 354.4 252.6 368.2 255.8C369.1 272.8 370.3 289.7 369.9 306.8C364.3 308.9 358.6 310.9 353.6 314.2C359.6 314.6 365.7 314.9 371.7 314.9C371.4 317 370.8 321.3 370.5 323.4C365.9 325.8 356.2 326 359.9 333.6C363.1 334 369.4 334.7 372.5 335.1C370 344.7 356.4 339.4 354.9 331.8C350.4 314.1 345.9 296.3 342.8 278.3Z" stroke="white" stroke-width="0.1" stroke-miterlimit="10"/>
<path d="M342.8 278.3C341.3 264.3 354.4 252.6 368.2 255.8C369.1 272.8 370.3 289.7 369.9 306.8C364.3 308.9 358.6 310.9 353.6 314.2C359.6 314.6 365.7 314.9 371.7 314.9C371.4 317 370.8 321.3 370.5 323.4C365.9 325.8 356.2 326 359.9 333.6C363.1 334 369.4 334.7 372.5 335.1C370 344.7 356.4 339.4 354.9 331.8C350.4 314.1 345.9 296.3 342.8 278.3Z" fill="white"/>
<path d="M414.8 258.8C419 259.7 423.3 260.7 427.6 261.6C429 278.8 430.9 295.9 431.8 313.1C429.6 312.5 425.1 311.3 422.9 310.7C424.3 314.6 425.7 318.6 427.1 322.5C422.4 321.2 417.7 319.8 413 318.3C413.3 320.8 414 325.7 414.3 328.2C412.6 327.8 409.3 327.1 407.6 326.7C407.1 316.3 407.5 305.9 407.6 295.5C412.6 292.5 417.5 289.6 422.5 286.6C421.3 282 420.3 277.4 419.5 272.8C417.5 274 413.5 276.5 411.5 277.7C412.8 271.4 413.9 265.1 414.8 258.8Z" stroke="white" stroke-width="0.1" stroke-miterlimit="10"/>
<path d="M414.8 258.8C419 259.7 423.3 260.7 427.6 261.6C429 278.8 430.9 295.9 431.8 313.1C429.6 312.5 425.1 311.3 422.9 310.7C424.3 314.6 425.7 318.6 427.1 322.5C422.4 321.2 417.7 319.8 413 318.3C413.3 320.8 414 325.7 414.3 328.2C412.6 327.8 409.3 327.1 407.6 326.7C407.1 316.3 407.5 305.9 407.6 295.5C412.6 292.5 417.5 289.6 422.5 286.6C421.3 282 420.3 277.4 419.5 272.8C417.5 274 413.5 276.5 411.5 277.7C412.8 271.4 413.9 265.1 414.8 258.8Z" fill="white"/>
<path d="M305.5 285.2C316.1 283.7 325.5 278 335.9 275.7C341 290.6 344.1 306.1 346.8 321.7C343.2 326.3 339.8 331 336.4 335.7C329 321.3 327.1 304.1 315.7 291.9C314.5 296.7 313.5 301.5 312.7 306.4C308.7 304.6 304.8 302.8 300.9 301.1C302.4 295.7 303.9 290.4 305.5 285.2Z" stroke="white" stroke-width="0.1" stroke-miterlimit="10"/>
<path d="M305.5 285.2C316.1 283.7 325.5 278 335.9 275.7C341 290.6 344.1 306.1 346.8 321.7C343.2 326.3 339.8 331 336.4 335.7C329 321.3 327.1 304.1 315.7 291.9C314.5 296.7 313.5 301.5 312.7 306.4C308.7 304.6 304.8 302.8 300.9 301.1C302.4 295.7 303.9 290.4 305.5 285.2Z" fill="white"/>
<path d="M482.5 306.7C493.6 300.7 505.9 296.2 518.8 297.6C523.8 298.3 531.9 297.6 530.3 305.1C504 323.8 479.9 345.3 452.4 362.4C448.4 351.3 444.7 340 443.5 328.2C457.3 322.6 472 309.4 487.3 318.3C485.6 314.4 484 310.6 482.5 306.7Z" stroke="white" stroke-width="0.1" stroke-miterlimit="10"/>
<path d="M482.5 306.7C493.6 300.7 505.9 296.2 518.8 297.6C523.8 298.3 531.9 297.6 530.3 305.1C504 323.8 479.9 345.3 452.4 362.4C448.4 351.3 444.7 340 443.5 328.2C457.3 322.6 472 309.4 487.3 318.3C485.6 314.4 484 310.6 482.5 306.7Z" fill="white"/>
<path d="M300.3 310.7C307.3 311.4 314.4 311.9 321.5 312.5C326.2 322.3 326.3 336.3 336.8 341.9C346.3 343 355.5 345.6 363.8 350.6C362.2 361.2 360.8 371.9 360.9 382.7C362.7 381.8 366.3 380 368.1 379.1C367.9 367.8 370.9 356.8 375.9 346.7C383.3 346.5 391 347.6 398.3 345.4C403.8 342.2 406.5 336.1 410 331C417.5 330.3 425.1 330.1 432.7 331.4C433.7 338.3 434.5 345.3 435.8 352.3C440.1 357.5 451.9 359.9 447.7 368.9C437 388 414.2 394.6 394.6 400.4C381.6 405.2 375 389.2 364.5 386C362.8 389.1 361.2 392.3 359.7 395.6C347.4 391.3 336.5 401.6 324.2 400.7C318.5 400.3 310.3 399.2 310.1 392C304.9 365.3 302.1 338 300.3 310.7Z" stroke="white" stroke-width="0.1" stroke-miterlimit="10"/>
<path d="M300.3 310.7C307.3 311.4 314.4 311.9 321.5 312.5C326.2 322.3 326.3 336.3 336.8 341.9C346.3 343 355.5 345.6 363.8 350.6C362.2 361.2 360.8 371.9 360.9 382.7C362.7 381.8 366.3 380 368.1 379.1C367.9 367.8 370.9 356.8 375.9 346.7C383.3 346.5 391 347.6 398.3 345.4C403.8 342.2 406.5 336.1 410 331C417.5 330.3 425.1 330.1 432.7 331.4C433.7 338.3 434.5 345.3 435.8 352.3C440.1 357.5 451.9 359.9 447.7 368.9C437 388 414.2 394.6 394.6 400.4C381.6 405.2 375 389.2 364.5 386C362.8 389.1 361.2 392.3 359.7 395.6C347.4 391.3 336.5 401.6 324.2 400.7C318.5 400.3 310.3 399.2 310.1 392C304.9 365.3 302.1 338 300.3 310.7Z" fill="white"/>
<path d="M376.3 311.8C384.7 311.7 393.1 310.6 401.4 308.5C401.7 315 402 321.5 402.2 328.1C395 321.7 386.4 319.3 377 321.3C376.8 318.9 376.5 314.2 376.3 311.8Z" stroke="white" stroke-width="0.1" stroke-miterlimit="10"/>
<path d="M376.3 311.8C384.7 311.7 393.1 310.6 401.4 308.5C401.7 315 402 321.5 402.2 328.1C395 321.7 386.4 319.3 377 321.3C376.8 318.9 376.5 314.2 376.3 311.8Z" fill="white"/>
<path d="M381.6 331.1C385.4 326.1 396.8 331.4 392 337.4C387.9 342.1 377 337.3 381.6 331.1Z" stroke="white" stroke-width="0.1" stroke-miterlimit="10"/>
<path d="M381.6 331.1C385.4 326.1 396.8 331.4 392 337.4C387.9 342.1 377 337.3 381.6 331.1Z" fill="white"/>
<path d="M351.5 455.1C352.5 437.7 358.1 420.9 366.5 405.7C370.1 408.2 373.7 410.8 377.4 413.3C374.5 424.5 372.2 435.8 369 446.9C365.2 452.6 358 454.7 351.5 455.1Z" stroke="white" stroke-width="0.1" stroke-miterlimit="10"/>
<path d="M351.5 455.1C352.5 437.7 358.1 420.9 366.5 405.7C370.1 408.2 373.7 410.8 377.4 413.3C374.5 424.5 372.2 435.8 369 446.9C365.2 452.6 358 454.7 351.5 455.1Z" fill="white"/>
<path d="M309.8 414.5C321.6 413.9 333.4 412.5 345 410.2C340 424.9 334.8 439.6 331.3 454.7C321 451.7 311.9 446 302.9 440.4C305 431.8 307.5 423.2 309.8 414.5Z" stroke="white" stroke-width="0.1" stroke-miterlimit="10"/>
<path d="M309.8 414.5C321.6 413.9 333.4 412.5 345 410.2C340 424.9 334.8 439.6 331.3 454.7C321 451.7 311.9 446 302.9 440.4C305 431.8 307.5 423.2 309.8 414.5Z" fill="white"/>
<path d="M344 428.3C346.9 420 348 409.6 357.9 406.6C355.8 415.8 353.1 424.8 350.5 433.9C348.8 432.5 345.6 429.7 344 428.3Z" stroke="white" stroke-width="0.1" stroke-miterlimit="10"/>
<path d="M344 428.3C346.9 420 348 409.6 357.9 406.6C355.8 415.8 353.1 424.8 350.5 433.9C348.8 432.5 345.6 429.7 344 428.3Z" fill="white"/>
</svg>
