<?xml version="1.0" encoding="utf-8"?>
<!-- Generator: Adobe Illustrator 23.0.6, SVG Export Plug-In . SVG Version: 6.00 Build 0)  -->
<svg version="1.1" id="Layer_1" xmlns="http://www.w3.org/2000/svg" xmlns:xlink="http://www.w3.org/1999/xlink" x="0px" y="0px"
	 viewBox="0 0 792 612" style="enable-background:new 0 0 792 612;" xml:space="preserve">
<style type="text/css">
	.st0{fill:none;stroke:#171717;stroke-width:0.1;stroke-miterlimit:10;}
	.st1{fill:#171717;}
	.st2{fill:none;stroke:#FFFFFF;stroke-width:0.1;stroke-miterlimit:10;}
	.st3{fill:#FFFFFF;}
</style>
<g>
	<path id="path1014" class="st0" d="M392,147.2c10.4-3.5,26.2-3.1,29.4,9.9c9.3,32.8,8.5,67.4,12.9,101c2.6,21.2,3.7,42.5,5.9,63.7
		c27.7-6.8,48.8-31.5,78.7-30.4c10.9-0.3,19.8,7.8,21,18.5c-9,6.1-20,9.4-27.5,17.5c-16.8,18.4-42.1,26.2-57.9,45.7
		c-12.4,15-29.5,24.7-47,32.6c-16,7.4-13.3,28.7-22.2,41.2c-14.9,9-31.1,18.5-49.1,18c-15-3.5-27.5-13.2-40.5-21.1
		c-0.1-14.7,8.2-27.9,9-42.4c-0.9-37.5-17.2-75.4-6-112.7c5.1-17.1,28-9.6,36.5-22.9c14.3-18.4,40-14.2,59-24.6
		c1-12.8-2.4-26.7,1.7-38.6l2.1-0.1c1.2,5.2,1.7,10.5,1.6,16c8.5,0.1,17,0.3,25.5,0.8c-0.1-9.3-0.8-18.6-2.3-27.8
		c-10.4-2.6-21.5-3.3-27.1,7.3c-1.9-7.6-3.4-17.2,0.3-24.1c3,2.8,5.3,6.2,6.9,10.2c6.2-0.3,12.4-0.4,18.6-0.2
		c-0.2-14.1-4.7-39.5-24.5-33.6c-0.7,6.4-0.7,13-2.5,19.3C389.6,164.1,392.3,154.7,392,147.2z"/>
	<path id="path1016" class="st1" d="M392,147.2c10.4-3.5,26.2-3.1,29.4,9.9c9.3,32.8,8.5,67.4,12.9,101c2.6,21.2,3.7,42.5,5.9,63.7
		c27.7-6.8,48.8-31.5,78.7-30.4c10.9-0.3,19.8,7.8,21,18.5c-9,6.1-20,9.4-27.5,17.5c-16.8,18.4-42.1,26.2-57.9,45.7
		c-12.4,15-29.5,24.7-47,32.6c-16,7.4-13.3,28.7-22.2,41.2c-14.9,9-31.1,18.5-49.1,18c-15-3.5-27.5-13.2-40.5-21.1
		c-0.1-14.7,8.2-27.9,9-42.4c-0.9-37.5-17.2-75.4-6-112.7c5.1-17.1,28-9.6,36.5-22.9c14.3-18.4,40-14.2,59-24.6
		c1-12.8-2.4-26.7,1.7-38.6l2.1-0.1c1.2,5.2,1.7,10.5,1.6,16c8.5,0.1,17,0.3,25.5,0.8c-0.1-9.3-0.8-18.6-2.3-27.8
		c-10.4-2.6-21.5-3.3-27.1,7.3c-1.9-7.6-3.4-17.2,0.3-24.1c3,2.8,5.3,6.2,6.9,10.2c6.2-0.3,12.4-0.4,18.6-0.2
		c-0.2-14.1-4.7-39.5-24.5-33.6c-0.7,6.4-0.7,13-2.5,19.3C389.6,164.1,392.3,154.7,392,147.2z"/>
	<path id="path1042" class="st2" d="M399.1,226c8-2.7,16.3-1.8,24.4,0.1c1.9,9.1,3.6,18.4,3.7,27.8
		C410.8,256.6,396.5,242.4,399.1,226z"/>
	<path id="path1044" class="st3" d="M399.1,226c8-2.7,16.3-1.8,24.4,0.1c1.9,9.1,3.6,18.4,3.7,27.8
		C410.8,256.6,396.5,242.4,399.1,226z"/>
	<path id="path1062" class="st2" d="M374.3,258.6c3.4-10,15.8-10.6,24.5-12.6c3,5.4,7.1,10.5,8.5,16.7c-2.3,14.6-6.7,29-7.3,43.9
		c-7.8-0.4-15.6,0.3-23.2,1.9C376.7,291.8,375.1,275.2,374.3,258.6z"/>
	<path id="path1064" class="st3" d="M374.3,258.6c3.4-10,15.8-10.6,24.5-12.6c3,5.4,7.1,10.5,8.5,16.7c-2.3,14.6-6.7,29-7.3,43.9
		c-7.8-0.4-15.6,0.3-23.2,1.9C376.7,291.8,375.1,275.2,374.3,258.6z"/>
	<path id="path1086" class="st2" d="M342.8,278.3c-1.5-14,11.6-25.7,25.4-22.5c0.9,17,2.1,33.9,1.7,51c-5.6,2.1-11.3,4.1-16.3,7.4
		c6,0.4,12.1,0.7,18.1,0.7c-0.3,2.1-0.9,6.4-1.2,8.5c-4.6,2.4-14.3,2.6-10.6,10.2c3.2,0.4,9.5,1.1,12.6,1.5
		c-2.5,9.6-16.1,4.3-17.6-3.3C350.4,314.1,345.9,296.3,342.8,278.3z"/>
	<path id="path1088" class="st3" d="M342.8,278.3c-1.5-14,11.6-25.7,25.4-22.5c0.9,17,2.1,33.9,1.7,51c-5.6,2.1-11.3,4.1-16.3,7.4
		c6,0.4,12.1,0.7,18.1,0.7c-0.3,2.1-0.9,6.4-1.2,8.5c-4.6,2.4-14.3,2.6-10.6,10.2c3.2,0.4,9.5,1.1,12.6,1.5
		c-2.5,9.6-16.1,4.3-17.6-3.3C350.4,314.1,345.9,296.3,342.8,278.3z"/>
	<path id="path1090" class="st2" d="M414.8,258.8c4.2,0.9,8.5,1.9,12.8,2.8c1.4,17.2,3.3,34.3,4.2,51.5c-2.2-0.6-6.7-1.8-8.9-2.4
		c1.4,3.9,2.8,7.9,4.2,11.8c-4.7-1.3-9.4-2.7-14.1-4.2c0.3,2.5,1,7.4,1.3,9.9c-1.7-0.4-5-1.1-6.7-1.5c-0.5-10.4-0.1-20.8,0-31.2
		c5-3,9.9-5.9,14.9-8.9c-1.2-4.6-2.2-9.2-3-13.8c-2,1.2-6,3.7-8,4.9C412.8,271.4,413.9,265.1,414.8,258.8z"/>
	<path id="path1092" class="st3" d="M414.8,258.8c4.2,0.9,8.5,1.9,12.8,2.8c1.4,17.2,3.3,34.3,4.2,51.5c-2.2-0.6-6.7-1.8-8.9-2.4
		c1.4,3.9,2.8,7.9,4.2,11.8c-4.7-1.3-9.4-2.7-14.1-4.2c0.3,2.5,1,7.4,1.3,9.9c-1.7-0.4-5-1.1-6.7-1.5c-0.5-10.4-0.1-20.8,0-31.2
		c5-3,9.9-5.9,14.9-8.9c-1.2-4.6-2.2-9.2-3-13.8c-2,1.2-6,3.7-8,4.9C412.8,271.4,413.9,265.1,414.8,258.8z"/>
	<path id="path1126" class="st2" d="M305.5,285.2c10.6-1.5,20-7.2,30.4-9.5c5.1,14.9,8.2,30.4,10.9,46c-3.6,4.6-7,9.3-10.4,14
		c-7.4-14.4-9.3-31.6-20.7-43.8c-1.2,4.8-2.2,9.6-3,14.5c-4-1.8-7.9-3.6-11.8-5.3C302.4,295.7,303.9,290.4,305.5,285.2z"/>
	<path id="path1128" class="st3" d="M305.5,285.2c10.6-1.5,20-7.2,30.4-9.5c5.1,14.9,8.2,30.4,10.9,46c-3.6,4.6-7,9.3-10.4,14
		c-7.4-14.4-9.3-31.6-20.7-43.8c-1.2,4.8-2.2,9.6-3,14.5c-4-1.8-7.9-3.6-11.8-5.3C302.4,295.7,303.9,290.4,305.5,285.2z"/>
	<path id="path1158" class="st2" d="M482.5,306.7c11.1-6,23.4-10.5,36.3-9.1c5,0.7,13.1,0,11.5,7.5c-26.3,18.7-50.4,40.2-77.9,57.3
		c-4-11.1-7.7-22.4-8.9-34.2c13.8-5.6,28.5-18.8,43.8-9.9C485.6,314.4,484,310.6,482.5,306.7z"/>
	<path id="path1160" class="st3" d="M482.5,306.7c11.1-6,23.4-10.5,36.3-9.1c5,0.7,13.1,0,11.5,7.5c-26.3,18.7-50.4,40.2-77.9,57.3
		c-4-11.1-7.7-22.4-8.9-34.2c13.8-5.6,28.5-18.8,43.8-9.9C485.6,314.4,484,310.6,482.5,306.7z"/>
	<path id="path1202" class="st2" d="M300.3,310.7c7,0.7,14.1,1.2,21.2,1.8c4.7,9.8,4.8,23.8,15.3,29.4c9.5,1.1,18.7,3.7,27,8.7
		c-1.6,10.6-3,21.3-2.9,32.1c1.8-0.9,5.4-2.7,7.2-3.6c-0.2-11.3,2.8-22.3,7.8-32.4c7.4-0.2,15.1,0.9,22.4-1.3
		c5.5-3.2,8.2-9.3,11.7-14.4c7.5-0.7,15.1-0.9,22.7,0.4c1,6.9,1.8,13.9,3.1,20.9c4.3,5.2,16.1,7.6,11.9,16.6
		c-10.7,19.1-33.5,25.7-53.1,31.5c-13,4.8-19.6-11.2-30.1-14.4c-1.7,3.1-3.3,6.3-4.8,9.6c-12.3-4.3-23.2,6-35.5,5.1
		c-5.7-0.4-13.9-1.5-14.1-8.7C304.9,365.3,302.1,338,300.3,310.7z"/>
	<path id="path1204" class="st3" d="M300.3,310.7c7,0.7,14.1,1.2,21.2,1.8c4.7,9.8,4.8,23.8,15.3,29.4c9.5,1.1,18.7,3.7,27,8.7
		c-1.6,10.6-3,21.3-2.9,32.1c1.8-0.9,5.4-2.7,7.2-3.6c-0.2-11.3,2.8-22.3,7.8-32.4c7.4-0.2,15.1,0.9,22.4-1.3
		c5.5-3.2,8.2-9.3,11.7-14.4c7.5-0.7,15.1-0.9,22.7,0.4c1,6.9,1.8,13.9,3.1,20.9c4.3,5.2,16.1,7.6,11.9,16.6
		c-10.7,19.1-33.5,25.7-53.1,31.5c-13,4.8-19.6-11.2-30.1-14.4c-1.7,3.1-3.3,6.3-4.8,9.6c-12.3-4.3-23.2,6-35.5,5.1
		c-5.7-0.4-13.9-1.5-14.1-8.7C304.9,365.3,302.1,338,300.3,310.7z"/>
	<path id="path1206" class="st2" d="M376.3,311.8c8.4-0.1,16.8-1.2,25.1-3.3c0.3,6.5,0.6,13,0.8,19.6c-7.2-6.4-15.8-8.8-25.2-6.8
		C376.8,318.9,376.5,314.2,376.3,311.8z"/>
	<path id="path1208" class="st3" d="M376.3,311.8c8.4-0.1,16.8-1.2,25.1-3.3c0.3,6.5,0.6,13,0.8,19.6c-7.2-6.4-15.8-8.8-25.2-6.8
		C376.8,318.9,376.5,314.2,376.3,311.8z"/>
	<path id="path1258" class="st2" d="M381.6,331.1c3.8-5,15.2,0.3,10.4,6.3C387.9,342.1,377,337.3,381.6,331.1z"/>
	<path id="path1260" class="st3" d="M381.6,331.1c3.8-5,15.2,0.3,10.4,6.3C387.9,342.1,377,337.3,381.6,331.1z"/>
	<path id="path1342" class="st2" d="M351.5,455.1c1-17.4,6.6-34.2,15-49.4c3.6,2.5,7.2,5.1,10.9,7.6c-2.9,11.2-5.2,22.5-8.4,33.6
		C365.2,452.6,358,454.7,351.5,455.1z"/>
	<path id="path1344" class="st3" d="M351.5,455.1c1-17.4,6.6-34.2,15-49.4c3.6,2.5,7.2,5.1,10.9,7.6c-2.9,11.2-5.2,22.5-8.4,33.6
		C365.2,452.6,358,454.7,351.5,455.1z"/>
	<path id="path1350" class="st2" d="M309.8,414.5c11.8-0.6,23.6-2,35.2-4.3c-5,14.7-10.2,29.4-13.7,44.5c-10.3-3-19.4-8.7-28.4-14.3
		C305,431.8,307.5,423.2,309.8,414.5z"/>
	<path id="path1352" class="st3" d="M309.8,414.5c11.8-0.6,23.6-2,35.2-4.3c-5,14.7-10.2,29.4-13.7,44.5c-10.3-3-19.4-8.7-28.4-14.3
		C305,431.8,307.5,423.2,309.8,414.5z"/>
	<path id="path1354" class="st2" d="M344,428.3c2.9-8.3,4-18.7,13.9-21.7c-2.1,9.2-4.8,18.2-7.4,27.3
		C348.8,432.5,345.6,429.7,344,428.3z"/>
	<path id="path1356" class="st3" d="M344,428.3c2.9-8.3,4-18.7,13.9-21.7c-2.1,9.2-4.8,18.2-7.4,27.3
		C348.8,432.5,345.6,429.7,344,428.3z"/>
</g>
</svg>
