<?xml version="1.0" encoding="utf-8"?>
<!-- Generator: Adobe Illustrator 23.0.6, SVG Export Plug-In . SVG Version: 6.00 Build 0)  -->
<svg version="1.1" id="Layer_1" xmlns="http://www.w3.org/2000/svg" xmlns:xlink="http://www.w3.org/1999/xlink" x="0px" y="0px"
	 viewBox="0 0 792 612" style="enable-background:new 0 0 792 612;" xml:space="preserve">
<style type="text/css">
	.st0{fill:none;stroke:#171717;stroke-width:0.1;stroke-miterlimit:10;}
	.st1{fill:#171717;}
	.st2{fill:none;stroke:#FFFFFF;stroke-width:0.1;stroke-miterlimit:10;}
	.st3{fill:#FFFFFF;}
	.st4{fill:none;stroke:#8F8F8F;stroke-width:0.1;stroke-miterlimit:10;}
</style>
<g>
	<path id="path1138" class="st0" d="M366.1,208.2c15.4-7.5,28.7-22.9,47.1-21.3c8.7-0.6,15.1,6.7,22.7,9.9
		c7.9,0.8,15.8-0.5,23.8-0.8c19.9,18,41.2,35.7,54.3,59.5c1,34.1-11.2,71.4-39.9,91.9c-8.8,6.4-17,13.3-25.1,20.6
		c-8.5-1.7-16.9-3.7-25.2-5.4c-13.1,15.4-20.4,34.3-27.2,53c-30.2,11.2-64.4,8.1-94.2-2.5c-9.8-10-18.5-21.2-24.9-33.6
		c-1.9-12.6,9-23.4,9.7-35.9c-0.6-40.8,21.3-77.1,39.1-112.3C339.4,223.6,354.5,218.9,366.1,208.2z"/>
	<path id="path1140" class="st1" d="M366.1,208.2c15.4-7.5,28.7-22.9,47.1-21.3c8.7-0.6,15.1,6.7,22.7,9.9
		c7.9,0.8,15.8-0.5,23.8-0.8c19.9,18,41.2,35.7,54.3,59.5c1,34.1-11.2,71.4-39.9,91.9c-8.8,6.4-17,13.3-25.1,20.6
		c-8.5-1.7-16.9-3.7-25.2-5.4c-13.1,15.4-20.4,34.3-27.2,53c-30.2,11.2-64.4,8.1-94.2-2.5c-9.8-10-18.5-21.2-24.9-33.6
		c-1.9-12.6,9-23.4,9.7-35.9c-0.6-40.8,21.3-77.1,39.1-112.3C339.4,223.6,354.5,218.9,366.1,208.2z"/>
	<path id="path1146" class="st2" d="M390.4,203.7c7-5.3,15.2-14.5,24.8-8.5c22.5,12.2,36.2,35.2,51.7,54.9c-6,3.2-12.1,6.4-18,9.8
		c9,2.5,18.1,4.5,27.3,6.3c-0.7,26-4.3,52-12.6,76.7c-12.9-4.8-26-4.6-35.9,6.1c21.2-30.6,24.1-71.6,14.3-106.7
		C428.5,224.9,407.1,217.1,390.4,203.7z"/>
	<path id="path1148" class="st3" d="M390.4,203.7c7-5.3,15.2-14.5,24.8-8.5c22.5,12.2,36.2,35.2,51.7,54.9c-6,3.2-12.1,6.4-18,9.8
		c9,2.5,18.1,4.5,27.3,6.3c-0.7,26-4.3,52-12.6,76.7c-12.9-4.8-26-4.6-35.9,6.1c21.2-30.6,24.1-71.6,14.3-106.7
		C428.5,224.9,407.1,217.1,390.4,203.7z"/>
	<path id="path1162" class="st2" d="M441.6,202.5c4.1,0.5,12.4,1.4,16.6,1.8c15.6,13.4,28.1,30,43.6,43.6
		c-6.4,2.8-12.8,5.5-19.2,8.1C470.1,237.2,451.8,222.8,441.6,202.5z"/>
	<path id="path1164" class="st3" d="M441.6,202.5c4.1,0.5,12.4,1.4,16.6,1.8c15.6,13.4,28.1,30,43.6,43.6
		c-6.4,2.8-12.8,5.5-19.2,8.1C470.1,237.2,451.8,222.8,441.6,202.5z"/>
	<path id="path1178" class="st2" d="M331.2,235.7c16.6-6.9,32.9-14.7,45.6-28c17.4,6.3,32.4,17.4,47.6,27.8
		c-6.2,5.9-12.4,11.9-17.8,18.6c10.6,2.5,21.3,4.6,32.3,5c0,18.4,0.3,36.8-0.4,55.2c-9.4,0.9-18.8,1.9-28.1,2.9
		c-1.9-16.6-0.6-33.5-3.6-50c-5.2-10.1-18.6-12-27.5-17.9c0.1,2.3,0.2,7,0.2,9.4c-4.9-3.6-9.8-7.1-14.9-10.2
		c4.6,8.9,8.1,20.4,16.8,25.8c2.4-2.2,7.3-6.5,9.8-8.7c-2.4,14.3,4.5,26.1,12.7,37.1c-11-4.3-14.2-16.7-22-23.5
		c-0.7,3.7-2.2,11.1-2.9,14.8c-7,3.1-13.9,6.8-16,14.8c9.8-0.1,19.6-1.4,29.4-3c2.3,9.1,4.5,18.3,6.6,27.5c-8.7-2-17.5-3.3-26.3-3.9
		c-11.8-19.9-23.9-39.6-36.4-59c-7.1,3.4-14.3,6.6-21.6,9.6C317.5,264.4,323.2,249.3,331.2,235.7z"/>
	<path id="path1180" class="st3" d="M331.2,235.7c16.6-6.9,32.9-14.7,45.6-28c17.4,6.3,32.4,17.4,47.6,27.8
		c-6.2,5.9-12.4,11.9-17.8,18.6c10.6,2.5,21.3,4.6,32.3,5c0,18.4,0.3,36.8-0.4,55.2c-9.4,0.9-18.8,1.9-28.1,2.9
		c-1.9-16.6-0.6-33.5-3.6-50c-5.2-10.1-18.6-12-27.5-17.9c0.1,2.3,0.2,7,0.2,9.4c-4.9-3.6-9.8-7.1-14.9-10.2
		c4.6,8.9,8.1,20.4,16.8,25.8c2.4-2.2,7.3-6.5,9.8-8.7c-2.4,14.3,4.5,26.1,12.7,37.1c-11-4.3-14.2-16.7-22-23.5
		c-0.7,3.7-2.2,11.1-2.9,14.8c-7,3.1-13.9,6.8-16,14.8c9.8-0.1,19.6-1.4,29.4-3c2.3,9.1,4.5,18.3,6.6,27.5c-8.7-2-17.5-3.3-26.3-3.9
		c-11.8-19.9-23.9-39.6-36.4-59c-7.1,3.4-14.3,6.6-21.6,9.6C317.5,264.4,323.2,249.3,331.2,235.7z"/>
	<path id="path1282" class="st2" d="M483.7,261.9c7.8,0.9,15.6,1.6,23.5,2c0.6,16.9-6,32.7-12.3,48c-3.7,0.7-11.2,2.2-14.9,2.9
		C480.5,297.1,482.2,279.5,483.7,261.9z"/>
	<path id="path1284" class="st3" d="M483.7,261.9c7.8,0.9,15.6,1.6,23.5,2c0.6,16.9-6,32.7-12.3,48c-3.7,0.7-11.2,2.2-14.9,2.9
		C480.5,297.1,482.2,279.5,483.7,261.9z"/>
	<path id="path1286" class="st2" d="M398,273c7,1,8.2,4.7,3.7,11C394.7,282.9,393.4,279.2,398,273z"/>
	<path id="path1288" class="st3" d="M398,273c7,1,8.2,4.7,3.7,11C394.7,282.9,393.4,279.2,398,273z"/>
	<path id="path1290" class="st2" d="M296.8,321.4c3.8-14,9.5-27.3,15-40.7c11.9,5.9,23.7,11.9,35.7,17.5c0.3,12-7.9,21.2-13.7,30.8
		c8.3-0.7,17.1-6.8,25.3-3.8c6.1,9.3,10.9,19.4,16,29.3c-14.8,21.4-43.7,23.6-66.6,15.8c3.6,5.3,7.3,10.7,11,16.1
		c14-0.8,31.1-3.4,37.4,12.7c-2.2-1.4-6.5-4.3-8.7-5.8c-3.2,6.5-6.5,12.9-9.9,19.3c-18.8-1.7-37-9.9-48-25.8
		C305.1,366.9,289.5,342.8,296.8,321.4z"/>
	<path id="path1292" class="st3" d="M296.8,321.4c3.8-14,9.5-27.3,15-40.7c11.9,5.9,23.7,11.9,35.7,17.5c0.3,12-7.9,21.2-13.7,30.8
		c8.3-0.7,17.1-6.8,25.3-3.8c6.1,9.3,10.9,19.4,16,29.3c-14.8,21.4-43.7,23.6-66.6,15.8c3.6,5.3,7.3,10.7,11,16.1
		c14-0.8,31.1-3.4,37.4,12.7c-2.2-1.4-6.5-4.3-8.7-5.8c-3.2,6.5-6.5,12.9-9.9,19.3c-18.8-1.7-37-9.9-48-25.8
		C305.1,366.9,289.5,342.8,296.8,321.4z"/>
	<path id="path1302" class="st2" d="M408.5,320.8c5.7-3.4,13.4,0,18.5,3.3C425.3,331.9,399.3,334,408.5,320.8z"/>
	<path id="path1304" class="st3" d="M408.5,320.8c5.7-3.4,13.4,0,18.5,3.3C425.3,331.9,399.3,334,408.5,320.8z"/>
	<path id="path1306" class="st0" d="M446.8,323.7c4-4,17.1-4.3,16.6,3.3C459.4,330.8,446.3,331.1,446.8,323.7z"/>
	<path id="path1308" class="st1" d="M446.8,323.7c4-4,17.1-4.3,16.6,3.3C459.4,330.8,446.3,331.1,446.8,323.7z"/>
	<path id="path1310" class="st2" d="M477.6,323.4c7.3-3,9.4-0.6,6.2,7.1C476.5,333.6,474.4,331.2,477.6,323.4z"/>
	<path id="path1312" class="st3" d="M477.6,323.4c7.3-3,9.4-0.6,6.2,7.1C476.5,333.6,474.4,331.2,477.6,323.4z"/>
	<path id="path1330" class="st4" d="M417.7,334.6C435.3,335.3,410,350.4,417.7,334.6z"/>
	<path id="path1358" class="st2" d="M376.5,361.4c16,0.4,29.7-6.8,43.8-13.1C421,368.9,385.3,378.3,376.5,361.4z"/>
	<path id="path1360" class="st3" d="M376.5,361.4c16,0.4,29.7-6.8,43.8-13.1C421,368.9,385.3,378.3,376.5,361.4z"/>
	<path id="path1362" class="st2" d="M440.1,349.5c7.2-2.3,10,0.2,8.4,7.4C441.1,359,438.3,356.6,440.1,349.5z"/>
	<path id="path1364" class="st3" d="M440.1,349.5c7.2-2.3,10,0.2,8.4,7.4C441.1,359,438.3,356.6,440.1,349.5z"/>
	<path id="path1386" class="st2" d="M360.1,416.9c2.1-15.9,7.6-31.5,19.8-42.4C382.6,391.1,376.8,409.9,360.1,416.9z"/>
	<path id="path1388" class="st3" d="M360.1,416.9c2.1-15.9,7.6-31.5,19.8-42.4C382.6,391.1,376.8,409.9,360.1,416.9z"/>
</g>
</svg>
