<?xml version="1.0" encoding="utf-8"?>
<!-- Generator: Adobe Illustrator 23.0.6, SVG Export Plug-In . SVG Version: 6.00 Build 0)  -->
<svg version="1.1" id="Layer_1" xmlns="http://www.w3.org/2000/svg" xmlns:xlink="http://www.w3.org/1999/xlink" x="0px" y="0px"
	 viewBox="0 0 792 612" style="enable-background:new 0 0 792 612;" xml:space="preserve">
<style type="text/css">
	.st0{fill:none;stroke:#171717;stroke-width:0.1;stroke-miterlimit:10;}
	.st1{fill:#171717;}
	.st2{fill:none;stroke:#FFFFFF;stroke-width:0.1;stroke-miterlimit:10;}
	.st3{fill:#FFFFFF;}
	.st4{fill:none;stroke:#8F8F8F;stroke-width:0.1;stroke-miterlimit:10;}
	.st5{fill:none;stroke:#C7C7C7;stroke-width:0.1;stroke-miterlimit:10;}
	.st6{fill:none;stroke:#616161;stroke-width:0.1;stroke-miterlimit:10;}
</style>
<path id="path1570" class="st0" d="M400.8,200c12.7,1.4,23.2-14.3,36.2-8.6c12.5,6.3,24.2,15,38.6,16.3c18.1,2.9,26.1,21.7,35.8,35
	c9.4,16.9,24.1,35.2,19.8,55.7c-14.5,31.6-27.2,72-65.1,81.9c-7.4-5.5-14.9-10.8-22.6-15.7c-18.4,7.4-37.2,13.8-55.9,20.5
	c-19.2,5.2-19.2,37.2-42,35c-43.8,3.3-79.4-35.9-87.2-76.2c9.2-16.4,26.1-28.3,30.4-47.3c7.5-32.7,31.7-58.2,53.8-82
	C362.9,211.7,379.7,193.7,400.8,200z"/>
<path id="path1572" class="st1" d="M400.8,200c12.7,1.4,23.2-14.3,36.2-8.6c12.5,6.3,24.2,15,38.6,16.3c18.1,2.9,26.1,21.7,35.8,35
	c9.4,16.9,24.1,35.2,19.8,55.7c-14.5,31.6-27.2,72-65.1,81.9c-7.4-5.5-14.9-10.8-22.6-15.7c-18.4,7.4-37.2,13.8-55.9,20.5
	c-19.2,5.2-19.2,37.2-42,35c-43.8,3.3-79.4-35.9-87.2-76.2c9.2-16.4,26.1-28.3,30.4-47.3c7.5-32.7,31.7-58.2,53.8-82
	C362.9,211.7,379.7,193.7,400.8,200z"/>
<path id="path1582" class="st2" d="M408.6,207.2c10.3-3.9,23-16.4,33.2-5.6c20,15.5,38.5,32.9,56,51.2c-8.3,2.1-16.2,5.3-22.9,10.8
	c10.1,1.5,20.1,2.8,30.2,4.2c-2.3,21.3-9,41.9-16.7,61.8c-7.1-1-14.3-2-21.4-2.9c4.1,5.6,8.2,11.3,12.2,17.1
	c-14.3,2.4-28.7-1.5-43.1-0.5c10.6-24.3,38.3-42.1,35.6-71c1.6-20.3-22.8-22.4-37.2-27.1C421.1,236.5,415.7,220.7,408.6,207.2z"/>
<path id="path1584" class="st3" d="M408.6,207.2c10.3-3.9,23-16.4,33.2-5.6c20,15.5,38.5,32.9,56,51.2c-8.3,2.1-16.2,5.3-22.9,10.8
	c10.1,1.5,20.1,2.8,30.2,4.2c-2.3,21.3-9,41.9-16.7,61.8c-7.1-1-14.3-2-21.4-2.9c4.1,5.6,8.2,11.3,12.2,17.1
	c-14.3,2.4-28.7-1.5-43.1-0.5c10.6-24.3,38.3-42.1,35.6-71c1.6-20.3-22.8-22.4-37.2-27.1C421.1,236.5,415.7,220.7,408.6,207.2z"/>
<path id="path1590" class="st2" d="M344.8,222.1c15.7-7,32.7-11.2,49.1-16.5c17.9,24.2,33.7,50.3,45.9,77.8
	c0.6,17.6-5.4,34.5-9.6,51.4c-12.1,4.1-24,8.8-35.6,14c5.1-22.4,12.7-45.6,8.4-68.7c-8.2-18.2-15.7-37.6-29.5-52.4
	c4.9,19,13.5,36.6,20.4,54.9c-7.8,4.1-15.5,8.2-22.5,13.7c8.1,1,16.3,1.8,24.4,2.6c-1,8.5-2.1,17.1-3.2,25.8c-8,2.4-16,5.1-24,7.7
	c-5.8-17.9-0.3-42.3-18.3-53.9c-9.7-8.4-20.1-15.9-31.1-22.5C327.4,244.3,334.7,232,344.8,222.1z"/>
<path id="path1592" class="st3" d="M344.8,222.1c15.7-7,32.7-11.2,49.1-16.5c17.9,24.2,33.7,50.3,45.9,77.8
	c0.6,17.6-5.4,34.5-9.6,51.4c-12.1,4.1-24,8.8-35.6,14c5.1-22.4,12.7-45.6,8.4-68.7c-8.2-18.2-15.7-37.6-29.5-52.4
	c4.9,19,13.5,36.6,20.4,54.9c-7.8,4.1-15.5,8.2-22.5,13.7c8.1,1,16.3,1.8,24.4,2.6c-1,8.5-2.1,17.1-3.2,25.8c-8,2.4-16,5.1-24,7.7
	c-5.8-17.9-0.3-42.3-18.3-53.9c-9.7-8.4-20.1-15.9-31.1-22.5C327.4,244.3,334.7,232,344.8,222.1z"/>
<path id="path1598" class="st4" d="M478.4,217.8c7-3.8,16.9,6.5,13.6,13.4C485.3,234.2,475.3,224.5,478.4,217.8z"/>
<path id="path1600" class="st3" d="M478.4,217.8c7-3.8,16.9,6.5,13.6,13.4C485.3,234.2,475.3,224.5,478.4,217.8z"/>
<path id="path1634" class="st2" d="M290.8,315.5c2.2-21,12.9-39.5,25.4-55.9c1.2,3.8,3.5,11.4,4.6,15.2c12.1,2.4,22.8,8.8,31.4,17.5
	c-5.4,2.9-10.8,5.8-16.2,8.7c2.6,4.5,5.1,9.2,7.4,13.9c4-1.6,8-3,12.1-4.5c3.2,13.1,7.2,26.1,13,38.3c17.5-0.8,29.7,11.7,43.1,20.9
	c-11.6,0-25.9,8.2-35.2-2c-5-4.9-9.1-10.5-13.4-15.9c-11.1,1.5-22.3,3.6-33.5,2.4c-11.8-3.5-21.3-12-31.8-18
	c1.3,7.2,2.1,14.7,4.4,21.8c7.9,7.3,18.2,11,28.1,14.7c-6.4,9.8-13.2,19.5-19.8,29.2c-18.5-10-29.5-28.5-39.6-46.2
	C281.1,344.2,289.5,331.1,290.8,315.5z"/>
<path id="path1636" class="st3" d="M290.8,315.5c2.2-21,12.9-39.5,25.4-55.9c1.2,3.8,3.5,11.4,4.6,15.2c12.1,2.4,22.8,8.8,31.4,17.5
	c-5.4,2.9-10.8,5.8-16.2,8.7c2.6,4.5,5.1,9.2,7.4,13.9c4-1.6,8-3,12.1-4.5c3.2,13.1,7.2,26.1,13,38.3c17.5-0.8,29.7,11.7,43.1,20.9
	c-11.6,0-25.9,8.2-35.2-2c-5-4.9-9.1-10.5-13.4-15.9c-11.1,1.5-22.3,3.6-33.5,2.4c-11.8-3.5-21.3-12-31.8-18
	c1.3,7.2,2.1,14.7,4.4,21.8c7.9,7.3,18.2,11,28.1,14.7c-6.4,9.8-13.2,19.5-19.8,29.2c-18.5-10-29.5-28.5-39.6-46.2
	C281.1,344.2,289.5,331.1,290.8,315.5z"/>
<path id="path1638" class="st2" d="M444.6,262.6c3.8-0.5,11.5-1.5,15.4-2c14,18.3-2.5,37.5-14.5,51.4
	C448.1,295.6,447.5,279,444.6,262.6z"/>
<path id="path1640" class="st3" d="M444.6,262.6c3.8-0.5,11.5-1.5,15.4-2c14,18.3-2.5,37.5-14.5,51.4
	C448.1,295.6,447.5,279,444.6,262.6z"/>
<path id="path1650" class="st2" d="M515.2,277c2.6,1.9,7.9,5.7,10.5,7.6c-4.1,20.6-14.8,38.8-24.4,57.2c-1.6-1.3-4.9-3.9-6.5-5.2
	C502,316.8,508.5,296.8,515.2,277z"/>
<path id="path1652" class="st3" d="M515.2,277c2.6,1.9,7.9,5.7,10.5,7.6c-4.1,20.6-14.8,38.8-24.4,57.2c-1.6-1.3-4.9-3.9-6.5-5.2
	C502,316.8,508.5,296.8,515.2,277z"/>
<path id="path1658" class="st0" d="M412.5,286.3c6-4.4,17.2-3.6,20.3,3.9C431.6,300.6,406.3,297.1,412.5,286.3z"/>
<path id="path1660" class="st1" d="M412.5,286.3c6-4.4,17.2-3.6,20.3,3.9C431.6,300.6,406.3,297.1,412.5,286.3z"/>
<path id="path1674" class="st2" d="M489.5,344.2c14,3-1.1,23.6-9.8,14.8C475.6,352.5,482.4,343.6,489.5,344.2z"/>
<path id="path1676" class="st3" d="M489.5,344.2c14,3-1.1,23.6-9.8,14.8C475.6,352.5,482.4,343.6,489.5,344.2z"/>
<path id="path1678" class="st2" d="M412,349.6C415.5,353,415.5,353,412,349.6z"/>
<path id="path1680" class="st3" d="M412,349.6C415.5,353,415.5,353,412,349.6z"/>
<path id="path1682" class="st5" d="M446.1,349.1c7.7-2.1,10.4,0.7,8.2,8.3C446.8,359.3,444,356.6,446.1,349.1z"/>
<path id="path1684" class="st3" d="M446.1,349.1c7.7-2.1,10.4,0.7,8.2,8.3C446.8,359.3,444,356.6,446.1,349.1z"/>
<path id="path1690" class="st6" d="M423.2,353.7c8.6-4.9,11.5,8.7,3.1,10.7C417.9,369,415,355.6,423.2,353.7z"/>
<path id="path1692" class="st3" d="M423.2,353.7c8.6-4.9,11.5,8.7,3.1,10.7C417.9,369,415,355.6,423.2,353.7z"/>
<path id="path1706" class="st4" d="M466.3,360.4C484.4,362,457.6,376.5,466.3,360.4z"/>
<path id="path1708" class="st3" d="M466.3,360.4C484.4,362,457.6,376.5,466.3,360.4z"/>
<path id="path1726" class="st2" d="M328.9,411.1c6.4-15.3,16.7-28.5,27.1-41.2c2.7,1.7,8.2,5.1,10.9,6.8
	C355.9,389.7,346.8,407,328.9,411.1z"/>
<path id="path1728" class="st3" d="M328.9,411.1c6.4-15.3,16.7-28.5,27.1-41.2c2.7,1.7,8.2,5.1,10.9,6.8
	C355.9,389.7,346.8,407,328.9,411.1z"/>
</svg>
