<svg width="792" height="612" viewBox="0 0 792 612" fill="none" xmlns="http://www.w3.org/2000/svg">
<path d="M348.6 214.5C368.1 202.6 379.1 180.2 400.1 170.5C421.7 169.5 440.4 183.5 455.3 197.7C465.1 206.8 464.3 222 472.6 231.8C478.8 234.4 485.4 235.8 491.8 238C491.8 251.9 486.6 264.9 483.5 278.2C481.3 285.9 480.3 294.6 473.9 300.2C449.9 324.9 426.3 349.9 402.4 374.7C397 380.2 388.2 380.7 383.1 386.4C378.4 398.2 379.4 411.3 376.5 423.6C366.6 433.3 352.2 442.3 337.8 437.7C323.6 432.8 310.7 424.7 299.1 415.3C301 406 303.3 396.8 303.7 387.3C305.6 338.2 320.4 290.7 323.7 241.8C322.4 226.8 338.7 221.7 348.6 214.5Z" stroke="#171717" stroke-width="0.1" stroke-miterlimit="10"/>
<path d="M348.6 214.5C368.1 202.6 379.1 180.2 400.1 170.5C421.7 169.5 440.4 183.5 455.3 197.7C465.1 206.8 464.3 222 472.6 231.8C478.8 234.4 485.4 235.8 491.8 238C491.8 251.9 486.6 264.9 483.5 278.2C481.3 285.9 480.3 294.6 473.9 300.2C449.9 324.9 426.3 349.9 402.4 374.7C397 380.2 388.2 380.7 383.1 386.4C378.4 398.2 379.4 411.3 376.5 423.6C366.6 433.3 352.2 442.3 337.8 437.7C323.6 432.8 310.7 424.7 299.1 415.3C301 406 303.3 396.8 303.7 387.3C305.6 338.2 320.4 290.7 323.7 241.8C322.4 226.8 338.7 221.7 348.6 214.5Z" fill="#171717"/>
<path d="M406 175.7C416.8 178.2 426.7 183.5 435.6 190.1C425.2 186.7 414.9 182.3 406 175.7Z" stroke="white" stroke-width="0.1" stroke-miterlimit="10"/>
<path d="M406 175.7C416.8 178.2 426.7 183.5 435.6 190.1C425.2 186.7 414.9 182.3 406 175.7Z" fill="white"/>
<path d="M341.4 234.7C360.6 217.1 374 191.5 399.7 182.6C419.4 190.5 442 198.7 452.4 218.8C449.5 218.8 443.8 218.8 441 218.7C446 225.2 451.1 231.5 456 238.1C451.9 240.1 448.3 243.7 443.5 244C433.1 239.1 424.4 230 421.9 218.6C413.9 224 404.3 225.4 395.1 222.4C394.9 226.8 394.6 231.1 394.2 235.5C390 238 385.8 240.5 381.5 242.9C384.8 250.6 389.3 258.6 386.4 267.2C381.9 270.1 376.8 271.7 371.9 273.7C375.3 276.7 378.8 279.7 382.3 282.8C379.4 303.3 386.9 323.6 383.8 344.1C382.1 355.9 375.9 366.7 368.5 375.8C360.5 384.5 347.6 383.9 336.9 386C336.1 388 334.5 392.1 333.7 394.1C337.7 395.9 341.7 397.7 345.6 399.6C344.3 409.6 342.7 419.6 340.9 429.6C329 424.4 317.5 418.4 305.6 413.2C311 388.7 310.8 363.5 316.5 339C319.6 308.3 329.8 279 341.9 250.9C359.5 233.8 376 214 399.2 204.3C414.7 204.1 428 212.2 442.4 216.6C439.5 212.1 436.4 207.8 433.4 203.5C418.7 201.9 404 199.6 389.3 198.1C373.8 213.4 357.5 227.8 341.7 242.7C335.2 248 333.8 256.8 331 264.3L328.6 263.6C329.6 252.7 332.5 241.9 341.4 234.7Z" stroke="white" stroke-width="0.1" stroke-miterlimit="10"/>
<path d="M341.4 234.7C360.6 217.1 374 191.5 399.7 182.6C419.4 190.5 442 198.7 452.4 218.8C449.5 218.8 443.8 218.8 441 218.7C446 225.2 451.1 231.5 456 238.1C451.9 240.1 448.3 243.7 443.5 244C433.1 239.1 424.4 230 421.9 218.6C413.9 224 404.3 225.4 395.1 222.4C394.9 226.8 394.6 231.1 394.2 235.5C390 238 385.8 240.5 381.5 242.9C384.8 250.6 389.3 258.6 386.4 267.2C381.9 270.1 376.8 271.7 371.9 273.7C375.3 276.7 378.8 279.7 382.3 282.8C379.4 303.3 386.9 323.6 383.8 344.1C382.1 355.9 375.9 366.7 368.5 375.8C360.5 384.5 347.6 383.9 336.9 386C336.1 388 334.5 392.1 333.7 394.1C337.7 395.9 341.7 397.7 345.6 399.6C344.3 409.6 342.7 419.6 340.9 429.6C329 424.4 317.5 418.4 305.6 413.2C311 388.7 310.8 363.5 316.5 339C319.6 308.3 329.8 279 341.9 250.9C359.5 233.8 376 214 399.2 204.3C414.7 204.1 428 212.2 442.4 216.6C439.5 212.1 436.4 207.8 433.4 203.5C418.7 201.9 404 199.6 389.3 198.1C373.8 213.4 357.5 227.8 341.7 242.7C335.2 248 333.8 256.8 331 264.3L328.6 263.6C329.6 252.7 332.5 241.9 341.4 234.7Z" fill="white"/>
<path d="M446.5 197C456.9 203.4 462.8 214.9 462.7 227.1C455.6 218 451 207.4 446.5 197Z" stroke="white" stroke-width="0.1" stroke-miterlimit="10"/>
<path d="M446.5 197C456.9 203.4 462.8 214.9 462.7 227.1C455.6 218 451 207.4 446.5 197Z" fill="white"/>
<path d="M395.1 264.4C400.1 252.6 402.3 231.7 418.9 232.4C429.3 238.9 437.8 248.2 448.8 254C444.5 267.2 434.5 277.9 422.8 285.1C411.7 281.4 404.2 271.3 395.1 264.4Z" stroke="white" stroke-width="0.1" stroke-miterlimit="10"/>
<path d="M477.1 238.7C480.4 239.8 483.7 240.8 487 242C480.1 265.8 476.8 293.6 456.7 310.7C451.2 316 445.1 320.8 438.8 325.2C437.4 312.9 435.2 300.7 430.6 289.2C434.7 285 438.9 280.8 443.1 276.7C449.6 283.2 456.2 301.4 467.6 294C460 285.9 445.4 279.1 449.6 265.8C455.4 253.3 474.8 254 477.1 238.7Z" stroke="white" stroke-width="0.1" stroke-miterlimit="10"/>
<path d="M477.1 238.7C480.4 239.8 483.7 240.8 487 242C480.1 265.8 476.8 293.6 456.7 310.7C451.2 316 445.1 320.8 438.8 325.2C437.4 312.9 435.2 300.7 430.6 289.2C434.7 285 438.9 280.8 443.1 276.7C449.6 283.2 456.2 301.4 467.6 294C460 285.9 445.4 279.1 449.6 265.8C455.4 253.3 474.8 254 477.1 238.7Z" fill="white"/>
<path d="M453.3 245.3C456.2 240.1 465.1 245.6 460.8 250.2C457.6 254.6 449.6 250 453.3 245.3Z" stroke="white" stroke-width="0.1" stroke-miterlimit="10"/>
<path d="M453.3 245.3C456.2 240.1 465.1 245.6 460.8 250.2C457.6 254.6 449.6 250 453.3 245.3Z" fill="white"/>
<path d="M392 272.5C400.2 277.2 407.6 283.3 413.8 290.5C410.8 290.7 404.7 291.1 401.7 291.2C401.8 295.2 401.8 299.3 401.8 303.4C408.8 301.7 415.9 299.8 422.8 297.7C427.2 307.8 431.7 317.9 435.4 328.3C420.6 345.3 407.2 366.4 384.6 373.5C405.2 342.4 381.2 306 392 272.5Z" stroke="white" stroke-width="0.1" stroke-miterlimit="10"/>
<path d="M392 272.5C400.2 277.2 407.6 283.3 413.8 290.5C410.8 290.7 404.7 291.1 401.7 291.2C401.8 295.2 401.8 299.3 401.8 303.4C408.8 301.7 415.9 299.8 422.8 297.7C427.2 307.8 431.7 317.9 435.4 328.3C420.6 345.3 407.2 366.4 384.6 373.5C405.2 342.4 381.2 306 392 272.5Z" fill="white"/>
<path d="M364.5 424.1C365.8 414.1 368.1 404.2 371.5 394.7C371.6 404.7 372.6 416.6 364.5 424.1Z" stroke="white" stroke-width="0.1" stroke-miterlimit="10"/>
<path d="M364.5 424.1C365.8 414.1 368.1 404.2 371.5 394.7C371.6 404.7 372.6 416.6 364.5 424.1Z" fill="white"/>
<path d="M352.2 431.9C352.9 420.2 352.2 406.8 360.1 397.3C359.5 409 359.3 421.9 352.2 431.9Z" stroke="white" stroke-width="0.1" stroke-miterlimit="10"/>
<path d="M352.2 431.9C352.9 420.2 352.2 406.8 360.1 397.3C359.5 409 359.3 421.9 352.2 431.9Z" fill="white"/>
</svg>
