<?xml version="1.0" encoding="utf-8"?>
<!-- Generator: Adobe Illustrator 23.0.6, SVG Export Plug-In . SVG Version: 6.00 Build 0)  -->
<svg version="1.1" id="Layer_1" xmlns="http://www.w3.org/2000/svg" xmlns:xlink="http://www.w3.org/1999/xlink" x="0px" y="0px"
	 viewBox="0 0 792 612" style="enable-background:new 0 0 792 612;" xml:space="preserve">
<style type="text/css">
	.st0{fill:none;stroke:#171717;stroke-width:0.1;stroke-miterlimit:10;}
	.st1{fill:#171717;}
	.st2{fill:none;stroke:#FFFFFF;stroke-width:0.1;stroke-miterlimit:10;}
	.st3{fill:#FFFFFF;}
</style>
<g>
	<path id="path1474" class="st0" d="M348.6,214.5c19.5-11.9,30.5-34.3,51.5-44c21.6-1,40.3,13,55.2,27.2c9.8,9.1,9,24.3,17.3,34.1
		c6.2,2.6,12.8,4,19.2,6.2c0,13.9-5.2,26.9-8.3,40.2c-2.2,7.7-3.2,16.4-9.6,22c-24,24.7-47.6,49.7-71.5,74.5
		c-5.4,5.5-14.2,6-19.3,11.7c-4.7,11.8-3.7,24.9-6.6,37.2c-9.9,9.7-24.3,18.7-38.7,14.1c-14.2-4.9-27.1-13-38.7-22.4
		c1.9-9.3,4.2-18.5,4.6-28c1.9-49.1,16.7-96.6,20-145.5C322.4,226.8,338.7,221.7,348.6,214.5z"/>
	<path id="path1476" class="st1" d="M348.6,214.5c19.5-11.9,30.5-34.3,51.5-44c21.6-1,40.3,13,55.2,27.2c9.8,9.1,9,24.3,17.3,34.1
		c6.2,2.6,12.8,4,19.2,6.2c0,13.9-5.2,26.9-8.3,40.2c-2.2,7.7-3.2,16.4-9.6,22c-24,24.7-47.6,49.7-71.5,74.5
		c-5.4,5.5-14.2,6-19.3,11.7c-4.7,11.8-3.7,24.9-6.6,37.2c-9.9,9.7-24.3,18.7-38.7,14.1c-14.2-4.9-27.1-13-38.7-22.4
		c1.9-9.3,4.2-18.5,4.6-28c1.9-49.1,16.7-96.6,20-145.5C322.4,226.8,338.7,221.7,348.6,214.5z"/>
	<path id="path1478" class="st2" d="M406,175.7c10.8,2.5,20.7,7.8,29.6,14.4C425.2,186.7,414.9,182.3,406,175.7z"/>
	<path id="path1480" class="st3" d="M406,175.7c10.8,2.5,20.7,7.8,29.6,14.4C425.2,186.7,414.9,182.3,406,175.7z"/>
	<path id="path1482" class="st2" d="M341.4,234.7c19.2-17.6,32.6-43.2,58.3-52.1c19.7,7.9,42.3,16.1,52.7,36.2
		c-2.9,0-8.6,0-11.4-0.1c5,6.5,10.1,12.8,15,19.4c-4.1,2-7.7,5.6-12.5,5.9c-10.4-4.9-19.1-14-21.6-25.4c-8,5.4-17.6,6.8-26.8,3.8
		c-0.2,4.4-0.5,8.7-0.9,13.1c-4.2,2.5-8.4,5-12.7,7.4c3.3,7.7,7.8,15.7,4.9,24.3c-4.5,2.9-9.6,4.5-14.5,6.5c3.4,3,6.9,6,10.4,9.1
		c-2.9,20.5,4.6,40.8,1.5,61.3c-1.7,11.8-7.9,22.6-15.3,31.7c-8,8.7-20.9,8.1-31.6,10.2c-0.8,2-2.4,6.1-3.2,8.1
		c4,1.8,8,3.6,11.9,5.5c-1.3,10-2.9,20-4.7,30c-11.9-5.2-23.4-11.2-35.3-16.4c5.4-24.5,5.2-49.7,10.9-74.2
		c3.1-30.7,13.3-60,25.4-88.1c17.6-17.1,34.1-36.9,57.3-46.6c15.5-0.2,28.8,7.9,43.2,12.3c-2.9-4.5-6-8.8-9-13.1
		c-14.7-1.6-29.4-3.9-44.1-5.4c-15.5,15.3-31.8,29.7-47.6,44.6c-6.5,5.3-7.9,14.1-10.7,21.6l-2.4-0.7
		C329.6,252.7,332.5,241.9,341.4,234.7z"/>
	<path id="path1484" class="st3" d="M341.4,234.7c19.2-17.6,32.6-43.2,58.3-52.1c19.7,7.9,42.3,16.1,52.7,36.2
		c-2.9,0-8.6,0-11.4-0.1c5,6.5,10.1,12.8,15,19.4c-4.1,2-7.7,5.6-12.5,5.9c-10.4-4.9-19.1-14-21.6-25.4c-8,5.4-17.6,6.8-26.8,3.8
		c-0.2,4.4-0.5,8.7-0.9,13.1c-4.2,2.5-8.4,5-12.7,7.4c3.3,7.7,7.8,15.7,4.9,24.3c-4.5,2.9-9.6,4.5-14.5,6.5c3.4,3,6.9,6,10.4,9.1
		c-2.9,20.5,4.6,40.8,1.5,61.3c-1.7,11.8-7.9,22.6-15.3,31.7c-8,8.7-20.9,8.1-31.6,10.2c-0.8,2-2.4,6.1-3.2,8.1
		c4,1.8,8,3.6,11.9,5.5c-1.3,10-2.9,20-4.7,30c-11.9-5.2-23.4-11.2-35.3-16.4c5.4-24.5,5.2-49.7,10.9-74.2
		c3.1-30.7,13.3-60,25.4-88.1c17.6-17.1,34.1-36.9,57.3-46.6c15.5-0.2,28.8,7.9,43.2,12.3c-2.9-4.5-6-8.8-9-13.1
		c-14.7-1.6-29.4-3.9-44.1-5.4c-15.5,15.3-31.8,29.7-47.6,44.6c-6.5,5.3-7.9,14.1-10.7,21.6l-2.4-0.7
		C329.6,252.7,332.5,241.9,341.4,234.7z"/>
	<path id="path1490" class="st2" d="M446.5,197c10.4,6.4,16.3,17.9,16.2,30.1C455.6,218,451,207.4,446.5,197z"/>
	<path id="path1492" class="st3" d="M446.5,197c10.4,6.4,16.3,17.9,16.2,30.1C455.6,218,451,207.4,446.5,197z"/>
	<path id="path1514" class="st2" d="M395.1,264.4c5-11.8,7.2-32.7,23.8-32c10.4,6.5,18.9,15.8,29.9,21.6
		c-4.3,13.2-14.3,23.9-26,31.1C411.7,281.4,404.2,271.3,395.1,264.4z"/>
	<path id="path1516" class="st3" d="M395.1,264.4c5-11.8,7.2-32.7,23.8-32c10.4,6.5,18.9,15.8,29.9,21.6
		c-4.3,13.2-14.3,23.9-26,31.1C411.7,281.4,404.2,271.3,395.1,264.4z"/>
	<path id="path1518" class="st2" d="M477.1,238.7c3.3,1.1,6.6,2.1,9.9,3.3c-6.9,23.8-10.2,51.6-30.3,68.7
		c-5.5,5.3-11.6,10.1-17.9,14.5c-1.4-12.3-3.6-24.5-8.2-36c4.1-4.2,8.3-8.4,12.5-12.5c6.5,6.5,13.1,24.7,24.5,17.3
		c-7.6-8.1-22.2-14.9-18-28.2C455.4,253.3,474.8,254,477.1,238.7z"/>
	<path id="path1520" class="st3" d="M477.1,238.7c3.3,1.1,6.6,2.1,9.9,3.3c-6.9,23.8-10.2,51.6-30.3,68.7
		c-5.5,5.3-11.6,10.1-17.9,14.5c-1.4-12.3-3.6-24.5-8.2-36c4.1-4.2,8.3-8.4,12.5-12.5c6.5,6.5,13.1,24.7,24.5,17.3
		c-7.6-8.1-22.2-14.9-18-28.2C455.4,253.3,474.8,254,477.1,238.7z"/>
	<path id="path1534" class="st2" d="M453.3,245.3c2.9-5.2,11.8,0.3,7.5,4.9C457.6,254.6,449.6,250,453.3,245.3z"/>
	<path id="path1536" class="st3" d="M453.3,245.3c2.9-5.2,11.8,0.3,7.5,4.9C457.6,254.6,449.6,250,453.3,245.3z"/>
	<path id="path1574" class="st2" d="M392,272.5c8.2,4.7,15.6,10.8,21.8,18c-3,0.2-9.1,0.6-12.1,0.7c0.1,4,0.1,8.1,0.1,12.2
		c7-1.7,14.1-3.6,21-5.7c4.4,10.1,8.9,20.2,12.6,30.6c-14.8,17-28.2,38.1-50.8,45.2C405.2,342.4,381.2,306,392,272.5z"/>
	<path id="path1576" class="st3" d="M392,272.5c8.2,4.7,15.6,10.8,21.8,18c-3,0.2-9.1,0.6-12.1,0.7c0.1,4,0.1,8.1,0.1,12.2
		c7-1.7,14.1-3.6,21-5.7c4.4,10.1,8.9,20.2,12.6,30.6c-14.8,17-28.2,38.1-50.8,45.2C405.2,342.4,381.2,306,392,272.5z"/>
	<path id="path1710" class="st2" d="M364.5,424.1c1.3-10,3.6-19.9,7-29.4C371.6,404.7,372.6,416.6,364.5,424.1z"/>
	<path id="path1712" class="st3" d="M364.5,424.1c1.3-10,3.6-19.9,7-29.4C371.6,404.7,372.6,416.6,364.5,424.1z"/>
	<path id="path1718" class="st2" d="M352.2,431.9c0.7-11.7,0-25.1,7.9-34.6C359.5,409,359.3,421.9,352.2,431.9z"/>
	<path id="path1720" class="st3" d="M352.2,431.9c0.7-11.7,0-25.1,7.9-34.6C359.5,409,359.3,421.9,352.2,431.9z"/>
</g>
</svg>
