<?xml version="1.0" encoding="utf-8"?>
<!-- Generator: Adobe Illustrator 23.0.6, SVG Export Plug-In . SVG Version: 6.00 Build 0)  -->
<svg version="1.1" id="Layer_1" xmlns="http://www.w3.org/2000/svg" xmlns:xlink="http://www.w3.org/1999/xlink" x="0px" y="0px"
	 viewBox="0 0 792 612" style="enable-background:new 0 0 792 612;" xml:space="preserve">
<style type="text/css">
	.st0{fill:none;stroke:#171717;stroke-width:0.1;stroke-miterlimit:10;}
	.st1{fill:#171717;}
	.st2{fill:none;stroke:#FFFFFF;stroke-width:0.1;stroke-miterlimit:10;}
	.st3{fill:#FFFFFF;}
	.st4{fill:none;stroke:#8F8F8F;stroke-width:0.1;stroke-miterlimit:10;}
</style>
<g>
	<path id="path1526" class="st0" d="M421.3,219.1c29.2-5.7,59.6-8.3,88.9-1.7c11.5,2.6,18.8,12.5,25.1,21.7
		c7.6,10.9,18.1,20.7,21.7,33.9c-2.4,10.6-5.2,21.2-9.7,31.1c-14.3,12.8-31.1,29.8-52,26.3c-7.2-6.7-8.8-16.9-12.9-25.4
		c-20,6-39,15-58.9,21.2c-18.4,5.8-33.7,18.5-45.6,33.5c-5,6.7-13.1,9.1-20.6,11.6c-3.5,8.5-6.9,17.2-13,24.2
		c-5.3,0.8-13.6,3.1-17.1-2.2c-5.2-28.5-2.6-57.6-1.6-86.3c3.6-11.2,9.4-21.5,13.6-32.5c-30.5-2-60.9,2.7-91.4,3.1
		c-12.6,0.3-14.7-14.2-13.1-23.8c25.4-4.5,51.6-6.1,75.7-16.1c18.6-2.3,37.6-2.9,55.4-9.6C383.5,221.2,403,223.1,421.3,219.1z"/>
	<path id="path1528" class="st1" d="M421.3,219.1c29.2-5.7,59.6-8.3,88.9-1.7c11.5,2.6,18.8,12.5,25.1,21.7
		c7.6,10.9,18.1,20.7,21.7,33.9c-2.4,10.6-5.2,21.2-9.7,31.1c-14.3,12.8-31.1,29.8-52,26.3c-7.2-6.7-8.8-16.9-12.9-25.4
		c-20,6-39,15-58.9,21.2c-18.4,5.8-33.7,18.5-45.6,33.5c-5,6.7-13.1,9.1-20.6,11.6c-3.5,8.5-6.9,17.2-13,24.2
		c-5.3,0.8-13.6,3.1-17.1-2.2c-5.2-28.5-2.6-57.6-1.6-86.3c3.6-11.2,9.4-21.5,13.6-32.5c-30.5-2-60.9,2.7-91.4,3.1
		c-12.6,0.3-14.7-14.2-13.1-23.8c25.4-4.5,51.6-6.1,75.7-16.1c18.6-2.3,37.6-2.9,55.4-9.6C383.5,221.2,403,223.1,421.3,219.1z"/>
	<path id="path1538" class="st2" d="M392.8,228.1c30-3.4,59.7-14.4,90.1-9.2c12.7,2.7,28,2.9,34.5,16.2
		c13.6,7.8,25.9,19.4,30.8,34.8c2.1,12.4-1.8,26.1-11,35c-7.1-12.4-23.3-20.9-23.6-36.2c-22.3,1.2-27.8,27.3-46.4,35.3
		c-10.4,2-20.7,4.1-30.2,8.8c-1.9-9.3-8.1-16.1-15.5-21.6c4,7.7,8.6,15,13.4,22.3c-13.4,4.9-26.9,9.7-38.9,17.6
		c-2.4-7.3-4.6-15.9-12.7-18.7c-2,1.8-6,5.5-8,7.4c4.2,6.2,8.7,12.1,13.5,17.8c-2.8,2.7-5.5,5.4-8.2,8.1c-4.7-3.3-9.4-6.7-14.1-10
		c-4.8,1.8-9.6,3.6-14.4,5.4c13.9-28.4,47.2-39.3,61.8-67.3c-3.3,0.7-6.6,1.4-9.9,2.1c-2.3-2.1-4.6-4.2-6.8-6.3
		c1.2,6.1,2.2,12.2,2.8,18.4c-5.6-4.4-10.1-9.9-14.4-15.6c0.7-4.9,1.2-9.9,1.4-14.8c-2.8,3.3-5.3,6.9-7.8,10.5
		c-5.7-0.8-11.4-1.7-17.1-2.6c0.8-5,1.4-10,1.7-15c-5.8,5.5-10.5,11.9-15.3,18.3c-11.5-2.2-25.1,3.6-34.5-5.3
		c-8.6,9.5-27.2,13.1-36.1,2.7c-8,11.9-23.5,7.2-34.9,4.1c-1.2-2.2-3.7-6.6-4.9-8.8c11.8-6.3,25.4-6.5,38.4-8.3
		c9.9-1.1,18.9-6.3,28.9-7C335.1,243.3,363.9,235.2,392.8,228.1z"/>
	<path id="path1540" class="st3" d="M392.8,228.1c30-3.4,59.7-14.4,90.1-9.2c12.7,2.7,28,2.9,34.5,16.2
		c13.6,7.8,25.9,19.4,30.8,34.8c2.1,12.4-1.8,26.1-11,35c-7.1-12.4-23.3-20.9-23.6-36.2c-22.3,1.2-27.8,27.3-46.4,35.3
		c-10.4,2-20.7,4.1-30.2,8.8c-1.9-9.3-8.1-16.1-15.5-21.6c4,7.7,8.6,15,13.4,22.3c-13.4,4.9-26.9,9.7-38.9,17.6
		c-2.4-7.3-4.6-15.9-12.7-18.7c-2,1.8-6,5.5-8,7.4c4.2,6.2,8.7,12.1,13.5,17.8c-2.8,2.7-5.5,5.4-8.2,8.1c-4.7-3.3-9.4-6.7-14.1-10
		c-4.8,1.8-9.6,3.6-14.4,5.4c13.9-28.4,47.2-39.3,61.8-67.3c-3.3,0.7-6.6,1.4-9.9,2.1c-2.3-2.1-4.6-4.2-6.8-6.3
		c1.2,6.1,2.2,12.2,2.8,18.4c-5.6-4.4-10.1-9.9-14.4-15.6c0.7-4.9,1.2-9.9,1.4-14.8c-2.8,3.3-5.3,6.9-7.8,10.5
		c-5.7-0.8-11.4-1.7-17.1-2.6c0.8-5,1.4-10,1.7-15c-5.8,5.5-10.5,11.9-15.3,18.3c-11.5-2.2-25.1,3.6-34.5-5.3
		c-8.6,9.5-27.2,13.1-36.1,2.7c-8,11.9-23.5,7.2-34.9,4.1c-1.2-2.2-3.7-6.6-4.9-8.8c11.8-6.3,25.4-6.5,38.4-8.3
		c9.9-1.1,18.9-6.3,28.9-7C335.1,243.3,363.9,235.2,392.8,228.1z"/>
	<path id="path1614" class="st2" d="M352.6,275.2c17.9-9.6,28.5,10.9,41.1,19.6C377.4,295.8,363.5,286.2,352.6,275.2z"/>
	<path id="path1616" class="st3" d="M352.6,275.2c17.9-9.6,28.5,10.9,41.1,19.6C377.4,295.8,363.5,286.2,352.6,275.2z"/>
	<path id="path1626" class="st2" d="M335.9,308.2c-3.6-11.4,2.7-21.6,9.5-30.2c7,4.6,13.9,10.1,18.1,17.5c2.6,9-5.1,16-10.1,22.5
		c-2,9.4-6.7,18-9.2,27.3c0.3,8.8,4.8,16.7,6.1,25.4c0.4,8.1-5,14.9-8.5,21.8c-2.3-0.5-6.8-1.5-9-2.1c-0.6-23.5-2.1-47-2.8-70.5
		C329.4,315.1,333.9,312,335.9,308.2z"/>
	<path id="path1628" class="st3" d="M335.9,308.2c-3.6-11.4,2.7-21.6,9.5-30.2c7,4.6,13.9,10.1,18.1,17.5c2.6,9-5.1,16-10.1,22.5
		c-2,9.4-6.7,18-9.2,27.3c0.3,8.8,4.8,16.7,6.1,25.4c0.4,8.1-5,14.9-8.5,21.8c-2.3-0.5-6.8-1.5-9-2.1c-0.6-23.5-2.1-47-2.8-70.5
		C329.4,315.1,333.9,312,335.9,308.2z"/>
	<path id="path1630" class="st2" d="M497.9,280.8c2.5-0.2,7.4-0.7,9.8-0.9c7.9,9.7,19.6,18.9,20.3,32.4c-3.4,3.7-8.9,10.3-14.4,7
		C506,307.6,501.5,294.2,497.9,280.8z"/>
	<path id="path1632" class="st3" d="M497.9,280.8c2.5-0.2,7.4-0.7,9.8-0.9c7.9,9.7,19.6,18.9,20.3,32.4c-3.4,3.7-8.9,10.3-14.4,7
		C506,307.6,501.5,294.2,497.9,280.8z"/>
	<path id="path1646" class="st2" d="M371.6,299.2C373.9,301.5,373.9,301.5,371.6,299.2z"/>
	<path id="path1648" class="st3" d="M371.6,299.2C373.9,301.5,373.9,301.5,371.6,299.2z"/>
	<path id="path1666" class="st4" d="M364.7,309.4C375.6,304,365.1,321.3,364.7,309.4z"/>
	<path id="path1668" class="st1" d="M364.7,309.4C375.6,304,365.1,321.3,364.7,309.4z"/>
	<path id="path1670" class="st2" d="M361.2,341.9c3.3,3.5,6.6,7.1,9.9,10.8c-2.3,3.1-4.6,6.2-6.9,9.3c-3.3-3.3-6.5-6.7-9.7-10
		C356.6,348.7,358.9,345.3,361.2,341.9z"/>
	<path id="path1672" class="st3" d="M361.2,341.9c3.3,3.5,6.6,7.1,9.9,10.8c-2.3,3.1-4.6,6.2-6.9,9.3c-3.3-3.3-6.5-6.7-9.7-10
		C356.6,348.7,358.9,345.3,361.2,341.9z"/>
</g>
</svg>
