<?xml version="1.0" encoding="utf-8"?>
<!-- Generator: Adobe Illustrator 23.0.6, SVG Export Plug-In . SVG Version: 6.00 Build 0)  -->
<svg version="1.1" id="Layer_1" xmlns="http://www.w3.org/2000/svg" xmlns:xlink="http://www.w3.org/1999/xlink" x="0px" y="0px"
	 viewBox="0 0 792 612" style="enable-background:new 0 0 792 612;" xml:space="preserve">
<style type="text/css">
	.st0{fill:none;stroke:#171717;stroke-width:0.1;stroke-miterlimit:10;}
	.st1{fill:#171717;}
	.st2{fill:none;stroke:#FFFFFF;stroke-width:0.1;stroke-miterlimit:10;}
	.st3{fill:#FFFFFF;}
	.st4{fill:none;stroke:#616161;stroke-width:0.1;stroke-miterlimit:10;}
</style>
<g>
	<path id="path1498" class="st0" d="M406.3,197c22.7-3.4,46.5-14.9,69.1-5c15.6,6.3,31.7,11.5,47.1,18.4c-2.3,16.2-1.6,33-6.1,48.8
		c-7,14.4-15.4,28.3-26.1,40.3c-13.3-10.5-26.1-21.8-41.7-28.7c-2.3,7.7-4.2,15.6-7.1,23.1c-13.6,17.4-32.9,29.9-44.4,48.9
		c-11.9,19.8-14.5,43.4-23.8,64.3c-7.1,5.4-17.2,3.9-24.6,0.1c-12.7-12.6-9.6-32.2-7-48.1c-8.3,0.4-16.7,0.5-25,0.4
		c-9.4,20.8-9.5,48.6-30.3,62.2c-6.1,2.4-19.7,1.2-16.8-8.3c7.6-41.5,17.2-82.6,24.7-124.1c1.2-10.1-5-19.9-2.5-29.9
		c17.2-16.2,38.1-27.9,58.8-39.1C368.4,211.3,385.7,199.6,406.3,197z"/>
	<path id="path1500" class="st1" d="M406.3,197c22.7-3.4,46.5-14.9,69.1-5c15.6,6.3,31.7,11.5,47.1,18.4c-2.3,16.2-1.6,33-6.1,48.8
		c-7,14.4-15.4,28.3-26.1,40.3c-13.3-10.5-26.1-21.8-41.7-28.7c-2.3,7.7-4.2,15.6-7.1,23.1c-13.6,17.4-32.9,29.9-44.4,48.9
		c-11.9,19.8-14.5,43.4-23.8,64.3c-7.1,5.4-17.2,3.9-24.6,0.1c-12.7-12.6-9.6-32.2-7-48.1c-8.3,0.4-16.7,0.5-25,0.4
		c-9.4,20.8-9.5,48.6-30.3,62.2c-6.1,2.4-19.7,1.2-16.8-8.3c7.6-41.5,17.2-82.6,24.7-124.1c1.2-10.1-5-19.9-2.5-29.9
		c17.2-16.2,38.1-27.9,58.8-39.1C368.4,211.3,385.7,199.6,406.3,197z"/>
	<path id="path1502" class="st2" d="M444.9,192.8c23.4,3.8,45.9,12.7,68.3,20.9c0.6,16.9,2,34.9-7.2,50
		c-15.5-8.1-30.7-21.7-49.5-18.1c-12.4,9-14.3,26.1-20,39.4c-3.7,12.5-13.6,21.3-23.2,29.4c-7.1-2.5-14.2-5.1-21.5-7
		c3.7,4.6,7.7,8.9,11.7,13.4c-7.4,10.3-14.7,20.8-20.4,32.2c-4.8-2.2-9.7-4.3-14.5-6.3c-2.4,2.4-7.1,7.3-9.5,9.7
		c5.9,4.8,13.4,5.1,20.7,5.5c-1.8,5.8-3.5,11.7-5.2,17.6c-6.4-0.3-12.7-0.7-19-1c-3.3,4-6.6,7.9-9.9,11.9
		c-5.8-31.8,17.8-58.4,20.8-89c-1-2.8-3-8.4-4-11.2c-3.7,3.9-7.3,8-10.7,12.1c-7.5-4.8-13.2-11.7-17.8-19.2c-0.4,3-1.3,9.1-1.7,12.1
		c3.8,4.1,7.7,8.3,11.3,12.7c-2.4,1.1-7.2,3.4-9.6,4.5c-3.8-3-7.5-6.1-11.4-8.9c0.5,16.9-1.9,36.7-15.2,48.7
		c5.6,13.1-6.8,23.7-7.6,36.4c-1.5,13.2-7.1,30-22.9,30.7c4.6-26,2.2-54.3,16.3-77.7c-3.4-25.5,9.7-49.3,11-74.6
		c-0.9-13.9,15.7-15.3,23.2-23.4c9.2-11.4,23.1-16.9,35.9-23c11.5-5.1,20.5-15.2,33.2-17.6C412.4,199.5,428.6,196,444.9,192.8z"/>
	<path id="path1504" class="st3" d="M444.9,192.8c23.4,3.8,45.9,12.7,68.3,20.9c0.6,16.9,2,34.9-7.2,50
		c-15.5-8.1-30.7-21.7-49.5-18.1c-12.4,9-14.3,26.1-20,39.4c-3.7,12.5-13.6,21.3-23.2,29.4c-7.1-2.5-14.2-5.1-21.5-7
		c3.7,4.6,7.7,8.9,11.7,13.4c-7.4,10.3-14.7,20.8-20.4,32.2c-4.8-2.2-9.7-4.3-14.5-6.3c-2.4,2.4-7.1,7.3-9.5,9.7
		c5.9,4.8,13.4,5.1,20.7,5.5c-1.8,5.8-3.5,11.7-5.2,17.6c-6.4-0.3-12.7-0.7-19-1c-3.3,4-6.6,7.9-9.9,11.9
		c-5.8-31.8,17.8-58.4,20.8-89c-1-2.8-3-8.4-4-11.2c-3.7,3.9-7.3,8-10.7,12.1c-7.5-4.8-13.2-11.7-17.8-19.2c-0.4,3-1.3,9.1-1.7,12.1
		c3.8,4.1,7.7,8.3,11.3,12.7c-2.4,1.1-7.2,3.4-9.6,4.5c-3.8-3-7.5-6.1-11.4-8.9c0.5,16.9-1.9,36.7-15.2,48.7
		c5.6,13.1-6.8,23.7-7.6,36.4c-1.5,13.2-7.1,30-22.9,30.7c4.6-26,2.2-54.3,16.3-77.7c-3.4-25.5,9.7-49.3,11-74.6
		c-0.9-13.9,15.7-15.3,23.2-23.4c9.2-11.4,23.1-16.9,35.9-23c11.5-5.1,20.5-15.2,33.2-17.6C412.4,199.5,428.6,196,444.9,192.8z"/>
	<path id="path1562" class="st0" d="M426.8,275.2c5.2-16.5,11.3-34.7,27.4-43.7C445.2,246.1,436,260.7,426.8,275.2z"/>
	<path id="path1564" class="st1" d="M426.8,275.2c5.2-16.5,11.3-34.7,27.4-43.7C445.2,246.1,436,260.7,426.8,275.2z"/>
	<path id="path1586" class="st2" d="M468.1,254.3c11.9,5.4,28.3,9.3,31,24.2C487.7,271.9,476.5,264.5,468.1,254.3z"/>
	<path id="path1588" class="st3" d="M468.1,254.3c11.9,5.4,28.3,9.3,31,24.2C487.7,271.9,476.5,264.5,468.1,254.3z"/>
	<path id="path1654" class="st4" d="M343.9,314.1c3.8,1.5,7.6,3,11.5,4.5c-0.9,3.1-2.2,6-3.9,8.8c-6.7,6.1-14,11.7-21.2,17.2
		c5-8.8,9.9-17.7,12.7-27.4L343.9,314.1z"/>
	<path id="path1656" class="st3" d="M343.9,314.1c3.8,1.5,7.6,3,11.5,4.5c-0.9,3.1-2.2,6-3.9,8.8c-6.7,6.1-14,11.7-21.2,17.2
		c5-8.8,9.9-17.7,12.7-27.4L343.9,314.1z"/>
	<path id="path1662" class="st2" d="M331.3,319.3c2.9-0.5,8.7-1.6,11.6-2.2c-2.8,9.7-7.6,18.7-12.7,27.4c7.3-5.5,14.5-11,21.2-17.2
		c-2.4,7.6-4.7,15.2-7,22.8c-7.5,3.2-15.4,5.3-23.6,4.2C322.6,342.2,327,330.7,331.3,319.3z"/>
	<path id="path1664" class="st3" d="M331.3,319.3c2.9-0.5,8.7-1.6,11.6-2.2c-2.8,9.7-7.6,18.7-12.7,27.4c7.3-5.5,14.5-11,21.2-17.2
		c-2.4,7.6-4.7,15.2-7,22.8c-7.5,3.2-15.4,5.3-23.6,4.2C322.6,342.2,327,330.7,331.3,319.3z"/>
	<path id="path1730" class="st2" d="M353.3,387c8.6,0.3,19.6,3.3,14.2,14.3C358,402.1,349.5,397.7,353.3,387z"/>
	<path id="path1732" class="st3" d="M353.3,387c8.6,0.3,19.6,3.3,14.2,14.3C358,402.1,349.5,397.7,353.3,387z"/>
</g>
</svg>
