<?xml version="1.0" encoding="utf-8"?>
<!-- Generator: Adobe Illustrator 23.0.6, SVG Export Plug-In . SVG Version: 6.00 Build 0)  -->
<svg version="1.1" id="Layer_1" xmlns="http://www.w3.org/2000/svg" xmlns:xlink="http://www.w3.org/1999/xlink" x="0px" y="0px"
	 viewBox="0 0 792 612" style="enable-background:new 0 0 792 612;" xml:space="preserve">
<style type="text/css">
	.st0{fill:#FFFFFF;}
	.st1{fill:none;stroke:#181818;stroke-width:0.1;stroke-miterlimit:10;}
	.st2{fill:#181818;}
	.st3{fill:none;stroke:#FFFFFF;stroke-width:0.1;stroke-miterlimit:10;}
	.st4{fill:none;stroke:#908F8F;stroke-width:0.1;stroke-miterlimit:10;}
	.st5{fill:none;stroke:#616262;stroke-width:0.1;stroke-miterlimit:10;}
	.st6{fill:#616262;}
	.st7{fill:#908F8F;}
</style>
<polygon class="st0" points="383.3,311.1 359.8,342.8 331.1,291.9 349.9,277.4 "/>
<path id="path1462" class="st1" d="M403.4,133.1c7.6-3.6,17.7-4.3,24.5,1.4c10.7,21.4,0.7,47.4,12.7,68.4
	c13.8,30.7,20.7,63.9,30.7,95.9c2.7,39.6-17.4,76-28.1,113.1c-3.7,15-0.9,30.6-3.3,45.7c-11.3,14.9-30.2,22.4-48.3,24.5
	c-13.7-1.1-26.7-6.4-39.8-10.1c-2-14.1-3.4-28.3-7.5-42c-28.4-39.1-27.4-91.4-15.4-136.3c4,0.1,8,0.2,12,0.3
	c3.7,15.9,11.1,30.6,20.1,44.1c4.6-10.9,10.5-21.5,19-29.9c-2.3,0-6.9,0.1-9.2,0.1c-6.4-9.8-13.4-19.2-21.1-28
	c-6.7-2.3-13.1,4-19.6,4.9c5-7.6,13.1-11.8,20.7-16.4c-0.1-5.3-0.2-10.6-0.3-15.9c9.8-0.1,19.6-0.6,29.4-0.9
	c0.4-3.7,0.8-7.3,1.3-10.9c4.1,3.9,8.3,7.9,12.6,11.8c1.1-15.4,2.4-30.7,3.2-46.1c0.6-13.5-7.7-25.4-8.5-38.6
	C394.3,156.8,397,144,403.4,133.1z"/>
<path id="path1464" class="st2" d="M403.4,133.1c7.6-3.6,17.7-4.3,24.5,1.4c10.7,21.4,0.7,47.4,12.7,68.4
	c13.8,30.7,20.7,63.9,30.7,95.9c2.7,39.6-17.4,76-28.1,113.1c-3.7,15-0.9,30.6-3.3,45.7c-11.3,14.9-30.2,22.4-48.3,24.5
	c-13.7-1.1-26.7-6.4-39.8-10.1c-2-14.1-3.4-28.3-7.5-42c-28.4-39.1-27.4-91.4-15.4-136.3c4,0.1,8,0.2,12,0.3
	c3.7,15.9,11.1,30.6,20.1,44.1c4.6-10.9,10.5-21.5,19-29.9c-2.3,0-6.9,0.1-9.2,0.1c-6.4-9.8-13.4-19.2-21.1-28
	c-6.7-2.3-24.5,31.7-19.6,4.9c5-7.6,13.1-11.8,20.7-16.4c-0.1-5.3-0.2-10.6-0.3-15.9c9.8-0.1,19.6-0.6,29.4-0.9
	c0.4-3.7,0.8-7.3,1.3-10.9c4.1,3.9,8.3,7.9,12.6,11.8c1.1-15.4,2.4-30.7,3.2-46.1c0.6-13.5-7.7-25.4-8.5-38.6
	C394.3,156.8,397,144,403.4,133.1z"/>
<path id="path1466" class="st3" d="M402.2,148.7c3.1-4.5,3.9-15.7,11.8-13.1c18,1.6,11.4,24.3,13.4,36.5
	C419.7,163.6,411.7,155.3,402.2,148.7z"/>
<path id="path1468" class="st0" d="M402.2,148.7c3.1-4.5,3.9-15.7,11.8-13.1c18,1.6,11.4,24.3,13.4,36.5
	C419.7,163.6,411.7,155.3,402.2,148.7z"/>
<path id="path1470" class="st3" d="M401.3,157.1c15.2,8.6,21.9,25.4,27.6,40.9c-7.5,1.3-15.3,7.7-22.7,4.4
	C400.1,188.4,385.8,170.1,401.3,157.1z"/>
<path id="path1472" class="st0" d="M401.3,157.1c15.2,8.6,21.9,25.4,27.6,40.9c-7.5,1.3-15.3,7.7-22.7,4.4
	C400.1,188.4,385.8,170.1,401.3,157.1z"/>
<path id="path1486" class="st3" d="M407.9,212.1c7.3-2.9,14.6-11.8,22.8-9c5.6,7.2,9.2,15.6,13.3,23.8c-9.8,1.5-19.4,3.9-29,6.2
	C412.2,226.2,409.7,219.2,407.9,212.1z"/>
<path id="path1488" class="st0" d="M407.9,212.1c7.3-2.9,14.6-11.8,22.8-9c5.6,7.2,9.2,15.6,13.3,23.8c-9.8,1.5-19.4,3.9-29,6.2
	C412.2,226.2,409.7,219.2,407.9,212.1z"/>
<path id="path1494" class="st3" d="M401.2,223.4c8.4,8.5,10.8,20.4,13.1,31.7c-3.5,0.1-10.6,0.4-14.2,0.5
	C399.7,244.8,399.8,234.1,401.2,223.4z"/>
<path id="path1496" class="st0" d="M401.2,223.4c8.4,8.5,10.8,20.4,13.1,31.7c-3.5,0.1-10.6,0.4-14.2,0.5
	C399.7,244.8,399.8,234.1,401.2,223.4z"/>
<path id="path1506" class="st3" d="M418.5,240.1c8.2-2.8,16.7-4.8,25.3-5.7c3.9,11,7.3,22.1,10.7,33.3c-9.7-1.9-19.6-3.1-29.2-5.2
	C419.3,256.7,419.6,247.7,418.5,240.1z"/>
<path id="path1508" class="st0" d="M418.5,240.1c8.2-2.8,16.7-4.8,25.3-5.7c3.9,11,7.3,22.1,10.7,33.3c-9.7-1.9-19.6-3.1-29.2-5.2
	C419.3,256.7,419.6,247.7,418.5,240.1z"/>
<path id="path1510" class="st4" d="M350.6,252.9c4.1-13.8,18.8-15.4,31-15l-0.4,3.2c-0.5,3.6-0.9,7.3-1.3,10.9
	C370.2,252.4,360.4,252.8,350.6,252.9z"/>
<path id="path1512" class="st2" d="M350.6,252.9c4.1-13.8,18.8-15.4,31-15l-0.4,3.2c-0.5,3.6-0.9,7.3-1.3,10.9
	C370.2,252.4,360.4,252.8,350.6,252.9z"/>
<path id="path1530" class="st3" d="M360.3,273.2c2.6-7.8,9-19.3,18.7-12.3c-2.4,4.2-4.8,8.4-7.2,12.6
	C368.9,273.4,363.2,273.2,360.3,273.2z"/>
<path id="path1532" class="st0" d="M360.3,273.2c2.6-7.8,9-19.3,18.7-12.3c-2.4,4.2-4.8,8.4-7.2,12.6
	C368.9,273.4,363.2,273.2,360.3,273.2z"/>
<path id="path1542" class="st3" d="M389.3,267.5c6.6,2.9,13.3,5.7,20,8.5c-4.7,6.8-9.4,13.6-13.5,20.7c3.7,0.8,11,2.3,14.6,3.1
	c1.7-2.6,5.1-7.7,6.8-10.3c9.6,11.8,19,23.8,28.4,35.8c-6.3,26.7,6.1,59.9-16.7,81c-12.3,12.9-30.6,4.7-45.4,2.1
	c-10.1-26.5-6.2-57.6,10.7-80.5c5.8,5.9,11.7,11.9,19,16.1c-5.6-13.2-12.7-25.9-17.2-39.5c-15.6-2.5-28.2-12.5-37.7-24.6
	c6.5,0.5,13.1,1,19.6,1.6C381.9,276.8,385.6,272.2,389.3,267.5z"/>
<path id="path1544" class="st0" d="M389.3,267.5c6.6,2.9,13.3,5.7,20,8.5c-4.7,6.8-9.4,13.6-13.5,20.7c3.7,0.8,11,2.3,14.6,3.1
	c1.7-2.6,5.1-7.7,6.8-10.3c9.6,11.8,19,23.8,28.4,35.8c-6.3,26.7,6.1,59.9-16.7,81c-12.3,12.9-30.6,4.7-45.4,2.1
	c-10.1-26.5-6.2-57.6,10.7-80.5c5.8,5.9,11.7,11.9,19,16.1c-5.6-13.2-12.7-25.9-17.2-39.5c-15.6-2.5-28.2-12.5-37.7-24.6
	c6.5,0.5,13.1,1,19.6,1.6C381.9,276.8,385.6,272.2,389.3,267.5z"/>
<path id="path1550" class="st5" d="M415.5,271"/>
<path id="path1552" class="st6" d="M415.5,271"/>
<path id="path1558" class="st3" d="M422.4,274.5c14.6-3,33.6-1.8,40.9,13.3c-3,2.6-6,5.3-9,7.9c3.2,2.9,6.4,5.9,9.5,9
	c-7.7,2.7-16.8,8.9-23.9,1.3c3.9-3.1,7.9-6.2,11.9-9.3c-6.2-0.1-12.5-0.2-18.7-0.2C429.1,289.4,425.4,282.1,422.4,274.5z"/>
<path id="path1560" class="st0" d="M422.4,274.5c14.6-3,33.6-1.8,40.9,13.3c-3,2.6-6,5.3-9,7.9c3.2,2.9,6.4,5.9,9.5,9
	c-7.7,2.7-16.8,8.9-23.9,1.3c3.9-3.1,7.9-6.2,11.9-9.3c-6.2-0.1-12.5-0.2-18.7-0.2C429.1,289.4,425.4,282.1,422.4,274.5z"/>
<path id="path1594" class="st3" d="M333.1,309.5c12,12.6,24.2,31.4,12,48c6.1-4.1,11-10.8,18.9-11.4c7.4,10-2.5,23.2,0.8,34.7
	c5.6-3.5,5.8-10.5,7.7-16.1c-5.6,19.1,0.9,37.2,11,53.4c-10,4.4-20.8,8.4-31.9,6.7c-15.8-16.1-17.6-39.7-23.2-60.4
	C323.1,346.1,329.2,327.4,333.1,309.5z"/>
<path id="path1596" class="st0" d="M333.1,309.5c12,12.6,24.2,31.4,12,48c6.1-4.1,11-10.8,18.9-11.4c7.4,10-2.5,23.2,0.8,34.7
	c5.6-3.5,5.8-10.5,7.7-16.1c-5.6,19.1,0.9,37.2,11,53.4c-10,4.4-20.8,8.4-31.9,6.7c-15.8-16.1-17.6-39.7-23.2-60.4
	C323.1,346.1,329.2,327.4,333.1,309.5z"/>
<path id="path1606" class="st3" d="M453.5,319.7c2.6-1.3,7.7-4,10.3-5.3c-2.7,12.2-5.2,24.4-7.7,36.7
	C455.1,340.6,454.4,330.1,453.5,319.7z"/>
<path id="path1608" class="st0" d="M453.5,319.7c2.6-1.3,7.7-4,10.3-5.3c-2.7,12.2-5.2,24.4-7.7,36.7
	C455.1,340.6,454.4,330.1,453.5,319.7z"/>
<path id="path1622" class="st3" d="M370.1,334"/>
<path id="path1624" class="st0" d="M370.1,334"/>
<path id="path1694" class="st4" d="M392.4,424.4c9.7,14.5,3.8,33.6,3.5,49.9C382,461.4,384.6,439.8,392.4,424.4z"/>
<path id="path1696" class="st7" d="M392.4,424.4c9.7,14.5,3.8,33.6,3.5,49.9C382,461.4,384.6,439.8,392.4,424.4z"/>
<path id="path1698" class="st3" d="M402.9,426.4c4.2-0.3,12.6-1,16.8-1.3c0.3,12.1,5.1,24.5,1.7,36.4c-2.8,7.7-11.5,8.5-18.3,9.9
	C400.1,456.5,401,441.4,402.9,426.4z"/>
<path id="path1700" class="st0" d="M402.9,426.4c4.2-0.3,12.6-1,16.8-1.3c0.3,12.1,5.1,24.5,1.7,36.4c-2.8,7.7-11.5,8.5-18.3,9.9
	C400.1,456.5,401,441.4,402.9,426.4z"/>
<path id="path1714" class="st3" d="M355.4,437.9c9.2-1.6,18.3-3.9,27.3-6.7c0,13.9-0.2,27.9-0.8,41.8c-8-1.8-16-3.7-23.9-5.8
	C357,457.4,356,447.7,355.4,437.9z"/>
<path id="path1716" class="st0" d="M355.4,437.9c9.2-1.6,18.3-3.9,27.3-6.7c0,13.9-0.2,27.9-0.8,41.8c-8-1.8-16-3.7-23.9-5.8
	C357,457.4,356,447.7,355.4,437.9z"/>
</svg>
