<?xml version="1.0" encoding="utf-8"?>
<!-- Generator: Adobe Illustrator 23.0.6, SVG Export Plug-In . SVG Version: 6.00 Build 0)  -->
<svg version="1.1" id="Layer_1" xmlns="http://www.w3.org/2000/svg" xmlns:xlink="http://www.w3.org/1999/xlink" x="0px" y="0px"
	 viewBox="0 0 792 612" style="enable-background:new 0 0 792 612;" xml:space="preserve">
<style type="text/css">
	.st0{fill:none;stroke:#FFFFFF;stroke-width:0.1;stroke-miterlimit:10;}
	.st1{fill:#FFFFFF;}
	.st2{fill:none;stroke:#171717;stroke-width:0.1;stroke-miterlimit:10;}
	.st3{fill:#171717;}
	.st4{fill:none;stroke:#8F8F8F;stroke-width:0.1;stroke-miterlimit:10;}
</style>
<path id="path1730" class="st0" d="M353.3,387c8.6,0.3,19.6,3.3,14.2,14.3C358,402.1,349.5,397.7,353.3,387z"/>
<path id="path1732" class="st1" d="M353.3,387c8.6,0.3,19.6,3.3,14.2,14.3C358,402.1,349.5,397.7,353.3,387z"/>
<g>
	<path id="path1522" class="st2" d="M404,173.8c8.6,0.4,17.6,0.5,25.7,4.2c14,7.1,31.3-3.3,44.5,6.7c11.9,15.9,12.7,36.8,11.1,55.8
		c-2.3,21.3,14.7,43.3,2.5,63.7c-13.4,23.4-33.4,42.1-50.3,62.9c-6.1,14.4-5.7,30.4-5.7,45.8c-10.6,18.7-34.7,23.2-54.5,23
		c-20.5,1.7-38.5-9.5-56.7-17c-1.2-16.1,2.7-32.9-1.5-48.6c-16.6-29.7-24.5-65.1-20.1-98.9c2.2-23.5,17.5-44.6,38.2-55.5
		c12.4-6.7,19-23.4,35.1-22.2c12.5,0.3,19-12,28.4-18.2c-10.1,16.3-7.9,34.9-7.5,53.1c-4.6-9.7-7.9-19.9-11.7-29.9
		c-11.7-0.9-22.1,3.6-30.5,11.5c13.2,23.1,18.8,49.3,17.3,75.9c7.1-5.8,14.9-10.5,23.9-12.7c0.1-13.9-0.8-27.8,0.3-41.6
		c6.8,12.2,5.7,26.8,9.5,40c4.7,1.2,9.4,2.4,14.2,3.7c0.4-2,1.3-6,1.8-8c-4.2-0.7-12.7-2.1-17-2.8c6.3-9.3,17.2-8.3,27.1-8.4
		c-1.3-2.6-4-7.7-5.3-10.3c-5.7,0.9-11.3,1.9-17,2.9c8.4-17.1-16.3-30.1-5.9-46.3c3.5-13.5,18.3-13.5,29.3-17
		C421,181.4,406,185.1,404,173.8z"/>
	<path id="path1524" class="st3" d="M404,173.8c8.6,0.4,17.6,0.5,25.7,4.2c14,7.1,31.3-3.3,44.5,6.7c11.9,15.9,12.7,36.8,11.1,55.8
		c-2.3,21.3,14.7,43.3,2.5,63.7c-13.4,23.4-33.4,42.1-50.3,62.9c-6.1,14.4-5.7,30.4-5.7,45.8c-10.6,18.7-34.7,23.2-54.5,23
		c-20.5,1.7-38.5-9.5-56.7-17c-1.2-16.1,2.7-32.9-1.5-48.6c-16.6-29.7-24.5-65.1-20.1-98.9c2.2-23.5,17.5-44.6,38.2-55.5
		c12.4-6.7,19-23.4,35.1-22.2c12.5,0.3,19-12,28.4-18.2c-10.1,16.3-7.9,34.9-7.5,53.1c-4.6-9.7-7.9-19.9-11.7-29.9
		c-11.7-0.9-22.1,3.6-30.5,11.5c13.2,23.1,18.8,49.3,17.3,75.9c7.1-5.8,14.9-10.5,23.9-12.7c0.1-13.9-0.8-27.8,0.3-41.6
		c6.8,12.2,5.7,26.8,9.5,40c4.7,1.2,9.4,2.4,14.2,3.7c0.4-2,1.3-6,1.8-8c-4.2-0.7-12.7-2.1-17-2.8c6.3-9.3,17.2-8.3,27.1-8.4
		c-1.3-2.6-4-7.7-5.3-10.3c-5.7,0.9-11.3,1.9-17,2.9c8.4-17.1-16.3-30.1-5.9-46.3c3.5-13.5,18.3-13.5,29.3-17
		C421,181.4,406,185.1,404,173.8z"/>
	<path id="path1546" class="st0" d="M439.8,197.8c-4.2-14.3,15.2-12.7,24.1-11.2c11.9,3.6,10.2,19.2,11,29.1
		C462.8,210.5,450.5,205.5,439.8,197.8z"/>
	<path id="path1548" class="st1" d="M439.8,197.8c-4.2-14.3,15.2-12.7,24.1-11.2c11.9,3.6,10.2,19.2,11,29.1
		C462.8,210.5,450.5,205.5,439.8,197.8z"/>
	<path id="path1554" class="st0" d="M410.1,209.5c2.6-6.5,7.5-11.4,12.9-15.8c4.5,3.8,9,7.8,13.6,11.7c-0.9,4.7-1.7,9.4-2.5,14.1
		C426,216.3,418,213,410.1,209.5z"/>
	<path id="path1556" class="st1" d="M410.1,209.5c2.6-6.5,7.5-11.4,12.9-15.8c4.5,3.8,9,7.8,13.6,11.7c-0.9,4.7-1.7,9.4-2.5,14.1
		C426,216.3,418,213,410.1,209.5z"/>
	<path id="path1566" class="st0" d="M433.1,225.9c5.8-4.2,11.4-8.5,17.2-12.7c4.9,4.2,17.7,4.1,16.5,12.4
		c-8.1,2.6-17.4,4.9-19.4,14.6c3.2,1.2,9.7,3.5,12.9,4.6c4.5-2.9,9-5.8,13.6-8.6c3.8,16.6,9.3,33,11.6,49.9
		c-5.3,23.8-25.8,39.8-40,58.5c-13.5,17.5-38.6,18.4-56.8,8.2c-0.8,3-2.5,8.9-3.4,11.8c-20,3.3-46.2,14.5-61.6-4.5
		c-12.7-25.7-19.4-54.7-18.2-83.4c8.1-0.1,16.2-0.1,24.3-0.1c5.3,9,7.8,21.2,17.5,26.7c11.5-0.4,22.7-5,34.3-2.5
		c-8.3,13.6-17.8,36.3,1.9,45.2c0.9-12.6-4.2-27.6,5.5-38c11.1-13.4,23.3-28.5,41.4-31.8c3.5,9,7.4,18.3,16,23.7
		c-8.9-17.4-8.1-37.2,1.7-53.9c-19.6,1.2-33-14.2-42.8-29.1C414.7,219.8,423.8,223,433.1,225.9z"/>
	<path id="path1568" class="st1" d="M433.1,225.9c5.8-4.2,11.4-8.5,17.2-12.7c4.9,4.2,17.7,4.1,16.5,12.4
		c-8.1,2.6-17.4,4.9-19.4,14.6c3.2,1.2,9.7,3.5,12.9,4.6c4.5-2.9,9-5.8,13.6-8.6c3.8,16.6,9.3,33,11.6,49.9
		c-5.3,23.8-25.8,39.8-40,58.5c-13.5,17.5-38.6,18.4-56.8,8.2c-0.8,3-2.5,8.9-3.4,11.8c-20,3.3-46.2,14.5-61.6-4.5
		c-12.7-25.7-19.4-54.7-18.2-83.4c8.1-0.1,16.2-0.1,24.3-0.1c5.3,9,7.8,21.2,17.5,26.7c11.5-0.4,22.7-5,34.3-2.5
		c-8.3,13.6-17.8,36.3,1.9,45.2c0.9-12.6-4.2-27.6,5.5-38c11.1-13.4,23.3-28.5,41.4-31.8c3.5,9,7.4,18.3,16,23.7
		c-8.9-17.4-8.1-37.2,1.7-53.9c-19.6,1.2-33-14.2-42.8-29.1C414.7,219.8,423.8,223,433.1,225.9z"/>
	<path id="path1578" class="st0" d="M315.7,241.7c9.9-7.5,19.4-15.8,30.2-22c7.2,14.3,17.3,30.6,13.3,47c-3.3,1.2-9.8,3.7-13.1,5
		c4,0.6,12.1,1.7,16.1,2.3c-5.3,7-10.6,14-15.6,21.3C337.3,276.8,335.2,253,315.7,241.7z"/>
	<path id="path1580" class="st1" d="M315.7,241.7c9.9-7.5,19.4-15.8,30.2-22c7.2,14.3,17.3,30.6,13.3,47c-3.3,1.2-9.8,3.7-13.1,5
		c4,0.6,12.1,1.7,16.1,2.3c-5.3,7-10.6,14-15.6,21.3C337.3,276.8,335.2,253,315.7,241.7z"/>
	<path id="path1610" class="st0" d="M308,256.3c8.4,2.8,18.3,4.7,21.4,14.3c-7.9,0.1-15.8,0.2-23.6,0.3
		C306.4,267.3,307.5,260,308,256.3z"/>
	<path id="path1612" class="st1" d="M308,256.3c8.4,2.8,18.3,4.7,21.4,14.3c-7.9,0.1-15.8,0.2-23.6,0.3
		C306.4,267.3,307.5,260,308,256.3z"/>
	<path id="path1618" class="st2" d="M375,262c6.4-4.5,10.2-3.3,11.4,3.4C380,269.8,376.2,268.6,375,262z"/>
	<path id="path1620" class="st3" d="M375,262c6.4-4.5,10.2-3.3,11.4,3.4C380,269.8,376.2,268.6,375,262z"/>
	<path id="path1642" class="st0" d="M379.3,286.8c6.2-4.5,9.8-3.3,10.8,3.6C383.9,294.8,380.2,293.6,379.3,286.8z"/>
	<path id="path1644" class="st1" d="M379.3,286.8c6.2-4.5,9.8-3.3,10.8,3.6C383.9,294.8,380.2,293.6,379.3,286.8z"/>
	<path id="path1686" class="st0" d="M392.7,370.6c6.5,1.5,13,3,19.7,4.4c-1.6,14.3-2.3,28.8-1.2,43.2c-6,2.3-12.1,4.5-18.2,6.7
		c-0.1-3-0.3-9.1-0.4-12.1c0.1-9.9,0-19.9,0-29.8C392.7,379.9,392.7,373.7,392.7,370.6z"/>
	<path id="path1688" class="st1" d="M392.7,370.6c6.5,1.5,13,3,19.7,4.4c-1.6,14.3-2.3,28.8-1.2,43.2c-6,2.3-12.1,4.5-18.2,6.7
		c-0.1-3-0.3-9.1-0.4-12.1c0.1-9.9,0-19.9,0-29.8C392.7,379.9,392.7,373.7,392.7,370.6z"/>
	<path id="path1702" class="st0" d="M326.4,375.4c3.2,3.3,6.5,6.6,9.8,9.8c11.8-1.2,23.6-2.4,35.3-4.7c-0.4,16.2-0.2,32.4-0.5,48.6
		c-13.6-4.3-26.8-9.5-39.8-15.2C330.1,401,328.6,388.1,326.4,375.4z"/>
	<path id="path1704" class="st1" d="M326.4,375.4c3.2,3.3,6.5,6.6,9.8,9.8c11.8-1.2,23.6-2.4,35.3-4.7c-0.4,16.2-0.2,32.4-0.5,48.6
		c-13.6-4.3-26.8-9.5-39.8-15.2C330.1,401,328.6,388.1,326.4,375.4z"/>
	<path id="path1722" class="st4" d="M384.6,430.2c-12.9-15-2.1-34.1,8.1-47.2c0,9.9,0,19.8,0,29.8
		C390.1,418.6,387.4,424.4,384.6,430.2z"/>
	<path id="path1724" class="st3" d="M384.6,430.2c-12.9-15-2.1-34.1,8.1-47.2c0,9.9,0,19.8,0,29.8
		C390.1,418.6,387.4,424.4,384.6,430.2z"/>
</g>
</svg>
