<?xml version="1.0" encoding="utf-8"?>
<!-- Generator: Adobe Illustrator 23.0.6, SVG Export Plug-In . SVG Version: 6.00 Build 0)  -->
<svg version="1.1" id="Layer_1" xmlns="http://www.w3.org/2000/svg" xmlns:xlink="http://www.w3.org/1999/xlink" x="0px" y="0px"
	 viewBox="0 0 792 612" style="enable-background:new 0 0 792 612;" xml:space="preserve">
<style type="text/css">
	.st0{fill:none;stroke:#171717;stroke-width:0.1;stroke-miterlimit:10;}
	.st1{fill:#171717;}
	.st2{fill:none;stroke:#FFFFFF;stroke-width:0.1;stroke-miterlimit:10;}
	.st3{fill:#FFFFFF;}
	.st4{fill:none;stroke:#C7C7C7;stroke-width:0.1;stroke-miterlimit:10;}
	.st5{fill:none;stroke:#8F8F8F;stroke-width:0.1;stroke-miterlimit:10;}
</style>
<g>
	<path id="path2422" class="st0" d="M425.3,172.6c8.7-2.5,17.3-11.1,26.7-6.9c12.1,5.8,30.2,5.3,35.2,20.3
		c12.1,22.2,2.7,49.8-15.3,65.8c3.8,17.1,14.3,35,6.9,52.6c-10.4,27.4-19.6,56.8-40.8,78.2c-15.9,13.2-7.8,35.4-10.7,53.2
		c-33.6,14.9-70.3,9.5-104.6,0.7c-3-16.3,5.6-32,4.2-47.9c-11.5-21.9-22.1-44.8-24.9-69.6c-2.6-24.4-9.4-51.1,4.4-73.5
		c10.2-24.3,37.2-31,56.7-45.4c14-5.8,20.4-20.3,32-29C405.2,170.3,415.2,172.3,425.3,172.6z"/>
	<path id="path2424" class="st1" d="M425.3,172.6c8.7-2.5,17.3-11.1,26.7-6.9c12.1,5.8,30.2,5.3,35.2,20.3
		c12.1,22.2,2.7,49.8-15.3,65.8c3.8,17.1,14.3,35,6.9,52.6c-10.4,27.4-19.6,56.8-40.8,78.2c-15.9,13.2-7.8,35.4-10.7,53.2
		c-33.6,14.9-70.3,9.5-104.6,0.7c-3-16.3,5.6-32,4.2-47.9c-11.5-21.9-22.1-44.8-24.9-69.6c-2.6-24.4-9.4-51.1,4.4-73.5
		c10.2-24.3,37.2-31,56.7-45.4c14-5.8,20.4-20.3,32-29C405.2,170.3,415.2,172.3,425.3,172.6z"/>
	<path id="path2438" class="st2" d="M438.6,233.5c-9.3-19.6-16.2-53.3,8.4-64.3C446.7,190.6,450.5,214.5,438.6,233.5z"/>
	<path id="path2440" class="st3" d="M438.6,233.5c-9.3-19.6-16.2-53.3,8.4-64.3C446.7,190.6,450.5,214.5,438.6,233.5z"/>
	<path id="path2458" class="st2" d="M391.1,182c8.8-2.9,18-4.4,27.3-3.3c4.3,19.8,7.7,40.1,7.7,60.5c-7.2,1.3-14.5,2.7-21.7,4.1
		C398.2,223.3,391.7,203.1,391.1,182z"/>
	<path id="path2460" class="st3" d="M391.1,182c8.8-2.9,18-4.4,27.3-3.3c4.3,19.8,7.7,40.1,7.7,60.5c-7.2,1.3-14.5,2.7-21.7,4.1
		C398.2,223.3,391.7,203.1,391.1,182z"/>
	<path id="path2462" class="st2" d="M452.8,212.9c4.4-12.6,8.7-25.3,13.2-37.9c-0.7,3.7-2.2,11.1-3,14.8
		c12.6,2.8,23.7,8.5,23.7,22.9C475.5,207.9,463.3,204.6,452.8,212.9z"/>
	<path id="path2464" class="st3" d="M452.8,212.9c4.4-12.6,8.7-25.3,13.2-37.9c-0.7,3.7-2.2,11.1-3,14.8
		c12.6,2.8,23.7,8.5,23.7,22.9C475.5,207.9,463.3,204.6,452.8,212.9z"/>
	<path id="path2510" class="st2" d="M355.6,210.9c8.8-2.1,17.6-10.1,26.8-7.1c7.7,15,11.2,31.6,13.6,48.2
		c-5.3,3.7-10.6,7.5-15.9,11.3c4,1.5,12,4.4,16,5.8c-0.1,12.4-14.6,10.3-23,14.3c0.2-15.7,1.4-32.5-6.4-46.8
		C362.2,228.3,357.3,220.2,355.6,210.9z"/>
	<path id="path2512" class="st3" d="M355.6,210.9c8.8-2.1,17.6-10.1,26.8-7.1c7.7,15,11.2,31.6,13.6,48.2
		c-5.3,3.7-10.6,7.5-15.9,11.3c4,1.5,12,4.4,16,5.8c-0.1,12.4-14.6,10.3-23,14.3c0.2-15.7,1.4-32.5-6.4-46.8
		C362.2,228.3,357.3,220.2,355.6,210.9z"/>
	<path id="path2534" class="st2" d="M458.1,218.2c5.2,0,10.9-0.9,15.5,2.3c-0.9,6.6-2.2,13.2-3,19.9c-5.8-2.5-11.7-4.8-17.5-7.1
		c3.2-0.3,9.7-1,13-1.3C464.1,228.6,460.1,221.6,458.1,218.2z"/>
	<path id="path2536" class="st3" d="M458.1,218.2c5.2,0,10.9-0.9,15.5,2.3c-0.9,6.6-2.2,13.2-3,19.9c-5.8-2.5-11.7-4.8-17.5-7.1
		c3.2-0.3,9.7-1,13-1.3C464.1,228.6,460.1,221.6,458.1,218.2z"/>
	<path id="path2542" class="st2" d="M319.7,236.9c8.1-6.3,16.6-12,25.5-16.9c8.3,11.6,14.8,24.3,20.8,37.1
		c-7.5,3.7-15.1,7.1-22.4,11.1c7.9,0.8,15.9,1.5,23.9,2c-6.9,5.7-13.5,11.8-19.7,18.3C341,270,331.2,252.8,319.7,236.9z"/>
	<path id="path2544" class="st3" d="M319.7,236.9c8.1-6.3,16.6-12,25.5-16.9c8.3,11.6,14.8,24.3,20.8,37.1
		c-7.5,3.7-15.1,7.1-22.4,11.1c7.9,0.8,15.9,1.5,23.9,2c-6.9,5.7-13.5,11.8-19.7,18.3C341,270,331.2,252.8,319.7,236.9z"/>
	<path id="path2562" class="st2" d="M437.7,236.1c8,4,18.6,5.6,24,13.5c4.3,13,8.7,26.2,10.9,39.8c-8.7,27.7-19.4,56-37.7,78.9
		c-11.9,15.8-31.1,5.7-46.8,3.8c-12.5,2.5-24.2,7.9-36.9,9.6c-14,0-26.6-10.5-30.7-23.6c-8.5-23.5-13.9-48.2-15.2-73.2
		c4-8.6,15.7-5.8,23.4-6.6c9.4,3.9,11.9,16.1,18.1,23.6c9.6,1.2,19.3,2.2,28.9,3.5c-3.4,9.4-7.7,18.5-10.3,28.2
		c3.1,9.7,10.4,17.9,15.3,26.9c2.2-18.9-0.1-40.2,11.4-56.5c11.9-12.7,25.2-24.1,39.1-34.5c11.4,8.6,22.7,17.4,34.5,25.4
		c-6.1-16.5-21.2-26.3-31.3-39.9C429.5,249.1,436.2,242,437.7,236.1z"/>
	<path id="path2564" class="st3" d="M437.7,236.1c8,4,18.6,5.6,24,13.5c4.3,13,8.7,26.2,10.9,39.8c-8.7,27.7-19.4,56-37.7,78.9
		c-11.9,15.8-31.1,5.7-46.8,3.8c-12.5,2.5-24.2,7.9-36.9,9.6c-14,0-26.6-10.5-30.7-23.6c-8.5-23.5-13.9-48.2-15.2-73.2
		c4-8.6,15.7-5.8,23.4-6.6c9.4,3.9,11.9,16.1,18.1,23.6c9.6,1.2,19.3,2.2,28.9,3.5c-3.4,9.4-7.7,18.5-10.3,28.2
		c3.1,9.7,10.4,17.9,15.3,26.9c2.2-18.9-0.1-40.2,11.4-56.5c11.9-12.7,25.2-24.1,39.1-34.5c11.4,8.6,22.7,17.4,34.5,25.4
		c-6.1-16.5-21.2-26.3-31.3-39.9C429.5,249.1,436.2,242,437.7,236.1z"/>
	<path id="path2578" class="st2" d="M404.9,247.5c7,0.2,14,0.4,20.9,0.6c-0.2,3-0.5,8.9-0.7,11.9c-6.8-0.3-13.5-0.1-20.3,0.4
		C404.8,257.2,404.9,250.7,404.9,247.5z"/>
	<path id="path2580" class="st3" d="M404.9,247.5c7,0.2,14,0.4,20.9,0.6c-0.2,3-0.5,8.9-0.7,11.9c-6.8-0.3-13.5-0.1-20.3,0.4
		C404.8,257.2,404.9,250.7,404.9,247.5z"/>
	<path id="path2590" class="st2" d="M308.9,257.9c7.5,4,14.7,8.3,21.6,13.4c-9.1,1-18.1,2-27.2,2.7
		C305.1,268.6,307,263.2,308.9,257.9z"/>
	<path id="path2592" class="st3" d="M308.9,257.9c7.5,4,14.7,8.3,21.6,13.4c-9.1,1-18.1,2-27.2,2.7
		C305.1,268.6,307,263.2,308.9,257.9z"/>
	<path id="path2614" class="st4" d="M379.9,290.8C396.4,282.5,381.4,308.3,379.9,290.8z"/>
	<path id="path2616" class="st3" d="M379.9,290.8C396.4,282.5,381.4,308.3,379.9,290.8z"/>
	<path id="path2682" class="st2" d="M385.1,434.4c-1.4-16.2,2.8-38.8,20.1-44.3c0.1,14.8-0.9,29.7-2.7,44.4
		C396.7,434.6,390.9,434.5,385.1,434.4z"/>
	<path id="path2684" class="st3" d="M385.1,434.4c-1.4-16.2,2.8-38.8,20.1-44.3c0.1,14.8-0.9,29.7-2.7,44.4
		C396.7,434.6,390.9,434.5,385.1,434.4z"/>
	<path id="path2694" class="st2" d="M336.3,398.8c10.7-1.2,21.4-2.3,32.1-3.2c-1.9,12.3-4,24.6-5.9,36.9c-9.6-1.1-19.3-2.4-28.9-3.4
		C334.3,418.9,335.3,408.8,336.3,398.8z"/>
	<path id="path2696" class="st3" d="M336.3,398.8c10.7-1.2,21.4-2.3,32.1-3.2c-1.9,12.3-4,24.6-5.9,36.9c-9.6-1.1-19.3-2.4-28.9-3.4
		C334.3,418.9,335.3,408.8,336.3,398.8z"/>
	<path id="path2710" class="st5" d="M374.2,417.1c7.8-1.4,8,12.1,3,15.6C369.5,434,369.5,420.5,374.2,417.1z"/>
	<path id="path2712" class="st3" d="M374.2,417.1c7.8-1.4,8,12.1,3,15.6C369.5,434,369.5,420.5,374.2,417.1z"/>
</g>
</svg>
