<?xml version="1.0" encoding="utf-8"?>
<!-- Generator: Adobe Illustrator 23.0.6, SVG Export Plug-In . SVG Version: 6.00 Build 0)  -->
<svg version="1.1" id="Layer_1" xmlns="http://www.w3.org/2000/svg" xmlns:xlink="http://www.w3.org/1999/xlink" x="0px" y="0px"
	 viewBox="0 0 792 612" style="enable-background:new 0 0 792 612;" xml:space="preserve">
<style type="text/css">
	.st0{fill:none;stroke:#171717;stroke-width:0.1;stroke-miterlimit:10;}
	.st1{fill:#171717;}
	.st2{fill:none;stroke:#FFFFFF;stroke-width:0.1;stroke-miterlimit:10;}
	.st3{fill:#FFFFFF;}
	.st4{fill:none;stroke:#8F8F8F;stroke-width:0.1;stroke-miterlimit:10;}
</style>
<path id="path2266" class="st0" d="M416.6,135.7c11.1-4.8,18.1,7.6,22.1,15.9c4.9,1.7,10.4,2.6,14.5,6.2c8,20.3,1,41.9,0.6,62.8
	c-0.1,22.5-5.7,44.4-7.4,66.7c1.2,22.8,13.8,44.3,10.7,67.4c-7.5,19-14.1,39.4-28.8,54.4c-8.7,14.9-8.1,33.2-14,49.2
	c-27.4,13.9-68.1,12.6-86.2-15.7c-1.2-9.9,9.2-17.6,8.4-27.8c-1-19.2-13.7-36.1-12.3-55.6c1.1-18.3-5.9-36.7-1.6-54.7
	c2.7-12.5,17.5-12.2,25.5-19.1c10.6-15.9,12.9-39.1,32.8-46.8c7.3-18.5,8.3-39.1,17.3-57.2C405.9,166.8,401.6,145.9,416.6,135.7z"/>
<path id="path2268" class="st1" d="M416.6,135.7c11.1-4.8,18.1,7.6,22.1,15.9c4.9,1.7,10.4,2.6,14.5,6.2c8,20.3,1,41.9,0.6,62.8
	c-0.1,22.5-5.7,44.4-7.4,66.7c1.2,22.8,13.8,44.3,10.7,67.4c-7.5,19-14.1,39.4-28.8,54.4c-8.7,14.9-8.1,33.2-14,49.2
	c-27.4,13.9-68.1,12.6-86.2-15.7c-1.2-9.9,9.2-17.6,8.4-27.8c-1-19.2-13.7-36.1-12.3-55.6c1.1-18.3-5.9-36.7-1.6-54.7
	c2.7-12.5,17.5-12.2,25.5-19.1c10.6-15.9,12.9-39.1,32.8-46.8c7.3-18.5,8.3-39.1,17.3-57.2C405.9,166.8,401.6,145.9,416.6,135.7z"/>
<path id="path2278" class="st2" d="M415.4,140.7c4.9,1.1,11.7-0.2,14.6,5c3.1,12.3-0.8,24.9-4.2,36.8c-6.7-0.9-13.3-1.7-20-2.3
	C409.4,167.1,412.9,154,415.4,140.7z"/>
<path id="path2280" class="st3" d="M415.4,140.7c4.9,1.1,11.7-0.2,14.6,5c3.1,12.3-0.8,24.9-4.2,36.8c-6.7-0.9-13.3-1.7-20-2.3
	C409.4,167.1,412.9,154,415.4,140.7z"/>
<path id="path2298" class="st2" d="M438,160.2c2.7,0.3,8.2,1,10.9,1.4c1,11.5,0.9,23,0.6,34.6c-6.8-0.1-13.7-0.1-20.5-0.2
	C431,183.8,434.8,172,438,160.2z"/>
<path id="path2300" class="st3" d="M438,160.2c2.7,0.3,8.2,1,10.9,1.4c1,11.5,0.9,23,0.6,34.6c-6.8-0.1-13.7-0.1-20.5-0.2
	C431,183.8,434.8,172,438,160.2z"/>
<path id="path2318" class="st2" d="M394.4,211.2c3-8.5,4.2-18.6,11.9-24.5c5.6-0.4,11.2-0.1,16.8,1.1c-1.3,9.6-3.2,19.2-5.4,28.6
	C409.9,214.3,402.2,212.5,394.4,211.2z"/>
<path id="path2320" class="st3" d="M394.4,211.2c3-8.5,4.2-18.6,11.9-24.5c5.6-0.4,11.2-0.1,16.8,1.1c-1.3,9.6-3.2,19.2-5.4,28.6
	C409.9,214.3,402.2,212.5,394.4,211.2z"/>
<path id="path2338" class="st2" d="M427.8,202.3c5.6-3.2,15-2.3,19.4,2.6c0.7,7.2,0.4,14.4,0.4,21.6c-7.8-0.6-15.6-1.1-23.4-1.8
	C425.1,217.1,425.2,209.4,427.8,202.3z"/>
<path id="path2340" class="st3" d="M427.8,202.3c5.6-3.2,15-2.3,19.4,2.6c0.7,7.2,0.4,14.4,0.4,21.6c-7.8-0.6-15.6-1.1-23.4-1.8
	C425.1,217.1,425.2,209.4,427.8,202.3z"/>
<path id="path2362" class="st2" d="M391.9,220.2c7.8,1.3,15.5,3.1,23.3,4.8c-1.6,10.2-3.3,20.6-8.3,29.8
	c-5.8-6.3-11.6-12.6-17.8-18.5C390.1,230.9,391,225.5,391.9,220.2z"/>
<path id="path2364" class="st3" d="M391.9,220.2c7.8,1.3,15.5,3.1,23.3,4.8c-1.6,10.2-3.3,20.6-8.3,29.8
	c-5.8-6.3-11.6-12.6-17.8-18.5C390.1,230.9,391,225.5,391.9,220.2z"/>
<path id="path2374" class="st2" d="M422.1,231.8c7.9,1.8,15.7,3.6,23.6,5.4c-1.1,10.1-2.4,20.1-4.3,30.1c-8.1-3.8-16-8.1-23.8-12.5
	C418,246.9,419.7,239.2,422.1,231.8z"/>
<path id="path2376" class="st3" d="M422.1,231.8c7.9,1.8,15.7,3.6,23.6,5.4c-1.1,10.1-2.4,20.1-4.3,30.1c-8.1-3.8-16-8.1-23.8-12.5
	C418,246.9,419.7,239.2,422.1,231.8z"/>
<path id="path2394" class="st2" d="M370.7,249.1c6-1.5,12-2.9,18-4.1c6.1,6.2,11,13.9,11.7,22.8c-3.7,9.7-8.3,19.1-11.5,29.1
	C379.8,282.3,367.3,267.6,370.7,249.1z"/>
<path id="path2396" class="st3" d="M370.7,249.1c6-1.5,12-2.9,18-4.1c6.1,6.2,11,13.9,11.7,22.8c-3.7,9.7-8.3,19.1-11.5,29.1
	C379.8,282.3,367.3,267.6,370.7,249.1z"/>
<path id="path2426" class="st2" d="M405,260.3c14.7,3.5,36,8.7,36.2,27.5c-8.4,0.5-13.8-6.6-19.7-11.3
	C415.8,271.2,408.2,267.7,405,260.3z"/>
<path id="path2428" class="st3" d="M405,260.3c14.7,3.5,36,8.7,36.2,27.5c-8.4,0.5-13.8-6.6-19.7-11.3
	C415.8,271.2,408.2,267.7,405,260.3z"/>
<path id="path2466" class="st2" d="M363.6,269.1c6.9,0.2,4.5,11-1.4,11C355.4,280,358.3,269.4,363.6,269.1z"/>
<path id="path2468" class="st3" d="M363.6,269.1c6.9,0.2,4.5,11-1.4,11C355.4,280,358.3,269.4,363.6,269.1z"/>
<path id="path2474" class="st2" d="M418.6,291.8c-12,3.5-17.6-13-5-16C415.6,280.9,417.3,286.3,418.6,291.8z"/>
<path id="path2476" class="st3" d="M418.6,291.8c-12,3.5-17.6-13-5-16C415.6,280.9,417.3,286.3,418.6,291.8z"/>
<path id="path2506" class="st2" d="M357.7,293.1c4.4-4.2,7.9-12.6,15.2-8.7c7,8.7,9.5,19.7,12.8,30.1c-4,2.7-8,5.6-11.8,8.6
	c5.6-0.4,11.2-0.9,16.8-1.4c-1,8.2-2.8,16.3-5,24.2c-14-13.2-22.3-31.2-31.8-47.6c-1.2,2.3-3.5,6.8-4.7,9
	c-6.2-0.8-12.4-1.4-18.6-1.6c6.2,7.2,15.6,9.3,24.2,12.4c-6.9,3.2-14,6.1-20.8,9.5c9.6-0.4,19.2-1.7,28.8-2.6
	c2.9,5.9,5.6,11.9,8.3,17.9c-2.6,5.6-5.2,11.3-7.8,16.9c9.2,4.6,5.6,15.8,8,24.1c7.1-9.9,0.8-28.1,13.8-33
	c-0.3,13.6-2.7,27.5,1.4,40.8c2.5,0.6,7.6,1.7,10.2,2.2c-2.1-12.7-5.1-25.6-3-38.5c2.2-10,10.5-17,19.5-20.9
	c3.5,6.4,6.9,12.8,10.5,19.2c8,1.5,16,3.3,23.9,5.8c-5.1,13.1-10.7,26.4-19.3,37.7c-12,9.5-27.6,0.8-40.1-3c0.4,2.5,1.1,7.5,1.5,10
	c-13.9,4.7-30.3,12.1-43.9,3.2c-15.2-25.1-13.5-56-18.7-84C321.5,306.2,341.2,289.8,357.7,293.1z"/>
<path id="path2508" class="st3" d="M357.7,293.1c4.4-4.2,7.9-12.6,15.2-8.7c7,8.7,9.5,19.7,12.8,30.1c-4,2.7-8,5.6-11.8,8.6
	c5.6-0.4,11.2-0.9,16.8-1.4c-1,8.2-2.8,16.3-5,24.2c-14-13.2-22.3-31.2-31.8-47.6c-1.2,2.3-3.5,6.8-4.7,9
	c-6.2-0.8-12.4-1.4-18.6-1.6c6.2,7.2,15.6,9.3,24.2,12.4c-6.9,3.2-14,6.1-20.8,9.5c9.6-0.4,19.2-1.7,28.8-2.6
	c2.9,5.9,5.6,11.9,8.3,17.9c-2.6,5.6-5.2,11.3-7.8,16.9c9.2,4.6,5.6,15.8,8,24.1c7.1-9.9,0.8-28.1,13.8-33
	c-0.3,13.6-2.7,27.5,1.4,40.8c2.5,0.6,7.6,1.7,10.2,2.2c-2.1-12.7-5.1-25.6-3-38.5c2.2-10,10.5-17,19.5-20.9
	c3.5,6.4,6.9,12.8,10.5,19.2c8,1.5,16,3.3,23.9,5.8c-5.1,13.1-10.7,26.4-19.3,37.7c-12,9.5-27.6,0.8-40.1-3c0.4,2.5,1.1,7.5,1.5,10
	c-13.9,4.7-30.3,12.1-43.9,3.2c-15.2-25.1-13.5-56-18.7-84C321.5,306.2,341.2,289.8,357.7,293.1z"/>
<path id="path2514" class="st2" d="M397.5,287.8c5.5,4.2,10.8,8.9,16.7,12.6c6.2,0.3,10.2-5.8,15.1-8.7c3,2.7,6,5.4,9.1,8.1
	c-4.4,7.7-8.5,15.6-10.3,24.4c6.2-1.9,12-4.9,17.5-8.2c6.6,13.6,7.8,29.4,1.8,43.5c-14.5-12-17.7-32.8-33.5-43.7
	C404.5,309.3,397.5,299.7,397.5,287.8z"/>
<path id="path2516" class="st3" d="M397.5,287.8c5.5,4.2,10.8,8.9,16.7,12.6c6.2,0.3,10.2-5.8,15.1-8.7c3,2.7,6,5.4,9.1,8.1
	c-4.4,7.7-8.5,15.6-10.3,24.4c6.2-1.9,12-4.9,17.5-8.2c6.6,13.6,7.8,29.4,1.8,43.5c-14.5-12-17.7-32.8-33.5-43.7
	C404.5,309.3,397.5,299.7,397.5,287.8z"/>
<path id="path2546" class="st2" d="M390.4,299.3c9.3,8.8,9.2,22.4,13.4,33.7C392,325.9,392,311.3,390.4,299.3z"/>
<path id="path2548" class="st3" d="M390.4,299.3c9.3,8.8,9.2,22.4,13.4,33.7C392,325.9,392,311.3,390.4,299.3z"/>
<path id="path2642" class="st2" d="M396.8,415.9c2.3-0.3,7-0.8,9.4-1c-0.4,1.8-1.3,5.4-1.8,7.1c-2.5,9.4-4.8,19-6.4,28.7l-0.5,2.8
	c-1.9,1.2-5.8,3.5-7.8,4.7C391.6,444,394.8,430,396.8,415.9z"/>
<path id="path2644" class="st3" d="M396.8,415.9c2.3-0.3,7-0.8,9.4-1c-0.4,1.8-1.3,5.4-1.8,7.1c-2.5,9.4-4.8,19-6.4,28.7l-0.5,2.8
	c-1.9,1.2-5.8,3.5-7.8,4.7C391.6,444,394.8,430,396.8,415.9z"/>
<path id="path2658" class="st2" d="M343,422.1c11.8,2.2,23.6-0.2,35.2-2.7c-3.1,13-6.5,26-9.6,39c-11.7-2.6-22.1-8.6-30.8-16.7
	C339.5,435.1,341.3,428.6,343,422.1z"/>
<path id="path2660" class="st3" d="M343,422.1c11.8,2.2,23.6-0.2,35.2-2.7c-3.1,13-6.5,26-9.6,39c-11.7-2.6-22.1-8.6-30.8-16.7
	C339.5,435.1,341.3,428.6,343,422.1z"/>
<path id="path2674" class="st4" d="M398,450.7c1.6-9.7,3.8-19.2,6.4-28.7C407.8,431.9,408.7,444.8,398,450.7z"/>
<path id="path2676" class="st3" d="M398,450.7c1.6-9.7,3.8-19.2,6.4-28.7C407.8,431.9,408.7,444.8,398,450.7z"/>
<path id="path2698" class="st2" d="M378.2,459.6c0.5-10.2,3-20.2,7.5-29.3C384.4,440.1,385.5,451.7,378.2,459.6z"/>
<path id="path2700" class="st3" d="M378.2,459.6c0.5-10.2,3-20.2,7.5-29.3C384.4,440.1,385.5,451.7,378.2,459.6z"/>
</svg>
