<?xml version="1.0" encoding="utf-8"?>
<!-- Generator: Adobe Illustrator 23.0.6, SVG Export Plug-In . SVG Version: 6.00 Build 0)  -->
<svg version="1.1" id="Layer_1" xmlns="http://www.w3.org/2000/svg" xmlns:xlink="http://www.w3.org/1999/xlink" x="0px" y="0px"
	 viewBox="0 0 792 612" style="enable-background:new 0 0 792 612;" xml:space="preserve">
<style type="text/css">
	.st0{fill:none;stroke:#171717;stroke-width:0.1;stroke-miterlimit:10;}
	.st1{fill:#171717;}
	.st2{fill:none;stroke:#FFFFFF;stroke-width:0.1;stroke-miterlimit:10;}
	.st3{fill:#FFFFFF;}
	.st4{fill:none;stroke:#C7C7C7;stroke-width:0.1;stroke-miterlimit:10;}
	.st5{fill:#C7C7C7;}
	.st6{fill:none;stroke:#8F8F8F;stroke-width:0.1;stroke-miterlimit:10;}
</style>
<g>
	<path id="path2270" class="st0" d="M373.8,146.3c0.6-8.3,10.3-12.1,17.5-12.1c10.8,1.7,11.9,14.1,12.5,22.9
		c1.4,31.3-5.8,62.5-2.1,93.8c1.9-0.8,5.8-2.4,7.7-3.1c8.4-29.5,18.7-58.8,20.4-89.7c9-4.3,23.8-3.8,26.1,8.2
		c3.1,19.5-1.9,39.3-2.3,58.9c-7.9,32.6-18.2,69.1-3.7,101.4c0.7,13-2.7,26-5.1,38.7c-1.9,12.7-13.1,21.5-14.9,34.2
		c-3.7,17.3-7.2,34.6-11,51.9c-13.1,9.2-29.2,15.9-45.3,11.1c-12.8-4.2-26.8-9.3-36.2-19c1.1-10.8,6.1-20.7,8.2-31.2
		c-3.3-20.1-20.8-35-21.5-55.8c-1.7-16.5-7.1-32.8-5.9-49.5c5.8-8.8,15.6-14,21.4-22.6c5.4-10.6,4.8-23.1,9.9-33.7
		c4.8-4.2,10.8-6.5,16.3-9.6C364,209.2,370.1,177.7,373.8,146.3z"/>
	<path id="path2272" class="st1" d="M373.8,146.3c0.6-8.3,10.3-12.1,17.5-12.1c10.8,1.7,11.9,14.1,12.5,22.9
		c1.4,31.3-5.8,62.5-2.1,93.8c1.9-0.8,5.8-2.4,7.7-3.1c8.4-29.5,18.7-58.8,20.4-89.7c9-4.3,23.8-3.8,26.1,8.2
		c3.1,19.5-1.9,39.3-2.3,58.9c-7.9,32.6-18.2,69.1-3.7,101.4c0.7,13-2.7,26-5.1,38.7c-1.9,12.7-13.1,21.5-14.9,34.2
		c-3.7,17.3-7.2,34.6-11,51.9c-13.1,9.2-29.2,15.9-45.3,11.1c-12.8-4.2-26.8-9.3-36.2-19c1.1-10.8,6.1-20.7,8.2-31.2
		c-3.3-20.1-20.8-35-21.5-55.8c-1.7-16.5-7.1-32.8-5.9-49.5c5.8-8.8,15.6-14,21.4-22.6c5.4-10.6,4.8-23.1,9.9-33.7
		c4.8-4.2,10.8-6.5,16.3-9.6C364,209.2,370.1,177.7,373.8,146.3z"/>
	<path id="path2290" class="st2" d="M377.6,180.9c1.8-13.4-7.4-34.9,9.9-41.1c14.7,6.6,10,27.1,9.1,40
		C390.3,180.3,383.9,180.6,377.6,180.9z"/>
	<path id="path2292" class="st3" d="M377.6,180.9c1.8-13.4-7.4-34.9,9.9-41.1c14.7,6.6,10,27.1,9.1,40
		C390.3,180.3,383.9,180.6,377.6,180.9z"/>
	<path id="path2302" class="st2" d="M435,161.2c4.9,0.7,9.7,1.4,14.6,2.3c0.7,9.9,0.7,19.8,0.6,29.7c-5.7-0.5-11.4-1-17.1-1.5
		C432.3,181.5,431.8,171.1,435,161.2z"/>
	<path id="path2304" class="st3" d="M435,161.2c4.9,0.7,9.7,1.4,14.6,2.3c0.7,9.9,0.7,19.8,0.6,29.7c-5.7-0.5-11.4-1-17.1-1.5
		C432.3,181.5,431.8,171.1,435,161.2z"/>
	<path id="path2322" class="st2" d="M377.4,185.7c5.8-2.4,12.1-1.7,18.2-1.5c0.6,8.9,1.6,17.9,0.1,26.8c-7.9,0.1-15.7,0.4-23.6,0.7
		C373.2,203,372.1,193.2,377.4,185.7z"/>
	<path id="path2324" class="st3" d="M377.4,185.7c5.8-2.4,12.1-1.7,18.2-1.5c0.6,8.9,1.6,17.9,0.1,26.8c-7.9,0.1-15.7,0.4-23.6,0.7
		C373.2,203,372.1,193.2,377.4,185.7z"/>
	<path id="path2342" class="st2" d="M432.1,195.8c5.1,2.1,10.2,4.3,15.2,6.5c0.2,8.6,0,17.2-0.2,25.9c-7.7-1.8-15.4-3.4-23.2-4.6
		C425.4,214,428.3,204.7,432.1,195.8z"/>
	<path id="path2344" class="st3" d="M432.1,195.8c5.1,2.1,10.2,4.3,15.2,6.5c0.2,8.6,0,17.2-0.2,25.9c-7.7-1.8-15.4-3.4-23.2-4.6
		C425.4,214,428.3,204.7,432.1,195.8z"/>
	<path id="path2366" class="st2" d="M371.8,218.3c7.7,0,15.3,0.1,23,0.3c-0.5,9.4-0.9,18.9-1.5,28.3
		C376.8,252.2,367.3,232.1,371.8,218.3z"/>
	<path id="path2368" class="st3" d="M371.8,218.3c7.7,0,15.3,0.1,23,0.3c-0.5,9.4-0.9,18.9-1.5,28.3
		C376.8,252.2,367.3,232.1,371.8,218.3z"/>
	<path id="path2378" class="st2" d="M419.5,229c8.5,1,16.7,3.4,24.9,5.5c-1.6,7.9-3.5,15.7-5.5,23.5c-7.6-3.7-15-7.7-22.8-10.9
		C417.1,241,418.2,235,419.5,229z"/>
	<path id="path2380" class="st3" d="M419.5,229c8.5,1,16.7,3.4,24.9,5.5c-1.6,7.9-3.5,15.7-5.5,23.5c-7.6-3.7-15-7.7-22.8-10.9
		C417.1,241,418.2,235,419.5,229z"/>
	<path id="path2402" class="st2" d="M354.1,258.9c1.2-7.6,9.3-15.8,17.3-11.5c5.4,3.9,10.5,9.9,11.1,16.7
		c-5,8.1-10.5,16.1-12.3,25.8C363.5,280.7,349.9,271.8,354.1,258.9z"/>
	<path id="path2404" class="st3" d="M354.1,258.9c1.2-7.6,9.3-15.8,17.3-11.5c5.4,3.9,10.5,9.9,11.1,16.7
		c-5,8.1-10.5,16.1-12.3,25.8C363.5,280.7,349.9,271.8,354.1,258.9z"/>
	<path id="path2430" class="st2" d="M386.7,256.8c13.7-0.1,29.2-5.2,41.1,4.2c6.4,3.2,8.5,9.8,9.6,16.5
		C417.8,280.9,396.8,274.8,386.7,256.8z"/>
	<path id="path2432" class="st3" d="M386.7,256.8c13.7-0.1,29.2-5.2,41.1,4.2c6.4,3.2,8.5,9.8,9.6,16.5
		C417.8,280.9,396.8,274.8,386.7,256.8z"/>
	<path id="path2478" class="st2" d="M384.2,291.9c-0.6-6.4-2.3-17.4,7.1-17.6c7.8,3,2.6,11.1,2.3,17
		C391.3,291.5,386.6,291.8,384.2,291.9z"/>
	<path id="path2480" class="st3" d="M384.2,291.9c-0.6-6.4-2.3-17.4,7.1-17.6c7.8,3,2.6,11.1,2.3,17
		C391.3,291.5,386.6,291.8,384.2,291.9z"/>
	<path id="path2494" class="st4" d="M348.8,277.8C351.2,280.1,351.2,280.1,348.8,277.8z"/>
	<path id="path2496" class="st5" d="M348.8,277.8C351.2,280.1,351.2,280.1,348.8,277.8z"/>
	<path id="path2518" class="st2" d="M396.9,299.3c3.8-5.2,7.3-10.6,11-15.8c5.4,3,10.9,5.9,16.3,8.9c-5.3,6.3-10.5,13.3-9.2,22.1
		c6.1-2.1,11.9-4.8,17.4-8c17.2,17.6,8.7,44.7,2.7,65.5c-2.4,13.7-17,19.6-29.5,19.4c-8.9-7.4-19.9-17.4-17.3-30.2
		c1.8-11.4,2.7-24.3,11.7-32.7c4.1,4.3,7.4,9.7,12.4,13c8,1.3,16.1,2.4,24.2,3.3c-7.4-7.3-20-11.1-20.5-23.1
		c-13.2-6.4-27.2-12.3-36.5-24.3C385.3,297.8,391.1,298.5,396.9,299.3z"/>
	<path id="path2520" class="st3" d="M396.9,299.3c3.8-5.2,7.3-10.6,11-15.8c5.4,3,10.9,5.9,16.3,8.9c-5.3,6.3-10.5,13.3-9.2,22.1
		c6.1-2.1,11.9-4.8,17.4-8c17.2,17.6,8.7,44.7,2.7,65.5c-2.4,13.7-17,19.6-29.5,19.4c-8.9-7.4-19.9-17.4-17.3-30.2
		c1.8-11.4,2.7-24.3,11.7-32.7c4.1,4.3,7.4,9.7,12.4,13c8,1.3,16.1,2.4,24.2,3.3c-7.4-7.3-20-11.1-20.5-23.1
		c-13.2-6.4-27.2-12.3-36.5-24.3C385.3,297.8,391.1,298.5,396.9,299.3z"/>
	<path id="path2522" class="st4" d="M429.6,285.1c5.6-1.6,7.6,0.4,6,6.1C430.1,292.6,428.1,290.5,429.6,285.1z"/>
	<path id="path2524" class="st3" d="M429.6,285.1c5.6-1.6,7.6,0.4,6,6.1C430.1,292.6,428.1,290.5,429.6,285.1z"/>
	<path id="path2530" class="st2" d="M325.3,306.7c7.8-11.7,24.7-8,31.8-21c12,15.5,21.6,35.3,17.3,55.4c-5.4-6-10.3-12.4-15.2-18.7
		c7.5-0.2,10.4-3.1,8.8-8.9c-2.2,1.2-6.7,3.7-8.9,4.9c-4.9-3.3-9.9-6.5-14.9-9.6c-4.6,1.4-9.2,2.8-13.8,4.3c5.4,4.2,12.5,4,18.9,5.5
		c-6.3,4.8-13.2,9-18.5,15c7.4-1.2,14.2-4.4,21-7.5c5.6,7.6,13,14.2,17,22.8c-0.2,5.6-0.5,11.2-0.8,16.8c3.2-5.5,5.7-11.5,9.8-16.3
		c1.9,10.6-5,24.6,4.5,32.7c4.3,4.4,8.7,8.8,13,13.3c-12.7,7.8-27.5,12.3-42.4,8.9c-12.2-20.6-23.2-42.7-25.5-66.9
		C326.5,327.2,319.3,316.3,325.3,306.7z"/>
	<path id="path2532" class="st3" d="M325.3,306.7c7.8-11.7,24.7-8,31.8-21c12,15.5,21.6,35.3,17.3,55.4c-5.4-6-10.3-12.4-15.2-18.7
		c7.5-0.2,10.4-3.1,8.8-8.9c-2.2,1.2-6.7,3.7-8.9,4.9c-4.9-3.3-9.9-6.5-14.9-9.6c-4.6,1.4-9.2,2.8-13.8,4.3c5.4,4.2,12.5,4,18.9,5.5
		c-6.3,4.8-13.2,9-18.5,15c7.4-1.2,14.2-4.4,21-7.5c5.6,7.6,13,14.2,17,22.8c-0.2,5.6-0.5,11.2-0.8,16.8c3.2-5.5,5.7-11.5,9.8-16.3
		c1.9,10.6-5,24.6,4.5,32.7c4.3,4.4,8.7,8.8,13,13.3c-12.7,7.8-27.5,12.3-42.4,8.9c-12.2-20.6-23.2-42.7-25.5-66.9
		C326.5,327.2,319.3,316.3,325.3,306.7z"/>
	<path id="path2566" class="st2" d="M379.8,310.3c5.9-1.3,9.2,8.4,6.7,12.8C381.2,324,376.6,314.5,379.8,310.3z"/>
	<path id="path2568" class="st3" d="M379.8,310.3c5.9-1.3,9.2,8.4,6.7,12.8C381.2,324,376.6,314.5,379.8,310.3z"/>
	<path id="path2602" class="st6" d="M380.7,333.9C393.9,334.7,374.6,345.8,380.7,333.9z"/>
	<path id="path2604" class="st3" d="M380.7,333.9C393.9,334.7,374.6,345.8,380.7,333.9z"/>
	<path id="path2634" class="st2" d="M401.1,406.4c2.4-0.3,7.3-0.8,9.8-1.1c-2.6,12.8-4.8,25.6-7.7,38.3c-0.2,5-5.6,6.7-9,9.3
		C395.3,437.3,397.7,421.7,401.1,406.4z"/>
	<path id="path2636" class="st3" d="M401.1,406.4c2.4-0.3,7.3-0.8,9.8-1.1c-2.6,12.8-4.8,25.6-7.7,38.3c-0.2,5-5.6,6.7-9,9.3
		C395.3,437.3,397.7,421.7,401.1,406.4z"/>
	<path id="path2638" class="st2" d="M352.2,415.1c11.6,1.8,24.5,3.3,34.5-4.3c-3.4,14.1-5.1,28.5-7.5,42.8
		c-11.9-2.2-23-7.4-34.2-11.9C347.9,433.2,345.5,421.5,352.2,415.1z"/>
	<path id="path2640" class="st3" d="M352.2,415.1c11.6,1.8,24.5,3.3,34.5-4.3c-3.4,14.1-5.1,28.5-7.5,42.8
		c-11.9-2.2-23-7.4-34.2-11.9C347.9,433.2,345.5,421.5,352.2,415.1z"/>
</g>
</svg>
