<?xml version="1.0" encoding="utf-8"?>
<!-- Generator: Adobe Illustrator 23.0.6, SVG Export Plug-In . SVG Version: 6.00 Build 0)  -->
<svg version="1.1" id="Layer_1" xmlns="http://www.w3.org/2000/svg" xmlns:xlink="http://www.w3.org/1999/xlink" x="0px" y="0px"
	 viewBox="0 0 792 612" style="enable-background:new 0 0 792 612;" xml:space="preserve">
<style type="text/css">
	.st0{fill:none;stroke:#171717;stroke-width:0.1;stroke-miterlimit:10;}
	.st1{fill:#171717;}
	.st2{fill:none;stroke:#FFFFFF;stroke-width:0.1;stroke-miterlimit:10;}
	.st3{fill:#FFFFFF;}
</style>
<g>
	<path id="path2282" class="st0" d="M395.1,124.3c7.3-1.1,16.5-6.8,22.8-0.3c10.1,19,2.6,41.4,5.5,61.9c3.2,18.5-0.2,37.1-0.5,55.7
		c18-27.6,20.8-61.4,29.6-92.4c2.2-12.5,17.2-7.3,25.8-6.4c2.7,27.1-2.4,54.2-4.9,81.1c-8,43.4-15.8,87.2-32,128.5
		c-4.8,16.8-11.3,33.1-16,50c-4.4,14-1.2,28.7-1.8,43.1c-16.3,5.9-33.2,11.4-50.7,12.3c-14-0.7-27.7-4.1-41.2-8
		c-1.6-14.9-1.7-29.8-2.3-44.7c-3.5-12.5-9.6-24.4-10.5-37.6c-2.5-26.1-8.7-53.2,0.4-78.7c3.7-15.7,16.9-27.7,15.9-44.5
		c12.9-14,6.8-33.1,6.3-50.2c-3.1-16.2-8.5-35.7,2.4-50.1c4.9-1.8,10.1-2.5,15.2-3.4c12.7,19.2,10.6,43,15.5,64.6
		c2.9,13,3.2,26.8,8.8,39.1c1.4-10.8,1.9-21.7,3.3-32.5C391.2,182.9,384.1,152.4,395.1,124.3z"/>
	<path id="path2284" class="st1" d="M395.1,124.3c7.3-1.1,16.5-6.8,22.8-0.3c10.1,19,2.6,41.4,5.5,61.9c3.2,18.5-0.2,37.1-0.5,55.7
		c18-27.6,20.8-61.4,29.6-92.4c2.2-12.5,17.2-7.3,25.8-6.4c2.7,27.1-2.4,54.2-4.9,81.1c-8,43.4-15.8,87.2-32,128.5
		c-4.8,16.8-11.3,33.1-16,50c-4.4,14-1.2,28.7-1.8,43.1c-16.3,5.9-33.2,11.4-50.7,12.3c-14-0.7-27.7-4.1-41.2-8
		c-1.6-14.9-1.7-29.8-2.3-44.7c-3.5-12.5-9.6-24.4-10.5-37.6c-2.5-26.1-8.7-53.2,0.4-78.7c3.7-15.7,16.9-27.7,15.9-44.5
		c12.9-14,6.8-33.1,6.3-50.2c-3.1-16.2-8.5-35.7,2.4-50.1c4.9-1.8,10.1-2.5,15.2-3.4c12.7,19.2,10.6,43,15.5,64.6
		c2.9,13,3.2,26.8,8.8,39.1c1.4-10.8,1.9-21.7,3.3-32.5C391.2,182.9,384.1,152.4,395.1,124.3z"/>
	<path id="path2294" class="st2" d="M397.3,127.4c5.6-1.9,13.3-6.2,17.3,0.9c6.7,10.8,2.1,24.7,2.1,36.7c-7.5,1.2-15.1,1.7-22.7,2.2
		C394.2,153.9,395.9,140.6,397.3,127.4z"/>
	<path id="path2296" class="st3" d="M397.3,127.4c5.6-1.9,13.3-6.2,17.3,0.9c6.7,10.8,2.1,24.7,2.1,36.7c-7.5,1.2-15.1,1.7-22.7,2.2
		C394.2,153.9,395.9,140.6,397.3,127.4z"/>
	<path id="path2306" class="st2" d="M464.4,143c17.3,7.3,7,28.3,7.9,42.4c-7.1-0.3-14.3-0.5-21.4-0.6
		C452.3,170.1,455,154.9,464.4,143z"/>
	<path id="path2308" class="st3" d="M464.4,143c17.3,7.3,7,28.3,7.9,42.4c-7.1-0.3-14.3-0.5-21.4-0.6
		C452.3,170.1,455,154.9,464.4,143z"/>
	<path id="path2310" class="st2" d="M345.2,147.9c6.1-1.7,14.2-3.2,16,5c3.2,10.7,4.8,22.3,4.1,33.4c-6.8,2.3-14,1.2-21,1.7
		C343.3,174.6,343.2,161.1,345.2,147.9z"/>
	<path id="path2312" class="st3" d="M345.2,147.9c6.1-1.7,14.2-3.2,16,5c3.2,10.7,4.8,22.3,4.1,33.4c-6.8,2.3-14,1.2-21,1.7
		C343.3,174.6,343.2,161.1,345.2,147.9z"/>
	<path id="path2326" class="st2" d="M394.6,173.5c6.7-1.9,14.3-5.9,21.1-1.8c4.1,9.6,2.4,20.4,3.3,30.5c-8.3,0-16.5-0.1-24.7-0.1
		C394.3,192.5,394.4,183,394.6,173.5z"/>
	<path id="path2328" class="st3" d="M394.6,173.5c6.7-1.9,14.3-5.9,21.1-1.8c4.1,9.6,2.4,20.4,3.3,30.5c-8.3,0-16.5-0.1-24.7-0.1
		C394.3,192.5,394.4,183,394.6,173.5z"/>
	<path id="path2346" class="st2" d="M348.7,225.1c-2.7-14.5-3.8-36.9,16.8-36.4c5.2,15,3.1,32,8.1,47.4c-4.1-1.9-8.1-3.7-12.2-5.5
		c1.3-2.3,3.9-7,5.2-9.3C360.6,222.6,354.6,223.9,348.7,225.1z"/>
	<path id="path2348" class="st3" d="M348.7,225.1c-2.7-14.5-3.8-36.9,16.8-36.4c5.2,15,3.1,32,8.1,47.4c-4.1-1.9-8.1-3.7-12.2-5.5
		c1.3-2.3,3.9-7,5.2-9.3C360.6,222.6,354.6,223.9,348.7,225.1z"/>
	<path id="path2350" class="st2" d="M449.4,191.9c6.3-3.5,13.9-1.5,20.8-2.3c-0.1,8.5-0.9,17-1.9,25.5c-8.5-1.3-17-2.6-25.6-3.8
		C444.4,204.8,444.2,197,449.4,191.9z"/>
	<path id="path2352" class="st3" d="M449.4,191.9c6.3-3.5,13.9-1.5,20.8-2.3c-0.1,8.5-0.9,17-1.9,25.5c-8.5-1.3-17-2.6-25.6-3.8
		C444.4,204.8,444.2,197,449.4,191.9z"/>
	<path id="path2370" class="st2" d="M394,209.5c8.4-1,16.8-1.4,25.3-0.3c-1.4,9.5-3.2,18.9-5.5,28.2c-7.8,0.4-15.7,1.1-23.5,1.7
		C390.8,229.1,392,219.2,394,209.5z"/>
	<path id="path2372" class="st3" d="M394,209.5c8.4-1,16.8-1.4,25.3-0.3c-1.4,9.5-3.2,18.9-5.5,28.2c-7.8,0.4-15.7,1.1-23.5,1.7
		C390.8,229.1,392,219.2,394,209.5z"/>
	<path id="path2386" class="st2" d="M440.7,219.3c7.8-0.1,15.6,0.5,23.3,1.4c0,10.3-2.4,20.4-4.3,30.6c-9.1-3.8-18.4-6.9-27.8-9.6
		C434.6,234.1,437.5,226.7,440.7,219.3z"/>
	<path id="path2388" class="st3" d="M440.7,219.3c7.8-0.1,15.6,0.5,23.3,1.4c0,10.3-2.4,20.4-4.3,30.6c-9.1-3.8-18.4-6.9-27.8-9.6
		C434.6,234.1,437.5,226.7,440.7,219.3z"/>
	<path id="path2406" class="st2" d="M350.5,237c1.6-0.5,4.7-1.4,6.2-1.9c14.9,1-1.6,22.7-10.9,15.8
		C337.2,247.5,345.6,239.6,350.5,237z"/>
	<path id="path2408" class="st3" d="M350.5,237c1.6-0.5,4.7-1.4,6.2-1.9c14.9,1-1.6,22.7-10.9,15.8
		C337.2,247.5,345.6,239.6,350.5,237z"/>
	<path id="path2434" class="st2" d="M370.7,243.7c4.7,2.5,9.4,5,14.2,7.5c-5.8,6.9-11.2,14.3-14.1,23c10.5-2.6,16.9-11.7,22.3-20.3
		c11.9,15.8,21.1,33.4,34.7,48c-3.1,6.6-6.3,13.1-9.3,19.8c4.3-3.5,8.5-7.2,12.8-10.7c6.4,28.3-0.3,59-14.6,84
		c-12.6,6.3-27.7,2.5-40.2-2.1c-8.3-3-10.9-13-11.3-20.8c-0.1-12-0.3-24.1,1.5-35.9c3.5-7.3,8.5-13.6,13.2-20.1
		c8.2,6.7,16.9,13.7,27.8,15c-12.8-10.4-26.2-23-26.1-40.9c-14.1-9.4-30.5-17-38.4-33C354.9,259.2,364,252.5,370.7,243.7z"/>
	<path id="path2436" class="st3" d="M370.7,243.7c4.7,2.5,9.4,5,14.2,7.5c-5.8,6.9-11.2,14.3-14.1,23c10.5-2.6,16.9-11.7,22.3-20.3
		c11.9,15.8,21.1,33.4,34.7,48c-3.1,6.6-6.3,13.1-9.3,19.8c4.3-3.5,8.5-7.2,12.8-10.7c6.4,28.3-0.3,59-14.6,84
		c-12.6,6.3-27.7,2.5-40.2-2.1c-8.3-3-10.9-13-11.3-20.8c-0.1-12-0.3-24.1,1.5-35.9c3.5-7.3,8.5-13.6,13.2-20.1
		c8.2,6.7,16.9,13.7,27.8,15c-12.8-10.4-26.2-23-26.1-40.9c-14.1-9.4-30.5-17-38.4-33C354.9,259.2,364,252.5,370.7,243.7z"/>
	<path id="path2442" class="st2" d="M396.8,247.3c20.9-0.8,43.2-0.4,60.3,13.4c-0.3,9-1.2,17.9-2.7,26.8c-2.2,0.5-6.5,1.6-8.7,2.1
		c8.4,12.7-1,29.5-6.2,41.9c-1.2-8.7,2-16.8,3.2-25.2c-2.8-4.2-6.3-7.7-9.7-11.3c0.5-4.7,1-9.3,1.5-13.9c-5-0.1-9.9-0.1-14.8-0.2
		c-9.4-8.7-4.4-19.5-0.2-29.3c-3.4,3.7-6.8,7.6-10,11.5C405.3,257.9,401,252.6,396.8,247.3z"/>
	<path id="path2444" class="st3" d="M396.8,247.3c20.9-0.8,43.2-0.4,60.3,13.4c-0.3,9-1.2,17.9-2.7,26.8c-2.2,0.5-6.5,1.6-8.7,2.1
		c8.4,12.7-1,29.5-6.2,41.9c-1.2-8.7,2-16.8,3.2-25.2c-2.8-4.2-6.3-7.7-9.7-11.3c0.5-4.7,1-9.3,1.5-13.9c-5-0.1-9.9-0.1-14.8-0.2
		c-9.4-8.7-4.4-19.5-0.2-29.3c-3.4,3.7-6.8,7.6-10,11.5C405.3,257.9,401,252.6,396.8,247.3z"/>
	<path id="path2498" class="st2" d="M336.6,262.7c6.1,5.5,12.4,12,10.9,21c8.2-1.1,15.8,2.1,23,5.6c-6.2,4.8-12.2,10-17.1,16.2
		c-7.1-10.6-15.3-20.4-25-28.8C331.1,272,333.8,267.4,336.6,262.7z"/>
	<path id="path2500" class="st3" d="M336.6,262.7c6.1,5.5,12.4,12,10.9,21c8.2-1.1,15.8,2.1,23,5.6c-6.2,4.8-12.2,10-17.1,16.2
		c-7.1-10.6-15.3-20.4-25-28.8C331.1,272,333.8,267.4,336.6,262.7z"/>
	<path id="path2550" class="st2" d="M322,304.2c2-6.7,4.2-13.3,6.6-19.8c3.4,6,7.1,11.9,10.8,17.8
		C335.1,302.6,326.4,303.6,322,304.2z"/>
	<path id="path2552" class="st3" d="M322,304.2c2-6.7,4.2-13.3,6.6-19.8c3.4,6,7.1,11.9,10.8,17.8
		C335.1,302.6,326.4,303.6,322,304.2z"/>
	<path id="path2570" class="st2" d="M363.5,301.2c9.4-6.5,12.2,14.4,2.5,13.5C361.1,312.8,361.1,304.9,363.5,301.2z"/>
	<path id="path2572" class="st3" d="M363.5,301.2c9.4-6.5,12.2,14.4,2.5,13.5C361.1,312.8,361.1,304.9,363.5,301.2z"/>
	<path id="path2582" class="st2" d="M319.4,314.3c5.9-5.1,12.2-10.6,20.5-10.6c9.2,3.7,16,11.4,23.3,17.8
		c-5.5,11.6-10,23.6-14.4,35.7c1.9-0.3,5.6-0.9,7.4-1.2c-0.1,14.2,0.9,29.6,10.7,40.8c-11.2-0.3-23.1,4-33.7-1.5
		C321.4,370,327.1,340.7,319.4,314.3z"/>
	<path id="path2584" class="st3" d="M319.4,314.3c5.9-5.1,12.2-10.6,20.5-10.6c9.2,3.7,16,11.4,23.3,17.8
		c-5.5,11.6-10,23.6-14.4,35.7c1.9-0.3,5.6-0.9,7.4-1.2c-0.1,14.2,0.9,29.6,10.7,40.8c-11.2-0.3-23.1,4-33.7-1.5
		C321.4,370,327.1,340.7,319.4,314.3z"/>
	<path id="path2646" class="st2" d="M335.9,405.5c6.9,1.2,13.9,2.5,20.8,4c-1.4,12.4-2.8,24.8-4.4,37.3c-5-0.4-9.9-0.7-14.8-1
		C336.5,432.3,335.6,418.9,335.9,405.5z"/>
	<path id="path2648" class="st3" d="M335.9,405.5c6.9,1.2,13.9,2.5,20.8,4c-1.4,12.4-2.8,24.8-4.4,37.3c-5-0.4-9.9-0.7-14.8-1
		C336.5,432.3,335.6,418.9,335.9,405.5z"/>
	<path id="path2662" class="st2" d="M371.7,406.9c11.2,2.4,22.7,3.5,34.2,3.4c1.5,10.9,3.3,22,2.5,33.1c-12.4,3.6-25,7.4-38.1,6.7
		C368.9,435.7,368.3,421,371.7,406.9z"/>
	<path id="path2664" class="st3" d="M371.7,406.9c11.2,2.4,22.7,3.5,34.2,3.4c1.5,10.9,3.3,22,2.5,33.1c-12.4,3.6-25,7.4-38.1,6.7
		C368.9,435.7,368.3,421,371.7,406.9z"/>
	<path id="path2702" class="st2" d="M358.7,445.3c1.3-8.4,2.2-16.9,5.1-24.9c0.7,10,0.4,20.1,0.3,30.1
		C362.7,449.2,360.1,446.6,358.7,445.3z"/>
	<path id="path2704" class="st3" d="M358.7,445.3c1.3-8.4,2.2-16.9,5.1-24.9c0.7,10,0.4,20.1,0.3,30.1
		C362.7,449.2,360.1,446.6,358.7,445.3z"/>
</g>
</svg>
