<?xml version="1.0" encoding="utf-8"?>
<!-- Generator: Adobe Illustrator 23.0.6, SVG Export Plug-In . SVG Version: 6.00 Build 0)  -->
<svg version="1.1" id="Layer_1" xmlns="http://www.w3.org/2000/svg" xmlns:xlink="http://www.w3.org/1999/xlink" x="0px" y="0px"
	 viewBox="0 0 792 612" style="enable-background:new 0 0 792 612;" xml:space="preserve">
<style type="text/css">
	.st0{fill:none;stroke:#171717;stroke-width:0.1;stroke-miterlimit:10;}
	.st1{fill:#171717;}
	.st2{fill:none;stroke:#FFFFFF;stroke-width:0.1;stroke-miterlimit:10;}
	.st3{fill:#FFFFFF;}
	.st4{fill:none;stroke:#C7C7C7;stroke-width:0.1;stroke-miterlimit:10;}
	.st5{fill:none;stroke:#8F8F8F;stroke-width:0.1;stroke-miterlimit:10;}
</style>
<g>
	<path id="path2330" class="st0" d="M371.9,178.4c4.9-6.1,7.8-16.9,17.3-16.4c17.3,0.7,34.6,0.8,51.9,1.9c4.8,3.8,6.6,10,9,15.4
		c11.6,30.5,23,61.1,34.9,91.5c14.2,32.4-2.6,66.9-6.1,99.7c1,14,10,26.4,9.7,40.8c-16.6,21.8-43.3,36.2-70.9,36.7
		c-11.8,0.5-21.3-7.6-30.8-13.3c-1.6-12.9-0.6-26.7-6.1-38.6c-11-9.6-21.8-20-27.8-33.6c-4.9-8.6-6.4-20.3-15.9-25.2
		c-9.4-6.7-21.3-11-27.4-21.2c-5.7-12.2-8.8-25.3-11.2-38.4c11.6-9.4,19.2-24.1,34.5-28.2c23.4-10.8,48-18,72.7-25
		c10-2.2,0.7-13-0.3-18.7c-11.8,1.7-24,5.3-35.8,2C359.3,200.3,366.5,186.7,371.9,178.4z"/>
	<path id="path2332" class="st1" d="M371.9,178.4c4.9-6.1,7.8-16.9,17.3-16.4c17.3,0.7,34.6,0.8,51.9,1.9c4.8,3.8,6.6,10,9,15.4
		c11.6,30.5,23,61.1,34.9,91.5c14.2,32.4-2.6,66.9-6.1,99.7c1,14,10,26.4,9.7,40.8c-16.6,21.8-43.3,36.2-70.9,36.7
		c-11.8,0.5-21.3-7.6-30.8-13.3c-1.6-12.9-0.6-26.7-6.1-38.6c-11-9.6-21.8-20-27.8-33.6c-4.9-8.6-6.4-20.3-15.9-25.2
		c-9.4-6.7-21.3-11-27.4-21.2c-5.7-12.2-8.8-25.3-11.2-38.4c11.6-9.4,19.2-24.1,34.5-28.2c23.4-10.8,48-18,72.7-25
		c10-2.2,0.7-13-0.3-18.7c-11.8,1.7-24,5.3-35.8,2C359.3,200.3,366.5,186.7,371.9,178.4z"/>
	<path id="path2334" class="st2" d="M379.7,171.6c15.9-9.7,35.3-2,52.9-4.1c17.9,10,17.6,33,24,50.1c10.4,26.1,22.8,52.3,26.1,80.4
		c-5.5,32.8-7.1,67.5-21.6,97.9c7.2,3.9,13.9,8.5,21.3,12.2c-14.2,17.8-36.3,28.8-59.2,28.5c-2.6-7.9-5.3-15.7-7.6-23.7
		c9.1,1.4,18.6,4.6,27.6,0.8c5.4-4.4,9-10.5,13.3-15.9c-13.8,1.6-28.2,7.3-41.7,1c-13-7.3-19.6-21.6-24-35.2
		c4.2-4.4,8.3-8.7,12.4-13.2c9.9,5,20.5,6.7,31.3,3.8c-6.2-3.4-12.6-6.5-18.4-10.5c-12.8-7.5-16.8-22.9-24.8-34.5
		c3.7-9,4-18.7,6.8-27.9c14.2,2.1,25.2,12,37.3,18.8c14.3,7.7,23.2,21.8,35.8,31.5c-2.3-8.7-6.5-16.9-7-26
		c-12.7-5-25.5-10.5-36-19.5c12.8-8.6,28.1-12.5,40.5-21.6c-18.9,0.8-33.9,13.7-51.8,18.2c3-6.3,6.6-12.2,10-18.2
		c-6.6,3.4-13,7.2-19.5,10.7c1.6-11.3,4.2-22.4,6.7-33.6c15.5,0.3,31.5-1.8,45.2-9.4c-9.3-0.9-18.5,1.3-27.5,3.5
		c3.7-12.9,8.9-25.4,10.5-38.8c-9.1,11.6-10.6,27-17.7,39.7c-4.2-9.9-8.7-19.6-12.9-29.5c12.5-4.3,28.5-8.9,31.7-23.8
		c-9.3,7.1-18.7,15.3-31.2,14.7c3-6.8,6.2-13.4,8.9-20.2c-9,9-16.2,21.1-29.1,24.7c-7.9,1.5-18.7,3-23.8-4.9
		c7.3-3.1,17.1-3,21.4-10.7C387.2,181.4,382.9,176.8,379.7,171.6z"/>
	<path id="path2336" class="st3" d="M379.7,171.6c15.9-9.7,35.3-2,52.9-4.1c17.9,10,17.6,33,24,50.1c10.4,26.1,22.8,52.3,26.1,80.4
		c-5.5,32.8-7.1,67.5-21.6,97.9c7.2,3.9,13.9,8.5,21.3,12.2c-14.2,17.8-36.3,28.8-59.2,28.5c-2.6-7.9-5.3-15.7-7.6-23.7
		c9.1,1.4,18.6,4.6,27.6,0.8c5.4-4.4,9-10.5,13.3-15.9c-13.8,1.6-28.2,7.3-41.7,1c-13-7.3-19.6-21.6-24-35.2
		c4.2-4.4,8.3-8.7,12.4-13.2c9.9,5,20.5,6.7,31.3,3.8c-6.2-3.4-12.6-6.5-18.4-10.5c-12.8-7.5-16.8-22.9-24.8-34.5
		c3.7-9,4-18.7,6.8-27.9c14.2,2.1,25.2,12,37.3,18.8c14.3,7.7,23.2,21.8,35.8,31.5c-2.3-8.7-6.5-16.9-7-26
		c-12.7-5-25.5-10.5-36-19.5c12.8-8.6,28.1-12.5,40.5-21.6c-18.9,0.8-33.9,13.7-51.8,18.2c3-6.3,6.6-12.2,10-18.2
		c-6.6,3.4-13,7.2-19.5,10.7c1.6-11.3,4.2-22.4,6.7-33.6c15.5,0.3,31.5-1.8,45.2-9.4c-9.3-0.9-18.5,1.3-27.5,3.5
		c3.7-12.9,8.9-25.4,10.5-38.8c-9.1,11.6-10.6,27-17.7,39.7c-4.2-9.9-8.7-19.6-12.9-29.5c12.5-4.3,28.5-8.9,31.7-23.8
		c-9.3,7.1-18.7,15.3-31.2,14.7c3-6.8,6.2-13.4,8.9-20.2c-9,9-16.2,21.1-29.1,24.7c-7.9,1.5-18.7,3-23.8-4.9
		c7.3-3.1,17.1-3,21.4-10.7C387.2,181.4,382.9,176.8,379.7,171.6z"/>
	<path id="path2354" class="st4" d="M373.7,187.6C386.2,181.2,374.6,200.9,373.7,187.6z"/>
	<path id="path2356" class="st3" d="M373.7,187.6C386.2,181.2,374.6,200.9,373.7,187.6z"/>
	<path id="path2410" class="st2" d="M369.3,241.1c13.6-3.9,26.9-8.9,40.7-12.2c-0.4,16.1-4.2,32.3-12.9,46
		c-4.1-4.9-8.1-9.8-12.2-14.6c3.3,17.2,3.8,35.1-3.3,51.4c13.1,7,19.6,23.5,15.2,37.6c-7.1,2.6-14.7,5.2-21.9,1.1
		c4.8-2.7,9.7-5.3,14.7-7.9c-7.7-6.7-22.7-0.9-26.8-11.2c3.5-3.1,7.1-6.2,10.7-9.2c-6.7-0.4-13.3-0.7-19.9-1.3
		c-7.1-23.6-3.4-48.3-2.1-72.5c9,0.1,18.1,1.1,27.1,2.1C375.5,247.3,372.4,244.2,369.3,241.1z"/>
	<path id="path2412" class="st3" d="M369.3,241.1c13.6-3.9,26.9-8.9,40.7-12.2c-0.4,16.1-4.2,32.3-12.9,46
		c-4.1-4.9-8.1-9.8-12.2-14.6c3.3,17.2,3.8,35.1-3.3,51.4c13.1,7,19.6,23.5,15.2,37.6c-7.1,2.6-14.7,5.2-21.9,1.1
		c4.8-2.7,9.7-5.3,14.7-7.9c-7.7-6.7-22.7-0.9-26.8-11.2c3.5-3.1,7.1-6.2,10.7-9.2c-6.7-0.4-13.3-0.7-19.9-1.3
		c-7.1-23.6-3.4-48.3-2.1-72.5c9,0.1,18.1,1.1,27.1,2.1C375.5,247.3,372.4,244.2,369.3,241.1z"/>
	<path id="path2502" class="st2" d="M320,262.3c7.2-4.4,14.7-8.7,23.2-10.1c-0.3,24.2,0.3,48.6,4.9,72.5c-4.8-1.1-9.4-2.6-13.8-4.5
		C325.2,302.2,321.5,282.1,320,262.3z"/>
	<path id="path2504" class="st3" d="M320,262.3c7.2-4.4,14.7-8.7,23.2-10.1c-0.3,24.2,0.3,48.6,4.9,72.5c-4.8-1.1-9.4-2.6-13.8-4.5
		C325.2,302.2,321.5,282.1,320,262.3z"/>
	<path id="path2538" class="st2" d="M304.2,284.2c-2.1-6.7,5.3-8.6,9.4-11.6c3.8,17.3,9.6,34.2,14.4,51.2
		C313.7,316.4,308.5,298.7,304.2,284.2z"/>
	<path id="path2540" class="st3" d="M304.2,284.2c-2.1-6.7,5.3-8.6,9.4-11.6c3.8,17.3,9.6,34.2,14.4,51.2
		C313.7,316.4,308.5,298.7,304.2,284.2z"/>
	<path id="path2618" class="st5" d="M349.6,330.7c3.8-3.6,12,1.6,9.5,6.6C355.2,340.6,346.9,335.6,349.6,330.7z"/>
	<path id="path2620" class="st3" d="M349.6,330.7c3.8-3.6,12,1.6,9.5,6.6C355.2,340.6,346.9,335.6,349.6,330.7z"/>
	<path id="path2622" class="st0" d="M444.9,352c4.8-8.4,11-15.9,18-22.5C460,338.8,456.9,351.7,444.9,352z"/>
	<path id="path2624" class="st1" d="M444.9,352c4.8-8.4,11-15.9,18-22.5C460,338.8,456.9,351.7,444.9,352z"/>
	<path id="path2630" class="st2" d="M352,344.9c10.2,5.9,17.9,15.4,30,17.9c-2.5,14.9,11.1,21.5,17,33
		C372.7,393.4,361.6,365.6,352,344.9z"/>
	<path id="path2632" class="st3" d="M352,344.9c10.2,5.9,17.9,15.4,30,17.9c-2.5,14.9,11.1,21.5,17,33
		C372.7,393.4,361.6,365.6,352,344.9z"/>
	<path id="path2686" class="st2" d="M393.6,408.2c2.4,0.3,7.2,1,9.6,1.4c1,9,1.9,18,2.6,27.1c-2.2-1.2-6.7-3.7-9-4.9
		C395.8,423.9,394.6,416.1,393.6,408.2z"/>
	<path id="path2688" class="st3" d="M393.6,408.2c2.4,0.3,7.2,1,9.6,1.4c1,9,1.9,18,2.6,27.1c-2.2-1.2-6.7-3.7-9-4.9
		C395.8,423.9,394.6,416.1,393.6,408.2z"/>
</g>
</svg>
