<?xml version="1.0" encoding="utf-8"?>
<!-- Generator: Adobe Illustrator 23.0.6, SVG Export Plug-In . SVG Version: 6.00 Build 0)  -->
<svg version="1.1" id="Layer_1" xmlns="http://www.w3.org/2000/svg" xmlns:xlink="http://www.w3.org/1999/xlink" x="0px" y="0px"
	 viewBox="0 0 792 612" style="enable-background:new 0 0 792 612;" xml:space="preserve">
<style type="text/css">
	.st0{fill:none;stroke:#181818;stroke-width:0.1;stroke-miterlimit:10;}
	.st1{fill:#181818;}
	.st2{fill:none;stroke:#FFFFFF;stroke-width:0.1;stroke-miterlimit:10;}
	.st3{fill:#FFFFFF;}
	.st4{fill:none;stroke:#908F8F;stroke-width:0.1;stroke-miterlimit:10;}
	.st5{fill:#908F8F;}
	.st6{fill:none;stroke:#C8C7C6;stroke-width:0.1;stroke-miterlimit:10;}
	.st7{fill:#C8C7C6;}
</style>
<g>
	<path id="path2382" class="st0" d="M228.8,165.6c6.1-1.5,12.2-3,18.4-4.4c18.5,23.1,39.5,43.9,59.5,65.6c4.4-4.8,8.8-9.6,13.3-14.2
		c7.4-0.3,14.8-0.3,22.2-0.3c10-15,28.6-20.2,45.6-15c8.2-12.6,23.3-17.9,37.9-14.6c24.2,15.8,35,44.5,44.7,70.5
		c16.1-16.6,28.2-37.2,46.9-51.1c13.5-10.2,31.3-9.8,46.9-5.1c0.3,5.9,5.6,12.9,1.4,18.4c-8.8,6-20.6,9.2-24.9,20
		c-11.6,25.5-26.4,49.4-34.9,76.2c-13.8,24.2-32.1,45.7-51.6,65.5c-14.9,11.9,3.4,34.7-10.8,46.8c-14.5,14-31.4,28.6-53,26.6
		c0.4-5.6,1.1-16.9,1.5-22.5c-3.7,7-4.4,14.4-2.4,22.3c-18.8-1.7-37.4-6-54.1-15.1c-4-15.3-2.9-32.6-12.3-46
		c-25.6-37.5-29.2-84.1-44-125.9C259.7,232.6,216.3,207.3,228.8,165.6z"/>
	<path id="path2384" class="st1" d="M228.8,165.6c6.1-1.5,12.2-3,18.4-4.4c18.5,23.1,39.5,43.9,59.5,65.6c4.4-4.8,8.8-9.6,13.3-14.2
		c7.4-0.3,14.8-0.3,22.2-0.3c10-15,28.6-20.2,45.6-15c8.2-12.6,23.3-17.9,37.9-14.6c24.2,15.8,35,44.5,44.7,70.5
		c16.1-16.6,28.2-37.2,46.9-51.1c13.5-10.2,31.3-9.8,46.9-5.1c0.3,5.9,5.6,12.9,1.4,18.4c-8.8,6-20.6,9.2-24.9,20
		c-11.6,25.5-26.4,49.4-34.9,76.2c-13.8,24.2-32.1,45.7-51.6,65.5c-14.9,11.9,3.4,34.7-10.8,46.8c-14.5,14-31.4,28.6-53,26.6
		c0.4-5.6,1.1-16.9,1.5-22.5c-3.7,7-4.4,14.4-2.4,22.3c-18.8-1.7-37.4-6-54.1-15.1c-4-15.3-2.9-32.6-12.3-46
		c-25.6-37.5-29.2-84.1-44-125.9C259.7,232.6,216.3,207.3,228.8,165.6z"/>
	<path id="path2390" class="st2" d="M233.4,170c20.6-5.7,29,18.3,35.3,33.2c-5.7,4-11.3,8.1-16.9,12.2
		C238.6,204.1,228.7,187.9,233.4,170z"/>
	<path id="path2392" class="st3" d="M233.4,170c20.6-5.7,29,18.3,35.3,33.2c-5.7,4-11.3,8.1-16.9,12.2
		C238.6,204.1,228.7,187.9,233.4,170z"/>
	<path id="path2414" class="st2" d="M396,193.6c14-9,33.4-5.7,40.8,10.1c-1.7,27.1-0.7,54.6-6.4,81.4c-8.4-11.5-27.4-5.3-31.5-20.2
		c7.6-3.6,15.3-7.1,22.9-10.9c-8.2,0.1-16.3,0.3-24.4,0.4C397.1,234.1,394.8,213.9,396,193.6z"/>
	<path id="path2416" class="st3" d="M396,193.6c14-9,33.4-5.7,40.8,10.1c-1.7,27.1-0.7,54.6-6.4,81.4c-8.4-11.5-27.4-5.3-31.5-20.2
		c7.6-3.6,15.3-7.1,22.9-10.9c-8.2,0.1-16.3,0.3-24.4,0.4C397.1,234.1,394.8,213.9,396,193.6z"/>
	<path id="path2446" class="st2" d="M256,218.7c5.9-5.7,11.9-11.3,18.5-16.2c1.5,2.6,4.6,7.7,6.1,10.2c-5.5,7.2-11.4,14.1-17.9,20.4
		C260.4,228.4,258.2,223.5,256,218.7z"/>
	<path id="path2448" class="st3" d="M256,218.7c5.9-5.7,11.9-11.3,18.5-16.2c1.5,2.6,4.6,7.7,6.1,10.2c-5.5,7.2-11.4,14.1-17.9,20.4
		C260.4,228.4,258.2,223.5,256,218.7z"/>
	<path id="path2450" class="st2" d="M351.3,214.5c5-13.4,23.7-15.8,36-12.4c0.6,24,0.5,48.1,5.4,71.7c-7.9,2.9-16.7,4.7-21.9,11.9
		c9-0.9,17.8-2.9,26.6-5c1.6,3.9,3.3,7.9,5,11.9c-8.2,1-16.2,2.7-24.1,5C357.8,275.2,353.9,243.5,351.3,214.5z"/>
	<path id="path2452" class="st3" d="M351.3,214.5c5-13.4,23.7-15.8,36-12.4c0.6,24,0.5,48.1,5.4,71.7c-7.9,2.9-16.7,4.7-21.9,11.9
		c9-0.9,17.8-2.9,26.6-5c1.6,3.9,3.3,7.9,5,11.9c-8.2,1-16.2,2.7-24.1,5C357.8,275.2,353.9,243.5,351.3,214.5z"/>
	<path id="path2454" class="st2" d="M497.5,232.5c14.3-19.9,36.2-36.4,62.3-30.8c-2,6.9-8,11.1-12.8,16c-13,11.7-18.6,29-30.1,42
		c-8.1,18.4-12.9,38.2-21.2,56.4c-13.8,18.2-27.6,37-45.1,51.9c-15.5,13.2-37.2,8.1-55.7,7.5c-4.4-7.1-8.8-14.1-12.4-21.6
		c-6.5-9.6,0.7-20.6,5.2-29.2c12.7-12.3,30.2-18,44.8-27.7c6.3-6.3,12.6-12.8,20.8-16.7c1.8,6.9,3.5,13.9,5.5,20.9
		c1.6-10,2.8-20,4.7-29.9c7.1,10.8,13.5,22.4,23.9,30.6c-6.1-11.5-12.1-23-16.8-35c5.8-8.3,11.9-16.4,18.6-24
		c5.6,4.3,11.4,8.5,17.8,11.9C504.3,247,500.8,239.8,497.5,232.5z"/>
	<path id="path2456" class="st3" d="M497.5,232.5c14.3-19.9,36.2-36.4,62.3-30.8c-2,6.9-8,11.1-12.8,16c-13,11.7-18.6,29-30.1,42
		c-8.1,18.4-12.9,38.2-21.2,56.4c-13.8,18.2-27.6,37-45.1,51.9c-15.5,13.2-37.2,8.1-55.7,7.5c-4.4-7.1-8.8-14.1-12.4-21.6
		c-6.5-9.6,0.7-20.6,5.2-29.2c12.7-12.3,30.2-18,44.8-27.7c6.3-6.3,12.6-12.8,20.8-16.7c1.8,6.9,3.5,13.9,5.5,20.9
		c1.6-10,2.8-20,4.7-29.9c7.1,10.8,13.5,22.4,23.9,30.6c-6.1-11.5-12.1-23-16.8-35c5.8-8.3,11.9-16.4,18.6-24
		c5.6,4.3,11.4,8.5,17.8,11.9C504.3,247,500.8,239.8,497.5,232.5z"/>
	<path id="path2470" class="st4" d="M441.3,213.6"/>
	<path id="path2472" class="st5" d="M441.3,213.6"/>
	<path id="path2482" class="st2" d="M269.9,240.9c4.8-8.5,10.3-16.7,15.9-24.7c5.4,6.7,10.6,13.7,15.8,20.7
		c-5.3,5.9-10.7,11.8-16,17.7C280.3,249.9,275.1,245.4,269.9,240.9z"/>
	<path id="path2484" class="st3" d="M269.9,240.9c4.8-8.5,10.3-16.7,15.9-24.7c5.4,6.7,10.6,13.7,15.8,20.7
		c-5.3,5.9-10.7,11.8-16,17.7C280.3,249.9,275.1,245.4,269.9,240.9z"/>
	<path id="path2486" class="st2" d="M313.6,237.3c-2.9-16.9,15.6-21.7,28.6-18.5c6.3,21.8,10.7,44.1,17.7,65.8
		c-7.5,3.6-15,7.2-22.3,11.2c9.7,0.8,19.1-2,28.3-4.8c-3.6,6-7.1,12-10.5,18.2C324.5,300.3,321.2,263.4,313.6,237.3z"/>
	<path id="path2488" class="st3" d="M313.6,237.3c-2.9-16.9,15.6-21.7,28.6-18.5c6.3,21.8,10.7,44.1,17.7,65.8
		c-7.5,3.6-15,7.2-22.3,11.2c9.7,0.8,19.1-2,28.3-4.8c-3.6,6-7.1,12-10.5,18.2C324.5,300.3,321.2,263.4,313.6,237.3z"/>
	<path id="path2526" class="st6" d="M452.2,233.6c9,3.8-3.2,18.7-10.2,16.3C440,243.4,446.1,235.6,452.2,233.6z"/>
	<path id="path2528" class="st7" d="M452.2,233.6c9,3.8-3.2,18.7-10.2,16.3C440,243.4,446.1,235.6,452.2,233.6z"/>
	<path id="path2554" class="st2" d="M286.7,260.5c6.4-5.1,13.1-9.8,20.3-13.6c1.4,11.2,3.9,22.3,7.2,33.2
		c-7.2-0.4-15.9,5.3-21.9-0.2C290.2,273.4,288.3,266.9,286.7,260.5z"/>
	<path id="path2556" class="st3" d="M286.7,260.5c6.4-5.1,13.1-9.8,20.3-13.6c1.4,11.2,3.9,22.3,7.2,33.2
		c-7.2-0.4-15.9,5.3-21.9-0.2C290.2,273.4,288.3,266.9,286.7,260.5z"/>
	<path id="path2558" class="st2" d="M440.3,266.2c4.7-8.5,12.3-14.4,19.9-20.1c0.5,6.8,0.9,13.7,1.1,20.7
		C454.2,266.8,447.2,266.7,440.3,266.2z"/>
	<path id="path2560" class="st3" d="M440.3,266.2c4.7-8.5,12.3-14.4,19.9-20.1c0.5,6.8,0.9,13.7,1.1,20.7
		C454.2,266.8,447.2,266.7,440.3,266.2z"/>
	<path id="path2594" class="st2" d="M294.8,290.2c7.9-3.9,18.4-7.4,26.1-1.2c9,10.6,17.6,22.3,31,27.6c9.7,5.5,20.7-0.6,30.8-1.4
		c-5.1,12.1-10.9,24.4-10.5,37.8c1.7,9.6,7,18,10.4,27.1c-15.4,4-30.1,17-46.7,11.2c-10.6-6.3-15.5-18.8-19.6-29.9
		C309,337.8,301.5,314.1,294.8,290.2z"/>
	<path id="path2596" class="st3" d="M294.8,290.2c7.9-3.9,18.4-7.4,26.1-1.2c9,10.6,17.6,22.3,31,27.6c9.7,5.5,20.7-0.6,30.8-1.4
		c-5.1,12.1-10.9,24.4-10.5,37.8c1.7,9.6,7,18,10.4,27.1c-15.4,4-30.1,17-46.7,11.2c-10.6-6.3-15.5-18.8-19.6-29.9
		C309,337.8,301.5,314.1,294.8,290.2z"/>
	<path id="path2598" class="st2" d="M409.1,287.2c4.1-4.7,15.5-5,16.1,2.9C424.1,300.2,403.8,297.5,409.1,287.2z"/>
	<path id="path2600" class="st3" d="M409.1,287.2c4.1-4.7,15.5-5,16.1,2.9C424.1,300.2,403.8,297.5,409.1,287.2z"/>
	<path id="path2606" class="st6" d="M388.8,302.4c3.6-5.9,17.8-2.4,11.4,5.1C396.6,313.3,382.5,309.8,388.8,302.4z"/>
	<path id="path2608" class="st7" d="M388.8,302.4c3.6-5.9,17.8-2.4,11.4,5.1C396.6,313.3,382.5,309.8,388.8,302.4z"/>
	<path id="path2610" class="st2" d="M364.1,305.4"/>
	<path id="path2612" class="st3" d="M364.1,305.4"/>
	<path id="path2650" class="st2" d="M390.8,386.8c9.5,4.8,19.8,7.1,30.5,6.5c1.3,8.4,2.7,16.8,4.1,25.3c3.8,14.7-15,21.5-26.7,21.9
		C393.2,423.1,392,404.9,390.8,386.8z"/>
	<path id="path2652" class="st3" d="M390.8,386.8c9.5,4.8,19.8,7.1,30.5,6.5c1.3,8.4,2.7,16.8,4.1,25.3c3.8,14.7-15,21.5-26.7,21.9
		C393.2,423.1,392,404.9,390.8,386.8z"/>
	<path id="path2654" class="st4" d="M421.3,393.3c4.4-1.8,8.9-3.5,13.4-5.2c-1.9,10.4,3.6,26.1-9.3,30.5
		C424.1,410.1,422.6,401.7,421.3,393.3z"/>
	<path id="path2656" class="st5" d="M421.3,393.3c4.4-1.8,8.9-3.5,13.4-5.2c-1.9,10.4,3.6,26.1-9.3,30.5
		C424.1,410.1,422.6,401.7,421.3,393.3z"/>
	<path id="path2666" class="st2" d="M338.1,408.2c11.4-3.2,24.1-4.5,33.2-12.8c3.3,14.6,5.1,29.5,5.8,44.5c-11.3-3-22.5-6-33.7-9.2
		C341.6,423.3,339.8,415.7,338.1,408.2z"/>
	<path id="path2668" class="st3" d="M338.1,408.2c11.4-3.2,24.1-4.5,33.2-12.8c3.3,14.6,5.1,29.5,5.8,44.5c-11.3-3-22.5-6-33.7-9.2
		C341.6,423.3,339.8,415.7,338.1,408.2z"/>
</g>
</svg>
