<?xml version="1.0" encoding="utf-8"?>
<!-- Generator: Adobe Illustrator 23.0.6, SVG Export Plug-In . SVG Version: 6.00 Build 0)  -->
<svg version="1.1" id="Layer_1" xmlns="http://www.w3.org/2000/svg" xmlns:xlink="http://www.w3.org/1999/xlink" x="0px" y="0px"
	 viewBox="0 0 792 612" style="enable-background:new 0 0 792 612;" xml:space="preserve">
<style type="text/css">
	.st0{fill:none;stroke:#171717;stroke-width:0.1;stroke-miterlimit:10;}
	.st1{fill:#171717;}
	.st2{fill:none;stroke:#FFFFFF;stroke-width:0.1;stroke-miterlimit:10;}
	.st3{fill:#FFFFFF;}
	.st4{fill:none;stroke:#8F8F8F;stroke-width:0.1;stroke-miterlimit:10;}
	.st5{fill:#8F8F8F;}
</style>
<g>
	<path id="path2262" class="st0" d="M300.9,156.8c26.9,2.3,53.4,7.6,80.5,8.8c-15.9,14-36.5,22.1-51.7,36.8c6.5,1.2,13.1,2,19.8,2.7
		c0.9-1.4,2.7-4.1,3.6-5.5c7,2.8,14.2,5.5,20.5,9.7c-7.2,2.3-14.5,4.3-21.8,6.2c-0.5-1.2-1.6-3.6-2.2-4.8
		c-18.2-0.6-36.5-1.1-54.7-1.3c21.6-13.8,47.1-21.9,66-39.8c-21.2-0.8-42.5-0.7-63.6-1.8C298.5,164.2,299.7,160.5,300.9,156.8z"/>
	<path id="path2264" class="st1" d="M300.9,156.8c26.9,2.3,53.4,7.6,80.5,8.8c-15.9,14-36.5,22.1-51.7,36.8c6.5,1.2,13.1,2,19.8,2.7
		c0.9-1.4,2.7-4.1,3.6-5.5c7,2.8,14.2,5.5,20.5,9.7c-7.2,2.3-14.5,4.3-21.8,6.2c-0.5-1.2-1.6-3.6-2.2-4.8
		c-18.2-0.6-36.5-1.1-54.7-1.3c21.6-13.8,47.1-21.9,66-39.8c-21.2-0.8-42.5-0.7-63.6-1.8C298.5,164.2,299.7,160.5,300.9,156.8z"/>
	<path id="path2274" class="st0" d="M376.6,211.7c3.1-6.6,13.7-8.5,19.2-3.7c8.4,6.5,13.7,16.1,20.8,24
		c12.4,13.3,17.7,31.1,25.1,47.4c4.5,11.7,11.8,22.8,12.1,35.8c1.5,17.8,7.3,35.9,2.7,53.7c-2.4,8.9,1.2,17.7,2.4,26.5
		c-7.9,5.7-14.1,15.1-24.3,16.5c-11.1,2.2-22.6,1-33.5-1.6c-1.7-6.7-2.8-13.6-4.9-20.1c-4.2-5-9.7-8.8-13.7-14
		c-9.4-10.9-14.5-24.9-25.2-34.6c-7.8-6.9-4-18.1-4.2-27.1l2.8,0.1c0.5,4.4-1.4,10.9,4.9,11.7c-1.8,3-3.6,6-5.3,9
		c6.1,5,11.5,10.9,18.3,15.1c5.4,0.9,10.9-0.4,16.3-1c-11.3-7.4-21.5-16.1-30.1-26.5c0.6-5.1,1.3-10.1,2.3-15.1
		c-2.7,1.2-5.5,2.4-8.2,3.7c1.7-5.8,7.7-7.4,12.5-9.9c3.7-3,6.1-7.1,9.4-10.4c3.7-4.6,11.1-3,14.6-7.9c4.2-5.2,9.3-9.5,15.5-12.2
		c-4.4-11.1-11-21.2-16.8-31.6C384.3,230.5,376.2,222.4,376.6,211.7z"/>
	<path id="path2276" class="st1" d="M376.6,211.7c3.1-6.6,13.7-8.5,19.2-3.7c8.4,6.5,13.7,16.1,20.8,24
		c12.4,13.3,17.7,31.1,25.1,47.4c4.5,11.7,11.8,22.8,12.1,35.8c1.5,17.8,7.3,35.9,2.7,53.7c-2.4,8.9,1.2,17.7,2.4,26.5
		c-7.9,5.7-14.1,15.1-24.3,16.5c-11.1,2.2-22.6,1-33.5-1.6c-1.7-6.7-2.8-13.6-4.9-20.1c-4.2-5-9.7-8.8-13.7-14
		c-9.4-10.9-14.5-24.9-25.2-34.6c-7.8-6.9-4-18.1-4.2-27.1l2.8,0.1c0.5,4.4-1.4,10.9,4.9,11.7c-1.8,3-3.6,6-5.3,9
		c6.1,5,11.5,10.9,18.3,15.1c5.4,0.9,10.9-0.4,16.3-1c-11.3-7.4-21.5-16.1-30.1-26.5c0.6-5.1,1.3-10.1,2.3-15.1
		c-2.7,1.2-5.5,2.4-8.2,3.7c1.7-5.8,7.7-7.4,12.5-9.9c3.7-3,6.1-7.1,9.4-10.4c3.7-4.6,11.1-3,14.6-7.9c4.2-5.2,9.3-9.5,15.5-12.2
		c-4.4-11.1-11-21.2-16.8-31.6C384.3,230.5,376.2,222.4,376.6,211.7z"/>
	<path id="path2286" class="st2" d="M380.2,211c3.5-1.3,7.8-4.7,11.4-1.7c7.9,6.8,14.7,15,20.4,23.8c-6.1,1.9-12.2,3.5-18.4,5
		C387.3,230.1,379.9,221.7,380.2,211z"/>
	<path id="path2288" class="st3" d="M380.2,211c3.5-1.3,7.8-4.7,11.4-1.7c7.9,6.8,14.7,15,20.4,23.8c-6.1,1.9-12.2,3.5-18.4,5
		C387.3,230.1,379.9,221.7,380.2,211z"/>
	<path id="path2314" class="st2" d="M395.7,241.5c6.2-2.8,12.7-5,19.4-6.3c3.2,4,6.3,8.1,8.9,12.6c-6.5,3.9-13.4,7-20.8,8.5
		C400,251.7,397.4,246.8,395.7,241.5z"/>
	<path id="path2316" class="st3" d="M395.7,241.5c6.2-2.8,12.7-5,19.4-6.3c3.2,4,6.3,8.1,8.9,12.6c-6.5,3.9-13.4,7-20.8,8.5
		C400,251.7,397.4,246.8,395.7,241.5z"/>
	<path id="path2358" class="st2" d="M406.6,261c6.7-2.7,13.1-6.1,19.4-9.6c4.1,8.7,9.3,17.1,10.9,26.8c-8.3,0.4-16.7,0.1-24.9,1.6
		C410.8,273.3,408.6,267.1,406.6,261z"/>
	<path id="path2360" class="st3" d="M406.6,261c6.7-2.7,13.1-6.1,19.4-9.6c4.1,8.7,9.3,17.1,10.9,26.8c-8.3,0.4-16.7,0.1-24.9,1.6
		C410.8,273.3,408.6,267.1,406.6,261z"/>
	<path id="path2398" class="st2" d="M391.7,288.2c2.8-4.9,6.1-9.6,10.8-12.8c1.3,0.8,3.9,2.5,5.3,3.3c0.1,6.8,2.8,14.8-3,20.1
		c2.4,4.3,4.3,8.8,6,13.4c-9-1.9-18.3-2.3-27.5-2.3c0.3-4-1.7-9.1,2.2-11.9c4.7-3.9,10.9-5.5,15.9-9.2
		C399,288.7,394.1,288.4,391.7,288.2z"/>
	<path id="path2400" class="st3" d="M391.7,288.2c2.8-4.9,6.1-9.6,10.8-12.8c1.3,0.8,3.9,2.5,5.3,3.3c0.1,6.8,2.8,14.8-3,20.1
		c2.4,4.3,4.3,8.8,6,13.4c-9-1.9-18.3-2.3-27.5-2.3c0.3-4-1.7-9.1,2.2-11.9c4.7-3.9,10.9-5.5,15.9-9.2
		C399,288.7,394.1,288.4,391.7,288.2z"/>
	<path id="path2418" class="st2" d="M412.3,285.4c9.2-2.7,18.8-3.5,28.1-5.8c0.5,2.2,1.4,6.6,1.9,8.8c-10.5,6-17.8,15.7-27.3,23
		c1-4.7,2.5-9.3,3.8-13.9c-1.4,0.7-4.2,2.1-5.7,2.9C412.9,295.3,412.6,290.4,412.3,285.4z"/>
	<path id="path2420" class="st3" d="M412.3,285.4c9.2-2.7,18.8-3.5,28.1-5.8c0.5,2.2,1.4,6.6,1.9,8.8c-10.5,6-17.8,15.7-27.3,23
		c1-4.7,2.5-9.3,3.8-13.9c-1.4,0.7-4.2,2.1-5.7,2.9C412.9,295.3,412.6,290.4,412.3,285.4z"/>
	<path id="path2490" class="st2" d="M418.4,316.4c7.1-8.8,14.2-18,24.4-23.3c6.9,10.3,7.2,23.1,9.7,34.9c-1.4,0.5-4.3,1.6-5.7,2.1
		c2.7,6.3,3.9,13.5,1.7,20.1c-2.7,3.5-6.1,6.6-8.5,10.4c4.7-1.4,9.2-3.5,13.7-5.5c0.1,8.1-0.6,18-8.4,22.6c-9.1,3.4-21,4.4-27.8-3.9
		c-7.4-5.2-14.5-16.8-6.8-24.4c8.6,1.7,14.3,9.2,21.2,14c0.7-8.4-5.5-16.9-14.1-17.5c-9.1-0.5-18-2.7-26.5-5.8
		c3.5-5.3,7.4-10.7,8.7-17c-2.8-4.3-7.9-9.8-13.5-7c-4.6,3.7-5.9,9.8-8.5,14.9c0.2-5.3,1-10.6,1.4-15.8c-4.7,3.8-4.4,10.2-5.6,15.6
		c-5.1-4.3-12.6-11.6-6.3-18.1c6.5-5.2,3.4-15.2,11.2-19.7c-0.5,7.8,0.6,15.5,1.1,23.3c13.8-7.1,28.3,1.6,41.2,6.6
		c8,3.3,16.8,4.1,25.1,6.3c0.4-3.6,1-7,1.9-10.5c-3.1,1.8-6.2,3.5-9.5,4.9c0.8-6.3,2.4-12.4,4.4-18.4c-4.8,4.9-8.9,10.7-14.9,14.2
		C424.8,318.7,421.6,317.7,418.4,316.4z"/>
	<path id="path2492" class="st3" d="M418.4,316.4c7.1-8.8,14.2-18,24.4-23.3c6.9,10.3,7.2,23.1,9.7,34.9c-1.4,0.5-4.3,1.6-5.7,2.1
		c2.7,6.3,3.9,13.5,1.7,20.1c-2.7,3.5-6.1,6.6-8.5,10.4c4.7-1.4,9.2-3.5,13.7-5.5c0.1,8.1-0.6,18-8.4,22.6c-9.1,3.4-21,4.4-27.8-3.9
		c-7.4-5.2-14.5-16.8-6.8-24.4c8.6,1.7,14.3,9.2,21.2,14c0.7-8.4-5.5-16.9-14.1-17.5c-9.1-0.5-18-2.7-26.5-5.8
		c3.5-5.3,7.4-10.7,8.7-17c-2.8-4.3-7.9-9.8-13.5-7c-4.6,3.7-5.9,9.8-8.5,14.9c0.2-5.3,1-10.6,1.4-15.8c-4.7,3.8-4.4,10.2-5.6,15.6
		c-5.1-4.3-12.6-11.6-6.3-18.1c6.5-5.2,3.4-15.2,11.2-19.7c-0.5,7.8,0.6,15.5,1.1,23.3c13.8-7.1,28.3,1.6,41.2,6.6
		c8,3.3,16.8,4.1,25.1,6.3c0.4-3.6,1-7,1.9-10.5c-3.1,1.8-6.2,3.5-9.5,4.9c0.8-6.3,2.4-12.4,4.4-18.4c-4.8,4.9-8.9,10.7-14.9,14.2
		C424.8,318.7,421.6,317.7,418.4,316.4z"/>
	<path id="path2574" class="st2" d="M387.9,317.8c1.6,0.7,4.8,2.2,6.3,2.9c-1.1,4.4-2.1,8.9-3.1,13.4c-2.6,0.3-5.2,0.6-7.7,0.8
		C382.4,328.8,384.8,323,387.9,317.8z"/>
	<path id="path2576" class="st3" d="M387.9,317.8c1.6,0.7,4.8,2.2,6.3,2.9c-1.1,4.4-2.1,8.9-3.1,13.4c-2.6,0.3-5.2,0.6-7.7,0.8
		C382.4,328.8,384.8,323,387.9,317.8z"/>
	<path id="path2586" class="st0" d="M415.7,323.3c2.1,1.2,4.2,2.5,6.4,3.8c-0.2,3.9-0.3,7.8-0.3,11.7c-2.6,1.7-5.2,3.4-7.8,5
		C418,337.5,417.2,330.3,415.7,323.3z"/>
	<path id="path2588" class="st1" d="M415.7,323.3c2.1,1.2,4.2,2.5,6.4,3.8c-0.2,3.9-0.3,7.8-0.3,11.7c-2.6,1.7-5.2,3.4-7.8,5
		C418,337.5,417.2,330.3,415.7,323.3z"/>
	<path id="path2626" class="st2" d="M390.2,355.6c4.3-2.5,7.5-6.7,12.3-8.3c0.5,5.8,0.2,11.8,1.3,17.5c1.9,7.3,8.4,11.8,13.8,16.5
		c-6.8,4.5-16.9,6.7-23.3,0.3c-8.1-7.5-13.1-17.6-20.1-26C379.5,355.7,384.9,356.4,390.2,355.6z"/>
	<path id="path2628" class="st3" d="M390.2,355.6c4.3-2.5,7.5-6.7,12.3-8.3c0.5,5.8,0.2,11.8,1.3,17.5c1.9,7.3,8.4,11.8,13.8,16.5
		c-6.8,4.5-16.9,6.7-23.3,0.3c-8.1-7.5-13.1-17.6-20.1-26C379.5,355.7,384.9,356.4,390.2,355.6z"/>
	<path id="path2670" class="st4" d="M418.6,383.8C420,385.2,420,385.2,418.6,383.8z"/>
	<path id="path2672" class="st5" d="M418.6,383.8C420,385.2,420,385.2,418.6,383.8z"/>
	<path id="path2678" class="st2" d="M428.4,388.8c5.5-1.1,10.9-2.2,16.4-3.3c1.4,4.1,3,8.2,4.7,12.3c-5.3,4.5-11,9-17.9,10.6
		C430.5,401.8,429.4,395.3,428.4,388.8z"/>
	<path id="path2680" class="st3" d="M428.4,388.8c5.5-1.1,10.9-2.2,16.4-3.3c1.4,4.1,3,8.2,4.7,12.3c-5.3,4.5-11,9-17.9,10.6
		C430.5,401.8,429.4,395.3,428.4,388.8z"/>
	<path id="path2690" class="st2" d="M423.5,387.7c2.7,6.9,3.8,14.3,4.4,21.6C423,403.4,423.6,395,423.5,387.7z"/>
	<path id="path2692" class="st3" d="M423.5,387.7c2.7,6.9,3.8,14.3,4.4,21.6C423,403.4,423.6,395,423.5,387.7z"/>
	<path id="path2706" class="st2" d="M402,393.8c4.9-1.3,9.8-3.1,14.6-4.9c2.9,6.3,4.2,13.1,4.3,20c-5.4-0.1-11.2,0.5-15.8-2.7
		C402.8,402.5,402.8,397.9,402,393.8z"/>
	<path id="path2708" class="st3" d="M402,393.8c4.9-1.3,9.8-3.1,14.6-4.9c2.9,6.3,4.2,13.1,4.3,20c-5.4-0.1-11.2,0.5-15.8-2.7
		C402.8,402.5,402.8,397.9,402,393.8z"/>
</g>
</svg>
